<svg width="18" height="21" viewBox="0 0 18 21" fill="none" xmlns="http://www.w3.org/2000/svg">
<path fill-rule="evenodd" clip-rule="evenodd" d="M7.71452 1.31235C7.71452 0.964296 7.84995 0.630494 8.09102 0.38438C8.3321 0.138266 8.65907 8.1661e-07 9 7.86805e-07C9.34093 7.57e-07 9.6679 0.138266 9.90897 0.38438C10.15 0.630494 10.2855 0.964296 10.2855 1.31235L10.2855 16.5173L15.8028 10.882C16.0442 10.6356 16.3715 10.4972 16.7129 10.4972C17.0543 10.4972 17.3816 10.6356 17.623 10.882C17.8644 11.1285 18 11.4627 18 11.8112C18 12.1597 17.8644 12.4939 17.623 12.7403L9.91012 20.6144C9.79071 20.7367 9.64886 20.8336 9.49268 20.8998C9.33651 20.9659 9.16909 21 9 21C8.83092 21 8.66349 20.9659 8.50732 20.8998C8.35114 20.8336 8.20929 20.7367 8.08988 20.6144L0.376983 12.7403C0.135604 12.4939 -8.44316e-07 12.1597 -8.74783e-07 11.8112C-9.05249e-07 11.4627 0.135604 11.1285 0.376983 10.882C0.618363 10.6356 0.945743 10.4972 1.2871 10.4972C1.62847 10.4972 1.95585 10.6356 2.19723 10.882L7.71452 16.5173L7.71452 1.31235Z" fill="#1C4F5F"/>
</svg>
