<svg width="21" height="21" viewBox="0 0 21 21" fill="none" xmlns="http://www.w3.org/2000/svg">
<g clip-path="url(#clip0)">
<path d="M20.5005 4.12021C20.3666 4.40297 20.1173 4.76013 19.7527 5.19168C19.3881 5.62323 18.938 6.00271 18.4022 6.33011C18.4171 6.44918 18.4283 6.56077 18.4357 6.66494C18.4935 8.26879 18.1093 9.93283 17.5763 11.3191C16.5431 13.8967 14.96 15.9711 12.6989 17.3796C10.3409 18.7322 7.59477 19.0198 5.06464 18.7748C3.38494 18.5819 1.72941 18.0334 0.477417 17.0002C2.76727 17.2739 4.90427 16.4949 6.59372 15.2367C4.71702 15.2842 3.35347 13.9266 2.70966 12.3571C2.99988 12.4332 3.30347 12.424 3.58023 12.4018C3.92089 12.3698 4.24426 12.3378 4.56241 12.2679C3.36575 11.8818 2.31867 11.172 1.77213 10.1026C1.45154 9.42496 1.30679 8.77968 1.30337 8.04892C1.8641 8.34415 2.53859 8.63188 3.15612 8.60697C2.22351 7.81694 1.47585 6.80727 1.33686 5.64926C1.24911 4.68371 1.49072 3.80233 1.83912 2.98175C3.23418 4.51493 4.79945 5.77667 6.60491 6.55331C7.83964 7.05893 9.07086 7.32933 10.3439 7.33458C10.197 6.19752 10.3112 5.09784 10.8462 4.16481C11.4757 3.16169 12.3943 2.57969 13.4244 2.28973C14.8984 1.91177 16.336 2.44566 17.2415 3.47282C18.218 3.36734 19.1534 2.93414 19.8979 2.49063C19.5815 3.44857 18.9656 4.40104 18.0674 4.85679C18.9225 4.69848 19.7385 4.44534 20.5005 4.12021Z" fill="currentColor"/>
</g>
<defs>
<clipPath id="clip0">
<rect width="20.0231" height="20.0231" fill="white" transform="translate(0.477417 0.499451)"/>
</clipPath>
</defs>
</svg>
