<svg width="24" height="14" viewBox="0 0 24 14" fill="none" xmlns="http://www.w3.org/2000/svg">
<path fill-rule="evenodd" clip-rule="evenodd" d="M12.1668 13.6437H13.562C13.562 13.6437 13.9806 13.574 14.1899 13.3647C14.3991 13.1554 14.3991 12.7368 14.3991 12.7368C14.3991 12.7368 14.3991 10.923 15.2363 10.6439C16.0734 10.3649 17.1896 12.4578 18.3058 13.2251C19.143 13.853 19.7708 13.7135 19.7708 13.7135L22.8404 13.6437C22.8404 13.6437 24.4449 13.574 23.6775 12.2485C23.6077 12.1787 23.2589 11.3416 21.3754 9.59752C19.422 7.7837 19.7011 8.13251 22.0032 4.99322C23.3985 3.10964 23.9566 1.99345 23.817 1.43535C23.6775 0.947015 22.6311 1.08654 22.6311 1.08654H19.143C19.143 1.08654 18.8639 1.01678 18.7244 1.1563C18.5151 1.29583 18.4453 1.50511 18.4453 1.50511C18.4453 1.50511 17.8873 2.97012 17.1896 4.22583C15.6549 6.80703 15.027 6.94656 14.8177 6.80703C14.2596 6.45822 14.3991 5.27226 14.3991 4.50488C14.3991 1.99345 14.8177 0.947014 13.6318 0.667966C13.283 0.598204 13.0039 0.528442 12.0272 0.528442C10.7715 0.528442 9.72508 0.528442 9.16699 0.807491C8.74841 1.01678 8.46937 1.43535 8.67865 1.43535C8.88794 1.43535 9.44604 1.57487 9.72508 1.92368C10.0041 2.55154 10.0041 3.59798 10.0041 3.59798C10.0041 3.59798 10.2134 6.59775 9.5158 6.94656C9.02746 7.2256 8.3996 6.66751 7.00436 4.2956C6.30674 3.10964 5.74864 1.7144 5.74864 1.7144C5.74864 1.7144 5.67888 1.43535 5.4696 1.29583C5.26031 1.1563 4.9115 1.08654 4.9115 1.08654H1.63268C1.63268 1.08654 1.14434 1.08654 0.935058 1.29583C0.795533 1.50511 0.935058 1.85392 0.935058 1.85392C0.935058 1.85392 3.51626 7.85346 6.44626 10.923C9.16699 13.853 12.1668 13.6437 12.1668 13.6437Z" fill="currentColor"/>
</svg>
