<svg width="14" height="24" viewBox="0 0 14 24" fill="none" xmlns="http://www.w3.org/2000/svg">
<path d="M7.18994 0.255493C3.947 0.255493 1.3089 2.98402 1.3089 6.33833C1.3089 9.69238 3.947 12.4197 7.18994 12.4197C10.4328 12.4197 13.0696 9.69238 13.0696 6.33833C13.0696 2.98402 10.4328 0.255493 7.18994 0.255493ZM7.18994 3.81947C8.5321 3.81947 9.62353 4.94997 9.62353 6.33833C9.62353 7.7261 8.53213 8.85573 7.18994 8.85573C5.8475 8.85573 4.75493 7.72612 4.75493 6.33833C4.75493 4.94997 5.8475 3.81947 7.18994 3.81947ZM2.3413 12.6266C1.75945 12.6173 1.18728 12.9139 0.855366 13.4611C0.348132 14.2946 0.591121 15.3945 1.39507 15.9188C2.45847 16.6089 3.6124 17.0986 4.80907 17.3808L1.52252 20.782C0.849715 21.4783 0.850285 22.606 1.52322 23.3023C1.86051 23.6498 2.30042 23.8238 2.74145 23.8238C3.18201 23.8238 3.6234 23.6496 3.95967 23.3016L7.18855 19.9601L10.4203 23.3016C11.0925 23.9977 12.1826 23.9977 12.856 23.3016C13.5291 22.6057 13.5291 21.4768 12.856 20.782L9.56801 17.3816C10.765 17.0993 11.9193 16.6094 12.982 15.9188C13.7875 15.3946 14.0309 14.2934 13.5238 13.4611C13.0162 12.6274 11.9533 12.3762 11.1472 12.9014C8.73959 14.4679 5.63741 14.4669 3.23057 12.9014C2.95352 12.7209 2.64607 12.6316 2.3413 12.6267V12.6266Z" fill="currentColor"/>
</svg>
