<svg viewBox="0 0 21 17" fill="none" xmlns="http://www.w3.org/2000/svg">
<path d="M20.5005 2.12021C20.3666 2.40297 20.1173 2.76013 19.7527 3.19168C19.3881 3.62323 18.938 4.00271 18.4022 4.33011C18.4171 4.44918 18.4283 4.56077 18.4357 4.66494C18.4935 6.26879 18.1093 7.93283 17.5763 9.31914C16.5431 11.8967 14.96 13.9711 12.6989 15.3796C10.3409 16.7322 7.59477 17.0198 5.06464 16.7748C3.38494 16.5819 1.72941 16.0334 0.477417 15.0002C2.76727 15.2739 4.90427 14.4949 6.59372 13.2367C4.71702 13.2842 3.35347 11.9266 2.70966 10.3571C2.99988 10.4332 3.30347 10.424 3.58023 10.4018C3.92089 10.3698 4.24426 10.3378 4.56241 10.2679C3.36575 9.88176 2.31867 9.172 1.77213 8.10257C1.45154 7.42496 1.30679 6.77968 1.30337 6.04892C1.8641 6.34415 2.53859 6.63188 3.15612 6.60697C2.22351 5.81694 1.47585 4.80727 1.33686 3.64926C1.24911 2.68371 1.49072 1.80233 1.83912 0.981749C3.23418 2.51493 4.79945 3.77667 6.60491 4.55331C7.83964 5.05893 9.07086 5.32933 10.3439 5.33458C10.197 4.19752 10.3112 3.09784 10.8462 2.16481C11.4757 1.16169 12.3943 0.579686 13.4244 0.289735C14.8984 -0.0882341 16.336 0.445665 17.2415 1.47282C18.218 1.36734 19.1534 0.934144 19.8979 0.490633C19.5815 1.44857 18.9656 2.40104 18.0674 2.85679C18.9225 2.69848 19.7385 2.44534 20.5005 2.12021Z" fill="currentColor"/>
</svg>
