<svg width="339" height="285" viewBox="0 0 339 285" fill="none" xmlns="http://www.w3.org/2000/svg">
<path d="M20.9817 40.2197L84.2928 51.1178L143.981 159.832L215.759 168.84C215.759 168.84 230.08 187.621 222.071 199.531C214.061 211.459 214.366 218.979 210.305 214.78C206.243 210.581 206.453 181.723 184.103 182.487C161.753 183.25 66.3292 168.401 55.8028 140.364C47.5647 118.358 24.7575 68.0853 15.3562 47.5487C13.6018 43.7315 16.8436 39.5135 20.9817 40.2197Z" fill="#D0F294"/>
<path d="M141.444 155.213L84.2927 51.1179L71.3826 48.8085C81.8899 73.6203 89.6703 173.23 133.835 156.072C135.952 155.251 138.66 155.614 141.444 155.213Z" fill="url(#paint0_linear)"/>
<path d="M210.495 270.836L180.556 211.097L164.518 215.181L198.291 270.836H210.495Z" fill="black"/>
<path d="M178.363 284.005L146.231 206.707L130.193 211.65L166.635 284.005H178.363Z" fill="black"/>
<path d="M64.1934 270.836L100.635 210.811L84.5787 206.707L52.4656 270.836H64.1934Z" fill="black"/>
<path d="M32.5378 284.005L66.31 216.937L50.2534 211.994L20.3333 284.005H32.5378Z" fill="black"/>
<path d="M23.537 40.6587C23.4797 40.6205 23.4607 40.6014 23.4607 40.6014C23.4607 40.6014 23.0793 40.5442 22.4309 40.4678L23.537 40.6587Z" fill="#A467D3"/>
<path d="M216.559 178.154L195.888 193.671C209.313 199.741 209.713 220.812 213.127 224.343C217.189 228.542 216.884 221.022 224.893 209.093C232.902 197.164 218.581 178.403 218.581 178.403L216.559 178.154Z" fill="#D0F294"/>
<path d="M205.079 38.9791C205.289 39.7426 205.423 40.4869 205.556 41.2313C205.671 41.9757 205.785 42.7391 205.88 43.4835C205.976 44.2469 206.033 44.9912 206.09 45.7547C206.128 46.1364 206.128 46.5181 206.166 46.8999L206.224 48.045C206.338 51.0797 206.205 54.1144 205.938 57.13C205.69 60.1456 205.194 63.1421 204.66 66.1195L204.183 68.3335L203.954 69.4404C203.878 69.8031 203.764 70.1657 203.687 70.5474C203.306 72.0171 202.963 73.4867 202.524 74.9372L202.372 75.4907L202.2 76.0251L201.857 77.113C201.742 77.4757 201.609 77.8192 201.494 78.1819C201.361 78.5445 201.246 78.9071 201.113 79.2507C200.598 80.663 200.026 82.0754 199.397 83.4496C198.767 84.8238 198.081 86.1789 197.337 87.4767C196.593 88.7937 195.793 90.0724 194.953 91.3321C194.114 92.5918 193.256 93.8133 192.436 95.0921C191.635 96.3517 190.873 97.6687 190.32 99.062C189.767 100.455 189.423 101.944 189.271 103.433C189.118 104.94 189.156 106.448 189.271 107.956C189.137 106.448 189.08 104.94 189.214 103.433C189.347 101.925 189.69 100.436 190.224 99.0238C190.758 97.6114 191.502 96.2754 192.303 94.9966C193.104 93.7179 193.962 92.4773 194.782 91.2176C195.602 89.9579 196.384 88.6792 197.127 87.3622C197.852 86.0453 198.52 84.6902 199.13 83.316C199.74 81.9418 200.293 80.5485 200.789 79.1171C200.922 78.7735 201.037 78.4109 201.151 78.0482C201.266 77.6856 201.399 77.3421 201.494 76.9794L201.819 75.8915L201.99 75.3571L202.143 74.8227C202.562 73.3722 202.886 71.9025 203.249 70.452C203.344 70.0894 203.439 69.7267 203.516 69.345L203.745 68.238L204.183 66.0241C204.698 63.0657 205.156 60.0883 205.366 57.0918C205.594 54.0953 205.69 51.0797 205.537 48.0832L205.461 46.9571C205.442 46.5754 205.423 46.2128 205.385 45.831C205.308 45.0867 205.251 44.3423 205.137 43.598C205.041 42.8536 204.927 42.1093 204.793 41.384C204.717 41.0214 204.66 40.6587 204.565 40.2961C204.488 39.9335 204.393 39.5708 204.298 39.2273L205.079 38.9791Z" fill="#1F4F5E"/>
<path d="M209.427 34.6466C209.637 35.41 209.771 36.1544 209.904 36.8988C210.018 37.6431 210.133 38.4066 210.228 39.1509C210.324 39.9143 210.381 40.6587 210.438 41.4221C210.476 41.8039 210.476 42.1856 210.514 42.5673L210.572 43.7125C210.686 46.7471 210.552 49.7818 210.285 52.7974C210.038 55.813 209.542 58.8095 209.008 61.7869L208.531 64.0009L208.302 65.1079C208.226 65.4705 208.112 65.8332 208.035 66.2149C207.654 67.6845 207.311 69.1541 206.872 70.6047L206.719 71.1582L206.548 71.6926L206.205 72.7805C206.09 73.1431 205.957 73.4867 205.842 73.8493C205.709 74.2119 205.594 74.5746 205.461 74.9181C204.946 76.3305 204.374 77.7428 203.745 79.117C203.115 80.4912 202.429 81.8463 201.685 83.1442C200.941 84.4611 200.14 85.7399 199.301 86.9996C198.462 88.2592 197.604 89.4807 196.784 90.7595C195.983 92.0192 195.221 93.3361 194.667 94.7294C194.114 96.1227 193.771 97.6114 193.619 99.1001C193.466 100.608 193.504 102.116 193.619 103.623C193.485 102.116 193.428 100.608 193.561 99.1001C193.695 97.5923 194.038 96.1036 194.572 94.6912C195.106 93.2789 195.85 91.9428 196.651 90.6641C197.452 89.3853 198.31 88.1447 199.13 86.885C199.95 85.6254 200.732 84.3466 201.475 83.0297C202.2 81.7127 202.867 80.3576 203.478 78.9834C204.088 77.6092 204.641 76.216 205.137 74.7845C205.27 74.441 205.385 74.0783 205.499 73.7157C205.613 73.3531 205.747 73.0095 205.842 72.6469L206.166 71.559L206.338 71.0246L206.491 70.4902C206.91 69.0396 207.234 67.57 207.597 66.1195C207.692 65.7568 207.787 65.3942 207.864 65.0125L208.092 63.9055L208.531 61.6915C209.046 58.7332 209.504 55.7557 209.713 52.7592C209.942 49.7627 210.038 46.7471 209.885 43.7506L209.809 42.6246C209.79 42.2428 209.771 41.8802 209.732 41.4985C209.656 40.7541 209.599 40.0098 209.485 39.2654C209.389 38.5211 209.275 37.7767 209.141 37.0514C209.065 36.6888 209.008 36.3262 208.912 35.9635C208.836 35.6009 208.741 35.2383 208.645 34.8947L209.427 34.6466Z" fill="#1F4F5E"/>
<path d="M209.847 25.8479C210.514 27.6611 211.01 29.4743 211.468 31.3065C211.925 33.1388 212.307 34.9901 212.65 36.8606C213.317 40.5823 213.775 44.3423 214.099 48.1022L214.309 50.927L214.443 53.7517L214.5 55.1641L214.519 56.5764L214.557 59.4011C214.557 60.3364 214.538 61.2907 214.519 62.2259L214.5 63.6382L214.481 64.3444C214.481 64.5735 214.462 64.8216 214.443 65.0506L214.309 67.8753L214.233 69.2877C214.214 69.7649 214.176 70.2229 214.137 70.7001C213.851 74.46 213.432 78.22 212.707 81.9226C212.345 83.774 211.944 85.6253 211.449 87.4385C210.953 89.2517 210.4 91.0648 209.771 92.8398C209.16 94.6148 208.512 96.3898 207.902 98.1839C207.768 98.642 207.616 99.081 207.482 99.539L207.292 100.207L207.12 100.894L207.025 101.238L206.948 101.581L206.796 102.268L206.662 102.955L206.605 103.299L206.548 103.643C206.281 105.494 206.224 107.402 206.376 109.273C206.51 111.143 206.834 113.014 207.234 114.846C206.815 113.014 206.491 111.143 206.338 109.273C206.166 107.402 206.205 105.494 206.472 103.623L206.51 103.28L206.567 102.936L206.681 102.23L206.834 101.543L206.91 101.2L207.005 100.856L207.177 100.169L207.368 99.4818C207.501 99.0237 207.635 98.5847 207.787 98.1267C208.359 96.3326 209.008 94.5576 209.599 92.7635C210.19 90.9694 210.743 89.1753 211.22 87.3622C211.697 85.549 212.097 83.6976 212.421 81.8463C213.089 78.1436 213.508 74.4028 213.737 70.6428C213.756 70.1657 213.813 69.7076 213.813 69.2304L213.871 67.8181L213.985 64.9934C213.985 64.7643 214.004 64.5162 214.004 64.2872V63.581L214.023 62.1686C214.023 61.2334 214.042 60.2791 214.042 59.3439L213.985 56.5192L213.947 55.1068L213.871 53.6944L213.718 50.8697L213.489 48.0641C213.146 44.3232 212.65 40.5823 211.944 36.8987C211.582 35.0474 211.201 33.2151 210.724 31.402C210.495 30.4858 210.247 29.5888 209.98 28.6917C209.713 27.7947 209.427 26.8977 209.103 26.0388L209.847 25.8479Z" fill="#1F4F5E"/>
<path d="M141.101 78.6972C141.101 78.6972 130.746 108.051 131.681 110.628C132.71 113.472 159.827 132.577 159.827 132.577L157.367 141.643L107.863 122.614L121.364 71.6353C121.364 71.6544 136.715 66.3294 141.101 78.6972Z" fill="#FAED00"/>
<path d="M172.947 126.259L179.278 128.951C179.278 128.951 196.021 128.493 201.857 136.471C207.692 144.448 199.931 142.731 199.931 142.731C199.931 142.731 193.981 136.814 189.881 139.467C185.781 142.12 172.07 135.211 172.07 135.211C172.07 135.211 169.267 133.913 169.324 133.054C169.381 132.195 172.947 126.259 172.947 126.259Z" fill="#EFAF9F"/>
<path d="M213.623 163.744C216.483 165.958 314.958 254.689 314.958 254.689L306.339 258.965C306.339 258.965 265.854 243.887 243.753 217.433C243.352 216.956 242.856 216.536 242.303 216.231L180.022 184.968L213.623 163.744Z" fill="url(#paint1_linear)"/>
<path d="M314.615 254.842C315.721 254.518 346.004 264.08 337.479 265.53C328.955 266.981 311.793 266.007 309.752 263.679C307.731 261.35 306.377 258.945 306.377 258.945L314.615 254.842Z" fill="#F7BFB1"/>
<path d="M209.256 147.216C209.256 147.216 258.951 110.075 259.161 110.857C259.371 111.64 217.646 144.239 215.358 146.701C213.051 149.182 208.302 150.728 207.234 149.812C206.166 148.896 154.736 135.535 154.736 135.535L157.348 132.176L209.256 147.216Z" fill="url(#paint2_linear)"/>
<path d="M176.38 150.079C177.6 149.812 238.013 144.83 238.013 144.83C238.013 144.83 247.433 141.605 252.334 150.709C257.235 159.832 282.769 239.573 282.769 239.573L274.188 245.91C274.188 245.91 228.916 195.141 237.784 172.524C237.784 172.524 205.003 195.045 179.965 191.209C159.56 188.06 118.523 177.868 128.858 158.725C139.194 139.581 176.38 150.079 176.38 150.079Z" fill="url(#paint3_linear)"/>
<path d="M282.788 239.573C283.837 239.077 314.119 244.631 305.919 247.398C297.719 250.166 280.614 251.922 278.249 249.937C275.885 247.952 274.169 245.795 274.169 245.795L282.788 239.573Z" fill="#F7BFB1"/>
<path d="M208.951 38.9601C208.951 38.9601 199.263 77.094 189.118 84.7665C164.099 103.719 177.276 118.95 173.882 122.003C170.487 125.057 164.347 112.995 160.037 94.7867C155.727 76.5595 141.482 66.6348 150.54 58.6568C159.599 50.698 208.951 38.9601 208.951 38.9601Z" fill="#1F4F5E"/>
<path d="M169.515 55.9848C169.515 55.9848 158.397 53.8281 152.219 63.0466C146.04 72.2842 152.829 33.8068 154.717 31.631C156.624 29.4552 173.348 32.5281 174.091 33.1197C174.854 33.7114 177.028 42.9299 177.028 42.9299C177.028 42.9299 174.854 47.5488 174.511 48.5031C174.187 49.4574 169.515 55.9848 169.515 55.9848Z" fill="#EFAF9F"/>
<path d="M155.098 58.5805C155.289 59.8211 150.54 66.005 157.749 76.3305C164.976 86.6369 173.1 93.1834 168.523 100.608C163.965 108.032 161.238 109.178 161.467 113.835C161.696 118.492 168.981 141.261 173.233 145.193C177.486 149.125 186.143 146.3 182.444 152.388C178.782 158.458 124.949 187.621 121.44 173.058C117.931 158.515 122.718 46.2318 131.528 46.3845C140.338 46.5563 152.428 40.8305 155.098 58.5805Z" fill="url(#paint4_linear)"/>
<path d="M147.165 67.9708C152.543 73.3531 155.804 75.6816 157.73 76.3114C150.521 66.005 155.27 59.8211 155.079 58.5805C154.793 56.7101 154.335 54.9733 153.725 53.3509C147.165 53.0647 133.092 53.9044 147.165 67.9708Z" fill="#F7BFB1"/>
<path d="M158.359 122.08L165.51 125.114C165.51 125.114 184.427 124.599 191.025 133.608C197.623 142.616 188.851 140.688 188.851 140.688C188.851 140.688 182.139 134.008 177.486 137.005C172.852 140.001 157.367 132.195 157.367 132.195C157.367 132.195 154.202 130.745 154.259 129.771C154.316 128.798 158.359 122.08 158.359 122.08Z" fill="#F7BFB1"/>
<path d="M203.63 39.857C203.63 39.857 198.214 45.5065 196.651 48.8275C195.087 52.1294 192.017 60.5272 190.491 60.1455C188.966 59.7638 185.8 58.3323 185.018 59.3439C184.236 60.3554 175.236 67.9898 172.146 65.1842C169.057 62.3595 162.383 51.8622 164.48 47.606C166.578 43.3498 168.599 33.0624 168.599 33.0624L169.114 20.4847C169.114 20.4847 177.276 21.7635 177.619 21.8398C177.962 21.9162 182.768 22.7941 182.768 22.7941C182.768 22.7941 191.044 24.1683 192.074 24.1493C193.104 24.1302 205.613 29.2261 205.613 29.2261L205.938 34.5702L203.63 39.857Z" fill="#F7BFB1"/>
<path d="M141.101 69.2304C141.101 69.2304 130.746 98.5847 131.681 101.161C132.71 104.005 159.827 123.11 159.827 123.11L157.367 132.176L107.863 113.147L121.364 62.1686C121.364 62.1877 136.715 56.8627 141.101 69.2304Z" fill="#FAED00"/>
<path d="M210.991 30.1232C210.991 30.1232 203.687 -4.88056 176.246 0.578043C148.805 6.03664 150.693 30.524 140.948 32.07C131.204 33.6159 125.788 48.1404 116.883 50.9651C107.977 53.7899 106.928 81.2547 121.23 81.4264C135.533 81.5982 153.553 82.209 153.267 61.4434C152.981 40.6396 168.561 33.7877 168.561 33.7877C168.561 33.7877 168.752 21.1909 175.274 29.5506C181.795 37.8912 195.983 22.2979 200.77 30.5049C205.556 38.7119 201.132 42.3192 202.009 41.7084C202.867 41.0977 210.514 44.6095 210.991 30.1232Z" fill="#1F4F5E"/>
<path d="M168.962 30.3713C168.733 30.6385 168.485 30.9248 168.256 31.2111C168.027 31.4974 167.798 31.8028 167.589 32.1082C167.15 32.7189 166.73 33.3297 166.33 33.9595C165.91 34.5703 165.529 35.2192 165.148 35.8681C164.957 36.1926 164.766 36.517 164.595 36.8415L164.042 37.8149C162.611 40.4487 161.372 43.1971 160.285 46.0028C159.16 48.7893 158.283 51.6713 157.463 54.5724L156.91 56.7673L156.624 57.8552C156.528 58.2178 156.471 58.5996 156.376 58.9622C156.071 60.4318 155.727 61.9014 155.479 63.3901L155.384 63.9436L155.289 64.4971L155.117 65.6041C155.06 65.9668 155.022 66.3485 154.965 66.7302C154.926 67.1119 154.869 67.4746 154.831 67.8563C154.679 69.345 154.564 70.8528 154.507 72.3606C154.469 73.8684 154.469 75.3762 154.564 76.8649C154.64 78.3727 154.793 79.8614 154.984 81.3692C155.174 82.8579 155.403 84.3466 155.575 85.8544C155.727 87.3622 155.842 88.87 155.708 90.3778C155.575 91.8856 155.232 93.3743 154.698 94.7866C154.164 96.199 153.458 97.535 152.676 98.8329C153.439 97.535 154.126 96.1799 154.64 94.7676C155.174 93.3552 155.479 91.8665 155.594 90.3778C155.708 88.87 155.594 87.3622 155.422 85.8735C155.232 84.3848 154.984 82.8961 154.793 81.3883C154.583 79.8995 154.412 78.3918 154.316 76.884C154.221 75.3762 154.183 73.8684 154.221 72.3415C154.259 70.8337 154.354 69.3259 154.507 67.8181C154.545 67.4364 154.583 67.0737 154.64 66.692C154.679 66.3103 154.717 65.9477 154.774 65.5659L154.926 64.4399L155.003 63.8864L155.098 63.3329C155.327 61.8442 155.67 60.3555 155.956 58.8858C156.032 58.5232 156.109 58.1415 156.185 57.7789L156.452 56.6719L156.986 54.477C157.787 51.5568 158.645 48.6557 159.732 45.831C160.8 43.0063 162.02 40.2197 163.431 37.5286L163.984 36.5361C164.175 36.2116 164.347 35.8681 164.537 35.5436C164.919 34.8947 165.3 34.2267 165.72 33.5969C166.12 32.9479 166.559 32.3181 166.997 31.7074C167.455 31.0966 167.894 30.4858 168.409 29.8751L168.962 30.3713Z" fill="#1F4F5E"/>
<path d="M168.161 26.9931C167.932 27.2603 167.684 27.5466 167.455 27.8329C167.226 28.1191 166.997 28.4245 166.788 28.7299C166.349 29.3406 165.93 29.9514 165.529 30.5812C165.11 31.192 164.728 31.8409 164.347 32.4898C164.156 32.8143 163.965 33.1388 163.794 33.4632L163.241 34.4366C161.811 37.0705 160.571 39.8189 159.484 42.6245C158.359 45.4111 157.482 48.2931 156.662 51.1941L156.109 53.389L155.823 54.4769C155.727 54.8396 155.67 55.2213 155.575 55.5839C155.27 57.0535 154.926 58.5232 154.679 60.0119L154.583 60.5654L154.488 61.1189L154.316 62.2258C154.259 62.5885 154.221 62.9702 154.164 63.3519C154.126 63.7336 154.068 64.0963 154.03 64.478C153.878 65.9667 153.763 67.4745 153.706 68.9823C153.668 70.4901 153.668 71.9979 153.763 73.4866C153.839 74.9944 153.992 76.4831 154.183 77.9909C154.373 79.4796 154.602 80.9683 154.774 82.4761C154.926 83.9839 155.041 85.4917 154.907 86.9995C154.774 88.5073 154.431 89.996 153.897 91.4084C153.363 92.8207 152.657 94.1568 151.875 95.4546C152.638 94.1568 153.325 92.8016 153.839 91.3893C154.373 89.9769 154.679 88.4882 154.793 86.9995C154.907 85.4917 154.793 83.9839 154.621 82.4952C154.431 81.0065 154.183 79.5178 153.992 78.01C153.782 76.5213 153.611 75.0135 153.515 73.5057C153.42 71.9979 153.382 70.4901 153.42 68.9632C153.458 67.4554 153.553 65.9476 153.706 64.4398C153.744 64.0581 153.782 63.6955 153.839 63.3138C153.878 62.932 153.916 62.5694 153.973 62.1877L154.126 61.0616L154.202 60.5081L154.297 59.9546C154.526 58.4659 154.869 56.9772 155.155 55.5076C155.232 55.1449 155.308 54.7632 155.384 54.4006L155.651 53.2936L156.185 51.0987C156.986 48.1785 157.844 45.2775 158.931 42.4527C159.999 39.628 161.219 36.8415 162.631 34.1503L163.184 33.1579C163.374 32.8334 163.546 32.4898 163.737 32.1654C164.118 31.5165 164.499 30.8484 164.919 30.2186C165.319 29.5697 165.758 28.9398 166.197 28.3291C166.654 27.7183 167.093 27.1076 167.608 26.4968L168.161 26.9931Z" fill="#1F4F5E"/>
<path d="M210.324 214.78C209.561 208.978 207.139 174.223 184.789 174.986C162.44 175.75 66.3483 168.401 55.8218 140.364C47.5647 118.358 24.7575 68.0853 15.3562 47.5487C13.9641 44.495 15.7376 41.2122 18.6171 40.3533C11.466 40.6014 -0.986449 43.7124 0.0623787 62.4931C1.54981 88.7173 2.38887 222.358 60.3986 234.554C114.365 245.891 206.891 240.795 215.587 225.411C214.919 225.698 211.105 220.754 210.324 214.78Z" fill="url(#paint5_linear)"/>
<defs>
<linearGradient id="paint0_linear" x1="106.413" y1="48.8085" x2="106.413" y2="158.047" gradientUnits="userSpaceOnUse">
<stop stop-color="#22D327"/>
<stop offset="1" stop-color="#28A168"/>
</linearGradient>
<linearGradient id="paint1_linear" x1="247.49" y1="163.744" x2="247.49" y2="258.965" gradientUnits="userSpaceOnUse">
<stop stop-color="#235D66"/>
<stop offset="1" stop-color="#4ADCB1"/>
</linearGradient>
<linearGradient id="paint2_linear" x1="206.949" y1="110.845" x2="206.949" y2="150.078" gradientUnits="userSpaceOnUse">
<stop stop-color="#9BA1A6"/>
<stop offset="1" stop-color="#9BA1A6"/>
</linearGradient>
<linearGradient id="paint3_linear" x1="204.993" y1="144.275" x2="204.993" y2="245.91" gradientUnits="userSpaceOnUse">
<stop stop-color="#215863"/>
<stop offset="1" stop-color="#48D7AE"/>
</linearGradient>
<linearGradient id="paint4_linear" x1="151.812" y1="45.6366" x2="151.812" y2="177.085" gradientUnits="userSpaceOnUse">
<stop stop-color="#F9EB34"/>
<stop offset="1" stop-color="#F8CE30"/>
</linearGradient>
<linearGradient id="paint5_linear" x1="107.793" y1="40.3533" x2="107.793" y2="240.7" gradientUnits="userSpaceOnUse">
<stop stop-color="#22D327"/>
<stop offset="1" stop-color="#28A168"/>
</linearGradient>
</defs>
</svg>
