<svg width="294" height="318" viewBox="0 0 294 318" fill="none" xmlns="http://www.w3.org/2000/svg">
<path d="M183.433 140.521C180.375 138.745 175.467 138.745 172.409 140.521L9.52966 234.42C6.47123 236.196 6.47123 239.037 9.52966 240.742L117.499 302.963C120.558 304.739 125.465 304.739 128.524 302.963L291.403 209.063C294.461 207.287 294.461 204.446 291.403 202.742L183.433 140.521Z" fill="#EFEEFE"/>
<path d="M7.25488 237.545V243.796C7.25488 245.003 7.96615 246.14 9.53092 247.063L117.501 309.284C120.559 311.06 125.467 311.06 128.525 309.284L291.404 215.385C292.898 214.532 293.68 213.396 293.68 212.188V205.938V205.867C293.68 207.003 292.898 208.14 291.404 208.992L128.525 302.892C125.467 304.668 120.559 304.668 117.501 302.892L9.53092 240.742C7.96615 239.889 7.25488 238.682 7.25488 237.545Z" fill="#1F4F5E"/>
<path d="M178.312 6.34699C178.312 2.86659 175.823 1.44602 172.836 3.1507L9.95642 97.0506C6.89799 98.8263 4.40857 103.088 4.40857 106.568V231.011C4.40857 234.491 6.89799 235.912 9.95642 234.207L172.836 140.307C175.894 138.531 178.312 134.27 178.312 130.789V6.34699Z" fill="#EFEEFE"/>
<path d="M14.3675 222.771C13.1584 223.481 12.1626 222.913 12.1626 221.492V107.207C12.1626 105.787 13.1584 104.082 14.3675 103.372L168.427 14.5859C169.636 13.8757 170.632 14.4439 170.632 15.8645V130.15C170.632 131.57 169.636 133.275 168.427 133.985L14.3675 222.771Z" fill="#1C4F5F"/>
<path d="M237.064 183.138C237.704 183.493 237.704 184.061 237.064 184.416L85.9917 271.569C85.3515 271.924 84.4269 271.924 83.7867 271.569L23.4717 237.049C22.8315 236.693 22.8315 236.125 23.4717 235.77L174.544 148.618C175.184 148.263 176.18 148.263 176.749 148.618L237.064 183.138Z" fill="url(#paint0_linear)"/>
<path d="M51.1423 239.534C51.7825 239.889 51.7825 240.457 51.1423 240.813L44.4565 244.648C43.8163 245.003 42.8917 245.003 42.2515 244.648L35.5657 240.741C34.9255 240.386 34.9255 239.818 35.5657 239.463L42.2515 235.556C42.8917 235.201 43.8163 235.201 44.4565 235.556L51.1423 239.534Z" fill="#1F4F5E"/>
<path d="M61.4531 233.568C62.0932 233.923 62.0932 234.491 61.4531 234.846L54.7672 238.682C54.1271 239.037 53.2025 239.037 52.5623 238.682L45.8765 234.846C45.2363 234.491 45.2363 233.923 45.8765 233.568L52.5623 229.732C53.2025 229.377 54.1271 229.377 54.7672 229.732L61.4531 233.568Z" fill="#1F4F5E"/>
<path d="M71.6953 227.672C72.3354 228.027 72.3354 228.596 71.6953 228.951L65.0094 232.786C64.3693 233.142 63.4447 233.142 62.8045 232.786L56.1187 228.951C55.4785 228.596 55.4785 228.027 56.1187 227.672L62.8045 223.837C63.4447 223.482 64.3693 223.482 65.0094 223.837L71.6953 227.672Z" fill="#1F4F5E"/>
<path d="M82.0099 221.706C82.65 222.062 82.65 222.63 82.0099 222.985L75.324 226.82C74.6839 227.176 73.7592 227.176 73.1191 226.82L66.4332 222.985C65.7931 222.63 65.7931 222.062 66.4332 221.706L73.1191 217.871C73.7592 217.516 74.6839 217.516 75.324 217.871L82.0099 221.706Z" fill="#1F4F5E"/>
<path d="M92.252 215.811C92.8922 216.166 92.8922 216.734 92.252 217.089L85.5662 220.925C84.9261 221.28 84.0014 221.28 83.3613 220.925L76.6754 217.089C76.0353 216.734 76.0353 216.166 76.6754 215.811L83.3613 211.975C84.0014 211.62 84.9261 211.62 85.5662 211.975L92.252 215.811Z" fill="#1F4F5E"/>
<path d="M102.567 209.915C103.207 210.27 103.207 210.839 102.567 211.194L95.8808 215.029C95.2406 215.384 94.316 215.384 93.6759 215.029L86.99 211.194C86.3499 210.839 86.3499 210.27 86.99 209.915L93.6759 206.08C94.316 205.725 95.2406 205.725 95.8808 206.08L102.567 209.915Z" fill="#1F4F5E"/>
<path d="M112.809 203.949C113.449 204.304 113.449 204.873 112.809 205.228L106.123 209.063C105.483 209.418 104.558 209.418 103.918 209.063L97.2322 205.228C96.592 204.873 96.592 204.304 97.2322 203.949L103.918 200.114C104.558 199.759 105.483 199.759 106.123 200.114L112.809 203.949Z" fill="#1F4F5E"/>
<path d="M123.051 198.054C123.691 198.409 123.691 198.977 123.051 199.332L116.365 203.168C115.725 203.523 114.8 203.523 114.16 203.168L107.474 199.332C106.834 198.977 106.834 198.409 107.474 198.054L114.16 194.218C114.8 193.863 115.725 193.863 116.365 194.218L123.051 198.054Z" fill="#1F4F5E"/>
<path d="M133.362 192.087C134.002 192.442 134.002 193.01 133.362 193.365L126.676 197.201C126.036 197.556 125.111 197.556 124.471 197.201L117.785 193.365C117.145 193.01 117.145 192.442 117.785 192.087L124.471 188.251C125.111 187.896 126.036 187.896 126.676 188.251L133.362 192.087Z" fill="#1F4F5E"/>
<path d="M143.604 186.191C144.244 186.546 144.244 187.115 143.604 187.47L136.918 191.305C136.278 191.66 135.353 191.66 134.713 191.305L128.027 187.47C127.387 187.115 127.387 186.546 128.027 186.191L134.713 182.356C135.353 182 136.278 182 136.918 182.356L143.604 186.191Z" fill="#1F4F5E"/>
<path d="M153.918 180.297C154.559 180.652 154.559 181.22 153.918 181.575L147.233 185.411C146.592 185.766 145.668 185.766 145.028 185.411L138.342 181.575C137.702 181.22 137.702 180.652 138.342 180.297L145.028 176.461C145.668 176.106 146.592 176.106 147.233 176.461L153.918 180.297Z" fill="#1F4F5E"/>
<path d="M164.161 174.33C164.801 174.685 164.801 175.254 164.161 175.609L157.475 179.444C156.835 179.799 155.91 179.799 155.27 179.444L148.584 175.538C147.944 175.182 147.944 174.614 148.584 174.259L155.27 170.424C155.839 170.068 156.835 170.068 157.475 170.424L164.161 174.33Z" fill="#1F4F5E"/>
<path d="M174.403 168.434C175.043 168.789 175.043 169.357 174.403 169.713L167.717 173.548C167.077 173.903 166.152 173.903 165.512 173.548L158.826 169.713C158.186 169.357 158.186 168.789 158.826 168.434L165.512 164.599C166.152 164.243 167.077 164.243 167.717 164.599L174.403 168.434Z" fill="#1F4F5E"/>
<path d="M41.3256 233.426C41.9658 233.781 41.9658 234.349 41.3256 234.705L34.2841 238.753C33.644 239.108 32.7194 239.108 32.0792 238.753L29.0919 237.048C28.4518 236.693 28.4518 236.125 29.0919 235.77L36.1334 231.721C36.7736 231.366 37.6982 231.366 38.3383 231.721L41.3256 233.426Z" fill="#1F4F5E"/>
<path d="M51.9946 227.317C52.6347 227.672 52.6347 228.241 51.9946 228.596L44.9531 232.644C44.3129 232.999 43.3883 232.999 42.7482 232.644L39.7609 230.94C39.1207 230.584 39.1207 230.016 39.7609 229.661L46.8024 225.612C47.4425 225.257 48.3671 225.257 49.0073 225.612L51.9946 227.317Z" fill="#1F4F5E"/>
<path d="M62.5911 221.209C63.2313 221.564 63.2313 222.133 62.5911 222.488L55.5496 226.536C54.9095 226.892 53.9849 226.892 53.3447 226.536L50.3574 224.832C49.7173 224.477 49.7173 223.908 50.3574 223.553L57.3989 219.505C58.0391 219.149 58.9637 219.149 59.6038 219.505L62.5911 221.209Z" fill="#1F4F5E"/>
<path d="M73.2601 215.03C73.9002 215.385 73.9002 215.953 73.2601 216.308L66.2186 220.357C65.5784 220.712 64.6538 220.712 64.0137 220.357L61.0264 218.652C60.3862 218.297 60.3862 217.729 61.0264 217.374L68.0679 213.325C68.708 212.97 69.6326 212.97 70.2728 213.325L73.2601 215.03Z" fill="#1F4F5E"/>
<path d="M83.929 208.921C84.5692 209.276 84.5692 209.844 83.929 210.199L76.8875 214.248C76.2474 214.603 75.3227 214.603 74.6826 214.248L71.6953 212.543C71.0552 212.188 71.0552 211.62 71.6953 211.265L78.7368 207.216C79.3769 206.861 80.3016 206.861 80.9417 207.216L83.929 208.921Z" fill="#1F4F5E"/>
<path d="M94.5294 202.812C95.1695 203.167 95.1695 203.735 94.5294 204.09L87.4879 208.139C86.8477 208.494 85.9231 208.494 85.283 208.139L82.2957 206.434C81.6555 206.079 81.6555 205.511 82.2957 205.156L89.3372 201.107C89.9773 200.752 90.9019 200.752 91.5421 201.107L94.5294 202.812Z" fill="#1F4F5E"/>
<path d="M105.198 196.633C105.838 196.988 105.838 197.556 105.198 197.911L98.1568 201.96C97.5167 202.315 96.592 202.315 95.9519 201.96L92.9646 200.255C92.3245 199.9 92.3245 199.332 92.9646 198.976L100.006 194.928C100.646 194.573 101.571 194.573 102.211 194.928L105.198 196.633Z" fill="#1F4F5E"/>
<path d="M115.867 190.525C116.507 190.88 116.507 191.448 115.867 191.803L108.826 195.852C108.186 196.207 107.261 196.207 106.621 195.852L103.634 194.147C102.993 193.792 102.993 193.224 103.634 192.868L110.675 188.82C111.315 188.465 112.24 188.465 112.88 188.82L115.867 190.525Z" fill="#1F4F5E"/>
<path d="M126.464 184.345C127.104 184.7 127.104 185.268 126.464 185.624L119.422 189.672C118.782 190.027 117.857 190.027 117.217 189.672L114.23 187.968C113.59 187.612 113.59 187.044 114.23 186.689L121.271 182.64C121.912 182.285 122.836 182.285 123.476 182.64L126.464 184.345Z" fill="#1F4F5E"/>
<path d="M137.133 178.236C137.773 178.591 137.773 179.16 137.133 179.515L130.091 183.563C129.451 183.918 128.526 183.918 127.886 183.563L124.899 181.859C124.259 181.503 124.259 180.935 124.899 180.58L131.94 176.531C132.581 176.176 133.505 176.176 134.145 176.531L137.133 178.236Z" fill="#1F4F5E"/>
<path d="M147.729 172.128C148.369 172.483 148.369 173.052 147.729 173.407L140.688 177.455C140.048 177.811 139.123 177.811 138.483 177.455L135.495 175.751C134.855 175.396 134.855 174.827 135.495 174.472L142.537 170.424C143.177 170.068 144.102 170.068 144.742 170.424L147.729 172.128Z" fill="#1F4F5E"/>
<path d="M158.398 165.949C159.038 166.304 159.038 166.872 158.398 167.227L151.357 171.276C150.717 171.631 149.792 171.631 149.152 171.276L146.164 169.571C145.524 169.216 145.524 168.648 146.164 168.293L153.206 164.244C153.846 163.889 154.771 163.889 155.411 164.244L158.398 165.949Z" fill="#1F4F5E"/>
<path d="M169.067 159.84C169.707 160.195 169.707 160.763 169.067 161.118L162.026 165.167C161.385 165.522 160.461 165.522 159.821 165.167L156.833 163.462C156.193 163.107 156.193 162.539 156.833 162.184L163.875 158.135C164.515 157.78 165.44 157.78 166.08 158.135L169.067 159.84Z" fill="#1F4F5E"/>
<path d="M179.736 153.66C180.376 154.016 180.376 154.584 179.736 154.939L172.695 158.988C172.054 159.343 171.13 159.343 170.49 158.988L167.502 157.283C166.862 156.928 166.862 156.36 167.502 156.004L174.544 151.956C175.184 151.601 176.109 151.601 176.749 151.956L179.736 153.66Z" fill="#1F4F5E"/>
<path d="M189.837 159.556C190.477 159.911 190.477 160.479 189.837 160.835L177.959 167.653C177.319 168.008 176.394 168.008 175.754 167.653L169.068 163.818C168.428 163.463 168.428 162.894 169.068 162.539L180.946 155.72C181.587 155.365 182.511 155.365 183.151 155.72L189.837 159.556Z" fill="#1F4F5E"/>
<path d="M92.3244 263.258C92.9646 263.613 92.9646 264.181 92.3244 264.537L85.6386 268.372C84.9984 268.727 84.0738 268.727 83.4337 268.372L76.7478 264.537C76.1077 264.181 76.1077 263.613 76.7478 263.258L83.4337 259.422C84.0738 259.067 84.9984 259.067 85.6386 259.422L92.3244 263.258Z" fill="#1F4F5E"/>
<path d="M102.635 257.291C103.275 257.646 103.275 258.215 102.635 258.57L95.9494 262.405C95.3092 262.76 94.3846 262.76 93.7445 262.405L87.0586 258.57C86.4185 258.215 86.4185 257.646 87.0586 257.291L93.7445 253.456C94.3846 253.1 95.3092 253.1 95.9494 253.456L102.635 257.291Z" fill="#1F4F5E"/>
<path d="M112.877 251.395C113.517 251.751 113.517 252.319 112.877 252.674L106.191 256.51C105.551 256.865 104.627 256.865 103.987 256.51L97.3007 252.674C96.6605 252.319 96.6605 251.751 97.3007 251.395L103.987 247.56C104.627 247.205 105.551 247.205 106.191 247.56L112.877 251.395Z" fill="#1F4F5E"/>
<path d="M215.585 186.192C216.225 186.547 216.225 187.115 215.585 187.47L208.899 191.306C208.259 191.661 207.334 191.661 206.694 191.306L205.129 190.383C204.489 190.027 204.489 189.459 205.129 189.104L211.815 185.269C212.455 184.913 213.38 184.913 214.02 185.269L215.585 186.192Z" fill="#1F4F5E"/>
<path d="M210.536 195.142C211.176 195.497 211.176 196.065 210.536 196.42L203.85 200.256C203.21 200.611 202.286 200.611 201.645 200.256L200.081 199.332C199.441 198.977 199.441 198.409 200.081 198.054L206.767 194.218C207.407 193.863 208.331 193.863 208.971 194.218L210.536 195.142Z" fill="#1F4F5E"/>
<path d="M220.778 189.174C221.419 189.53 221.419 190.098 220.778 190.453L214.093 194.289C213.452 194.644 212.528 194.644 211.888 194.289L210.323 193.365C209.683 193.01 209.683 192.442 210.323 192.087L217.009 188.251C217.578 187.896 218.574 187.896 219.214 188.251L220.778 189.174Z" fill="#1F4F5E"/>
<path d="M231.089 183.279C231.729 183.634 231.729 184.202 231.089 184.557L224.403 188.393C223.763 188.748 222.839 188.748 222.198 188.393L220.634 187.47C219.994 187.115 219.994 186.546 220.634 186.191L227.32 182.356C227.96 182 228.884 182 229.524 182.356L231.089 183.279Z" fill="#1F4F5E"/>
<path d="M123.192 245.501C123.832 245.856 123.832 246.424 123.192 246.779L116.506 250.615C115.866 250.97 114.941 250.97 114.301 250.615L107.615 246.779C106.975 246.424 106.975 245.856 107.615 245.501L114.301 241.665C114.941 241.31 115.866 241.31 116.506 241.665L123.192 245.501Z" fill="#1F4F5E"/>
<path d="M179.737 212.899C180.377 213.254 180.377 213.822 179.737 214.177L126.748 244.72C126.108 245.075 125.183 245.075 124.543 244.72L117.857 240.884C117.217 240.529 117.217 239.961 117.857 239.606L170.846 209.063C171.487 208.708 172.411 208.708 173.051 209.063L179.737 212.899Z" fill="#1F4F5E"/>
<path d="M189.979 207.003C190.62 207.358 190.62 207.927 189.979 208.282L183.294 212.117C182.653 212.472 181.729 212.472 181.089 212.117L174.403 208.282C173.763 207.927 173.763 207.358 174.403 207.003L181.089 203.168C181.729 202.812 182.653 202.812 183.294 203.168L189.979 207.003Z" fill="#1F4F5E"/>
<path d="M200.222 201.036C200.862 201.391 200.862 201.96 200.222 202.315L193.536 206.15C192.896 206.505 191.971 206.505 191.331 206.15L184.645 202.315C184.005 201.96 184.005 201.391 184.645 201.036L191.331 197.201C191.971 196.846 192.896 196.846 193.536 197.201L200.222 201.036Z" fill="#1F4F5E"/>
<path d="M76.8888 236.551C77.5289 236.907 77.5289 237.475 76.8888 237.83L70.2029 241.665C69.5628 242.021 68.6381 242.021 67.998 241.665L61.3121 237.83C60.672 237.475 60.672 236.907 61.3121 236.551L67.998 232.716C68.6381 232.361 69.5628 232.361 70.2029 232.716L76.8888 236.551Z" fill="#1F4F5E"/>
<path d="M66.5767 242.446C67.2169 242.801 67.2169 243.369 66.5767 243.725L54.6986 250.543C54.0585 250.898 53.1339 250.898 52.4937 250.543L45.8079 246.708C45.1677 246.353 45.1677 245.784 45.8079 245.429L57.6859 238.61C58.3261 238.255 59.2507 238.255 59.8909 238.61L66.5767 242.446Z" fill="#1F4F5E"/>
<path d="M87.131 230.584C87.7711 230.94 87.7711 231.508 87.131 231.863L80.4451 235.699C79.805 236.054 78.8803 236.054 78.2402 235.699L71.5543 231.863C70.9142 231.508 70.9142 230.94 71.5543 230.584L78.2402 226.749C78.8803 226.394 79.805 226.394 80.4451 226.749L87.131 230.584Z" fill="#1F4F5E"/>
<path d="M97.4456 224.689C98.0857 225.045 98.0857 225.613 97.4456 225.968L90.7597 229.804C90.1195 230.159 89.1949 230.159 88.5548 229.804L81.8689 225.968C81.2288 225.613 81.2288 225.045 81.8689 224.689L88.5548 220.783C89.1949 220.428 90.1195 220.428 90.7597 220.783L97.4456 224.689Z" fill="#1F4F5E"/>
<path d="M107.688 218.723C108.328 219.078 108.328 219.646 107.688 220.001L101.002 223.837C100.362 224.192 99.4371 224.192 98.7969 223.837L92.1111 220.001C91.4709 219.646 91.4709 219.078 92.1111 218.723L98.7969 214.887C99.4371 214.532 100.362 214.532 101.002 214.887L107.688 218.723Z" fill="#1F4F5E"/>
<path d="M117.998 212.827C118.639 213.182 118.639 213.75 117.998 214.105L111.313 217.941C110.672 218.296 109.748 218.296 109.108 217.941L102.422 214.105C101.782 213.75 101.782 213.182 102.422 212.827L109.108 208.92C109.748 208.565 110.672 208.565 111.313 208.92L117.998 212.827Z" fill="#1F4F5E"/>
<path d="M128.241 206.932C128.881 207.287 128.881 207.855 128.241 208.21L121.555 212.046C120.915 212.401 119.99 212.401 119.35 212.046L112.664 208.21C112.024 207.855 112.024 207.287 112.664 206.932L119.35 203.096C119.99 202.741 120.915 202.741 121.555 203.096L128.241 206.932Z" fill="#1F4F5E"/>
<path d="M138.483 200.966C139.123 201.321 139.123 201.889 138.483 202.244L131.797 206.08C131.157 206.435 130.232 206.435 129.592 206.08L122.906 202.244C122.266 201.889 122.266 201.321 122.906 200.966L129.592 197.13C130.232 196.775 131.157 196.775 131.797 197.13L138.483 200.966Z" fill="#1F4F5E"/>
<path d="M148.797 195.07C149.437 195.425 149.437 195.994 148.797 196.349L142.111 200.184C141.471 200.539 140.547 200.539 139.907 200.184L133.221 196.349C132.581 195.994 132.581 195.425 133.221 195.07L139.907 191.235C140.547 190.879 141.471 190.879 142.111 191.235L148.797 195.07Z" fill="#1F4F5E"/>
<path d="M159.04 189.175C159.68 189.53 159.68 190.098 159.04 190.453L152.354 194.289C151.714 194.644 150.789 194.644 150.149 194.289L143.463 190.453C142.823 190.098 142.823 189.53 143.463 189.175L150.149 185.339C150.789 184.984 151.714 184.984 152.354 185.339L159.04 189.175Z" fill="#1F4F5E"/>
<path d="M169.354 183.209C169.994 183.564 169.994 184.132 169.354 184.487L162.668 188.323C162.028 188.678 161.103 188.678 160.463 188.323L153.777 184.487C153.137 184.132 153.137 183.564 153.777 183.209L160.463 179.373C161.103 179.018 162.028 179.018 162.668 179.373L169.354 183.209Z" fill="#1F4F5E"/>
<path d="M179.596 177.313C180.236 177.668 180.236 178.236 179.596 178.592L172.91 182.427C172.27 182.782 171.346 182.782 170.706 182.427L164.02 178.592C163.38 178.236 163.38 177.668 164.02 177.313L170.706 173.478C171.346 173.122 172.27 173.122 172.91 173.478L179.596 177.313Z" fill="#1F4F5E"/>
<path d="M189.838 171.347C190.479 171.702 190.479 172.27 189.838 172.626L183.153 176.461C182.512 176.816 181.588 176.816 180.948 176.461L174.262 172.626C173.622 172.27 173.622 171.702 174.262 171.347L180.948 167.511C181.588 167.156 182.512 167.156 183.153 167.511L189.838 171.347Z" fill="#1F4F5E"/>
<path d="M200.149 165.452C200.789 165.807 200.789 166.375 200.149 166.73L193.463 170.566C192.823 170.921 191.899 170.921 191.258 170.566L184.573 166.73C183.932 166.375 183.932 165.807 184.573 165.452L191.258 161.616C191.899 161.261 192.823 161.261 193.463 161.616L200.149 165.452Z" fill="#1F4F5E"/>
<path d="M89.5505 241.026C90.1907 241.381 90.1907 241.949 89.5505 242.304L82.8647 246.211C82.2245 246.566 81.2999 246.566 80.6597 246.211L73.9739 242.304C73.3337 241.949 73.3337 241.381 73.9739 241.026L80.6597 237.19C81.2999 236.835 82.2245 236.835 82.8647 237.19L89.5505 241.026Z" fill="#1F4F5E"/>
<path d="M79.3058 246.992C79.9459 247.347 79.9459 247.915 79.3058 248.27L65.0094 256.509C64.3693 256.865 63.4447 256.865 62.8045 256.509L56.1187 252.674C55.4785 252.319 55.4785 251.751 56.1187 251.395L70.415 243.156C71.0552 242.801 71.9798 242.801 72.6199 243.156L79.3058 246.992Z" fill="#1F4F5E"/>
<path d="M99.8613 235.13C100.501 235.485 100.501 236.053 99.8613 236.409L93.1755 240.244C92.5353 240.599 91.6107 240.599 90.9705 240.244L84.2847 236.409C83.6445 236.053 83.6445 235.485 84.2847 235.13L90.9705 231.295C91.6107 230.939 92.5353 230.939 93.1755 231.295L99.8613 235.13Z" fill="#1F4F5E"/>
<path d="M110.103 229.235C110.744 229.59 110.744 230.159 110.103 230.514L103.418 234.349C102.777 234.704 101.853 234.704 101.213 234.349L94.5267 230.514C93.8866 230.159 93.8866 229.59 94.5267 229.235L101.213 225.329C101.853 224.973 102.777 224.973 103.418 225.329L110.103 229.235Z" fill="#1F4F5E"/>
<path d="M120.346 223.269C120.986 223.624 120.986 224.192 120.346 224.547L113.66 228.383C113.02 228.738 112.095 228.738 111.455 228.383L104.769 224.547C104.129 224.192 104.129 223.624 104.769 223.269L111.455 219.433C112.095 219.078 113.02 219.078 113.66 219.433L120.346 223.269Z" fill="#1F4F5E"/>
<path d="M130.66 217.373C131.3 217.728 131.3 218.296 130.66 218.652L123.974 222.487C123.334 222.842 122.409 222.842 121.769 222.487L115.083 218.652C114.443 218.296 114.443 217.728 115.083 217.373L121.769 213.537C122.409 213.182 123.334 213.182 123.974 213.537L130.66 217.373Z" fill="#1F4F5E"/>
<path d="M140.902 211.407C141.542 211.762 141.542 212.33 140.902 212.686L134.216 216.521C133.576 216.876 132.652 216.876 132.012 216.521L125.326 212.686C124.686 212.33 124.686 211.762 125.326 211.407L132.012 207.571C132.652 207.216 133.576 207.216 134.216 207.571L140.902 211.407Z" fill="#1F4F5E"/>
<path d="M151.217 205.511C151.857 205.867 151.857 206.435 151.217 206.79L144.531 210.626C143.891 210.981 142.966 210.981 142.326 210.626L135.64 206.79C135 206.435 135 205.867 135.64 205.511L142.326 201.676C142.966 201.321 143.891 201.321 144.531 201.676L151.217 205.511Z" fill="#1F4F5E"/>
<path d="M161.458 199.616C162.098 199.971 162.098 200.539 161.458 200.894L154.772 204.73C154.132 205.085 153.207 205.085 152.567 204.73L145.81 200.894C145.17 200.539 145.17 199.971 145.81 199.616L152.496 195.78C153.136 195.425 154.061 195.425 154.701 195.78L161.458 199.616Z" fill="#1F4F5E"/>
<path d="M171.77 193.65C172.41 194.005 172.41 194.573 171.77 194.928L165.084 198.764C164.444 199.119 163.519 199.119 162.879 198.764L156.193 194.928C155.553 194.573 155.553 194.005 156.193 193.65L162.879 189.814C163.519 189.459 164.444 189.459 165.084 189.814L171.77 193.65Z" fill="#1F4F5E"/>
<path d="M182.012 187.754C182.652 188.11 182.652 188.678 182.012 189.033L175.326 192.868C174.686 193.224 173.761 193.224 173.121 192.868L166.435 189.033C165.795 188.678 165.795 188.11 166.435 187.754L173.121 183.919C173.761 183.564 174.686 183.564 175.326 183.919L182.012 187.754Z" fill="#1F4F5E"/>
<path d="M192.254 181.858C192.894 182.214 192.894 182.782 192.254 183.137L185.568 186.972C184.928 187.328 184.004 187.328 183.363 186.972L176.678 183.066C176.037 182.711 176.037 182.142 176.678 181.787L183.363 177.952C184.004 177.597 184.928 177.597 185.568 177.952L192.254 181.858Z" fill="#1F4F5E"/>
<path d="M210.391 171.347C211.032 171.702 211.032 172.27 210.391 172.625L195.811 181.007C195.17 181.362 194.246 181.362 193.606 181.007L186.92 177.1C186.28 176.745 186.28 176.177 186.92 175.821L201.501 167.44C202.141 167.085 203.065 167.085 203.706 167.44L210.391 171.347Z" fill="#1F4F5E"/>
<path d="M105.055 243.938C105.695 244.293 105.695 244.861 105.055 245.216L98.3689 249.052C97.7288 249.407 96.8042 249.407 96.164 249.052L89.4781 245.216C88.838 244.861 88.838 244.293 89.4781 243.938L96.164 240.102C96.8042 239.747 97.7288 239.747 98.3689 240.102L105.055 243.938Z" fill="#1F4F5E"/>
<path d="M94.8126 249.905C95.4527 250.26 95.4527 250.828 94.8126 251.183L75.324 262.406C74.6839 262.761 73.7592 262.761 73.1191 262.406L66.4332 258.57C65.7931 258.215 65.7931 257.647 66.4332 257.292L85.9218 246.069C86.562 245.714 87.4866 245.714 88.1267 246.069L94.8126 249.905Z" fill="#1F4F5E"/>
<path d="M115.369 238.043C116.009 238.398 116.009 238.966 115.369 239.321L108.683 243.157C108.043 243.512 107.119 243.512 106.479 243.157L99.7927 239.321C99.1526 238.966 99.1526 238.398 99.7927 238.043L106.479 234.136C107.119 233.781 108.043 233.781 108.683 234.136L115.369 238.043Z" fill="#1F4F5E"/>
<path d="M125.612 232.076C126.252 232.431 126.252 233 125.612 233.355L118.926 237.19C118.286 237.545 117.361 237.545 116.721 237.19L110.035 233.355C109.395 233 109.395 232.431 110.035 232.076L116.721 228.241C117.361 227.885 118.286 227.885 118.926 228.241L125.612 232.076Z" fill="#1F4F5E"/>
<path d="M135.922 226.181C136.491 226.536 136.491 227.104 135.922 227.459L129.236 231.295C128.596 231.65 127.672 231.65 127.031 231.295L120.346 227.459C119.705 227.104 119.705 226.536 120.346 226.181L127.031 222.345C127.672 221.99 128.596 221.99 129.236 222.345L135.922 226.181Z" fill="#1F4F5E"/>
<path d="M146.164 220.285C146.805 220.64 146.805 221.209 146.164 221.564L139.479 225.399C138.838 225.754 137.914 225.754 137.274 225.399L130.588 221.564C129.948 221.209 129.948 220.64 130.588 220.285L137.274 216.45C137.914 216.094 138.838 216.094 139.479 216.45L146.164 220.285Z" fill="#1F4F5E"/>
<path d="M156.407 214.319C157.047 214.674 157.047 215.242 156.407 215.598L149.721 219.433C149.081 219.788 148.156 219.788 147.516 219.433L140.83 215.598C140.19 215.242 140.19 214.674 140.83 214.319L147.516 210.484C148.156 210.128 149.081 210.128 149.721 210.484L156.407 214.319Z" fill="#1F4F5E"/>
<path d="M166.721 208.424C167.361 208.779 167.361 209.347 166.721 209.702L160.035 213.538C159.395 213.893 158.471 213.893 157.83 213.538L151.145 209.702C150.504 209.347 150.504 208.779 151.145 208.424L157.83 204.588C158.471 204.233 159.395 204.233 160.035 204.588L166.721 208.424Z" fill="#1F4F5E"/>
<path d="M176.963 202.528C177.604 202.883 177.604 203.451 176.963 203.806L170.278 207.642C169.637 207.997 168.713 207.997 168.073 207.642L161.387 203.806C160.747 203.451 160.747 202.883 161.387 202.528L168.073 198.692C168.713 198.337 169.637 198.337 170.278 198.692L176.963 202.528Z" fill="#1F4F5E"/>
<path d="M187.278 196.562C187.918 196.917 187.918 197.485 187.278 197.841L180.592 201.676C179.952 202.031 179.027 202.031 178.387 201.676L171.701 197.841C171.061 197.485 171.061 196.917 171.701 196.562L178.387 192.726C179.027 192.371 179.952 192.371 180.592 192.726L187.278 196.562Z" fill="#1F4F5E"/>
<path d="M197.52 190.666C198.16 191.021 198.16 191.59 197.52 191.945L190.834 195.851C190.194 196.207 189.269 196.207 188.629 195.851L181.943 191.945C181.374 191.59 181.374 191.021 181.943 190.666L188.629 186.831C189.269 186.476 190.194 186.476 190.834 186.831L197.52 190.666Z" fill="#1F4F5E"/>
<path d="M220.707 177.313C221.347 177.668 221.347 178.236 220.707 178.592L201.076 189.885C200.436 190.24 199.512 190.24 198.872 189.885L192.186 186.05C191.546 185.694 191.546 185.126 192.186 184.771L211.816 173.478C212.457 173.122 213.381 173.122 214.021 173.478L220.707 177.313Z" fill="#1F4F5E"/>
<path d="M229.312 236.906C229.952 237.262 229.952 237.83 229.312 238.185L178.955 267.236C178.315 267.591 177.39 267.591 176.75 267.236L140.049 246.069C139.409 245.714 139.409 245.146 140.049 244.791L190.477 215.74C191.117 215.385 192.042 215.385 192.682 215.74L229.312 236.906Z" fill="url(#paint1_linear)"/>
<path d="M4.40983 231.082V106.64C4.40983 103.16 6.89925 98.8271 9.95767 97.1224L172.837 3.22251C174.259 2.37017 175.611 2.29914 176.606 2.79634C176.606 2.79634 176.606 2.79634 176.535 2.79634L172.197 0.310336C171.201 -0.186864 169.849 -0.115835 168.427 0.736508L5.47672 94.4943C2.41829 96.27 0 100.532 0 104.012V228.454C0 230.23 0.640136 231.438 1.6359 232.006L6.04573 234.492C5.04996 233.995 4.40983 232.787 4.40983 231.082Z" fill="#1F4F5E"/>
<path d="M220.563 266.312C221.701 271.852 222.839 283.358 223.764 288.401C224.759 293.444 225.115 297.351 224.688 300.618C224.261 303.815 222.839 308.076 222.839 308.076C222.839 308.076 221.061 310.633 222.554 311.344C224.048 312.054 225.257 310.704 226.751 308.574C228.173 306.443 232.797 302.323 233.65 301.471C233.152 300.974 232.797 300.76 232.583 298.345C232.37 295.93 234.504 285.134 235.144 280.801C235.784 276.469 232.228 267.448 231.445 264.749C230.663 262.05 231.801 258.072 233.01 254.095C234.148 250.117 234.717 237.545 234.717 237.545C234.717 237.545 237.064 223.623 235.286 219.646C233.508 215.668 218.785 217.515 216.651 220.143C214.446 222.771 214.162 233.07 214.944 240.528C215.655 247.986 219.425 260.771 220.563 266.312Z" fill="#F7BFB1"/>
<path d="M248.088 287.904L248.444 291.598C248.444 291.598 246.666 291.74 247.093 293.231C247.519 294.652 249.013 293.729 249.226 292.521C249.44 291.314 250.578 290.532 251.36 290.035C252.142 289.609 255.485 287.904 255.485 287.904C255.485 287.904 254.49 285.987 254.134 284.424C253.778 282.932 254.845 273.912 255.272 268.442C255.699 262.973 250.862 255.87 249.155 251.467C247.519 247.063 249.866 237.119 250.507 227.885C251.147 218.651 247.733 213.466 247.733 213.466L233.01 219.788V228.951C233.01 228.951 234.574 237.545 236.21 244.932C237.775 252.319 241.189 258.57 242.256 261.056C243.252 263.542 246.239 274.835 247.093 278.884C247.946 282.932 248.088 287.904 248.088 287.904Z" fill="#F7BFB1"/>
<path d="M233.223 167.227L233.081 167.44L228.315 169.855L227.035 173.762L234.717 170.281L233.223 167.227Z" fill="white"/>
<path d="M210.532 202.458L221.557 197.201L219.068 192.869L210.532 202.458Z" fill="#092A4E"/>
<path d="M206.906 192.726C206.906 192.726 206.621 188.89 206.906 188.677C207.119 188.464 212.809 187.186 212.809 187.186L206.906 192.726Z" fill="#FFCDA8"/>
<path d="M206.977 188.607C206.906 188.607 206.906 188.678 206.906 188.678C206.621 188.891 206.906 192.726 206.906 192.726L208.897 190.88C208.186 190.027 207.546 189.246 206.977 188.607Z" fill="#D9A782"/>
<path d="M233.58 301.4C233.58 301.4 236.283 302.679 236.994 304.81C237.705 306.941 236.14 308.716 235.642 310.705C235.145 312.694 235.145 317.808 235.145 317.808L234.22 317.524C234.22 317.524 234.291 312.694 233.651 311.629C233.011 310.563 231.304 310.563 229.952 311.629C228.601 312.694 224.689 316.458 222.484 316.458C220.279 316.458 213.024 310.35 213.38 308.645C213.736 306.941 222.84 308.006 222.84 308.006C222.84 308.006 221.062 310.563 222.555 311.273C224.049 311.984 225.258 310.634 226.752 308.503C228.103 306.443 232.726 302.253 233.58 301.4Z" fill="#22D327"/>
<path d="M255.412 287.905C255.412 287.905 252.069 289.61 251.287 290.036C250.505 290.462 249.367 291.314 249.153 292.522C248.94 293.729 247.517 294.653 247.019 293.232C246.593 291.812 248.371 291.599 248.371 291.599L248.015 287.905C248.015 287.905 245.81 287.053 245.384 287.266C244.957 287.55 245.17 295.221 246.735 296.784C248.94 298.986 252.212 296.357 253.065 296.428C253.065 296.428 254.843 296.784 255.555 298.914C256.266 301.045 256.622 302.821 256.622 302.821L257.475 302.537C257.475 302.537 256.337 298.275 256.906 296.428C257.475 294.582 258.4 293.09 258.115 291.599C257.973 290.178 255.412 287.905 255.412 287.905Z" fill="#22D327"/>
<path d="M215.301 222.203C215.301 222.203 214.305 225.684 214.091 234.989C213.878 244.364 218.075 256.723 218.075 256.723C218.075 256.723 222.058 259.209 228.459 258.428C231.446 258.073 247.379 251.396 249.157 246.992C249.157 246.992 251.148 228.809 251.148 223.127C251.148 217.373 246.525 210.271 246.525 210.271C246.525 210.271 218.146 210.129 215.301 222.203Z" fill="url(#paint2_linear)"/>
<path d="M220.137 178.094C220.137 178.094 216.652 188.038 217.007 191.305C217.363 194.502 219.141 201.675 218.572 204.872C218.003 207.997 214.305 224.902 213.665 228.879C213.665 228.879 215.229 231.721 225.187 232.36C235.145 232.999 248.161 227.033 251.788 222.345C251.788 222.345 249.299 213.892 247.165 209.915C245.102 205.937 241.048 201.391 242.115 197.769C243.253 194.146 253.211 177.597 253.495 173.548C253.78 169.499 252.357 166.019 250.223 165.096C248.09 164.172 240.195 165.593 240.195 165.593C240.195 165.593 235.074 167.44 229.455 170.707C225.827 172.838 221.488 176.176 220.137 178.094Z" fill="#FAED00"/>
<path d="M225.471 174.684C224.12 174.329 218.501 177.739 215.656 182.071C212.811 186.404 204.631 193.862 203.635 196.064C202.568 198.195 202.426 202.812 204.204 203.948C206.836 205.653 212.313 201.462 215.3 198.976C218.216 196.49 226.111 190.524 228.53 184.7C230.948 178.875 228.387 175.466 225.471 174.684Z" fill="#FAED00"/>
<path d="M233.72 175.253C233.72 175.253 234.076 169.499 233.222 167.44C232.369 165.309 231.657 164.954 230.662 164.74C229.95 164.598 228.386 165.025 226.679 161.544C224.972 158.135 225.612 156.643 225.327 155.152C225.043 153.66 224.616 152.666 224.829 151.245C225.043 149.824 225.541 144.568 229.737 142.722C233.933 140.946 238.983 141.23 241.757 142.864C244.531 144.497 246.736 148.191 246.736 152.097C246.736 156.004 244.602 158.419 244.531 161.047C244.531 163.675 246.167 166.942 247.732 169.002C249.297 171.062 246.025 173.974 243.749 175.04C238.628 177.384 233.72 175.253 233.72 175.253Z" fill="#FFCDA8"/>
<path d="M230.803 161.26C231.017 158.561 230.946 155.933 230.946 155.933L235.782 159.556C235.782 159.556 235.427 169.358 238.272 173.619C238.841 174.472 238.912 175.324 238.556 176.105C235.782 176.105 233.72 175.182 233.72 175.182C233.72 175.182 234.075 169.429 233.222 167.369C232.368 165.238 231.657 164.883 230.661 164.67C230.305 164.599 229.736 164.67 229.096 164.315C229.808 163.746 230.732 162.681 230.803 161.26Z" fill="#D9A782"/>
<path d="M229.81 174.329C231.019 166.587 233.58 160.976 230.877 158.277L230.237 157.354C230.166 157.354 229.881 158.419 229.028 158.206C228.601 158.064 228.032 155.72 227.534 154.441C227.392 154.086 227.25 153.731 227.036 153.234C227.036 153.234 229.312 155.578 230.45 156.43L230.664 156.217C230.664 156.217 226.61 152.808 225.187 150.038C225.187 150.038 228.103 153.66 229.881 154.654C231.66 155.649 233.793 156.785 233.011 162.041C232.371 166.232 229.952 173.193 230.095 177.881C229.739 176.673 229.597 175.466 229.81 174.329Z" fill="#6D2D3D"/>
<path d="M226.68 143.148C228.316 141.16 231.09 139.029 237.562 139.668C240.621 140.023 243.11 142.367 244.391 144.072C245.742 145.99 247.022 148.689 246.738 154.158C246.382 159.627 246.738 164.244 250.223 167.724C252.214 169.713 253.139 175.253 251.361 178.592C252.001 176.745 252.286 174.188 251.148 171.489C251.148 171.418 251.148 171.418 251.148 171.418V171.489C251.361 172.057 252.641 175.68 250.507 179.728C250.152 180.154 249.725 180.439 249.227 180.723C244.604 183.138 238.629 184.913 237.278 184.771C236.211 184.7 234.789 183.919 233.508 182.783C234.291 183.777 235.073 184.416 235.073 184.416C232.299 183.209 230.877 180.012 230.236 178.308C230.592 180.368 231.374 182.072 231.374 182.072C231.374 182.072 229.525 179.089 229.454 176.745C229.312 174.401 230.521 170.495 230.521 170.495C231.73 164.741 233.153 160.479 230.877 158.207L230.236 157.283C230.165 157.283 229.881 158.349 229.027 158.136C228.601 157.993 228.032 155.65 227.534 154.371C227.391 154.016 227.249 153.661 227.036 153.164C221.488 148.618 226.68 143.148 226.68 143.148Z" fill="#1F4F5E"/>
<path d="M230.307 161.616C230.449 161.9 232.227 162.042 231.943 158.916C231.658 155.862 229.595 155.081 229.595 157.354C229.667 159.627 230.307 161.616 230.307 161.616Z" fill="#FFCDA8"/>
<path d="M156.762 35.4688C154.628 36.6763 152.85 39.7305 152.85 42.2165C152.85 43.0688 153.064 43.7081 153.419 44.2053L142.395 62.1045C141.684 61.7494 140.83 61.8204 139.763 62.4597C137.772 63.5961 136.207 66.2242 135.922 68.4971L127.103 73.6112C126.818 71.6224 125.253 70.841 123.262 71.9775C121.128 73.185 119.35 76.2392 119.35 78.7252C119.35 79.0804 119.35 79.3645 119.421 79.6486L109.748 90.0898C109.037 89.3085 107.827 89.1664 106.547 89.9477C105.623 90.516 104.769 91.3683 104.129 92.3627L93.7444 90.7291C93.8155 90.4449 93.8155 90.1608 93.8155 89.8767C93.8155 87.3907 92.0374 86.3963 89.9036 87.6038C87.7698 88.8113 85.9917 91.8655 85.9917 94.3515C85.9917 95.488 86.3473 96.3403 86.9874 96.7665L76.1762 130.221C75.465 129.653 74.3981 129.653 73.2601 130.363C71.6242 131.286 70.2016 133.346 69.6326 135.335L60.7418 138.389C60.6707 135.974 58.9637 135.051 56.901 136.258C54.7672 137.466 52.9891 140.52 52.9891 143.006C52.9891 143.503 53.0602 143.858 53.2025 144.214L42.7469 156.999C42.0356 156.573 41.0399 156.573 39.973 157.212C37.8392 158.419 36.061 161.474 36.061 163.96C36.061 164.599 36.2033 165.167 36.4167 165.593L25.7477 179.586C25.1076 179.373 24.2541 179.444 23.3294 180.012C21.1956 181.22 19.4175 184.274 19.4175 186.76C19.4175 189.246 21.1956 190.24 23.3294 189.033C25.4632 187.825 27.2414 184.771 27.2414 182.285C27.2414 181.575 27.0991 181.006 26.8146 180.58L37.4836 166.659C38.1948 166.943 39.0483 166.872 39.973 166.304C42.1068 165.096 43.8849 162.042 43.8849 159.556C43.8849 159.059 43.8138 158.632 43.6715 158.277L54.056 145.492C54.7672 145.989 55.763 145.918 56.901 145.279C58.4658 144.356 59.8172 142.509 60.4573 140.591L69.4192 137.537C69.5615 139.739 71.2685 140.591 73.2601 139.384C75.3938 138.176 77.172 135.122 77.172 132.636C77.172 132.494 77.172 132.281 77.1009 132.139L88.41 97.1927C88.8367 97.1216 89.3346 96.9796 89.9036 96.6955C91.1839 95.9852 92.3219 94.5646 93.0332 93.002L103.062 94.5646C102.849 95.2749 102.706 95.9852 102.706 96.6955C102.706 99.1815 104.484 100.176 106.618 98.9684C108.752 97.7609 110.53 94.7067 110.53 92.2207C110.53 92.0076 110.53 91.7945 110.459 91.5814L120.346 80.8561C121.057 81.4953 122.124 81.5664 123.404 80.8561C125.111 79.8617 126.605 77.6598 127.103 75.6L136.207 70.3438C136.705 71.8354 138.127 72.3326 139.905 71.3382C142.039 70.1308 143.817 67.0765 143.817 64.5905C143.817 64.0223 143.746 63.4541 143.533 63.0989L154.771 44.9156C155.411 44.9866 156.122 44.8446 156.905 44.4184C159.038 43.2109 160.816 40.1567 160.816 37.6707C160.603 35.2557 158.896 34.1903 156.762 35.4688ZM23.3294 187.044C22.1203 187.754 21.1245 187.186 21.1245 185.765C21.1245 184.345 22.1203 182.711 23.3294 182.001C24.5386 181.291 25.5343 181.859 25.5343 183.279C25.4632 184.629 24.5386 186.334 23.3294 187.044ZM39.973 164.244C38.7638 164.954 37.7681 164.386 37.7681 162.965C37.7681 161.545 38.7638 159.911 39.973 159.201C41.1821 158.49 42.1779 159.059 42.1779 160.479C42.1068 161.9 41.1821 163.604 39.973 164.244ZM56.901 143.29C55.6919 144.001 54.6961 143.432 54.6961 142.012C54.6961 140.591 55.6919 138.958 56.901 138.247C58.1102 137.537 59.1059 138.105 59.1059 139.526C59.0348 140.875 58.1102 142.58 56.901 143.29ZM73.2601 137.324C72.0509 138.034 71.0551 137.466 71.0551 136.045C71.0551 134.625 72.0509 132.991 73.2601 132.281C74.4692 131.571 75.465 132.139 75.465 133.559C75.3938 134.98 74.4692 136.685 73.2601 137.324ZM89.9036 94.7067C88.6945 95.417 87.6987 94.8487 87.6987 93.4281C87.6987 92.0076 88.6945 90.3739 89.9036 89.6636C91.1128 88.9533 92.1085 89.5216 92.1085 90.9421C92.0374 92.2917 91.1128 93.9964 89.9036 94.7067ZM106.547 96.9796C105.338 97.6899 104.342 97.1216 104.342 95.7011C104.342 94.2805 105.338 92.6468 106.547 91.9366C107.756 91.2263 108.752 91.7945 108.752 93.2151C108.681 94.5646 107.756 96.2693 106.547 96.9796ZM123.333 78.9383C122.124 79.6486 121.128 79.0804 121.128 77.6598C121.128 76.2392 122.124 74.6056 123.333 73.8953C124.542 73.185 125.538 73.7532 125.538 75.1738C125.467 76.5233 124.542 78.228 123.333 78.9383ZM139.834 69.4205C138.625 70.1308 137.629 69.5625 137.629 68.1419C137.629 66.7214 138.625 65.0877 139.834 64.3774C141.043 63.6671 142.039 64.2354 142.039 65.6559C141.968 67.0055 141.043 68.7102 139.834 69.4205ZM156.762 42.4296C155.553 43.1399 154.557 42.5716 154.557 41.1511C154.557 39.7305 155.553 38.0968 156.762 37.3865C157.971 36.6763 158.967 37.2445 158.967 38.6651C158.896 40.0856 157.971 41.7903 156.762 42.4296Z" fill="#A9D0E5"/>
<path d="M156.761 96.1981C155.694 96.8373 154.698 97.9027 153.987 99.1102L143.247 95.7009C143.532 94.9195 143.745 94.1382 143.745 93.3569C143.745 90.8709 142.038 89.8765 139.833 91.084C137.699 92.2915 135.921 95.3457 135.921 97.8317C135.921 98.1158 135.921 98.3289 135.992 98.542L126.603 108.77C125.892 107.847 124.683 107.705 123.261 108.486C122.051 109.196 120.984 110.404 120.273 111.824L110.244 111.256C110.316 110.972 110.316 110.688 110.316 110.404C110.316 107.918 108.537 106.923 106.404 108.131C104.27 109.338 102.492 112.393 102.492 114.879C102.492 116.299 103.132 117.294 104.056 117.507L92.3917 142.651C91.6805 142.154 90.6847 142.225 89.5467 142.864C87.4129 144.071 85.6347 147.126 85.6347 149.612V149.683L76.2461 158.916C75.5348 158.135 74.3968 158.064 73.0454 158.845C70.9116 160.053 69.1335 163.107 69.1335 165.593C69.1335 166.232 69.2757 166.801 69.4891 167.227L59.3892 183.492C58.6779 182.853 57.611 182.853 56.3307 183.563C55.1216 184.274 53.9836 185.623 53.2723 187.044L43.528 186.831C43.528 186.618 43.5991 186.475 43.5991 186.262C43.5991 183.776 41.821 182.782 39.6872 183.989C37.909 185.055 36.4154 187.328 35.9175 189.459L26.8845 192.797C26.6711 190.737 25.0352 189.956 23.0437 191.092C20.9099 192.3 19.1317 195.354 19.1317 197.84C19.1317 200.326 20.9099 201.32 23.0437 200.113C24.7507 199.119 26.1732 196.988 26.7422 194.928L35.9175 191.518C36.2731 193.365 37.8379 194.076 39.7583 192.939C41.1097 192.158 42.3189 190.595 43.0301 188.961L52.6322 189.175C52.561 189.53 52.561 189.885 52.561 190.24C52.561 192.726 54.3392 193.72 56.473 192.513C58.6068 191.305 60.3849 188.251 60.3849 185.765C60.3849 185.41 60.3849 185.126 60.3138 184.913L70.6982 168.221C71.4095 168.505 72.263 168.434 73.1877 167.866C75.3214 166.658 77.0996 163.604 77.0996 161.118C77.0996 160.834 77.0996 160.621 77.0285 160.408L86.2038 151.387C86.8439 152.524 88.1242 152.737 89.6889 151.885C91.8227 150.677 93.6009 147.623 93.6009 145.137C93.6009 144.711 93.5297 144.427 93.4586 144.071L105.763 117.436C106.048 117.365 106.261 117.223 106.546 117.08C107.826 116.37 108.964 114.95 109.675 113.458L119.562 114.026C119.491 114.452 119.42 114.808 119.42 115.234C119.42 117.72 121.198 118.714 123.332 117.507C125.465 116.299 127.244 113.245 127.244 110.759C127.244 110.617 127.244 110.475 127.172 110.333L136.632 99.9626C137.344 100.673 138.482 100.815 139.762 100.034C140.615 99.5364 141.398 98.7551 142.038 97.8317L152.991 101.312C152.849 101.88 152.778 102.378 152.778 102.946C152.778 105.432 154.556 106.426 156.69 105.219C158.824 104.011 160.602 100.957 160.602 98.471C160.602 95.985 158.895 94.9906 156.761 96.1981ZM23.3282 198.195C22.119 198.905 21.1232 198.337 21.1232 196.917C21.1232 195.496 22.119 193.862 23.3282 193.152C24.5373 192.442 25.5331 193.01 25.5331 194.431C25.462 195.78 24.5373 197.485 23.3282 198.195ZM39.9717 191.021C38.7626 191.732 37.7668 191.163 37.7668 189.743C37.7668 188.322 38.7626 186.689 39.9717 185.978C41.1808 185.268 42.1766 185.836 42.1766 187.257C42.1055 188.606 41.1808 190.311 39.9717 191.021ZM56.6152 190.524C55.4061 191.234 54.4103 190.666 54.4103 189.246C54.4103 187.825 55.4061 186.191 56.6152 185.481C57.8244 184.771 58.8201 185.339 58.8201 186.76C58.8201 188.18 57.8244 189.885 56.6152 190.524ZM73.2588 165.877C72.0496 166.587 71.0539 166.019 71.0539 164.599C71.0539 163.178 72.0496 161.544 73.2588 160.834C74.4679 160.124 75.4637 160.692 75.4637 162.113C75.3926 163.533 74.4679 165.238 73.2588 165.877ZM89.6889 149.967C88.4798 150.677 87.484 150.109 87.484 148.688C87.484 147.268 88.4798 145.634 89.6889 144.924C90.8981 144.213 91.8939 144.782 91.8939 146.202C91.8939 147.552 90.8981 149.256 89.6889 149.967ZM106.546 115.163C105.337 115.873 104.341 115.305 104.341 113.884C104.341 112.464 105.337 110.83 106.546 110.12C107.755 109.409 108.751 109.978 108.751 111.398C108.751 112.819 107.755 114.523 106.546 115.163ZM123.332 115.518C122.123 116.228 121.127 115.66 121.127 114.239C121.127 112.819 122.123 111.185 123.332 110.475C124.541 109.765 125.537 110.333 125.537 111.753C125.465 113.174 124.541 114.879 123.332 115.518ZM139.833 98.1158C138.624 98.8261 137.628 98.2579 137.628 96.8373C137.628 95.4167 138.624 93.7831 139.833 93.0728C141.042 92.3625 142.038 92.9307 142.038 94.3513C141.967 95.7009 141.042 97.4055 139.833 98.1158ZM156.761 103.23C155.552 103.94 154.556 103.372 154.556 101.951C154.556 100.531 155.552 98.8971 156.761 98.1869C157.97 97.4766 158.966 98.0448 158.966 99.4654C158.895 100.815 157.97 102.52 156.761 103.23Z" fill="#A9D0E5"/>
<path d="M90.9717 70.8407L108.753 60.5415V70.3435L95.4526 78.0146L92.7498 84.5492V79.5772L90.9717 80.5716V70.8407Z" fill="#00FF00"/>
<path d="M124.186 135.69L142.039 125.391V115.66L128.667 123.331L125.965 119.85V124.894L124.186 125.888V135.69Z" fill="#E84A5A"/>
<defs>
<linearGradient id="paint0_linear" x1="254.779" y1="45.7659" x2="92.0734" y2="261.089" gradientUnits="userSpaceOnUse">
<stop stop-color="#DCEBFA"/>
<stop offset="1" stop-color="#AFD0F5"/>
</linearGradient>
<linearGradient id="paint1_linear" x1="238.662" y1="147.654" x2="171.486" y2="264.817" gradientUnits="userSpaceOnUse">
<stop stop-color="#DCEBFA"/>
<stop offset="1" stop-color="#AFD0F5"/>
</linearGradient>
<linearGradient id="paint2_linear" x1="232.616" y1="210.271" x2="232.616" y2="258.58" gradientUnits="userSpaceOnUse">
<stop stop-color="#25656A"/>
<stop offset="1" stop-color="#44CBA7"/>
</linearGradient>
</defs>
</svg>
