<svg width="198" height="344" viewBox="0 0 198 344" fill="none" xmlns="http://www.w3.org/2000/svg">
<path d="M6.25723 331.978H78.8883C80.0342 331.978 80.9156 332.908 80.9156 334.015V340.925C80.9156 342.077 79.9901 342.963 78.8883 342.963H6.25723C5.11135 342.963 4.2299 342.032 4.2299 340.925V334.015C4.18583 332.908 5.11135 331.978 6.25723 331.978Z" fill="#FAED00"/>
<path d="M4.1853 340.88C4.1853 342.032 5.11082 343.006 6.30077 343.006H78.7996C79.9455 343.006 80.9151 342.076 80.9151 340.88V339.729H4.1853V340.88Z" fill="#E8DC00"/>
<path d="M6.25723 320.993H78.8883C80.0342 320.993 80.9156 321.923 80.9156 323.031V329.94C80.9156 331.092 79.9901 331.978 78.8883 331.978H6.25723C5.11135 331.978 4.2299 331.048 4.2299 329.94V323.031C4.18583 321.879 5.11135 320.993 6.25723 320.993Z" fill="#FAED00"/>
<path d="M4.1853 329.896C4.1853 331.047 5.11082 332.022 6.30077 332.022H78.7996C79.9455 332.022 80.9151 331.092 80.9151 329.896V328.744H4.1853V329.896Z" fill="#E8DC00"/>
<path d="M6.25723 309.965H78.8883C80.0342 309.965 80.9156 310.896 80.9156 312.003V318.912C80.9156 320.064 79.9901 320.95 78.8883 320.95H6.25723C5.11135 320.95 4.2299 320.02 4.2299 318.912V312.003C4.18583 310.896 5.11135 309.965 6.25723 309.965Z" fill="#FAED00"/>
<path d="M4.1853 318.868C4.1853 320.019 5.11082 320.994 6.30077 320.994H78.7996C79.9455 320.994 80.9151 320.064 80.9151 318.868V317.716H4.1853V318.868Z" fill="#E8DC00"/>
<path d="M7.62356 144.975H80.2106C81.3564 144.975 82.2379 145.906 82.2379 147.013V153.923C82.2379 155.074 81.3124 155.96 80.2106 155.96H7.62356C6.47768 155.96 5.59624 155.03 5.59624 153.923V147.057C5.55217 145.906 6.47768 144.975 7.62356 144.975Z" fill="#FAED00"/>
<path d="M5.55164 153.878C5.55164 155.029 6.47715 156.004 7.6671 156.004H80.1659C81.3118 156.004 82.2814 155.074 82.2814 153.878V152.726H5.55164V153.878Z" fill="#E8DC00"/>
<path d="M6.78665 133.947H79.4177C80.5636 133.947 81.445 134.877 81.445 135.984V142.894C81.445 144.046 80.5195 144.931 79.4177 144.931H6.78665C5.64077 144.931 4.75932 144.001 4.75932 142.894V135.984C4.71525 134.877 5.64077 133.947 6.78665 133.947Z" fill="#FAED00"/>
<path d="M4.71472 142.894C4.71472 144.046 5.64024 145.02 6.83019 145.02H79.329C80.4749 145.02 81.4445 144.09 81.4445 142.894V141.743H4.71472V142.894Z" fill="#E8DC00"/>
<path d="M7.62356 122.962H80.2106C81.3564 122.962 82.2379 123.892 82.2379 125V131.909C82.2379 133.061 81.3124 133.947 80.2106 133.947H7.62356C6.47768 133.947 5.59624 133.017 5.59624 131.909V125C5.55217 123.892 6.47768 122.962 7.62356 122.962Z" fill="#FAED00"/>
<path d="M5.55164 131.865C5.55164 133.016 6.47715 133.991 7.6671 133.991H80.1659C81.3118 133.991 82.2814 133.061 82.2814 131.865V130.713H5.55164V131.865Z" fill="#E8DC00"/>
<path d="M6.25723 200.031H78.8883C80.0342 200.031 80.9156 200.961 80.9156 202.069V208.978C80.9156 210.13 79.9901 211.016 78.8883 211.016H6.25723C5.11135 211.016 4.2299 210.086 4.2299 208.978V202.069C4.18583 200.961 5.11135 200.031 6.25723 200.031Z" fill="#FAED00"/>
<path d="M4.1853 208.979C4.1853 210.13 5.11082 211.105 6.30077 211.105H78.7996C79.9455 211.105 80.9151 210.175 80.9151 208.979V207.827H4.1853V208.979Z" fill="#E8DC00"/>
<path d="M6.25723 189.047H78.8883C80.0342 189.047 80.9156 189.977 80.9156 191.084V197.994C80.9156 199.145 79.9901 200.031 78.8883 200.031H6.25723C5.11135 200.031 4.2299 199.101 4.2299 197.994V191.084C4.18583 189.977 5.11135 189.047 6.25723 189.047Z" fill="#FAED00"/>
<path d="M4.1853 197.949C4.1853 199.1 5.11082 200.075 6.30077 200.075H78.7996C79.9455 200.075 80.9151 199.145 80.9151 197.949V196.797H4.1853V197.949Z" fill="#E8DC00"/>
<path d="M6.6522 178.017H79.2833C80.4291 178.017 81.3106 178.947 81.3106 180.055V186.964C81.3106 188.116 80.3851 189.002 79.2833 189.002H6.6522C5.50632 189.002 4.62488 188.072 4.62488 186.964V180.055C4.62488 178.947 5.5504 178.017 6.6522 178.017Z" fill="#FAED00"/>
<path d="M4.62427 186.919C4.62427 188.071 5.54978 189.045 6.73974 189.045H79.2386C80.3845 189.045 81.354 188.115 81.354 186.919V185.768H4.62427V186.919Z" fill="#E8DC00"/>
<path d="M2.02732 298.936H74.6584C75.8043 298.936 76.6857 299.866 76.6857 300.973V307.883C76.6857 309.034 75.7602 309.92 74.6584 309.92H2.02732C0.881445 309.92 0 308.99 0 307.883V300.973C0 299.866 0.925517 298.936 2.02732 298.936Z" fill="#FAED00"/>
<path d="M0 307.838C0 308.99 0.925517 309.964 2.11547 309.964H74.6143C75.7602 309.964 76.7298 309.034 76.7298 307.838V306.687H0V307.838Z" fill="#E8DC00"/>
<path d="M6.25723 232.851H78.8883C80.0342 232.851 80.9156 233.781 80.9156 234.888V241.798C80.9156 242.95 79.9901 243.835 78.8883 243.835H6.25723C5.11135 243.835 4.2299 242.905 4.2299 241.798V234.888C4.18583 233.781 5.11135 232.851 6.25723 232.851Z" fill="#FAED00"/>
<path d="M4.1853 241.753C4.1853 242.905 5.11082 243.879 6.30077 243.879H78.7996C79.9455 243.879 80.9151 242.949 80.9151 241.753V240.602H4.1853V241.753Z" fill="#E8DC00"/>
<path d="M6.25723 221.867H78.8883C80.0342 221.867 80.9156 222.797 80.9156 223.905V230.814C80.9156 231.966 79.9901 232.852 78.8883 232.852H6.25723C5.11135 232.852 4.2299 231.921 4.2299 230.814V223.905C4.18583 222.753 5.11135 221.867 6.25723 221.867Z" fill="#FAED00"/>
<path d="M4.1853 230.769C4.1853 231.921 5.11082 232.895 6.30077 232.895H78.7996C79.9455 232.895 80.9151 231.965 80.9151 230.769V229.618H4.1853V230.769Z" fill="#E8DC00"/>
<path d="M4.84593 211.148H77.477C78.6229 211.148 79.5043 212.078 79.5043 213.185V220.095C79.5043 221.247 78.5788 222.132 77.477 222.132H4.84593C3.70005 222.132 2.8186 221.202 2.8186 220.095V213.185C2.8186 212.078 3.74412 211.148 4.84593 211.148Z" fill="#FAED00"/>
<path d="M2.81934 220.051C2.81934 221.202 3.74485 222.177 4.9348 222.177H77.4337C78.5795 222.177 79.5491 221.247 79.5491 220.051V218.899H2.81934V220.051Z" fill="#E8DC00"/>
<path d="M6.25625 287.951H78.8873C80.0332 287.951 80.9146 288.881 80.9146 289.988V296.898C80.9146 298.05 79.9891 298.935 78.8873 298.935H6.25625C5.11037 298.935 4.22893 298.005 4.22893 296.898V289.988C4.18486 288.837 5.11037 287.951 6.25625 287.951Z" fill="#FAED00"/>
<path d="M4.1853 296.853C4.1853 298.005 5.11082 298.979 6.30077 298.979H78.7996C79.9455 298.979 80.9151 298.049 80.9151 296.853V295.702H4.1853V296.853Z" fill="#E8DC00"/>
<path d="M3.39212 276.922H76.0232C77.1691 276.922 78.0505 277.853 78.0505 278.96V285.87C78.0505 287.021 77.125 287.907 76.0232 287.907H3.39212C2.24624 287.907 1.36479 286.977 1.36479 285.87V278.96C1.32072 277.853 2.24624 276.922 3.39212 276.922Z" fill="#FAED00"/>
<path d="M1.32019 285.825C1.32019 286.977 2.24571 287.951 3.43566 287.951H75.9345C77.0804 287.951 78.05 287.021 78.05 285.825V284.673H1.32019V285.825Z" fill="#E8DC00"/>
<path d="M2.02732 265.894H74.6584C75.8043 265.894 76.6857 266.824 76.6857 267.932V274.841C76.6857 275.993 75.7602 276.879 74.6584 276.879H2.02732C0.881445 276.879 0 275.949 0 274.841V267.976C0 266.824 0.925517 265.894 2.02732 265.894Z" fill="#FAED00"/>
<path d="M0 274.797C0 275.948 0.925517 276.923 2.11547 276.923H74.6143C75.7602 276.923 76.7298 275.992 76.7298 274.797V273.645H0V274.797Z" fill="#E8DC00"/>
<path d="M4.84593 254.909H77.477C78.6229 254.909 79.5043 255.839 79.5043 256.947V263.856C79.5043 265.008 78.5788 265.894 77.477 265.894H4.84593C3.70005 265.894 2.8186 264.964 2.8186 263.856V256.947C2.8186 255.795 3.74412 254.909 4.84593 254.909Z" fill="#FAED00"/>
<path d="M2.81934 263.812C2.81934 264.963 3.74485 265.938 4.9348 265.938H77.4337C78.5795 265.938 79.5491 265.008 79.5491 263.812V262.66H2.81934V263.812Z" fill="#E8DC00"/>
<path d="M5.15513 243.881H77.7862C78.9321 243.881 79.8135 244.811 79.8135 245.918V252.828C79.8135 253.979 78.888 254.865 77.7862 254.865H5.15513C4.00925 254.865 3.12781 253.935 3.12781 252.828V245.918C3.12781 244.811 4.00925 243.881 5.15513 243.881Z" fill="#FAED00"/>
<path d="M3.12854 252.783C3.12854 253.935 4.05406 254.909 5.24401 254.909H77.7429C78.8887 254.909 79.8583 253.979 79.8583 252.783V251.631H3.12854V252.783Z" fill="#E8DC00"/>
<path d="M6.25723 156.004H78.8883C80.0342 156.004 80.9156 156.934 80.9156 158.042V164.951C80.9156 166.103 79.9901 166.989 78.8883 166.989H6.25723C5.11135 166.989 4.2299 166.059 4.2299 164.951V158.042C4.18583 156.934 5.11135 156.004 6.25723 156.004Z" fill="#FAED00"/>
<path d="M4.1853 164.907C4.1853 166.058 5.11082 167.033 6.30077 167.033H78.7996C79.9455 167.033 80.9151 166.102 80.9151 164.907V163.755H4.1853V164.907Z" fill="#E8DC00"/>
<path d="M5.15513 166.989H77.7862C78.9321 166.989 79.8135 167.919 79.8135 169.026V175.936C79.8135 177.087 78.888 177.973 77.7862 177.973H5.15513C4.00925 177.973 3.12781 177.043 3.12781 175.936V169.026C3.12781 167.919 4.00925 166.989 5.15513 166.989Z" fill="#FAED00"/>
<path d="M3.12854 175.936C3.12854 177.088 4.05406 178.062 5.24401 178.062H77.7429C78.8887 178.062 79.8583 177.132 79.8583 175.936V174.785H3.12854V175.936Z" fill="#E8DC00"/>
<path d="M139.576 77.9173L139.664 68.5273L130.409 68.0844L130.277 78.5374C130.057 80.4419 127.765 81.9479 125.958 82.5237L122.697 83.5867C123.049 86.4657 126.002 93.0653 128.779 93.5082C134.111 94.3055 140.722 85.2698 143.719 82.4794C141.824 81.9479 139.708 79.999 139.576 77.9173Z" fill="#FFBDAC"/>
<path d="M126.001 82.5678L122.74 83.6309C122.74 83.7637 122.784 83.9409 122.828 84.0738H142.264C142.837 83.4537 143.365 82.8779 143.806 82.4793C142.308 82.0806 140.765 80.8404 140.016 79.3788H130.056C129.395 80.929 127.544 82.0806 126.001 82.5678Z" fill="#FAED00"/>
<path d="M138.34 80.2205H130.363C129.967 80.2205 129.658 79.9104 129.658 79.5118C129.658 79.1132 129.967 78.8031 130.363 78.8031H138.34C138.737 78.8031 139.045 79.1132 139.045 79.5118C139.045 79.9104 138.737 80.2205 138.34 80.2205Z" fill="#FFBDAC"/>
<path d="M160.907 332.332C160.907 332.332 161.04 334.503 160.467 336.009C159.894 337.515 164.477 337.78 164.565 337.736C164.653 337.692 166.725 336.009 166.725 336.009C166.725 336.009 166.108 334.104 166.196 332.022" fill="#FFBDAC"/>
<path d="M115.864 336.009H108.856V337.736H115.864V336.009Z" fill="#FFBDAC"/>
<path d="M194.093 172.924L195.151 176.334C195.151 176.334 196.429 177.353 197.178 179.39C197.31 179.789 198.412 182.668 197.002 185.68C196.385 187.009 195.107 188.78 194.225 188.559C193.256 188.337 192.727 185.769 192.727 185.813L189.333 175.005L194.093 172.924Z" fill="#F39592"/>
<path d="M190.347 178.239C188.188 182.358 188.1 183.554 188.452 183.864C188.981 184.263 190.964 183.421 191.493 181.605C191.89 180.409 191.449 179.036 190.347 178.239Z" fill="#F39592"/>
<path d="M152.797 83.2761C152.797 83.2761 181.224 107.504 194.974 173.588L188.892 175.227C188.892 175.227 172.145 139.838 169.941 132.839L143.85 89.3885L152.797 83.2761Z" fill="#E8DC00"/>
<path d="M157.425 144.887C157.425 144.887 173.467 157.554 173.379 191.615C173.335 206.852 166.151 332.066 166.151 332.066L160.862 332.332C151.519 284.674 144.776 237.812 137.019 189.356C135.917 189.179 130.276 188.78 129.263 187.629C127.103 185.104 129.218 180.675 129.174 178.726C128.998 170.931 128.954 153.081 129.439 146.525C135.741 147.013 151.607 145.462 157.425 144.887Z" fill="#209F6D"/>
<path d="M110.093 147.146C110.093 147.146 101.763 163.268 102.689 192.723C103.085 205.523 110.269 332.82 110.269 332.82C111.195 332.997 112.12 333.174 113.002 333.307C113.795 333.13 115.205 333.528 115.381 332.731C126.752 283.921 133.451 238.61 137.109 189.357C136.272 178.992 133.671 156.979 132.834 146.614L110.093 147.146Z" fill="#209F6D"/>
<path d="M157.644 186.433C154.867 211.99 161.787 291.583 163.682 332.199L166.194 332.066C166.194 332.066 173.378 206.896 173.422 191.615C173.51 157.554 157.468 144.887 157.468 144.887C155.132 145.108 151.165 145.507 146.846 145.861C152.179 155.915 159.671 167.741 157.644 186.433Z" fill="#1F4F5E"/>
<path d="M110.092 147.146C109.123 134.788 109.079 120.349 111.106 104.404C111.767 99.1774 112.561 94.2166 113.53 89.5216C113.883 87.7056 115.205 86.1997 116.968 85.6239C118.731 85.0481 120.449 84.4723 122.212 83.8965C130.057 81.2832 138.519 81.0618 146.496 83.3207C149.185 84.0736 151.212 86.2883 151.829 89.0344C153.504 96.9185 154.958 105.644 156.016 115.167C157.206 126.019 157.558 136.029 157.514 144.976C151.873 146.526 144.91 147.943 136.888 148.563C126.223 149.272 117.056 148.386 110.092 147.146Z" fill="#FAED00"/>
<path d="M151.784 88.9456C151.211 86.1994 149.139 84.0291 146.451 83.2761C146.98 84.6049 147.509 85.978 148.038 87.3067C147.861 88.6798 147.685 90.0529 147.509 91.3816C146.275 92.0903 144.336 93.3748 142.969 95.5894C138.694 102.455 143.719 111.225 146.275 123.139C147.465 128.499 148.567 136.693 147.597 147.367C149.184 146.969 150.726 146.57 152.313 146.171C154.031 145.728 155.75 145.33 157.469 144.887C157.557 135.94 157.161 125.93 155.971 115.078C154.913 105.555 153.459 96.8296 151.784 88.9456Z" fill="#E8DC00"/>
<path d="M130.408 58.5168C130.055 58.7383 127.543 60.6428 126.926 63.9205C126.089 68.2611 128.777 74.152 133.14 74.6392C137.327 75.1265 141.205 70.4315 141.558 66.0022C141.867 62.0602 139.398 57.4981 135.829 56.8337C133.317 56.3908 131.069 58.0296 130.408 58.5168Z" fill="#FFBDAC"/>
<path d="M143.806 65.2495C143.894 64.1422 143.056 63.1234 141.955 63.0348C140.853 62.9463 139.839 63.7878 139.751 64.8951C139.663 66.0024 140.5 67.0212 141.602 67.1097C142.704 67.2426 143.718 66.4011 143.806 65.2495Z" fill="#FFBDAC"/>
<path d="M176.199 125.974C181.84 119.419 186.291 108.656 181.972 101.835C177.83 95.2795 169.191 98.0699 165.357 91.5146C161.435 84.8708 168.574 79.157 167.517 70.0771C165.842 55.4606 143.982 41.9514 130.232 48.1966C122.871 51.5186 117.142 60.7757 118.2 67.951C119.478 76.5438 129.659 76.3666 131.466 85.7123C133.228 94.6594 124.678 99.1329 127.411 105.732C130.672 113.661 144.246 110.117 148.61 118.577C152.532 126.196 144.07 134.168 147.993 137.49C152.312 141.122 167.781 135.763 176.199 125.974Z" fill="black"/>
<path d="M124.679 98.9111C124.679 98.9111 105.508 110.471 92.2423 113.749C79.5495 116.85 52.6654 85.6234 52.6654 85.6234L55.6182 82.2129C55.6182 82.2129 73.159 90.3184 87.7469 101.879C87.7469 101.879 103.348 95.1463 116.658 86.022L124.679 98.9111Z" fill="#FAED00"/>
<path d="M115.821 336.009C115.821 336.009 118.862 338.932 115.821 341.988H97.7518C97.6636 341.634 97.267 339.862 98.3247 338.135C99.1621 336.717 100.44 336.186 100.837 336.009C103.702 336.009 106.61 336.009 109.475 336.009C109.563 336.009 112.692 337.869 115.821 336.009Z" fill="black"/>
<path d="M95.2234 342.99H116.378V342.015H95.2234V342.99Z" fill="#EFEEFE"/>
<path d="M100.879 336.009C98.0585 336.009 95.7668 338.312 95.7668 341.147V341.988H98.5433C98.4993 341.368 98.4993 340.394 98.8078 339.286C99.3366 337.559 100.35 336.496 100.879 336.009Z" fill="#EFEEFE"/>
<path d="M110.268 332.819L110.444 336.274L115.116 336.186L115.424 332.598L110.268 332.819Z" fill="#FFBDAC"/>
<path d="M167.916 341.944H159.145V342.874H167.916V341.944Z" fill="#EFEEFE"/>
<path d="M167.914 339.331C167.782 337.736 167.121 336.584 166.768 336.009C166.768 336.009 163.683 337.825 160.51 336.009C160.158 336.452 159.32 337.692 159.188 339.419C159.1 340.526 159.364 341.412 159.585 341.944C162.273 341.944 165.006 341.944 167.694 341.944C167.826 341.368 168.002 340.438 167.914 339.331Z" fill="black"/>
<path d="M87.5712 101.702C86.7779 103.03 86.5575 104.669 86.9541 106.131" stroke="#E8DC00" stroke-width="3.37879" stroke-miterlimit="10"/>
<path d="M105.553 336.23C105.244 336.718 104.936 337.161 104.672 337.648" stroke="#E1EEF7" stroke-width="3.37879" stroke-miterlimit="10"/>
<path d="M107.271 336.363C107.006 336.851 106.786 337.382 106.521 337.869" stroke="#E1EEF7" stroke-width="3.37879" stroke-miterlimit="10"/>
<path d="M116.128 329.321H109.208V333.042H116.128V329.321Z" fill="#2A9E3E"/>
<path d="M166.988 329.321H160.069V333.042H166.988V329.321Z" fill="#2A9E3E"/>
<path d="M128.647 169.469H113.178V171.152H128.647V169.469Z" fill="#1F4F5E"/>
<path d="M129.705 190.995C132.79 190.641 135.61 189.578 138.475 188.515C140.238 189.932 142.75 190.287 144.998 190.73" stroke="#1F4F5E" stroke-width="5.57316" stroke-miterlimit="10"/>
<path d="M132.127 190.685C132.127 190.685 131.466 211.724 132.347 237.547C132.347 237.547 136.666 200.075 137.548 187.984L132.127 190.685Z" fill="#1F4F5E"/>
<path d="M47.1563 68.1279H42.9694C42.3524 68.1279 41.8676 67.6407 41.8676 67.0206V62.4142H48.214V67.0206C48.2581 67.6407 47.7292 68.1279 47.1563 68.1279Z" fill="#08A652"/>
<path d="M69.368 24.323C69.368 10.6809 58.2177 -0.303641 44.5994 0.00640583C31.4658 0.316453 20.8885 11.301 20.9766 24.5001C21.0207 33.6687 26.1331 41.597 33.6254 45.7162C35.3442 46.6463 36.4019 48.4623 36.4019 50.4555V63.1231C36.4019 64.9391 37.8563 66.4451 39.7073 66.4451H50.5932C52.4001 66.4451 53.8986 64.9834 53.8986 63.1231V50.4555C53.8986 48.5066 54.9563 46.6463 56.6752 45.7162C64.2556 41.597 69.368 33.5801 69.368 24.323Z" fill="#FAED00"/>
<path d="M40.8979 62.9901V25.2972C40.8979 23.8356 39.752 22.684 38.2977 22.684H38.2536C36.7992 22.684 35.6533 23.8356 35.6533 25.2972C35.6533 26.7589 36.7992 27.9105 38.2536 27.9105H46.8036" stroke="#EFEEFE" stroke-width="2.97656" stroke-miterlimit="10" stroke-linecap="round"/>
<path d="M49.4476 62.9904V25.2976C49.4476 23.8359 50.5935 22.6843 52.0479 22.6843H52.0919C53.5463 22.6843 54.6922 23.8359 54.6922 25.2976C54.6922 26.7592 53.5463 27.9108 52.0919 27.9108H43.5419" stroke="#EFEEFE" stroke-width="2.97656" stroke-miterlimit="10" stroke-linecap="round"/>
<path d="M51.1638 66.7991H38.9558C37.1929 66.7991 35.7826 65.3818 35.7826 63.6101V50.1895H54.337V63.6101C54.337 65.3818 52.9267 66.7991 51.1638 66.7991Z" fill="#D3D5FC"/>
<path d="M35.3013 54.7074H54.6931" stroke="#2A9E3E" stroke-width="2.97656" stroke-miterlimit="10" stroke-linecap="round"/>
<path d="M35.3013 58.6937H54.6931" stroke="#2A9E3E" stroke-width="2.97656" stroke-miterlimit="10" stroke-linecap="round"/>
<path d="M35.3013 62.6801H54.6931" stroke="#2A9E3E" stroke-width="2.97656" stroke-miterlimit="10" stroke-linecap="round"/>
<path d="M52.7513 85.5349L51.3851 84.0733C51.3851 84.0733 44.3776 84.1176 40.4992 79.6883C40.2789 79.4226 40.4552 79.0239 40.8077 79.0239L51.6054 79.3783C52.3106 79.4226 52.9276 79.6883 53.4124 80.1755L55.5279 82.3016" fill="#F39592"/>
<path d="M52.9748 80.3529C52.9748 80.3529 52.2696 78.4926 51.4322 78.4926C50.5948 78.4926 48.5675 78.0054 48.9201 78.8469C49.2727 79.6885 52.9748 80.3529 52.9748 80.3529Z" fill="#F39592"/>
</svg>
