<svg width="411" height="289" viewBox="0 0 411 289" fill="none" xmlns="http://www.w3.org/2000/svg">
<path d="M84.4326 286.599C84.4326 285.806 65.5268 285.145 42.2328 285.145C18.9388 285.145 0 285.806 0 286.599C0 287.391 18.9058 288.052 42.1998 288.052C65.4938 288.052 84.4326 287.391 84.4326 286.599Z" fill="#9CF392"/>
<path d="M313.974 13.1463H295.101V59.0576H313.974V13.1463Z" fill="#BCFDE9"/>
<path d="M295.104 13.1463H276.231V59.0576H295.104V13.1463Z" fill="#2A9E3E"/>
<path d="M319.649 1.38811H295.101V13.1797H319.649V1.38811Z" fill="white"/>
<path d="M295.103 1.3879H270.555V13.1795H295.103V1.3879Z" fill="white"/>
<path d="M324.367 20.4456H123.795V30.2224L210.306 119.205H410.747V109.428L324.367 20.4456Z" fill="black"/>
<path d="M242.642 112.533H49.9219V267.377H242.642V112.533Z" fill="#9CF392"/>
<path d="M399.824 267.409H242.672V112.533L321.265 31.3787L399.824 112.533V267.409Z" fill="#C9E6DD"/>
<path d="M123.828 20.4456H324.368L237.988 109.428H37.4156L123.828 20.4456Z" fill="#22D327"/>
<path d="M237.889 109.428H37.4156V119.205H237.889L324.368 30.2224V20.4456L237.889 109.428Z" fill="black"/>
<path d="M121.453 159.369H80.6057V215.255H77.1083V219.615H80.6057H121.453H124.983V215.255H121.453V159.369Z" fill="#9CF392"/>
<path d="M214.963 159.369H174.083V215.255H170.585V219.615H174.083H214.963H218.46V215.255H214.963V159.369Z" fill="#9CF392"/>
<path d="M116.213 161.548H79.7212V217.435H116.213V161.548Z" fill="black"/>
<path d="M119.181 220.408H76.7505V158.576H119.181V220.408ZM82.6895 214.462H113.242V164.521H82.6895V214.462Z" fill="white"/>
<path d="M121.888 214.462H74.0133V220.408H121.888V214.462Z" fill="white"/>
<path d="M116.212 186.519H79.7202V192.464H116.212V186.519Z" fill="white"/>
<path d="M100.937 161.548H94.9983V218.359H100.937V161.548Z" fill="white"/>
<path d="M209.749 161.548H173.257V217.435H209.749V161.548Z" fill="black"/>
<path d="M212.716 220.408H170.285V158.576H212.716V220.408ZM176.224 214.462H206.777V164.521H176.224V214.462Z" fill="white"/>
<path d="M215.453 214.462H167.578V220.408H215.453V214.462Z" fill="white"/>
<path d="M209.746 186.52H173.254V192.465H209.746V186.52Z" fill="white"/>
<path d="M194.473 161.548H188.534V218.359H194.473V161.548Z" fill="white"/>
<path d="M320.772 80.6926C309.521 80.6926 300.349 89.8749 300.349 101.138V129.378H341.196V101.138C341.196 89.8749 332.056 80.6926 320.772 80.6926Z" fill="#C9E6DD"/>
<path d="M342.154 127.231H305.662V101.171C305.662 91.0969 313.845 82.9055 323.908 82.9055C333.971 82.9055 342.154 91.0969 342.154 101.171V127.231Z" fill="black"/>
<path d="M345.123 130.204H302.692V101.171C302.692 89.4455 312.195 79.9329 323.908 79.9329C335.621 79.9329 345.123 89.4455 345.123 101.171V130.204ZM308.631 124.259H339.184V101.171C339.184 92.7485 332.321 85.8783 323.908 85.8783C315.494 85.8783 308.631 92.7485 308.631 101.171V124.259Z" fill="white"/>
<path d="M326.878 82.8723H320.939V127.198H326.878V82.8723Z" fill="white"/>
<path d="M342.155 102.096H305.664V108.041H342.155V102.096Z" fill="white"/>
<path d="M242.639 247.889H47.6428V267.377H242.639V247.889Z" fill="black"/>
<path d="M402.662 247.889H242.672V267.377H402.662V247.889Z" fill="#1F4F5E"/>
<path d="M346.442 157.189H295.103V247.889H346.442V157.189Z" fill="#C9E6DD"/>
<path d="M347.4 159.369H300.416V245.709H347.4V159.369Z" fill="black"/>
<path d="M350.369 248.682H297.446V156.397H350.369V248.682ZM303.385 242.736H344.43V162.342H303.385V242.736Z" fill="white"/>
<path d="M347.4 202.539H300.416V245.709H347.4V202.539Z" fill="white"/>
<path d="M326.877 159.369H320.938V215.784H326.877V159.369Z" fill="white"/>
<path d="M161.143 90.8983H150.552C150.387 90.8983 150.321 90.7001 150.42 90.601L200.505 39.0085C200.538 38.9755 200.571 38.9425 200.637 38.9425H211.228C211.393 38.9425 211.459 39.1407 211.36 39.2398L161.275 90.8322C161.242 90.8652 161.209 90.8983 161.143 90.8983Z" fill="black"/>
<path d="M359.208 247.889H304.569V257.666H359.208V247.889Z" fill="#BCFDE9"/>
<path d="M368.648 257.633H311.105V267.409H368.648V257.633Z" fill="#BCFDE9"/>
<path d="M295.102 247.889V267.41H311.104V257.633H304.571V247.889H295.102Z" fill="black"/>
<path d="M303.253 217.666C304.711 217.666 305.892 216.483 305.892 215.024C305.892 213.565 304.711 212.382 303.253 212.382C301.795 212.382 300.613 213.565 300.613 215.024C300.613 216.483 301.795 217.666 303.253 217.666Z" fill="#C9E6DD"/>
<path d="M305.098 217.666C306.556 217.666 307.738 216.483 307.738 215.024C307.738 213.565 306.556 212.382 305.098 212.382C303.64 212.382 302.459 213.565 302.459 215.024C302.459 216.483 303.64 217.666 305.098 217.666Z" fill="#1F4F5E"/>
<path d="M254.847 247.889H242.672V114.284L254.847 101.733V247.889Z" fill="white"/>
<path d="M396.724 247.888H384.516V96.7113L396.724 109.329V247.888Z" fill="#C9E6DD"/>
<path d="M399.827 247.889H387.652V99.949L399.827 112.533V247.889Z" fill="white"/>
<path d="M242.675 247.889H230.467V119.205H237.891L242.675 114.284V247.889Z" fill="white"/>
<path d="M62.1298 119.205H49.9219V247.889H62.1298V119.205Z" fill="white"/>
<path d="M95.6494 170.467H84.9593C84.9593 170.467 83.6065 172.614 84.1014 176.974L101.654 177.106C102.71 177.106 103.337 175.917 102.71 175.058C101.588 173.505 99.4438 171.425 95.6494 170.467Z" fill="#E8DC00"/>
<path d="M93.4083 36.9277L119.87 64.3423L113.733 63.0542L145.902 54.5325C147.75 54.0371 149.598 55.127 150.093 56.9767C150.522 58.6282 149.664 60.3127 148.146 61.0063L117.725 74.4494C115.811 75.3082 113.667 74.9119 112.182 73.6567L111.588 73.1613L82.5532 48.5211C79.2207 45.6805 78.7918 40.66 81.6293 37.324C84.4668 33.988 89.482 33.5586 92.8144 36.3992C93.0454 36.5643 93.2433 36.7625 93.4083 36.9277Z" fill="#BCFDE9"/>
<path d="M25.4407 286.996C25.0777 286.996 24.7148 286.93 24.3518 286.798C22.6361 286.203 21.7123 284.321 22.3392 282.603L96.4115 70.7174C97.0054 68.9998 98.8861 68.075 100.602 68.7026C102.318 69.2971 103.241 71.1798 102.614 72.8973L28.5421 284.783C28.0802 286.137 26.7934 286.996 25.4407 286.996Z" fill="#E8DC00"/>
<path d="M59.6848 286.996C59.3219 286.996 58.9589 286.93 58.596 286.798C56.8803 286.203 55.9564 284.321 56.5833 282.603L130.656 70.7174C131.25 68.9998 133.13 68.075 134.846 68.7026C136.562 69.2971 137.485 71.1798 136.859 72.8973L62.8193 284.783C62.3243 286.137 61.0376 286.996 59.6848 286.996Z" fill="#FAED00"/>
<path d="M125.377 98.5944H92.3498C90.7991 98.5944 89.5453 97.3393 89.5453 95.7869C89.5453 94.2345 90.7991 92.9794 92.3498 92.9794H125.377C126.928 92.9794 128.182 94.2345 128.182 95.7869C128.182 97.3393 126.928 98.5944 125.377 98.5944Z" fill="#FAED00"/>
<path d="M110.694 140.245H77.6669C76.1162 140.245 74.8624 138.99 74.8624 137.437C74.8624 135.885 76.1162 134.63 77.6669 134.63H110.694C112.245 134.63 113.499 135.885 113.499 137.437C113.499 138.99 112.245 140.245 110.694 140.245Z" fill="#FAED00"/>
<path d="M96.2436 181.895H63.2163C61.6655 181.895 60.4117 180.64 60.4117 179.088C60.4117 177.535 61.6655 176.28 63.2163 176.28H96.2436C97.7943 176.28 99.0481 177.535 99.0481 179.088C99.0481 180.64 97.7943 181.895 96.2436 181.895Z" fill="#FAED00"/>
<path d="M81.6626 223.546H48.6352C47.0845 223.546 45.8307 222.291 45.8307 220.738C45.8307 219.186 47.0845 217.931 48.6352 217.931H81.6626C83.2133 217.931 84.4671 219.186 84.4671 220.738C84.4671 222.291 83.2133 223.546 81.6626 223.546Z" fill="#FAED00"/>
<path d="M66.9473 265.163H33.8869C32.3362 265.163 31.0824 263.908 31.0824 262.356C31.0824 260.803 32.3362 259.548 33.8869 259.548H66.9143C68.465 259.548 69.7188 260.803 69.7188 262.356C69.7518 263.908 68.465 265.163 66.9473 265.163Z" fill="#FAED00"/>
<path d="M198.031 57.7692C198.031 44.3261 188.364 33.1291 175.595 30.85L174.803 30.4206H170.712C155.6 30.4206 143.359 42.6747 143.359 57.8023C143.359 72.7978 155.435 84.9857 170.382 85.1839H174.341L175.595 84.7545C188.364 82.4094 198.031 71.2123 198.031 57.7692Z" fill="#E8DC00"/>
<path d="M167.477 33.6578V32.4357H160.35C159.459 32.799 158.602 33.1954 157.744 33.6578H167.477Z" fill="#E8DC00"/>
<path d="M143.36 58.4965H167.479V54.9953H143.492C143.393 55.9202 143.36 56.845 143.36 57.8029C143.36 58.0011 143.36 58.2323 143.36 58.4965Z" fill="#E8DC00"/>
<path d="M167.479 36.8288V35.5076H154.743C154.182 35.937 153.621 36.3664 153.06 36.8288H167.479Z" fill="#E8DC00"/>
<path d="M167.479 48.1246V45.251H146.362C145.9 46.1759 145.471 47.1337 145.109 48.1246H167.479Z" fill="#E8DC00"/>
<path d="M193.71 77.1257C204.391 66.4326 204.391 49.0957 193.71 38.4026C183.028 27.7095 165.71 27.7095 155.028 38.4026C144.347 49.0957 144.347 66.4326 155.028 77.1257C165.71 87.8188 183.028 87.8188 193.71 77.1257Z" fill="#E8DC00"/>
<path d="M186.479 69.8856C193.166 63.1911 193.166 52.3372 186.479 45.6427C179.792 38.9483 168.95 38.9483 162.262 45.6428C155.575 52.3372 155.575 63.1911 162.262 69.8856C168.95 76.58 179.792 76.58 186.479 69.8856Z" fill="#E8DC00"/>
<path d="M181.17 52.5829L176.782 53.2766C176.551 52.7151 176.353 52.3187 176.188 52.1205C176.023 51.8893 175.726 51.6911 175.297 51.4599V54.895C177.706 55.5226 179.289 56.2162 180.114 56.9098C181.17 57.8677 181.698 59.0898 181.698 60.5431C181.698 61.4019 181.5 62.1946 181.137 62.9212C180.741 63.6479 180.279 64.2424 179.685 64.7379C179.091 65.2333 178.465 65.5636 177.772 65.7948C177.112 66.026 176.287 66.1251 175.297 66.1912V68.4372H173.581V66.1912C172.427 66.0921 171.47 65.8939 170.744 65.6297C170.018 65.3654 169.391 64.9691 168.863 64.5067C168.335 64.0112 167.939 63.5158 167.642 62.9543C167.345 62.3928 167.147 61.7322 167.016 60.9395L171.8 60.378C171.932 61.1707 172.13 61.7322 172.361 62.0625C172.592 62.4258 172.987 62.7231 173.548 62.9873V58.7925C171.965 58.3631 170.81 57.9668 170.15 57.6365C169.49 57.3062 168.896 56.7777 168.401 56.0841C167.906 55.3574 167.675 54.4987 167.675 53.4747C167.675 52.0545 168.17 50.8984 169.16 49.9406C170.15 48.9827 171.602 48.4872 173.548 48.3551V47.1661H175.264V48.3551C177.046 48.4542 178.399 48.8836 179.322 49.6103C180.279 50.3039 180.906 51.2948 181.17 52.5829ZM173.581 51.3939C173.086 51.559 172.724 51.7572 172.526 52.0214C172.328 52.2526 172.229 52.5499 172.229 52.8802C172.229 53.2435 172.328 53.5408 172.526 53.805C172.724 54.0693 173.086 54.2675 173.581 54.4656V51.3939ZM175.297 63.0534C175.957 62.8882 176.452 62.657 176.782 62.3267C177.079 61.9964 177.244 61.6001 177.244 61.1707C177.244 60.8073 177.112 60.444 176.848 60.1467C176.584 59.8495 176.056 59.5522 175.297 59.288V63.0534Z" fill="#E8DC00"/>
<path d="M155.238 69.4286V66.9844H144.943C145.24 67.8101 145.57 68.6359 145.966 69.4286H155.238Z" fill="#E8DC00"/>
<path d="M102.283 4.09614C108.09 5.97883 109.937 11.693 109.377 18.0677C108.849 23.914 105.318 37.324 99.9071 34.0871C94.694 30.9163 86.4454 17.0438 88.3261 11.1975C90.2068 5.35127 96.4757 2.21344 102.283 4.09614Z" fill="#FFBDAC"/>
<path d="M90.4383 16.0852C90.4383 16.0852 91.7581 29.3962 84.4333 33.2607L98.5549 36.5637C98.5549 36.5637 96.4103 32.5671 99.0828 26.4566C101.788 20.28 90.4383 16.0852 90.4383 16.0852Z" fill="#FFBDAC"/>
<path d="M82.0246 98.8909C80.9358 92.1528 74.6009 87.5617 67.8701 88.6517C61.1392 89.7417 56.553 96.0834 57.6418 102.821C58.3677 107.247 58.9286 111.673 59.5225 116.099C60.0834 120.525 60.6113 124.951 61.1062 129.377C61.6011 133.803 62.063 138.229 62.492 142.655L63.1189 149.294L63.6798 155.57L62.8549 161.053L61.7991 167.89C61.0732 172.448 60.3473 177.006 59.5555 181.531C58.7636 186.089 57.9718 190.615 57.1139 195.14C56.256 199.665 55.3652 204.19 54.3754 208.682V208.715L63.9437 210.796C64.9336 206.304 66.0554 201.845 67.1442 197.353C68.266 192.894 69.4538 188.435 70.6416 183.976C71.8294 179.517 73.0832 175.091 74.3369 170.665L76.2506 164.026L78.1973 157.387C78.2633 157.155 78.2963 156.891 78.3293 156.627L78.3623 155.636L78.6592 148.964L78.9891 142.292C79.2201 137.833 79.4841 133.407 79.781 128.948C80.078 124.489 80.4079 120.063 80.8038 115.604C81.1998 111.145 81.5957 106.719 82.1236 102.26C82.2226 101.236 82.2226 100.047 82.0246 98.8909Z" fill="#2A9E3E"/>
<path d="M121.519 112.664L120.661 112.202L79.0548 90.0058C78.131 89.5434 77.1082 89.114 76.0524 88.8828C69.4205 87.3304 62.7886 91.4591 61.2379 98.0981C59.6872 104.737 63.8114 111.376 70.4433 112.928L105.153 122.507L84.9608 170.433H95.651L123.894 120.79C123.927 120.757 123.96 120.69 123.96 120.657C125.511 117.817 124.389 114.217 121.519 112.664Z" fill="#209F6D"/>
<path d="M90.8352 32.1048C80.8709 29 72.3914 36.5638 68.696 43.9295C63.6149 54.0696 57.9399 74.3498 56.95 98.957C56.917 99.4524 57.346 99.8488 57.8409 99.8488C61.4703 99.7167 75.4269 99.023 89.0205 96.5458C89.6474 96.4137 90.0764 95.8192 89.9774 95.1586C87.6678 81.5503 95.0255 72.6983 100.734 68.6687C103.571 66.6539 105.386 63.4831 105.716 60.0149C106.607 50.3042 107.827 36.729 90.8352 32.1048Z" fill="white"/>
<path d="M99.0831 37.2902L133.331 60.411L127.26 60.9065L158.605 36.7617L163.356 42.4759L133.991 68.9987C132.407 70.419 130.197 70.6502 128.415 69.7254L127.953 69.4942L91.2634 50.5021L99.0831 37.2902Z" fill="white"/>
<path d="M93.0783 0.627567C88.888 1.91573 86.7104 5.11961 85.5886 8.09229C84.3678 11.3292 81.9922 14.0046 78.9567 15.6891C76.3171 17.1424 74.1725 19.3885 72.8197 22.0639C70.9721 25.7302 68.0686 28.8019 64.3732 30.6516C56.5535 34.5491 51.1424 43.5002 51.1754 52.6494C51.2084 64.9695 61.3377 74.9114 73.6776 74.6802C85.5886 74.449 95.4869 64.2759 95.3549 52.3521C95.3549 50.9649 95.1899 49.6437 94.959 48.3225C94.2661 44.7553 95.1239 41.056 97.4665 38.2815C99.6442 35.7051 100.964 32.3691 100.964 28.7028C100.964 27.3156 100.766 25.9944 100.436 24.7062C100.568 20.2142 104.494 17.8691 107.596 16.7461C110.235 15.7552 111.786 13.0137 111.192 10.2722C109.41 2.01482 100.238 -1.55239 93.0783 0.627567Z" fill="black"/>
<path d="M172.364 30.6514C171.968 30.0568 171.242 29.7265 170.516 29.7265L167.448 29.8256C166.92 29.8256 166.425 30.0568 166.062 30.4202L163.192 33.2937V33.1616L164.709 30.6183C164.841 30.4202 164.775 30.1559 164.61 29.9908C164.412 29.8587 164.148 29.8917 163.983 30.0568L161.608 32.3359L161.443 32.468L161.41 32.7983C161.212 34.4498 160.453 36.0022 159.298 37.1582L159.166 37.2903L162.664 41.4191L165.402 39.9327C166.92 39.107 168.273 37.984 169.395 36.6297L172.298 33.0956C172.793 32.4019 172.859 31.4441 172.364 30.6514Z" fill="#FFBDAC"/>
<path d="M54.3417 208.748L63.9101 210.829L64.339 212.117C64.8669 213.735 65.9557 215.056 67.4405 215.882L69.4201 216.972C70.245 217.435 69.915 218.657 68.9912 218.657H62.0954L52.494 213.735L54.3417 208.748Z" fill="#E8DC00"/>
<path d="M66.682 218.657H62.1288L53.1544 215.585C52.4945 215.354 52.1645 214.66 52.3955 214C52.6595 213.273 53.4843 212.976 54.1442 213.339L61.9969 217.6L66.682 218.657Z" fill="#E8DC00"/>
<path d="M130.757 59.024C130.658 59.024 130.56 58.9909 130.494 58.9249C130.362 58.8258 117.263 50.1059 108.189 43.9955C99.8417 38.3804 97.7631 39.3052 97.7631 39.3052C97.5651 39.4704 97.2352 39.4374 97.0702 39.2392C96.9053 39.041 96.9382 38.7107 97.1362 38.5455C97.4992 38.2483 99.7428 37.0592 108.75 43.1697C117.824 49.2802 130.922 58 131.054 58.0991C131.285 58.2643 131.351 58.5616 131.186 58.7928C131.054 58.9579 130.922 59.024 130.757 59.024Z" fill="#9CF392"/>
<path d="M130.887 70.7499C130.096 70.7499 129.271 70.5518 128.545 70.1884L101.324 56.2169C101.094 56.0847 100.995 55.7875 101.094 55.5563C101.225 55.3251 101.522 55.226 101.753 55.3251L128.974 69.2966C130.491 70.0894 132.372 69.8251 133.659 68.6691L162.661 42.3774L158.504 37.3899L132.306 57.6041C131.349 58.3308 130.656 59.3217 130.327 60.4777L130.294 60.6098C130.228 60.8741 129.931 61.0062 129.667 60.9401C129.403 60.8741 129.271 60.5768 129.337 60.3125L129.37 60.1804C129.766 58.8262 130.59 57.6702 131.712 56.8114L158.669 36.0357L164.047 42.4765L134.352 69.4288C133.395 70.2875 132.141 70.7499 130.887 70.7499Z" fill="#9CF392"/>
<path d="M103.274 40.9903C103.076 40.9903 102.911 40.8912 102.812 40.693C101.921 38.8103 99.2817 36.7295 99.2487 36.6964C99.0178 36.5313 98.9848 36.201 99.1497 36.0028C99.3147 35.7716 99.6447 35.7386 99.8426 35.9037C99.9746 36.0028 102.68 38.1497 103.67 40.2636C103.802 40.4948 103.67 40.7921 103.439 40.9242C103.439 40.9573 103.373 40.9903 103.274 40.9903Z" fill="#9CF392"/>
<path d="M57.8073 100.344C57.4443 100.344 57.0814 100.212 56.8174 99.9146C56.5535 99.6504 56.4215 99.2871 56.4215 98.9237C56.5205 95.6538 57.0814 84.0604 59.424 72.3678C59.49 72.1036 59.7209 71.9384 60.0179 71.9715C60.2818 72.0375 60.4468 72.3018 60.4138 72.566C58.1042 84.1925 57.5433 95.7199 57.4443 98.9568C57.4443 99.0559 57.4773 99.1549 57.5433 99.221C57.6093 99.2871 57.7083 99.3201 57.8073 99.3201C71.104 99.2871 85.0606 96.7438 89.0199 95.9841C89.3169 95.918 89.5479 95.6208 89.4819 95.3235C89.0529 92.8463 88.2611 86.5706 90.4717 81.3519C93.4412 74.3496 95.8498 72.3018 98.6543 69.9236C99.5781 69.1309 100.535 68.3382 101.591 67.2813C105.715 63.1856 105.319 58.0329 105.319 57.9999C105.286 57.7357 105.484 57.4714 105.781 57.4714C106.045 57.4384 106.309 57.6366 106.309 57.9338C106.342 58.165 106.771 63.5819 102.317 68.0079C101.228 69.0979 100.271 69.9236 99.3142 70.7163C96.5097 73.0945 94.299 75.0102 91.3955 81.7813C89.2839 86.7688 90.0428 92.8132 90.4717 95.1914C90.6367 96.0171 90.0758 96.8429 89.2179 97.008C85.2256 97.7677 71.203 100.311 57.8073 100.344Z" fill="#9CF392"/>
</svg>
