<svg width="224" height="330" viewBox="0 0 224 330" fill="none" xmlns="http://www.w3.org/2000/svg">
<path d="M219.723 211.498C219.079 210.578 214.935 209.289 210.148 208.828C209.411 204.685 208.03 200.818 206.188 197.135C209.503 194.556 212.818 191.426 212.634 189.308C212.265 185.073 203.794 177.154 202.045 176.786C200.94 176.51 196.981 178.627 193.113 181.85C189.799 179.456 186.208 177.614 182.249 176.233C182.801 171.998 182.893 167.486 181.236 166.105C178.013 163.343 166.411 163.803 164.846 164.724C163.925 165.368 162.636 169.512 162.176 174.3C157.941 174.944 153.981 176.141 150.206 177.891C147.628 174.668 144.682 171.63 142.656 171.814C138.42 172.182 130.502 180.653 130.134 182.402C129.949 183.415 131.699 186.914 134.553 190.505C131.883 193.912 129.765 197.779 128.292 202.015C124.425 201.646 120.65 201.646 119.453 203.12C116.691 206.342 117.151 217.944 118.072 219.509C118.624 220.338 122.031 221.443 126.174 222.087C126.819 226.691 128.2 231.111 130.134 235.07C127.371 237.372 124.977 239.95 125.161 241.699C125.53 245.935 134.001 253.853 135.75 254.222C136.763 254.406 139.802 252.933 143.024 250.447C146.707 253.117 150.851 255.234 155.27 256.708C154.994 260.299 155.086 263.798 156.467 264.902C159.69 267.665 171.292 267.204 172.857 266.284C173.685 265.731 174.79 262.324 175.435 258.089C179.947 257.352 184.182 255.879 188.141 253.761C190.535 256.708 193.298 259.286 195.139 259.194C199.375 258.825 207.293 250.354 207.661 248.605C207.846 247.592 206.004 244.001 203.242 240.41C205.636 236.911 207.569 233.044 208.858 228.901C212.91 229.361 217.053 229.361 218.342 227.888C221.105 224.665 220.736 213.064 219.723 211.498ZM166.78 235.254C156.283 234.425 148.549 225.218 149.377 214.813C150.206 204.317 159.414 196.582 169.818 197.411C180.315 198.239 188.049 207.447 187.221 217.852C186.392 228.348 177.184 236.083 166.78 235.254Z" fill="#42E3B4"/>
<path d="M168.529 243.357C167.793 243.357 167.056 243.357 166.227 243.265C151.127 241.976 139.894 228.717 141.183 213.709C142.472 198.608 155.731 187.375 170.739 188.664C185.84 189.953 197.073 203.212 195.784 218.22C194.679 232.492 182.617 243.357 168.529 243.357ZM168.437 189.677C154.902 189.677 143.485 200.081 142.288 213.709C141.091 228.165 151.864 240.779 166.319 241.976C180.683 243.173 193.39 232.4 194.587 218.036C195.784 203.58 185.011 190.966 170.555 189.769C169.91 189.677 169.174 189.677 168.437 189.677Z" fill="white"/>
<path d="M207.385 211.316C207.201 211.316 207.017 211.224 206.832 211.224C207.201 213.986 207.293 216.748 207.109 219.695C205.359 240.964 186.576 256.893 165.306 255.144C151.403 254.039 139.709 245.568 133.908 233.874C133.724 233.874 133.54 233.874 133.356 233.966C139.249 245.844 151.126 254.499 165.306 255.696C186.852 257.446 205.82 241.333 207.661 219.787C207.845 216.84 207.753 213.986 207.385 211.316Z" fill="white"/>
<path d="M147.354 183.968C154.259 179.457 162.73 177.063 171.662 177.799C171.846 177.799 172.03 177.799 172.214 177.891C172.122 177.707 172.122 177.523 172.122 177.339C172.03 177.339 171.846 177.339 171.754 177.339C162.822 176.602 154.259 178.996 147.261 183.508C147.261 183.6 147.354 183.784 147.354 183.968Z" fill="white"/>
<path d="M154.076 143.73C153.432 142.165 147.539 139.034 140.541 137.008C140.633 130.655 139.712 124.394 137.963 118.501C143.672 115.555 149.38 111.78 149.749 108.649C150.393 102.204 139.989 88.024 137.411 87.0112C135.753 86.3666 129.308 88.3923 122.678 92.0753C118.443 87.6557 113.563 83.7885 108.13 80.6579C110.064 74.4888 111.537 67.7673 109.512 65.2812C105.46 60.2171 88.0579 57.6389 85.4797 58.6518C83.9145 59.2963 80.8759 65.0971 78.7582 72.1869C72.3129 71.9107 65.9596 72.6473 59.8826 74.2126C56.9362 68.6881 53.4373 63.3477 50.3067 63.0714C43.8614 62.4269 29.6817 72.8315 28.6689 75.4096C28.0244 76.8828 29.7738 82.6836 32.9044 88.7606C28.0244 93.1802 23.7889 98.3365 20.3821 104.137C14.7655 102.296 9.14882 101.283 6.84692 103.124C1.78275 107.176 -0.795377 124.578 0.217458 127.156C0.769913 128.629 5.55786 131.208 11.6349 133.233C11.2666 140.231 12.0952 147.229 13.9368 153.766C9.14882 156.436 4.91333 159.567 4.54502 162.329C3.90049 168.775 14.3051 182.954 16.8832 183.967C18.2643 184.52 23.3285 183.138 28.8531 180.376C33.5489 185.44 39.0735 189.768 45.3346 193.175C43.8614 198.515 43.0327 203.671 44.7822 205.789C48.8335 210.853 66.2359 213.431 68.814 212.419C70.2872 211.866 72.8653 207.078 74.891 201.001C81.7967 201.093 88.6103 200.08 95.0556 198.055C97.8179 203.119 101.133 207.723 103.987 208.091C110.432 208.735 124.612 198.331 125.625 195.753C126.269 194.28 124.52 188.479 121.297 182.31C125.901 177.798 129.768 172.55 132.899 166.657C138.792 168.498 145.053 169.695 147.355 167.762C152.511 163.71 155.181 146.308 154.076 143.73ZM68.4457 164.263C53.069 160.027 44.0456 144.19 48.2811 128.814C52.5166 113.437 68.3536 104.414 83.7303 108.649C99.107 112.884 108.13 128.722 103.895 144.098C99.6594 159.475 83.7303 168.498 68.4457 164.263Z" fill="#9CF392"/>
<path d="M78.2965 177.245C74.0611 177.43 69.7335 176.969 65.498 175.772C54.8172 172.826 45.9779 165.92 40.5454 156.344C35.113 146.768 33.7318 135.627 36.5862 124.946C39.5326 114.266 46.4383 105.426 56.0142 99.9938C65.5901 94.5613 76.7313 93.1802 87.4121 96.0345C98.0929 98.981 106.932 105.887 112.365 115.463C117.797 125.038 119.178 136.18 116.324 146.86C113.377 157.541 106.472 166.381 96.8959 171.813C91.0951 175.128 84.7419 176.969 78.2965 177.245ZM74.6135 95.7583C68.3523 96.0345 62.1833 97.784 56.5666 101.007C47.267 106.347 40.6375 114.91 37.7832 125.223C34.9288 135.535 36.3099 146.4 41.5583 155.7C46.8987 164.999 55.4617 171.721 65.7742 174.575C76.0867 177.43 86.9517 176.048 96.2513 170.8C105.551 165.46 112.273 156.897 115.127 146.584C117.981 136.272 116.6 125.407 111.352 116.107C106.011 106.807 97.4483 100.086 87.1358 97.2315C82.9924 96.0345 78.7569 95.5741 74.6135 95.7583Z" fill="white"/>
<path d="M135.749 139.862C135.473 139.77 135.288 139.678 135.012 139.586C134.828 143.821 134.184 148.057 132.987 152.2C124.424 183.506 91.9207 201.921 60.707 193.266C40.2661 187.649 25.2578 171.812 19.7332 152.753C19.457 152.753 19.1808 152.753 18.9045 152.66C24.4291 172.088 39.6216 188.294 60.4308 194.003C92.1049 202.75 124.976 184.058 133.723 152.384C134.828 148.241 135.473 144.097 135.749 139.862Z" fill="white"/>
<path d="M53.8934 82.2231C65.4949 77.4352 78.7539 76.3303 91.8286 79.9212C92.1049 80.0133 92.289 80.1054 92.5653 80.1054C92.5653 79.8292 92.5653 79.5529 92.5653 79.2767C92.3811 79.1846 92.197 79.1846 92.0128 79.0926C78.846 75.5016 65.4949 76.6065 53.7092 81.3945C53.8013 81.7628 53.8934 82.039 53.8934 82.2231Z" fill="white"/>
<path d="M126.729 174.024H138.515C149.472 174.024 159.416 180.469 163.836 190.505L174.977 215.642L151.774 226.783L159.232 231.848L163.376 270.059L78.1134 268.586L74.8907 173.379L126.269 174.484L126.729 174.024Z" fill="#9CF392"/>
<path d="M117.43 154.781C117.43 154.781 118.535 166.29 120.101 171.078C121.39 174.577 126.73 174.024 126.73 174.024C126.73 174.024 122.587 192.255 107.394 192.255C92.2016 192.255 89.8076 176.603 89.8076 176.603L100.58 174.945L95.6084 158.372L117.43 154.781Z" fill="#F39592"/>
<path d="M123.597 129.276L120.098 108.743L84.557 124.58L86.6747 136.642C86.6747 136.642 89.437 165.922 108.313 162.423C128.846 158.648 124.518 129 123.597 129.276Z" fill="#FFBDAC"/>
<path d="M174.978 215.734L179.766 232.768C183.265 245.198 179.49 258.549 170.098 267.297L148.368 285.528L141.37 265.087L153.432 253.025C157.391 249.066 158.588 243.081 156.378 237.924L151.775 226.783L174.978 215.734Z" fill="#FFBDAC"/>
<path d="M58.8702 220.155L56.2 228.442C51.3199 243.542 55.0951 260.024 65.96 271.533L79.2189 285.529L86.0326 252.842L67.157 220.155H58.8702Z" fill="#FFBDAC"/>
<path d="M56.2032 228.441L68.081 235.255L70.0146 215.642H59.4259L56.2032 228.441Z" fill="#9CF392"/>
<path d="M86.7697 137.931C109.605 142.719 122.495 117.306 122.495 117.306C122.495 117.306 121.759 122.646 123.968 130.472C131.611 120.528 126.639 107.914 126.639 107.914C126.639 107.914 120.469 94.1946 92.7546 100.916C60.436 108.743 55.0956 153.123 55.0956 153.123C55.0956 153.123 52.7016 162.791 61.0805 178.26C63.4745 182.587 63.2904 188.02 60.2519 191.979C53.3462 201.003 55.0956 212.144 55.0956 212.144C55.0956 212.144 55.7401 217.945 60.7122 221.72C65.316 225.311 67.2496 232.861 65.316 238.385C61.3568 250.263 64.7636 256.985 64.7636 256.985C64.7636 256.985 66.8813 264.627 78.7591 265.087C95.9773 265.732 95.609 252.105 94.1358 244.37C93.5833 241.424 94.3199 238.385 96.3456 236.176C98.4634 233.782 100.765 230.099 100.949 225.219C101.041 221.075 99.4762 216.563 97.6347 212.972C95.2407 208.277 95.7011 202.752 98.7396 198.517C103.159 192.532 108.868 180.654 105.645 172.919C100.029 159.845 90.8211 155.425 86.7697 137.931Z" fill="#225A64"/>
<path d="M161.256 238.938H74.889V290.592H161.256V238.938Z" fill="white"/>
<path d="M161.256 288.475H74.889V292.802H161.256V288.475Z" fill="#FAED00"/>
<path d="M114.576 260.023C114.576 261.957 116.141 263.522 118.075 263.522C120.008 263.522 121.574 261.957 121.574 260.023C121.574 258.089 120.008 256.524 118.075 256.524C116.141 256.616 114.576 258.181 114.576 260.023Z" fill="#A2D6D9"/>
<path d="M223.044 276.873C234.093 310.296 86.5871 325.212 86.5871 325.212L83.0883 306.337C83.0883 306.337 211.902 243.449 223.044 276.873Z" fill="#225A64"/>
<path d="M77.656 325.213L56.4785 326.41L52.5193 321.99L54.545 314.072L74.5254 311.217L77.656 325.213Z" fill="#FFBDAC"/>
<path d="M56.4783 313.796L35.0246 311.218C35.0246 311.218 26.6457 309.008 19.2797 310.205V329.725C24.8963 330.37 30.4208 329.633 30.4208 329.633L56.5704 326.41L56.2021 325.95C53.8081 322.359 53.9002 317.295 56.4783 313.796Z" fill="#2A9E3E"/>
<path d="M8.23148 318.768C9.70469 313.243 14.3085 310.942 19.2806 310.113V329.725C12.8353 328.988 6.29788 326.502 8.23148 318.768Z" fill="#9CF392"/>
<path d="M45.8934 315.177H43.7756V323.556H45.8934V315.177Z" fill="white"/>
<path d="M40.6462 315.176H38.5284V323.555H40.6462V315.176Z" fill="white"/>
<path d="M83.0861 303.483L87.0453 327.883L77.6536 329.633L73.0498 306.337L83.0861 303.483Z" fill="#9CF392"/>
<path d="M123.508 130.196C122.588 132.682 123.14 135.168 124.797 135.813C126.455 136.457 128.572 134.984 129.493 132.498C130.414 130.012 129.861 127.526 128.204 126.881C126.639 126.237 124.521 127.71 123.508 130.196Z" fill="#FFBDAC"/>
<path d="M8.50631 276.873C-2.63488 310.296 144.963 325.212 144.963 325.212L148.462 306.337C148.462 306.337 19.6475 243.449 8.50631 276.873Z" fill="#225A64"/>
<path d="M153.8 325.214L174.978 326.411L179.029 321.992L176.911 314.073L156.931 311.219L153.8 325.214Z" fill="#FFBDAC"/>
<path d="M212.364 310.204C204.906 309.007 196.527 311.125 196.527 311.125L174.981 313.703C177.559 317.202 177.651 322.266 175.257 325.949L174.981 326.41L201.131 329.632C201.131 329.632 206.747 330.369 212.364 329.725V310.204Z" fill="#2A9E3E"/>
<path d="M223.228 318.767C221.754 313.243 217.151 310.941 212.178 310.112V329.724C218.716 328.988 225.253 326.502 223.228 318.767Z" fill="#9CF392"/>
<path d="M187.689 315.177H185.571V323.556H187.689V315.177Z" fill="white"/>
<path d="M193.025 315.177H190.907V323.556H193.025V315.177Z" fill="white"/>
<path d="M148.459 303.483L144.5 327.883L153.8 329.633L158.496 306.337L148.459 303.483Z" fill="#9CF392"/>
<path d="M132.711 66.3862L117.242 66.2942C117.242 66.2942 118.439 61.5983 117.979 58.0073C117.795 56.6262 116.966 55.4292 115.769 54.6926C100.576 45.2088 104.351 34.3438 104.351 34.3438C104.351 34.3438 106.009 20.5324 125.529 19.3355C146.338 18.0464 144.957 36.5537 144.957 36.5537C144.957 36.5537 145.878 46.8662 135.013 53.7719C133.447 54.7847 132.435 56.4421 132.25 58.2836C131.698 62.7953 132.711 66.3862 132.711 66.3862Z" fill="#FAED00"/>
<path d="M117.243 66.2949V71.8194C117.243 73.9372 118.624 75.5945 120.281 75.5945L129.673 75.6866C131.331 75.6866 132.712 74.0292 132.712 71.9115V66.3869L117.243 66.2949Z" fill="#9CF392"/>
<path d="M121.199 75.5933L122.212 78.1715H128.105L129.394 75.6854L121.199 75.5933Z" fill="#225A64"/>
<path d="M122.674 44.2884C122.858 44.2884 123.134 44.2884 123.318 44.2884L123.134 66.2945H124.147L124.239 44.1963C124.976 44.1042 125.804 44.0122 126.541 43.828C126.541 44.2884 126.541 44.6567 126.541 45.025C126.541 47.419 126.449 49.905 126.449 52.299C126.357 56.9949 126.357 61.5986 126.265 66.2945H127.277C127.369 58.6522 127.462 51.102 127.554 43.4597C128.935 42.9993 130.132 42.4469 130.96 41.6182C134.551 38.2114 128.382 34.4363 126.817 39.2242C126.449 40.3291 126.449 41.6182 126.449 42.9072C125.712 43.0914 124.883 43.2755 124.055 43.4597C124.055 43.4597 124.055 41.434 124.055 40.145C124.055 39.4084 123.871 38.6718 123.318 38.1193C120.556 35.0808 114.755 37.2906 117.149 41.6182C118.346 43.5518 120.648 44.2884 122.674 44.2884ZM127.83 41.0657C127.83 40.5133 128.566 36.2778 131.237 38.6718C131.513 38.948 131.697 39.3163 131.605 39.6846C131.421 41.1578 129.303 42.1706 127.83 42.631C127.738 42.0786 127.738 41.5261 127.83 41.0657ZM118.622 37.8431C120.372 36.9223 121.845 37.8431 122.582 38.5797C123.042 39.0401 123.226 39.5925 123.226 40.237V43.6439C121.292 43.828 119.359 43.2755 118.162 41.5261C117.425 40.237 117.517 38.4876 118.622 37.8431Z" fill="#E8DC00"/>
<path d="M145.419 15.6534C145.143 15.3772 145.143 14.8247 145.419 14.4564L153.246 6.72206C153.522 6.44584 154.074 6.44584 154.443 6.72206C154.719 6.99829 154.719 7.55075 154.443 7.91905L146.616 15.6534C146.248 16.0217 145.696 16.0217 145.419 15.6534Z" fill="#FAED00"/>
<path d="M110.795 15.4685C111.071 15.1923 111.163 14.6398 110.795 14.2715L103.06 6.44507C102.784 6.16884 102.232 6.07676 101.863 6.44507C101.587 6.7213 101.495 7.27375 101.863 7.64206L109.598 15.4685C109.966 15.8368 110.518 15.8368 110.795 15.4685Z" fill="#FAED00"/>
<path d="M125.622 12.7065C125.161 12.7065 124.793 12.3382 124.793 11.8778L124.885 0.828683C124.885 0.368304 125.253 0 125.714 0C126.174 0 126.542 0.368304 126.542 0.828683L126.45 11.8778C126.45 12.3382 126.082 12.7065 125.622 12.7065Z" fill="#FAED00"/>
</svg>
