<svg width="270" height="267" viewBox="0 0 270 267" fill="none" xmlns="http://www.w3.org/2000/svg">
<path d="M218.947 138.767C218.947 138.767 221.781 138.67 223.868 138.062C226.011 137.44 227.642 135.257 229.342 135.381C232.923 135.644 239.724 134.538 239.047 135.796C238.369 137.053 234.264 136.735 233.78 137.482C233.296 138.228 239.627 140.135 241.466 140.48C243.304 140.812 250.147 141.586 249.912 142.498C249.677 143.41 240.553 147.652 235.162 146.519C229.771 145.386 220.095 143.451 220.095 143.451L218.947 138.767Z" fill="#FFBDAC"/>
<path d="M144.106 2.32282C136.185 -1.78127 129.84 0.802787 129.84 0.802787C105.594 -2.04382 98.5165 26.215 98.8483 35.9432C99.1663 45.6714 101.585 53.4236 90.1257 63.4973C76.4682 75.5055 79.6476 91.3692 86.7252 96.9795C89.794 99.4115 93.8028 101.249 98.0604 102.631C103.327 104.345 108.939 105.367 113.57 105.975C116.128 106.307 118.381 106.514 120.095 106.652C120.371 106.666 120.634 106.694 120.897 106.708C122.638 106.832 123.675 106.846 123.675 106.846C123.869 96.3991 128.486 91.0652 134.25 88.6607C135.591 88.0942 136.987 87.6935 138.411 87.4309C142.351 86.6709 146.456 86.9196 149.857 87.5829C154.723 88.5364 158.151 90.3328 157.653 91.3001C160.473 91.9772 162.961 92.2535 165.132 92.1706C168.311 92.0601 170.813 91.1757 172.748 89.6971C190.525 75.9892 159.34 10.227 144.106 2.32282Z" fill="#1F4F5E"/>
<path d="M145.806 67.0215C145.806 67.0215 164.095 69.6332 170.426 78.1868C178.43 88.9929 186.295 119.463 192.018 124.921C197.741 130.379 221.683 138.518 221.683 138.518C221.683 138.518 222.568 143.769 219.817 145.372C215.172 148.081 191.7 146.906 178.07 139.596C165.007 132.576 155.745 117.238 155.745 117.238L145.806 67.0215Z" fill="#FAED00"/>
<path d="M47.48 110.494C47.48 110.494 43.6648 103.35 40.0983 102.894C36.5457 102.437 30.0902 99.9916 30.5049 101.36C30.9196 102.728 34.9975 103.239 35.3292 104.068C35.661 104.897 29.0672 105.505 27.2011 105.464C25.3349 105.422 20.9805 104.897 21.0358 105.837C21.0911 106.777 28.4728 111.309 33.9745 111.268C39.4763 111.226 46.0286 113.962 46.0286 113.962L47.48 110.494Z" fill="#FFBDAC"/>
<path d="M111.358 118.468C111.358 118.468 108.524 123.014 103.658 128.099C97.7967 134.221 88.9912 141.102 78.6651 141.683C73.7301 141.959 69.0716 140.481 64.8693 138.145C64.8555 138.145 64.8555 138.145 64.8555 138.145C52.9673 131.526 44.8115 118.053 44.8115 118.053C43.1665 111.904 46.1662 108.325 46.1662 108.325C46.1662 108.325 71.5184 115.884 74.0757 115.096C84.3604 111.918 91.5347 85.027 97.617 76.4319C102.704 69.2324 120.495 67.0215 120.495 67.0215L111.358 118.468Z" fill="#FAED00"/>
<path d="M103.66 128.098C97.7987 134.22 88.9931 141.101 78.667 141.682C73.732 141.958 69.0735 140.479 64.8712 138.144C65.355 138.255 77.575 140.894 83.2979 132.534C89.1452 123.994 95.8634 110.203 102.9 115.648C105.927 117.983 105.319 123.068 103.66 128.098Z" fill="#E8DC00"/>
<path d="M166.955 124.147C166.472 128.03 165.725 132.175 164.702 136.57C163.085 143.479 160.279 146.187 159.062 147.085C158.689 147.362 158.468 147.459 158.468 147.459L136.82 152.765L129.204 154.63L105.192 147.445C105.192 147.445 94.2579 116.934 98.6537 99.7571C103.05 82.5807 106.174 74.414 106.174 74.414C106.174 74.414 121.78 68.0575 155.413 73.6954C155.399 73.6954 171.42 88.647 166.955 124.147Z" fill="#FAED00"/>
<path d="M140.869 267C131.374 267 121.701 266.962 112 266.962C106.516 266.962 101.032 266.962 95.561 266.923C98.0138 233.195 103.36 183.774 105.744 162.314C106.475 155.699 106.929 151.776 106.929 151.776H138.994C138.994 151.776 138.994 152.122 138.994 152.776V153.084C138.994 155.391 139.022 160.737 139.077 168.583C139.243 188.159 139.683 223.426 140.869 267Z" fill="#209F6D"/>
<path d="M176.872 267C165.334 267 153.106 267 140.574 266.962C131.054 266.962 121.354 266.924 111.626 266.924C108.697 248.447 112 197.902 113.823 173.708C113.92 172.345 114.017 171.058 114.114 169.884C114.141 169.505 114.169 169.127 114.21 168.748C114.625 163.561 114.887 160.494 114.887 160.494L119.627 159.358L121.34 158.942L125.319 157.995L138.004 155.004L138.694 154.853L156.892 150.537C156.892 150.537 157.9 154.247 159.462 160.494C164.519 180.75 175.421 227.813 176.706 262.229C176.761 263.706 176.816 265.296 176.872 267Z" fill="#209F6D"/>
<path d="M159.656 122.101C162.573 127.38 166.056 129.978 166.056 129.978C165.213 141.724 160.264 146.187 159.048 147.071L158.453 147.251L139.612 149.075C139.612 149.075 147.961 146.146 149.62 140.812C151.265 135.464 148.597 128.651 150.795 120.333C152.717 112.995 154.541 112.857 159.656 122.101Z" fill="#E8DC00"/>
<path d="M104.821 146.174C104.821 146.174 109.59 149.946 119.073 150.139C130.394 150.361 158.456 147.251 158.456 147.251C158.456 147.251 159.7 150.734 159.659 154.409C159.659 154.409 125.39 163.046 105.526 155.667C105.526 155.667 102.969 150.844 104.821 146.174Z" fill="#1F4F5E"/>
<path d="M121.513 153.858C121.5 153.305 121.417 152.766 121.265 152.255C121.223 152.13 121.195 152.006 121.14 151.882C120.919 151.246 120.587 150.652 120.186 150.154C119.246 148.952 117.864 148.206 116.343 148.206C115.113 148.206 113.993 148.689 113.109 149.505C113.026 149.588 112.929 149.671 112.846 149.753C112.279 150.348 111.823 151.066 111.533 151.895C111.298 152.572 111.16 153.291 111.16 154.065C111.16 155.35 111.533 156.538 112.155 157.506C112.625 158.238 113.247 158.846 113.966 159.261C114.671 159.675 115.473 159.91 116.316 159.91C117.615 159.91 118.804 159.371 119.716 158.473C120.808 157.395 121.486 155.82 121.486 154.065C121.513 153.982 121.513 153.913 121.513 153.858ZM119.799 154.037C119.799 156.193 118.403 157.975 116.634 158.155H116.62C116.523 158.169 116.426 158.169 116.343 158.169C115.998 158.169 115.666 158.114 115.348 157.989C114.989 157.865 114.671 157.671 114.367 157.423C113.468 156.677 112.888 155.433 112.888 154.037C112.888 153.236 113.081 152.503 113.399 151.868C113.745 151.204 114.228 150.666 114.823 150.32C115.168 150.113 115.542 149.975 115.943 149.919C116.067 149.905 116.205 149.892 116.33 149.892C116.634 149.892 116.938 149.947 117.228 150.03C118.002 150.279 118.666 150.845 119.122 151.591C119.177 151.674 119.219 151.757 119.274 151.854C119.592 152.476 119.785 153.194 119.785 153.982V154.037H119.799Z" fill="#E8DC00"/>
<path d="M144.979 68.5968C143.707 66.1924 140.044 53.9906 140.071 47.6479L138.979 47.8276L120.705 50.8953C120.705 50.8953 121.119 55.7732 121.133 60.361C121.133 60.4024 121.133 60.4439 121.133 60.4715C121.161 64.4512 121.078 66.4135 121.88 71.3605C122.239 73.5853 121.479 89.5871 129.137 88.4263C131.86 88.0118 145.822 70.1721 144.979 68.5968Z" fill="#FFBDAC"/>
<path d="M120.69 50.8954C120.69 50.8954 121.105 55.7734 121.119 60.3611C131.348 60.1124 136.753 52.222 138.965 47.8416L120.69 50.8954Z" fill="#FFA58E"/>
<path d="M117.276 56.6022C117.276 56.6022 141.467 57.0029 141.495 41.9408C141.509 26.8786 144.647 16.7773 129.192 15.8791C113.737 14.9809 110.738 20.7294 109.507 25.7593C108.277 30.7892 110.987 56.1185 117.276 56.6022Z" fill="#FFBDAC"/>
<path d="M118.175 15.5054C118.175 15.5054 124.796 33.1792 134.97 35.7909C145.144 38.4026 149.554 35.6803 149.554 35.6803C149.554 35.6803 141.757 29.4897 140.14 18.6698C140.126 18.6836 123.179 7.10371 118.175 15.5054Z" fill="#1F4F5E"/>
<path d="M119.818 16.9426C119.818 16.9426 114.911 18.7804 112.879 22.3594C110.902 25.8555 109.216 30.4985 109.603 36.1917C109.603 36.1917 104.613 24.1834 110.225 17.3847C116.183 10.1715 119.818 16.9426 119.818 16.9426Z" fill="#1F4F5E"/>
<path d="M127.022 88.7296C127.022 88.7296 142.781 71.4289 143.417 64.4644C143.417 64.4644 146.693 64.5334 152.706 67.6426C153.163 67.8775 153.37 68.4164 153.163 68.8863C151.988 71.6638 147.937 80.7149 144.067 83.3681C144.067 83.3681 140.735 82.8844 138.109 81.7928C138.109 81.7928 139.768 84.5703 141.081 86.2285C141.081 86.2147 133.824 90.2773 127.022 88.7296Z" fill="#E8DC00"/>
<path d="M121.155 64.1739C121.155 64.1739 121.514 75.2978 127.03 88.7294C127.03 88.7294 119.565 87.2646 115.764 81.9721C115.764 81.9721 116.966 79.1532 117.989 78.5037C117.989 78.5037 115.75 77.6055 114.34 78.9044C114.34 78.9044 112.847 69.0933 113.98 67.366C114.437 66.6612 119.994 63.8561 121.155 64.1739Z" fill="#E8DC00"/>
<path d="M128.209 88.7305C128.209 88.0672 127.684 87.5421 127.02 87.5283C126.357 87.5283 125.831 88.0534 125.817 88.7167C125.817 89.38 126.343 89.9051 127.006 89.9189C127.67 89.9189 128.209 89.3938 128.209 88.7305Z" fill="#1F4F5E"/>
<path d="M121.778 105.562C121.778 104.898 121.253 104.373 120.59 104.359C119.926 104.359 119.401 104.884 119.387 105.548C119.387 106.211 119.912 106.736 120.576 106.75C121.239 106.75 121.778 106.225 121.778 105.562Z" fill="#1F4F5E"/>
<path d="M120.482 125.335C120.482 124.671 119.957 124.146 119.293 124.132C118.629 124.132 118.104 124.657 118.09 125.321C118.09 125.984 118.616 126.509 119.279 126.523C119.943 126.523 120.482 125.998 120.482 125.335Z" fill="#1F4F5E"/>
<path d="M216.496 114.598V119.974C216.496 120.996 215.653 121.839 214.63 121.839H210.773C209.75 121.839 208.907 120.996 208.907 119.974V114.598C208.907 113.576 209.75 112.733 210.773 112.733H214.63C215.653 112.733 216.496 113.576 216.496 114.598Z" fill="url(#paint0_linear)"/>
<path d="M216.496 114.598V117.597C216.496 118.62 215.653 119.463 214.63 119.463H210.773C209.75 119.463 208.907 118.62 208.907 117.597V114.598C208.907 113.576 209.75 112.733 210.773 112.733H214.63C215.653 112.733 216.496 113.576 216.496 114.598Z" fill="#22D327"/>
<path d="M259.17 117.28C259.17 120.03 258.603 122.656 257.594 125.046C254.553 132.218 247.42 137.276 239.167 137.276H233.444C226.145 137.276 219.731 133.31 216.234 127.437C214.465 124.452 213.442 120.984 213.442 117.28C213.442 114.53 214.008 111.905 215.018 109.514C218.059 102.342 225.192 97.2849 233.444 97.2849H239.167C246.673 97.2849 253.239 101.472 256.668 107.621C258.257 110.495 259.17 113.784 259.17 117.28Z" fill="url(#paint1_linear)"/>
<path d="M242.553 128.791L240.687 140.896C240.438 141.835 241.143 142.747 242.11 142.747H247.018C248.068 142.747 249.036 142.167 249.52 141.227L257.136 126.027L242.553 128.791Z" fill="url(#paint2_linear)"/>
<path d="M231.386 128.998L232.879 140.895C233.128 141.835 232.423 142.747 231.455 142.747H226.548C225.497 142.747 224.53 142.167 224.046 141.227L216.222 127.422L231.386 128.998Z" fill="url(#paint3_linear)"/>
<path d="M263.929 122.725C263.819 122.725 263.708 122.711 263.597 122.683C262.726 122.448 262.229 121.412 262.298 119.975C262.367 118.565 262.961 117.073 263.915 115.885C264.344 115.36 264.841 114.904 265.381 114.503C265.118 114.074 264.772 113.66 264.302 113.314C263.501 112.72 262.671 112.541 261.773 112.789C259.354 113.453 257.294 116.907 257.128 117.294C257.059 117.501 256.824 117.612 256.617 117.543C256.395 117.474 256.285 117.239 256.354 117.018C256.423 116.797 257.031 115.774 257.861 114.738C259.326 112.955 260.598 112.278 261.399 112.029C262.602 111.656 263.736 111.863 264.786 112.651C265.311 113.038 265.74 113.522 266.072 114.061C266.901 113.591 267.841 113.273 268.864 113.107C269.085 113.066 269.293 113.218 269.334 113.439C269.376 113.66 269.224 113.867 269.002 113.909C268.062 114.061 267.205 114.351 266.459 114.779C266.694 115.346 266.832 115.954 266.901 116.631C267.026 117.999 266.749 119.505 266.141 120.735C265.533 122.006 264.731 122.725 263.929 122.725ZM265.754 115.249C265.311 115.581 264.911 115.954 264.551 116.396C263.694 117.446 263.169 118.773 263.114 120.016C263.072 120.997 263.349 121.771 263.805 121.896C264.261 122.02 264.924 121.398 265.408 120.403C265.934 119.312 266.196 117.93 266.086 116.728C266.044 116.272 265.947 115.76 265.754 115.249Z" fill="url(#paint4_linear)"/>
<path d="M256.668 107.621C257.138 109.929 256.764 113.218 256.156 114.973C252.12 126.58 242.637 128.667 232.933 129.551C226.035 130.173 216.234 127.437 216.234 127.437C214.465 124.452 213.442 120.984 213.442 117.28C213.442 114.53 214.008 111.905 215.018 109.514C218.059 102.342 225.192 97.2849 233.444 97.2849H239.167C246.673 97.2987 253.239 101.472 256.668 107.621Z" fill="#22D327"/>
<path d="M231.092 102.301H223.227C222.439 102.301 221.789 101.817 221.789 101.223V90.4859C221.789 90.3062 221.844 90.1404 221.941 89.9884C222.328 89.4356 223.337 89.2007 224.084 89.6291C227.069 91.315 231.963 95.0045 232.516 101.154C232.571 101.776 231.921 102.301 231.092 102.301Z" fill="#22D327"/>
<path d="M223.545 102.301H223.227C222.439 102.301 221.789 101.817 221.789 101.223V90.4862C221.789 90.3066 221.844 90.1408 221.941 89.9888C221.969 90.0164 222.01 90.044 222.038 90.0855C223.752 91.9925 226.212 95.7234 225.521 100.961C225.411 101.721 224.567 102.301 223.545 102.301Z" fill="url(#paint5_linear)"/>
<path d="M219.396 109.473C219.396 108.824 219.922 108.299 220.571 108.299C221.221 108.299 221.746 108.824 221.746 109.473C221.746 110.123 221.221 110.648 220.571 110.648C219.922 110.648 219.396 110.123 219.396 109.473Z" fill="#1F4F5E"/>
<path d="M60.0797 103.727H1.87073V104.568H60.0797V103.727Z" fill="#C9E6DD"/>
<path d="M60.6734 104.569H1.27173V105.41H60.6734V104.569Z" fill="#209F6D"/>
<path d="M61.4965 105.41H0.457764V106.252H61.4965V105.41Z" fill="#2A9E3E"/>
<path d="M57.6592 71.5815H3.22717V103.726H57.6592V71.5815Z" fill="#2A9E3E"/>
<path d="M61.3545 72.2005H0L31.2327 56.3735L61.3545 72.2005Z" fill="#C9E6DD"/>
<path d="M9.30884 70.0858L52.0477 69.9923L31.222 59.1682L9.30884 70.0858Z" fill="#22D327"/>
<path d="M60.0574 72.2H1.60291V73.5559H60.0574V72.2Z" fill="#2A9E3E"/>
<path d="M11.6898 71.5815H5.93677V73.6622H11.6898V71.5815Z" fill="#C9E6DD"/>
<path d="M10.4015 73.6631H7.23267V103.727H10.4015V73.6631Z" fill="#C9E6DD"/>
<path d="M24.1349 71.5815H18.3818V73.6622H24.1349V71.5815Z" fill="#C9E6DD"/>
<path d="M22.8464 73.6621H19.6775V103.726H22.8464V73.6621Z" fill="#C9E6DD"/>
<path d="M43.6996 71.5813H37.9465V73.6619H43.6996V71.5813Z" fill="#C9E6DD"/>
<path d="M42.398 73.6628H39.2291V103.727H42.398V73.6628Z" fill="#C9E6DD"/>
<path d="M55.4166 71.5815H49.6636V73.6622H55.4166V71.5815Z" fill="#C9E6DD"/>
<path d="M54.1215 73.6621H50.9526V103.726H54.1215V73.6621Z" fill="#C9E6DD"/>
<path d="M34.3814 103.726H26.4768V95.0997C26.4768 93.0541 28.1372 91.3943 30.1836 91.3943H30.8852C32.8145 91.3943 34.3814 92.9606 34.3814 94.8893V103.726Z" fill="#22D327"/>
<path d="M27.8321 85.0707H24.1019V81.0029C24.1019 80.0327 24.8854 79.2495 25.8559 79.2495H26.1833C27.0954 79.2495 27.8321 79.9859 27.8321 80.8977V85.0707Z" fill="#22D327"/>
<path d="M16.9128 85.0707H13.1826V81.0029C13.1826 80.0327 13.9661 79.2495 14.9366 79.2495H15.264C16.1761 79.2495 16.9128 79.9859 16.9128 80.8977V85.0707Z" fill="#22D327"/>
<path d="M16.9128 97.5668H13.1826V93.499C13.1826 92.5288 13.9661 91.7456 14.9366 91.7456H15.264C16.1761 91.7456 16.9128 92.482 16.9128 93.3938V97.5668Z" fill="#22D327"/>
<path d="M48.5433 85.0707H44.8131V81.0029C44.8131 80.0327 45.5966 79.2495 46.5671 79.2495H46.8945C47.8066 79.2495 48.5433 79.9859 48.5433 80.8977V85.0707Z" fill="#22D327"/>
<path d="M48.5433 97.5668H44.8131V93.499C44.8131 92.5288 45.5966 91.7456 46.5671 91.7456H46.8945C47.8066 91.7456 48.5433 92.482 48.5433 93.3938V97.5668Z" fill="#22D327"/>
<path d="M37.2575 85.0707H33.5273V81.0029C33.5273 80.0327 34.3108 79.2495 35.2813 79.2495H35.6087C36.5208 79.2495 37.2575 79.9859 37.2575 80.8977V85.0707Z" fill="#22D327"/>
<defs>
<linearGradient id="paint0_linear" x1="212.702" y1="112.733" x2="212.702" y2="121.839" gradientUnits="userSpaceOnUse">
<stop stop-color="#2A9E3E"/>
<stop offset="1" stop-color="#28A265"/>
</linearGradient>
<linearGradient id="paint1_linear" x1="236.306" y1="97.2849" x2="236.306" y2="137.276" gradientUnits="userSpaceOnUse">
<stop stop-color="#2A9E3E"/>
<stop offset="1" stop-color="#28A265"/>
</linearGradient>
<linearGradient id="paint2_linear" x1="248.886" y1="126.027" x2="248.886" y2="142.747" gradientUnits="userSpaceOnUse">
<stop stop-color="#2A9E3E"/>
<stop offset="1" stop-color="#28A265"/>
</linearGradient>
<linearGradient id="paint3_linear" x1="224.576" y1="127.422" x2="224.576" y2="142.747" gradientUnits="userSpaceOnUse">
<stop stop-color="#2A9E3E"/>
<stop offset="1" stop-color="#28A265"/>
</linearGradient>
<linearGradient id="paint4_linear" x1="262.837" y1="111.849" x2="262.837" y2="122.725" gradientUnits="userSpaceOnUse">
<stop stop-color="#2A9E3E"/>
<stop offset="1" stop-color="#28A265"/>
</linearGradient>
<linearGradient id="paint5_linear" x1="223.715" y1="89.9888" x2="223.715" y2="102.301" gradientUnits="userSpaceOnUse">
<stop stop-color="#2A9E3E"/>
<stop offset="1" stop-color="#28A265"/>
</linearGradient>
</defs>
</svg>
