<svg width="294" height="239" viewBox="0 0 294 239" fill="none" xmlns="http://www.w3.org/2000/svg">
<path d="M205.273 167.877C203.828 167.877 202.36 167.763 200.846 167.534C200.066 167.419 199.538 166.687 199.653 165.908C199.768 165.129 200.502 164.602 201.281 164.717C207.222 165.656 212.751 164.511 216.834 161.511C220.114 159.106 222.178 155.739 222.775 151.754C222.889 150.976 223.623 150.426 224.403 150.563C225.183 150.678 225.734 151.411 225.596 152.189C224.885 156.861 222.362 161.007 218.508 163.824C214.907 166.48 210.296 167.877 205.273 167.877Z" fill="url(#paint0_linear)"/>
<path d="M49.4774 91.5441C48.2617 87.5133 44.2475 69.9472 47.046 69.2601C49.8444 68.5731 65.3047 82.9787 65.3047 82.9787L49.4774 91.5441Z" fill="#BCFDE9"/>
<path d="M65.3038 82.9555C65.3038 82.9555 49.8435 68.5499 47.045 69.237C47.6873 70.1072 54.2247 81.0546 57.7801 87.0321L65.3038 82.9555Z" fill="#209F6D"/>
<path d="M191.052 198.178C197.773 191.376 202.337 182.329 204.149 170.557C210.136 131.509 184.491 88.2463 136.39 75.5584C88.7935 63.0079 54.9598 77.3677 28.0992 115.454C24.475 120.607 14.2446 123.837 8.00541 122.898L4.26649 122.325L0 150.151L0.275258 150.197C12.1113 152.006 22.2959 159.267 28.168 169.687C30.9206 174.565 34.2466 179.008 38.0773 183.062C38.0773 183.062 38.0773 183.062 38.0544 183.062C52.0007 197.765 56.9324 213.018 55.5791 221.859L73.5167 224.607C74.0672 221.011 77.7832 209.125 87.0961 209.583C91.8214 210.774 96.7072 211.759 101.731 212.514C111.571 214.026 121.113 215.011 130.174 215.309C145.795 216.935 143.73 231.661 143.18 235.257L161.117 238.005C162.402 229.6 168.389 219.225 187.978 200.995C189.01 200.124 189.997 199.208 190.96 198.246C191.006 198.201 191.029 198.178 191.052 198.178Z" fill="url(#paint1_linear)"/>
<path d="M50.7872 115.202C53.081 112.339 53.9985 109.293 52.8745 108.377C51.7276 107.461 48.9521 109.041 46.6583 111.881C44.3645 114.744 43.447 117.79 44.5709 118.706C45.7178 119.622 48.5163 118.065 50.7872 115.202Z" fill="#333F48"/>
<path d="M63.3074 106.11C60.5089 103.613 70.854 77.9857 76.3821 79.9782C81.4056 81.7875 94.985 112.522 88.9064 117.057C82.8507 121.615 68.4685 110.759 63.3074 106.11Z" fill="#C9E6DD"/>
<path d="M78.9987 82.4054C77.4847 80.7107 77.8518 84.2147 78.9528 86.505C80.0538 88.7952 84.2056 105.537 83.4716 110.575C83.0817 113.301 81.2466 116.141 79.5033 116.805C83.1964 118.293 86.6371 118.751 88.908 117.057C94.092 113.186 84.9167 90.1235 78.9987 82.4054Z" fill="#21A038"/>
<path d="M255.761 230.241C256.656 230.195 257.803 231.111 258.009 232.141C259.248 232.073 259.569 232.05 259.615 232.05C259.615 232.05 261.037 229.302 260.005 225.912C259.363 223.782 258.835 224.332 258.308 224.927C257.092 226.049 251.885 226.691 251.38 224.95C250.05 225.225 236.402 230.011 236.47 231.294C236.585 233.378 238.214 233.264 239.338 233.195C252.435 232.462 250.669 231.752 255.761 230.241Z" fill="#1F4F5E"/>
<path d="M252.666 219.591C253.01 217.598 257.643 216.133 258.056 219.591C258.331 221.79 258.653 223.897 258.951 224.515C257.896 226.233 245.991 230.012 243.88 227.561C245.211 226.737 253.767 225.202 252.666 219.591Z" fill="#F7D3C9"/>
<path d="M289.228 230.24C290.122 230.194 291.269 231.11 291.476 232.14C292.714 232.072 293.035 232.049 293.081 232.049C293.081 232.049 294.503 229.301 293.471 225.911C292.829 223.781 292.301 224.331 291.774 224.926C290.558 226.048 285.351 226.69 284.846 224.949C283.516 225.224 269.868 230.011 269.937 231.293C270.051 233.377 271.68 233.263 272.804 233.194C285.925 232.461 284.135 231.751 289.228 230.24Z" fill="#1F4F5E"/>
<path d="M284.891 219.453C285.235 217.461 290.121 216.064 290.855 219.453C291.199 220.988 292.116 223.896 292.437 224.514C291.382 226.232 279.477 230.011 277.367 227.561C278.675 226.736 286.152 225.27 284.891 219.453Z" fill="#F7D3C9"/>
<path d="M281.887 90.6044C278.033 110.415 261.609 137.669 254.934 162.426C258.788 179.305 256.953 191.787 258.742 219.568C256.701 219.568 252.228 219.568 252.228 219.568C248.076 204.246 240.369 180.427 236.056 158.533C233.304 144.517 240.69 115.087 249.337 88.6348C255.6 88.589 281.887 90.6044 281.887 90.6044Z" fill="#2A9E3E"/>
<path d="M282.598 90.261C287.369 114.423 283.928 126.973 277.872 151.754C283.997 167.282 287.231 189.611 290.855 219.453C288.814 219.453 284.341 219.453 284.341 219.453C276.817 201.131 269.569 183.909 258.512 157.365C254.659 148.089 253.65 125.668 256.058 91.4519C263.284 91.8871 282.598 90.261 282.598 90.261Z" fill="#22D327"/>
<path d="M245.987 39.1667C248.648 35.7543 242.798 28.6545 241.285 26.1582C239.243 22.8144 232.981 4.42383 232.981 4.42383C226.512 13.0122 223.92 32.0212 232.476 38.6858C230.917 40.3805 230.022 42.6479 230.137 45.1213C230.366 50.0224 234.541 53.8242 239.45 53.5952C244.358 53.3662 248.166 49.1979 247.937 44.2968C247.845 42.3501 247.134 40.5867 245.987 39.1667Z" fill="#1F4F5E"/>
<path d="M256.541 43.3113C257.94 39.5095 254.247 34.1504 250.21 34.0588C246.173 33.9671 242.112 36.0971 239.704 38.9141C228.831 61.0835 221.973 70.8857 195.915 81.9705C195.915 81.9705 197.131 86.4823 197.567 88.6122C239.222 77.39 251.861 56.045 256.541 43.3113Z" fill="#FAED00"/>
<path d="M283.309 91.4293C268.376 96.4908 246.7 92.5974 246.7 92.5974C254.912 64.8855 235.437 69.0079 237.387 54.6711C238.97 42.968 238.534 40.2426 240.896 36.4179C247.548 25.6309 253.031 26.4783 262.275 32.7077C274.478 40.9296 281.543 76.9322 283.309 91.4293Z" fill="url(#paint2_linear)"/>
<path d="M184.929 135.14C183.415 134.911 182.039 133.926 181.374 132.437C179.745 128.75 177.727 125.131 175.41 121.696C165.478 106.993 149.88 96.2285 131.529 91.3732C128.616 90.5945 125.703 89.9303 122.905 89.4036C120.381 88.9226 118.73 86.495 119.235 83.9757C119.716 81.4564 122.171 79.8075 124.671 80.3113C127.676 80.8839 130.795 81.5938 133.915 82.4183C154.445 87.8233 171.923 99.9386 183.14 116.52C185.755 120.413 188.026 124.49 189.884 128.704C190.916 131.04 189.861 133.788 187.521 134.819C186.673 135.162 185.778 135.277 184.929 135.14Z" fill="#333F48"/>
<path d="M143.453 52.6187C151.61 32.5542 174.515 22.8816 194.611 31.026C214.707 39.1705 224.394 62.0396 216.237 82.104C208.08 102.168 185.175 111.841 165.079 103.679C144.966 95.5522 135.296 72.6831 143.453 52.6187Z" fill="#E8DC00"/>
<path d="M147.233 54.1458C139.94 72.1066 148.619 92.6385 166.608 99.9199C184.597 107.201 205.161 98.5355 212.454 80.5747C219.747 62.6138 211.067 42.0819 193.078 34.8005C175.089 27.5011 154.525 36.1849 147.233 54.1458Z" fill="#E8DC00"/>
<path d="M149.934 55.2426C143.235 71.7112 151.212 90.5351 167.707 97.2232C184.201 103.911 203.072 95.9467 209.753 79.4781C216.452 63.0094 208.475 44.1676 191.98 37.4795C175.486 30.8093 156.633 38.7739 149.934 55.2426Z" fill="#FAED00"/>
<path d="M217.299 92.0709C216.198 92.5748 215.854 93.2848 213.675 92.9183C211.496 92.5519 210.739 92.1167 209.707 91.9793C208.674 91.8419 205.647 91.1319 205.624 91.6587C205.624 92.1625 209.064 93.3077 208.927 93.6741C208.789 94.0176 199.66 95.9414 200.83 97.3614C201.999 98.8042 205.991 101.415 210.555 100.43C213.606 99.7661 216.015 97.7049 217.987 97.5446C219.937 95.6666 219.272 93.3764 217.299 92.0709Z" fill="#FFBDAC"/>
<path d="M266.592 43.9068C266.799 39.8531 261.684 35.8222 257.807 36.9216C253.931 38.0209 249.205 41.1127 247.76 49.6782C244.021 72.0538 235.626 81.9934 214.408 91.9559C214.408 91.9559 216.06 96.9028 216.541 99.0328C257.968 86.9861 265.858 57.465 266.592 43.9068Z" fill="#E8DC00"/>
<path d="M252.871 30.2339C250.738 26.2718 250.852 22.1952 251.38 19.4011C251.38 19.4011 253.215 12.4617 250.99 6.91931C248.169 -0.157521 236.195 2.31593 233.58 5.17873C230.346 9.20955 231.103 13.1488 232.043 18.4163C232.043 18.4163 231.768 23.7525 231.86 24.0732C231.974 24.5541 233.351 23.9816 233.511 24.1648C233.649 24.3709 234.222 27.3024 235.507 28.1956C236.791 29.0659 239.452 27.7605 240.484 27.9895C242.09 28.3559 244.063 29.1575 243.145 33.2112C241.173 39.3033 248.696 37.2878 252.871 30.2339Z" fill="#FFBDAC"/>
<path d="M282.371 32.8909C282.784 31.4939 282.853 29.9594 282.44 28.4479C281.431 24.7377 278.036 22.333 274.366 22.4246C274.297 22.4246 274.091 22.4246 274.045 22.4246C269.434 22.6994 259.915 19.9969 256.405 12.3704C252.345 3.57592 248.423 -0.500697 242.184 0.0489601C235.899 0.575714 231.953 4.12558 231.953 7.58384C233.674 16.6761 237.183 18.0502 240.853 17.3631C244.133 16.7448 246.313 18.7373 246.244 21.4398C246.175 23.8216 248.56 27.5318 250.396 29.6159C248.4 33.0513 248.377 41.3877 253.813 44.5253C257.506 46.6324 261.91 46.1743 264.961 43.4031C265.03 44.0215 265.122 44.617 265.282 45.2353C266.911 51.2357 273.104 54.8085 279.114 53.1824C285.124 51.5564 288.702 45.3727 287.074 39.3723C286.34 36.6011 284.596 34.3567 282.371 32.8909Z" fill="#1F4F5E"/>
<defs>
<linearGradient id="paint0_linear" x1="212.627" y1="150.542" x2="212.627" y2="167.877" gradientUnits="userSpaceOnUse">
<stop stop-color="#FAED00"/>
<stop offset="1" stop-color="#F8D230"/>
</linearGradient>
<linearGradient id="paint1_linear" x1="102.504" y1="71.1272" x2="102.504" y2="238.005" gradientUnits="userSpaceOnUse">
<stop stop-color="#22CF2B"/>
<stop offset="1" stop-color="#28A167"/>
</linearGradient>
<linearGradient id="paint2_linear" x1="260.279" y1="28.136" x2="260.279" y2="94.0275" gradientUnits="userSpaceOnUse">
<stop stop-color="#FAED00"/>
<stop offset="1" stop-color="#F8D230"/>
</linearGradient>
</defs>
</svg>
