<svg width="193" height="325" viewBox="0 0 193 325" fill="none" xmlns="http://www.w3.org/2000/svg">
<path d="M181.179 322.556H71.6809C65.1835 322.556 59.9287 317.297 59.9287 310.794V146.585C59.9287 140.082 65.1835 134.822 71.6809 134.822H181.179C187.676 134.822 192.931 140.082 192.931 146.585V310.794C192.931 317.297 187.676 322.556 181.179 322.556Z" fill="#9CF392"/>
<path d="M181.179 134.858H71.6809C65.1835 134.858 59.9287 140.117 59.9287 146.62V191.075H192.931V146.585C192.931 140.117 187.676 134.858 181.179 134.858Z" fill="#209F6D"/>
<path d="M177.416 148.113H75.4448V174.835H177.416V148.113Z" fill="#9CF392"/>
<path d="M88.7231 228.707H73.1363C71.4676 228.707 70.0829 227.357 70.0829 225.651V214.6C70.0829 212.93 71.4321 211.544 73.1363 211.544H88.7231C90.3918 211.544 91.7765 212.894 91.7765 214.6V225.651C91.741 227.322 90.3918 228.707 88.7231 228.707Z" fill="#21A038"/>
<path d="M88.7225 203.796H73.1357C71.467 203.796 70.0823 202.446 70.0823 200.74C70.0823 199.07 71.4315 197.684 73.1357 197.684H88.7225C90.3912 197.684 91.7759 199.034 91.7759 200.74C91.7404 202.446 90.3912 203.796 88.7225 203.796Z" fill="#22D327"/>
<path d="M119.045 203.797H103.458C101.789 203.797 100.404 202.446 100.404 200.741C100.404 199.07 101.754 197.685 103.458 197.685H119.045C120.713 197.685 122.098 199.035 122.098 200.741C122.098 202.446 120.749 203.797 119.045 203.797Z" fill="#22D327"/>
<path d="M149.401 203.797H133.814C132.145 203.797 130.761 202.446 130.761 200.741C130.761 199.07 132.11 197.685 133.814 197.685H149.401C151.069 197.685 152.454 199.035 152.454 200.741C152.454 202.446 151.069 203.797 149.401 203.797Z" fill="#22D327"/>
<path d="M179.76 203.797H164.173C162.504 203.797 161.119 202.446 161.119 200.741C161.119 199.07 162.469 197.685 164.173 197.685H179.76C181.428 197.685 182.813 199.035 182.813 200.741C182.778 202.446 181.428 203.797 179.76 203.797Z" fill="#22D327"/>
<path d="M88.7231 253.546H73.1363C71.4676 253.546 70.0829 252.196 70.0829 250.49V239.439C70.0829 237.768 71.4321 236.383 73.1363 236.383H88.7231C90.3918 236.383 91.7765 237.733 91.7765 239.439V250.49C91.741 252.16 90.3918 253.546 88.7231 253.546Z" fill="#21A038"/>
<path d="M88.7231 278.386H73.1363C71.4676 278.386 70.0829 277.035 70.0829 275.33V264.278C70.0829 262.608 71.4321 261.222 73.1363 261.222H88.7231C90.3918 261.222 91.7765 262.573 91.7765 264.278V275.33C91.741 277 90.3918 278.386 88.7231 278.386Z" fill="#21A038"/>
<path d="M88.7231 303.225H73.1363C71.4676 303.225 70.0829 301.875 70.0829 300.169V289.118C70.0829 287.448 71.4321 286.062 73.1363 286.062H88.7231C90.3918 286.062 91.7765 287.412 91.7765 289.118V300.169C91.741 301.84 90.3918 303.225 88.7231 303.225Z" fill="#21A038"/>
<path d="M119.045 228.707H103.458C101.789 228.707 100.404 227.357 100.404 225.651V214.6C100.404 212.93 101.754 211.544 103.458 211.544H119.045C120.713 211.544 122.098 212.894 122.098 214.6V225.651C122.098 227.322 120.749 228.707 119.045 228.707Z" fill="#21A038"/>
<path d="M119.045 253.547H103.459C101.79 253.547 100.405 252.197 100.405 250.491V239.44C100.405 237.769 101.754 236.384 103.459 236.384H119.045C120.714 236.384 122.099 237.734 122.099 239.44V250.491C122.099 252.161 120.75 253.547 119.045 253.547Z" fill="#21A038"/>
<path d="M119.045 278.386H103.459C101.79 278.386 100.405 277.036 100.405 275.33V264.278C100.405 262.608 101.754 261.222 103.459 261.222H119.045C120.714 261.222 122.099 262.573 122.099 264.278V275.33C122.099 277 120.75 278.386 119.045 278.386Z" fill="#21A038"/>
<path d="M119.045 303.226H103.459C101.79 303.226 100.405 301.875 100.405 300.17V289.118C100.405 287.448 101.754 286.062 103.459 286.062H119.045C120.714 286.062 122.099 287.412 122.099 289.118V300.17C122.099 301.84 120.75 303.226 119.045 303.226Z" fill="#21A038"/>
<path d="M149.401 228.707H133.815C132.146 228.707 130.761 227.357 130.761 225.651V214.6C130.761 212.929 132.11 211.543 133.815 211.543H149.401C151.07 211.543 152.455 212.894 152.455 214.6V225.651C152.455 227.321 151.07 228.707 149.401 228.707Z" fill="#21A038"/>
<path d="M149.401 253.547H133.815C132.146 253.547 130.761 252.196 130.761 250.491V239.439C130.761 237.769 132.11 236.383 133.815 236.383H149.401C151.07 236.383 152.455 237.733 152.455 239.439V250.491C152.455 252.161 151.07 253.547 149.401 253.547Z" fill="#21A038"/>
<path d="M149.401 278.386H133.815C132.146 278.386 130.761 277.035 130.761 275.33V264.278C130.761 262.608 132.11 261.222 133.815 261.222H149.401C151.07 261.222 152.455 262.572 152.455 264.278V275.33C152.455 277 151.07 278.386 149.401 278.386Z" fill="#21A038"/>
<path d="M149.401 303.225H133.815C132.146 303.225 130.761 301.875 130.761 300.169V289.118C130.761 287.447 132.11 286.062 133.815 286.062H149.401C151.07 286.062 152.455 287.412 152.455 289.118V300.169C152.455 301.839 151.07 303.225 149.401 303.225Z" fill="#21A038"/>
<path d="M179.76 228.707H164.173C162.504 228.707 161.119 227.357 161.119 225.651V214.6C161.119 212.93 162.469 211.544 164.173 211.544H179.76C181.428 211.544 182.813 212.894 182.813 214.6V225.651C182.778 227.322 181.428 228.707 179.76 228.707Z" fill="#333F48"/>
<path d="M179.761 253.547H164.174C162.505 253.547 161.12 252.197 161.12 250.491V239.44C161.12 237.769 162.469 236.384 164.174 236.384H179.761C181.429 236.384 182.814 237.734 182.814 239.44V250.491C182.778 252.161 181.429 253.547 179.761 253.547Z" fill="#333F48"/>
<path d="M179.761 278.386H164.174C162.505 278.386 161.12 277.036 161.12 275.33V264.278C161.12 262.608 162.469 261.222 164.174 261.222H179.761C181.429 261.222 182.814 262.573 182.814 264.278V275.33C182.778 277 181.429 278.386 179.761 278.386Z" fill="#21A038"/>
<path d="M179.761 303.225H164.174C162.505 303.225 161.12 301.875 161.12 300.169V264.278C161.12 262.608 162.469 261.222 164.174 261.222H179.761C181.429 261.222 182.814 262.573 182.814 264.278V300.169C182.778 301.84 181.429 303.225 179.761 303.225Z" fill="#209F6D"/>
<path d="M165.023 278.386H178.87" stroke="#9CF392" stroke-width="5.0518" stroke-miterlimit="10" stroke-linecap="round"/>
<path d="M165.023 286.061H178.87" stroke="#9CF392" stroke-width="5.0518" stroke-miterlimit="10" stroke-linecap="round"/>
<path d="M156.466 159.2C155.898 158.596 155.614 157.743 155.614 156.641V154.935C155.614 153.834 155.898 152.981 156.466 152.377C157.034 151.773 157.851 151.453 158.88 151.453C159.91 151.453 160.727 151.773 161.295 152.377C161.863 152.981 162.147 153.834 162.147 154.971V156.641C162.147 157.743 161.863 158.596 161.295 159.2C160.727 159.804 159.91 160.124 158.88 160.124C157.851 160.124 157.034 159.804 156.466 159.2ZM167.828 151.666H170.242L159.555 171.353H157.14L167.828 151.666ZM159.626 157.672C159.803 157.458 159.91 157.174 159.91 156.783V154.793C159.91 154.438 159.803 154.154 159.626 153.94C159.448 153.727 159.2 153.656 158.88 153.656C158.561 153.656 158.312 153.763 158.135 153.94C157.957 154.154 157.886 154.438 157.886 154.793V156.783C157.886 157.174 157.957 157.458 158.135 157.672C158.312 157.885 158.561 157.956 158.88 157.956C159.2 157.956 159.448 157.849 159.626 157.672ZM166.265 170.678C165.697 170.073 165.413 169.221 165.413 168.119V166.413C165.413 165.312 165.697 164.459 166.265 163.855C166.833 163.251 167.65 162.931 168.68 162.931C169.709 162.931 170.526 163.251 171.094 163.855C171.662 164.459 171.946 165.312 171.946 166.449V168.119C171.946 169.221 171.662 170.073 171.094 170.678C170.526 171.282 169.709 171.602 168.68 171.602C167.615 171.566 166.833 171.282 166.265 170.678ZM169.425 169.114C169.603 168.901 169.709 168.617 169.709 168.226V166.236C169.709 165.88 169.603 165.596 169.425 165.383C169.248 165.17 168.999 165.099 168.68 165.099C168.36 165.099 168.112 165.205 167.934 165.383C167.757 165.596 167.686 165.88 167.686 166.236V168.226C167.686 168.617 167.757 168.901 167.934 169.114C168.112 169.327 168.36 169.398 168.68 169.398C168.999 169.434 169.248 169.327 169.425 169.114Z" fill="#BCFDE9"/>
<path d="M37.5583 160.301C29.3211 160.941 21.0839 161.581 12.8467 162.078C10.3613 162.22 7.87598 162.398 5.39062 162.54C5.71017 167.231 6.24275 172.17 7.09487 177.429C15.6871 230.484 28.824 317.688 28.824 317.688H33.4042L44.8013 159.733C42.387 159.91 39.9726 160.124 37.5583 160.301Z" fill="#FFBDAC"/>
<path d="M34.9319 317.688H27.4758V319.5H34.9319V317.688Z" fill="#BCFDE9"/>
<path d="M34.8617 317.688C34.8617 317.688 38.0926 320.815 34.8617 324.049H15.6534C15.5469 323.658 15.1563 321.81 16.257 319.962L16.2925 319.927C17.1446 318.505 18.7423 317.724 20.3756 317.724H28.1512C28.1867 317.688 31.4887 319.642 34.8617 317.688Z" fill="#209F6D"/>
<path d="M37.5583 171.921C29.3211 172.56 21.0839 173.2 12.8467 173.698C10.3613 173.84 7.87598 174.017 5.39062 174.16C5.71017 178.85 6.24275 183.79 7.09487 189.049C8.37306 196.867 9.72225 205.431 11.1425 214.35C20.3738 217.193 29.7827 218.934 38.5169 220.569C39.4401 220.747 40.3277 220.889 41.2153 221.031L44.8013 171.352C42.387 171.566 39.9726 171.743 37.5583 171.921Z" fill="#FFA791"/>
<path d="M46.9681 159.555C50.4831 211.721 54.2466 266.126 57.6906 317.688H62.2353C73.81 249.637 80.84 192.07 83.5029 157.6C71.3246 157.778 59.1463 158.631 46.9681 159.555Z" fill="#FFBDAC"/>
<path d="M56.2179 319.491H63.674V317.679H56.2179V319.491Z" fill="#BCFDE9"/>
<path d="M56.2359 317.688C56.2359 317.688 53.0049 320.815 56.2359 324.049H75.4442C75.5507 323.658 75.9413 321.81 74.8406 319.962L74.8051 319.927C73.953 318.505 72.3552 317.724 70.722 317.724H62.9464C62.9464 317.688 59.6089 319.642 56.2359 317.688Z" fill="#209F6D"/>
<path d="M46.9681 159.555C48.1042 176.434 49.2759 193.527 50.4476 210.69C60.4955 211.792 69.7624 211.863 77.9641 211.401C80.5914 190.115 82.4377 171.886 83.5384 157.6C71.3246 157.778 59.1463 158.631 46.9681 159.555Z" fill="#FFA791"/>
<path d="M59.1112 113.075C58.5786 112.897 57.691 112.648 56.5903 112.684C55.1701 112.755 54.105 113.252 53.5724 113.572C48.4952 113.572 42.9564 113.359 37.027 112.826C31.3107 112.293 25.9849 111.547 21.1207 110.658C14.3392 124.41 6.35055 144.417 2.44499 169.576C-0.608454 189.05 -0.359918 206.071 0.811752 219.219C13.9132 222.844 27.7247 223.555 40.1159 224.159C57.5135 225.012 72.7452 222.95 84.9234 220.143C87.4443 201.842 87.6928 186.207 87.2668 174.267C87.2668 174.267 86.4502 151.062 81.0889 129.812C79.6332 123.984 77.5029 118.902 77.5029 118.902C76.3312 116.131 75.195 113.856 74.3429 112.257C69.2657 112.542 64.1884 112.826 59.1112 113.075Z" fill="#1F4F5E"/>
<path d="M26.8027 34.1499C25.7376 32.1955 22.5066 25.7991 24.1753 17.9102C26.2346 8.03131 35.1109 0.0713459 43.0641 0.000274892C53.6091 -0.0707962 65.9649 13.6459 64.2251 33.4037C51.7273 33.6524 39.265 33.9012 26.8027 34.1499Z" fill="#C9E6DD"/>
<path d="M74.3778 112.292C75.1945 98.398 74.9104 82.1583 72.283 64.2484C71.3244 57.6387 70.1172 51.42 68.768 45.5567C68.5905 44.7393 67.9869 44.0997 67.1703 43.851C59.9628 41.6478 52.7907 39.409 45.5832 37.2058L27.014 42.7849C24.8482 52.9481 23.0019 64.5326 21.8657 77.2899C20.8006 89.5141 20.5875 100.779 20.8716 110.871C27.298 112.506 35.1802 113.927 44.234 114.425C56.2347 115.064 66.4957 113.856 74.3778 112.292Z" fill="#9CF392"/>
<path d="M74.3794 112.293C75.196 98.3984 74.912 82.1587 72.2846 64.2488C71.2905 57.5681 70.0833 51.2428 68.7341 45.3439C68.5921 44.6687 68.5566 42.1812 67.9175 41.968C63.3728 40.5821 58.3666 41.1507 53.8574 39.7292C52.9698 40.511 51.8336 41.7548 51.2655 43.496C49.6323 48.5065 54.1415 53.2327 56.6268 57.9945C59.3607 63.2182 58.5086 66.3098 57.7985 84.4329C57.5145 91.2558 57.2304 101.526 57.2659 114.46C59.7868 114.318 62.4497 114.105 65.2191 113.785C68.45 113.359 71.5035 112.861 74.3794 112.293Z" fill="#9CF392"/>
<path d="M31.2762 17.9461C31.0987 16.2049 32.3414 14.6413 34.1166 14.4637C35.8564 14.286 37.4186 15.5297 37.5961 17.3065C37.7737 19.0477 36.531 20.6113 34.7557 20.789C33.016 20.9667 31.4537 19.6874 31.2762 17.9461Z" fill="#FFBDAC"/>
<path d="M32.6612 17.8032C32.5902 16.8082 33.0872 15.9553 33.7618 15.8487C34.4364 15.7421 35.0755 16.4528 35.1465 17.4478C35.2175 18.4428 34.7205 19.2957 34.0459 19.4023C33.3358 19.5089 32.7322 18.7982 32.6612 17.8032Z" fill="#FFA791"/>
<path d="M39.0849 34.5052L38.6944 22.1033L50.9792 21.2505L51.4052 35.1093C51.7248 37.5968 54.8137 39.5158 57.2281 40.262L61.5597 40.9016C61.1691 44.7395 57.4766 54.263 53.7131 54.9026C46.6475 56.1108 37.6292 44.3131 33.5461 40.6884C36.209 39.9066 38.9784 37.2415 39.0849 34.5052Z" fill="#FFBDAC"/>
<path d="M51.1574 26.794L50.9799 21.2505L38.6951 22.1033L38.9437 30.7385C39.9733 31.4137 41.1095 31.8756 42.3877 31.9822C45.8672 32.2665 49.1336 29.9922 51.1574 26.794Z" fill="#FFA791"/>
<path d="M38.3058 8.8128C37.8797 9.13262 34.5422 11.7267 33.7966 16.0976C32.8025 21.8899 36.495 29.6011 42.3534 30.1341C47.9277 30.6316 53.0049 24.3774 53.3245 18.514C53.6085 13.2903 50.271 7.32031 45.4778 6.53852C42.1403 5.93442 39.2289 8.13762 38.3058 8.8128Z" fill="#FFBDAC"/>
<path d="M56.0584 17.4481C56.1649 15.7068 54.8512 14.1788 53.1115 14.0722C51.3717 13.9656 49.845 15.2804 49.7385 17.0217C49.632 18.7629 50.9456 20.2909 52.6854 20.3975C54.4606 20.5397 55.9519 19.2249 56.0584 17.4481Z" fill="#FFBDAC"/>
<path d="M55.3117 17.3418C55.3472 16.3468 54.8147 15.494 54.1401 15.4229C53.4655 15.3518 52.8619 16.0981 52.8264 17.0931C52.7909 18.0881 53.3235 18.9409 53.9981 19.012C54.6726 19.0831 55.2762 18.3368 55.3117 17.3418Z" fill="#FFA791"/>
<path d="M34.0098 4.01572C33.0511 6.60981 39.016 10.8741 39.6196 11.265C44.7323 14.8185 52.5079 16.5242 54.3897 13.8235C55.7744 11.8335 53.7861 7.78248 51.5138 5.47268C46.046 -0.106401 35.1459 0.924129 34.0098 4.01572Z" fill="#C9E6DD"/>
<path d="M26.9445 307.347L28.6843 317.901H34.2231L34.6136 307.347H26.9445Z" fill="#BCFDE9"/>
<path d="M64.3292 307.347L62.5895 317.901H57.0151L56.6246 307.347H64.3292Z" fill="#BCFDE9"/>
<path d="M27.796 71.5688C29.2517 72.3506 31.9501 73.5233 35.5006 73.701C38.412 73.8431 40.7553 73.2746 42.2111 72.8126" stroke="#FFBDAC" stroke-width="1.27006" stroke-miterlimit="10" stroke-linecap="round"/>
<path d="M70.0099 71.3201C68.5542 72.1019 65.8558 73.2745 62.3053 73.4522C59.3938 73.5943 57.0505 73.0258 55.5948 72.5638" stroke="#FFBDAC" stroke-width="1.27006" stroke-miterlimit="10" stroke-linecap="round"/>
<path d="M67.8114 42.9268C67.8114 42.9268 88.9725 55.5774 90.4282 101.241C90.4992 103.053 89.008 104.545 87.1973 104.51C83.2562 104.439 75.161 103.408 60.0003 98.6109L60.6749 93.8492L77.6464 91.1129C75.6936 85.7471 73.8473 79.8126 72.2496 73.2741C69.5867 62.0093 68.3085 51.7396 67.8114 42.9268Z" fill="#FFBDAC"/>
<path d="M27.1594 42.9268C27.1594 42.9268 5.67883 55.7906 4.50716 102.307C4.47165 103.479 5.39478 104.439 6.56645 104.474C9.93944 104.581 18.0701 103.941 34.9706 98.6109L34.296 93.8492L17.3245 91.1129C19.4903 86.209 21.6206 80.4878 23.3249 73.9493C26.4848 61.9738 27.2305 51.2776 27.1594 42.9268Z" fill="#FFBDAC"/>
<path d="M30.3895 93.3518C30.3895 93.3518 29.9989 98.6111 37.9166 100.637C45.7987 102.662 42.5323 97.7582 42.5323 97.7582C42.5323 97.7582 40.7925 98.1136 33.869 93.8848L30.3895 93.3518Z" fill="#FFBDAC"/>
<path d="M63.6299 94.2016C71.9076 85.9168 71.9076 72.4845 63.6299 64.1998C55.3522 55.915 41.9314 55.915 33.6537 64.1998C25.376 72.4845 25.376 85.9168 33.6537 94.2016C41.9314 102.486 55.3522 102.486 63.6299 94.2016Z" fill="#FAED00"/>
<path d="M55.6931 94.657C64.2179 90.7573 67.97 80.6793 64.0736 72.1472C60.1772 63.615 50.1078 59.8598 41.583 63.7595C33.0582 67.6592 29.3061 77.7372 33.2025 86.2693C37.0989 94.8014 47.1683 98.5567 55.6931 94.657Z" fill="#E8DC00"/>
<path d="M46.6813 96.1244C44.622 95.8756 42.5982 95.2715 40.7164 94.2765C32.4082 89.9057 29.2127 79.6004 33.5799 71.285C37.947 62.9697 48.2435 59.7715 56.5517 64.1424C64.8599 68.5133 68.0554 78.8186 63.6882 87.1339C61.5579 91.1494 58.0074 94.1344 53.6758 95.4847C51.368 96.1599 49.0246 96.3731 46.6813 96.1244ZM50.2318 65.3151C44.6575 64.6754 39.0477 67.4472 36.2783 72.6709C32.6923 79.4938 35.3196 87.9512 42.1366 91.5403C45.4386 93.2815 49.2021 93.6369 52.7527 92.4998C56.3032 91.3982 59.2146 88.9817 60.9543 85.6769C64.5404 78.8541 61.913 70.3967 55.096 66.8076C53.5338 66.0258 51.9005 65.5283 50.2318 65.3151Z" fill="#E8DC00"/>
<path d="M53.1505 100.992C53.1505 100.992 50.2036 100.174 51.5883 98.4687C52.973 96.763 56.9141 97.5448 56.9141 97.5448L57.9437 99.0373L57.3046 99.9967L53.1505 100.992Z" fill="#FFBDAC"/>
<path d="M42.1062 100.992C42.1062 100.992 45.0532 100.174 43.6685 98.4687C42.2838 96.763 38.3427 97.5448 38.3427 97.5448L37.313 99.0373L37.9521 99.9967L42.1062 100.992Z" fill="#FFBDAC"/>
<path d="M30.3892 93.3517C30.3892 92.5699 30.9928 91.9658 31.7739 91.9658C32.555 91.9658 33.1586 92.5699 33.1586 93.3517C33.1586 94.1335 32.555 94.7376 31.7739 94.7376C31.0283 94.7376 30.3892 94.098 30.3892 93.3517Z" fill="#FFBDAC"/>
<path d="M66.605 93.387C66.605 93.387 67.0311 98.6462 57.9773 100.672C48.9235 102.697 52.687 97.7934 52.687 97.7934C52.687 97.7934 54.6753 98.1487 62.6285 93.92L66.605 93.387Z" fill="#FFBDAC"/>
<path d="M62.0973 93.423C62.0973 92.6412 62.7009 92.0371 63.482 92.0371C64.2631 92.0371 64.8667 92.6412 64.8667 93.423C64.8667 94.2048 64.2631 94.8089 63.482 94.8089C62.7009 94.8089 62.0973 94.1692 62.0973 93.423Z" fill="#FFBDAC"/>
<path d="M70.436 74.9444C70.2229 74.1626 70.0099 73.3453 69.7969 72.528C66.8145 61.2277 68.4832 50.8158 67.8086 41.9319C67.8086 41.9319 81.123 48.7547 88.2241 71.6041L70.436 74.9444Z" fill="#9CF392"/>
<path d="M25.736 75.8331C25.9135 75.0158 26.1266 74.234 26.3041 73.4167C28.825 62.0098 26.7302 51.6689 27.0497 42.7495C27.0497 42.7495 14.0193 50.1054 7.84143 73.2034L25.736 75.8331Z" fill="#9CF392"/>
</svg>
