<svg width="413" height="40" viewBox="0 0 413 40" fill="none" xmlns="http://www.w3.org/2000/svg">
<path d="M163.33 8.79907H159.022V32.6863H163.611L176.722 14.5133V32.6863H181.03V8.79907H176.348L163.33 26.6911V8.79907Z" fill="#333F48"/>
<path d="M204.537 32.6863H208.845V8.79907H204.537V18.4477H191.426V8.79907H187.118V32.6863H191.426V22.382H204.537V32.6863Z" fill="#333F48"/>
<path d="M224.859 32.6863C230.666 32.6863 234.225 30.6255 234.225 25.7543C234.225 22.6631 232.914 20.7895 229.917 20.2275C232.352 19.2907 233.476 17.4172 233.476 14.7006C233.476 10.7663 230.76 8.79907 225.421 8.79907H215.026V32.6863H224.859ZM219.334 28.752V22.1947H225.234C228.231 22.1947 229.917 23.0378 229.917 25.3796C229.917 27.6279 228.418 28.752 225.14 28.752H219.334ZM219.334 18.916V12.7334H224.953C227.95 12.7334 229.261 13.7639 229.261 15.6374C229.261 17.6982 227.575 18.916 224.859 18.916H219.334Z" fill="#333F48"/>
<path d="M254.36 18.4477H243.403V12.7334H255.671V8.79907H239.095V32.6863H256.046V28.752H243.403V22.2884H254.36V18.4477Z" fill="#333F48"/>
<path d="M280.676 24.8178C279.272 27.2533 276.368 29.1269 272.154 29.1269C266.629 29.0332 263.819 25.3798 263.819 20.6961C263.819 15.6376 267.003 12.2653 272.248 12.2653C275.806 12.2653 278.71 14.3261 280.208 16.4807V10.5791C278.803 9.54867 275.994 8.42456 272.248 8.42456C264.287 8.42456 259.23 13.483 259.23 20.6961C259.23 28.3775 264.381 33.0612 272.248 33.0612C276.368 33.0612 279.553 31.4687 280.676 30.0636V24.8178Z" fill="#333F48"/>
<path d="M302.778 8.79907H282.549V12.7334H290.51V32.6863H294.818V12.7334H302.872V8.79907H302.778Z" fill="#333F48"/>
<path d="M310.645 8.79907H306.337V32.6863H310.926L324.037 14.5133V32.6863H328.345V8.79907H323.663L310.645 26.6911V8.79907Z" fill="#333F48"/>
<path d="M334.62 32.6863H354.287V37.0891H358.314V28.752H355.505V8.79907H351.197V28.752H338.834V8.79907H334.526V32.6863H334.62Z" fill="#333F48"/>
<path d="M366.462 8.79907H362.154V32.6863H366.743L379.854 14.5133V32.6863H384.162V8.79907H379.48L366.462 26.6911V8.79907Z" fill="#333F48"/>
<path d="M394.651 8.79907H390.343V32.6863H394.932L408.044 14.5133V32.6863H412.352V8.79907H407.669L394.651 26.6911V8.79907Z" fill="#333F48"/>
<path d="M117.677 12.3121L123.225 8.20605H104.66V32.755H123.225V28.6489H109.99V22.3588H121.259V18.2964H109.99V12.3121H117.677Z" fill="#21A038"/>
<path d="M89.7651 28.6489H84.2612V21.8783H89.7651C93.1286 21.8783 94.7011 23.014 94.7011 25.2854C94.7011 27.5569 93.0412 28.6489 89.7651 28.6489ZM90.6824 17.7723H84.2176V12.3121H94.5264L100.074 8.20605H78.9321V32.7113H89.9835C96.1863 32.7113 99.7244 29.9157 99.7244 24.9797C99.7681 20.3495 96.5357 17.7723 90.6824 17.7723Z" fill="#21A038"/>
<path d="M138.164 21.7036H133.49V12.3121H138.164C141.571 12.3121 143.406 13.972 143.406 17.0297C143.406 20.0437 141.527 21.7036 138.164 21.7036ZM138.251 8.20605H128.161V32.755H133.446V25.8096H138.251C144.716 25.8096 148.691 22.4025 148.691 16.986C148.691 11.5695 144.716 8.20605 138.251 8.20605Z" fill="#21A038"/>
<path d="M69.8464 27.4259C68.4486 28.1685 66.8761 28.5617 65.2599 28.5617C60.4986 28.5617 57.0041 25.1545 57.0041 20.4369C57.0041 15.7193 60.4986 12.3559 65.2599 12.3559C66.9635 12.3559 68.667 12.8801 70.0648 13.8847L73.8651 11.0891L73.603 10.8707C71.3753 8.90506 68.4049 7.90039 65.0415 7.90039C61.3723 7.90039 58.0088 9.12347 55.65 11.3949C53.2039 13.7537 51.8934 16.9861 51.9371 20.3496C51.8934 23.7567 53.2039 27.0328 55.65 29.4353C58.1835 31.8378 61.547 33.1482 64.9978 33.0608C68.7981 33.0608 72.1615 31.7504 74.3893 29.3042L70.9385 26.7707L69.8464 27.4259Z" fill="#21A038"/>
<g clip-path="url(#clip0)">
<path fill-rule="evenodd" clip-rule="evenodd" d="M19.875 0.125C24.651 0.125 29.0334 1.80841 32.4599 4.61675L29.0374 7.35354C26.4636 5.48529 23.2975 4.38421 19.873 4.38421C11.2473 4.38421 4.25723 11.3762 4.25723 20C4.25723 28.6257 11.2492 35.6158 19.873 35.6158C28.4988 35.6158 35.4888 28.6238 35.4888 20C35.4888 19.8012 35.4848 19.6025 35.4789 19.4037L39.4479 16.5378C39.6466 17.6627 39.748 18.8194 39.748 20C39.748 30.977 30.85 39.875 19.873 39.875C8.89605 39.875 0 30.977 0 20C0 9.02304 8.89804 0.125 19.875 0.125Z" fill="url(#paint0_linear)"/>
<path fill-rule="evenodd" clip-rule="evenodd" d="M12.3979 15.1564L19.8749 19.9999L36.0094 8.17432L38.4064 12.0678L19.8749 25.6106L12.3979 20.944V15.1564Z" fill="#229E39"/>
</g>
<defs>
<linearGradient id="paint0_linear" x1="23.1206" y1="0.124999" x2="2.06832" y2="28.5075" gradientUnits="userSpaceOnUse">
<stop stop-color="#0187C8"/>
<stop offset="0.31332" stop-color="#08A652"/>
<stop offset="0.72384" stop-color="#08A652"/>
<stop offset="1" stop-color="#FAEF23"/>
</linearGradient>
<clipPath id="clip0">
<rect width="39.75" height="39.75" fill="white" transform="translate(0 0.125)"/>
</clipPath>
</defs>
</svg>
