<svg width="199" height="45" viewBox="0 0 199 45" fill="none" xmlns="http://www.w3.org/2000/svg">
<path d="M57.5486 1.81696V0H45.1784V1.81696H51.1544L42.1306 33.856L33.4057 1.81696H38.7841V0H23.0673V1.81696H27.9676L19.0036 33.856L10.2787 1.81696H15.5973V0H0V1.81696H3.94414L15.5973 45H17.5694L28.5054 6.17766L28.8042 4.78466L38.7841 45H40.7562L52.8874 1.81696H57.5486ZM61.9709 10.9017C55.5766 10.9017 51.8715 14.8991 51.8117 22.3486V28.7079C51.8715 36.1575 55.5766 40.1548 61.9111 40.1548C68.2456 40.1548 72.0105 36.1575 72.0105 28.7079V22.3486C72.0703 14.8991 68.3652 10.9017 61.9709 10.9017ZM67.17 31.9179C67.17 38.035 65.4369 38.9435 61.9709 38.9435C58.5048 38.9435 56.7718 38.035 56.7718 32.039V19.0781C56.7718 13.0821 58.5048 12.1736 61.9709 12.1736C65.4369 12.1736 67.17 13.0821 67.17 19.1992V31.9179ZM119.46 10.3567H117.906L109.241 38.3378H106.552V39.5491H114.679V38.3378H110.795L113.424 29.7981H120.774L123.105 38.3378H120.057V39.5491H129.858V38.3378H127.229L119.46 10.3567ZM113.783 28.7079L117.189 17.5639H117.488L120.476 28.7079H113.783ZM102.249 38.3378V12.1736H104.938V10.9623H97.4084L89.4604 33.6743L81.8709 10.9623H74.4009V12.1736H77.0303V38.3378H74.5802V39.5491H82.4087V38.3378H78.7036V13.5061L87.548 40.397H88.803L98.1255 13.7483L98.0658 38.2773H95.1973V39.4886H105.237V38.2773L102.249 38.3378ZM145.097 12.1736H149.101V31.07L137.328 11.0229V10.9623H130.456V12.1736H132.906V38.3378H130.456V39.5491H138.224V38.3378H134.161V14.6568L149.101 40.1548V40.0942V40.1548H150.356V12.1736H152.985V10.9623H145.097V12.1736ZM156.033 31.6756C154.539 31.6756 153.344 33.0686 153.344 34.7039C153.344 36.3997 154.539 37.7322 156.033 37.7322C157.527 37.7322 158.722 36.3392 158.722 34.7039C158.722 33.0081 157.527 31.6756 156.033 31.6756ZM175.455 16.2315C175.395 16.1709 175.395 16.1104 175.335 16.0498C175.216 15.8681 175.036 15.747 174.917 15.6864C174.558 15.4441 174.02 15.2625 173.244 15.2625C171.212 15.2625 170.256 16.2921 169.359 17.6851C168.762 18.5935 168.164 19.8048 167.805 20.5316C167.805 20.1682 167.686 19.3809 167.268 18.1696C166.67 16.5343 166.132 15.9892 166.013 15.9287H161.232V17.14H164.28V36.0363H161.232V37.2476H172.108V36.0363H167.805V22.8331C168.283 21.6824 169.001 20.1682 170.076 18.533C171.152 17.14 171.75 16.716 172.347 16.716C172.646 16.716 172.646 17.9879 172.646 18.5935C172.646 18.7147 172.646 18.7752 172.646 18.8964C172.646 18.9569 172.646 18.9569 172.646 18.9569C172.646 21.6824 173.483 22.4092 174.439 22.4092C175.455 22.4092 176.232 21.7429 176.232 18.9569C176.172 17.9273 175.933 16.8977 175.455 16.2315C175.455 16.2315 175.514 16.2921 175.455 16.2315ZM196.61 35.9152C196.072 35.9152 196.012 35.3701 196.012 35.3096V15.8075H192.426V31.9179C192.367 31.9785 190.036 36.5209 186.809 36.5209C185.136 36.5209 184.598 35.6124 184.598 34.5828V15.8075H177.845V17.0188H181.012V32.7052C181.012 32.7052 180.893 37.7322 186.331 37.7322C189.976 37.7322 192.068 34.3405 192.426 33.7349V33.856C192.367 35.7941 193.024 37.0659 193.98 37.1265H199V35.9152H196.61Z" fill="#1F4F5E"/>
</svg>
