<svg width="339" height="285" viewBox="0 0 339 285" fill="none" xmlns="http://www.w3.org/2000/svg"><path d="M20.982 40.22l63.31 10.898 59.689 108.714 71.778 9.008s14.321 18.781 6.312 30.691c-8.01 11.928-7.705 19.448-11.766 15.249-4.062-4.199-3.852-33.057-26.202-32.293-22.35.763-117.774-14.086-128.3-42.123-8.238-22.006-31.045-72.279-40.447-92.815-1.754-3.818 1.488-8.035 5.626-7.33z" fill="#D0F294"/><path d="M141.444 155.213L84.293 51.118l-12.91-2.31C81.89 73.62 89.67 173.23 133.835 156.072c2.117-.821 4.825-.458 7.609-.859z" fill="url(#paint0_linear)"/><path d="M210.495 270.836l-29.939-59.739-16.038 4.084 33.773 55.655h12.204zm-32.132 13.169l-32.132-77.298-16.038 4.943 36.442 72.355h11.728zm-114.17-13.169l36.442-60.025-16.056-4.104-32.113 64.129h11.727zm-31.655 13.169l33.772-67.068-16.057-4.943-29.92 72.011h12.205z" fill="#000"/><path d="M23.537 40.659a.557.557 0 01-.076-.058s-.382-.057-1.03-.133l1.106.19z" fill="#A467D3"/><path d="M216.559 178.154l-20.671 15.517c13.425 6.07 13.825 27.141 17.239 30.672 4.062 4.199 3.757-3.321 11.766-15.25s-6.312-30.69-6.312-30.69l-2.022-.249z" fill="#D0F294"/><path d="M205.079 38.98c.21.763.344 1.507.477 2.251.115.745.229 1.508.324 2.252.096.764.153 1.508.21 2.272.038.381.038.763.076 1.145l.058 1.145c.114 3.035-.019 6.07-.286 9.085-.248 3.016-.744 6.012-1.278 8.99l-.477 2.213-.229 1.107c-.076.363-.19.726-.267 1.107-.381 1.47-.724 2.94-1.163 4.39l-.152.554-.172.534-.343 1.088c-.115.363-.248.706-.363 1.069-.133.362-.248.725-.381 1.069a57.204 57.204 0 01-1.716 4.199 50.07 50.07 0 01-2.06 4.027 61.291 61.291 0 01-2.384 3.855c-.839 1.26-1.697 2.481-2.517 3.76-.801 1.26-1.563 2.577-2.116 3.97a16.412 16.412 0 00-1.049 4.371c-.153 1.507-.115 3.015 0 4.523-.134-1.508-.191-3.016-.057-4.523a16.62 16.62 0 011.01-4.41c.534-1.412 1.278-2.748 2.079-4.026.801-1.28 1.659-2.52 2.479-3.78a71.046 71.046 0 002.345-3.855 52.907 52.907 0 002.003-4.046 53.504 53.504 0 001.659-4.199c.133-.344.248-.706.362-1.069.115-.362.248-.706.343-1.069l.325-1.088.171-.534.153-.534c.419-1.45.743-2.92 1.106-4.371.095-.363.19-.725.267-1.107l.229-1.107.438-2.214c.515-2.958.973-5.936 1.183-8.932.228-2.997.324-6.012.171-9.009l-.076-1.126a22.411 22.411 0 00-.076-1.126c-.077-.744-.134-1.489-.248-2.233a41.343 41.343 0 00-.344-2.214c-.076-.363-.133-.725-.228-1.088a18.314 18.314 0 00-.267-1.069l.781-.248z" fill="#1F4F5E"/><path d="M209.427 34.647c.21.763.344 1.507.477 2.252.114.744.229 1.508.324 2.252.096.763.153 1.508.21 2.271.038.382.038.764.076 1.145l.058 1.145c.114 3.035-.02 6.07-.287 9.085-.247 3.016-.743 6.013-1.277 8.99L208.531 64l-.229 1.107c-.076.362-.19.725-.267 1.107-.381 1.47-.724 2.94-1.163 4.39l-.153.553-.171.535-.343 1.088c-.115.362-.248.706-.363 1.068-.133.363-.248.726-.381 1.07a57.186 57.186 0 01-1.716 4.198 50.089 50.089 0 01-2.06 4.027A61.79 61.79 0 01199.301 87c-.839 1.26-1.697 2.48-2.517 3.76-.801 1.26-1.563 2.576-2.117 3.97a16.414 16.414 0 00-1.048 4.37c-.153 1.508-.115 3.016 0 4.523-.134-1.507-.191-3.015-.058-4.523a16.663 16.663 0 011.011-4.409c.534-1.412 1.278-2.748 2.079-4.027.801-1.279 1.659-2.52 2.479-3.779a71.043 71.043 0 002.345-3.855 53.299 53.299 0 002.003-4.047 53.489 53.489 0 001.659-4.199c.133-.343.248-.706.362-1.068.114-.363.248-.706.343-1.07l.324-1.087.172-.534.153-.535c.419-1.45.743-2.92 1.106-4.37.095-.363.19-.726.267-1.108l.228-1.106.439-2.215c.515-2.958.973-5.935 1.182-8.932.229-2.996.325-6.012.172-9.008l-.076-1.126a21.28 21.28 0 00-.077-1.127c-.076-.744-.133-1.488-.247-2.233a41.359 41.359 0 00-.344-2.214c-.076-.362-.133-.725-.229-1.087a16.853 16.853 0 00-.267-1.07l.782-.247z" fill="#1F4F5E"/><path d="M209.847 25.848c.667 1.813 1.163 3.626 1.621 5.459a90.001 90.001 0 011.182 5.554c.667 3.721 1.125 7.481 1.449 11.241l.21 2.825.134 2.825.057 1.412.019 1.412.038 2.825c0 .935-.019 1.89-.038 2.825l-.019 1.412-.019.706c0 .23-.019.478-.038.707l-.134 2.824-.076 1.413c-.019.477-.057.935-.096 1.412-.286 3.76-.705 7.52-1.43 11.223-.362 1.851-.763 3.702-1.258 5.516a77.103 77.103 0 01-1.678 5.4c-.611 1.776-1.259 3.55-1.869 5.345-.134.458-.286.897-.42 1.355l-.19.668-.172.687-.095.344-.077.343-.152.687-.134.687-.057.344-.057.344a25.293 25.293 0 00-.172 5.63c.134 1.87.458 3.741.858 5.573-.419-1.832-.743-3.703-.896-5.573a24.341 24.341 0 01.134-5.65l.038-.343.057-.344.114-.706.153-.687.076-.343.095-.344.172-.687.191-.687c.133-.458.267-.897.419-1.355.572-1.794 1.221-3.57 1.812-5.364a92.481 92.481 0 001.621-5.4 67.43 67.43 0 001.201-5.517c.668-3.702 1.087-7.443 1.316-11.203.019-.477.076-.935.076-1.413l.058-1.412.114-2.825c0-.229.019-.477.019-.706v-.706l.019-1.412c0-.936.019-1.89.019-2.825l-.057-2.825-.038-1.412-.076-1.413-.153-2.824-.229-2.806c-.343-3.74-.839-7.482-1.545-11.165-.362-1.852-.743-3.684-1.22-5.497a63.15 63.15 0 00-.744-2.71 39.394 39.394 0 00-.877-2.653l.744-.191z" fill="#1F4F5E"/><path d="M141.101 78.697s-10.355 29.354-9.42 31.931c1.029 2.844 28.146 21.949 28.146 21.949l-2.46 9.066-49.504-19.029 13.501-50.979c0 .02 15.351-5.306 19.737 7.062z" fill="#FAED00"/><path d="M172.947 126.259l6.331 2.692s16.743-.458 22.579 7.52c5.835 7.977-1.926 6.26-1.926 6.26s-5.95-5.917-10.05-3.264c-4.1 2.653-17.811-4.256-17.811-4.256s-2.803-1.298-2.746-2.157c.057-.859 3.623-6.795 3.623-6.795z" fill="#EFAF9F"/><path d="M213.623 163.744c2.86 2.214 101.335 90.945 101.335 90.945l-8.619 4.276s-40.485-15.078-62.586-41.532a5.197 5.197 0 00-1.45-1.202l-62.281-31.263 33.601-21.224z" fill="url(#paint1_linear)"/><path d="M314.615 254.842c1.106-.324 31.389 9.238 22.864 10.688-8.524 1.451-25.686.477-27.727-1.851-2.021-2.329-3.375-4.734-3.375-4.734l8.238-4.103z" fill="#F7BFB1"/><path d="M209.256 147.216s49.695-37.141 49.905-36.359c.21.783-41.515 33.382-43.803 35.844-2.307 2.481-7.056 4.027-8.124 3.111-1.068-.916-52.498-14.277-52.498-14.277l2.612-3.359 51.908 15.04z" fill="url(#paint2_linear)"/><path d="M176.38 150.079c1.22-.267 61.633-5.249 61.633-5.249s9.42-3.225 14.321 5.879c4.901 9.123 30.435 88.864 30.435 88.864l-8.581 6.337s-45.272-50.769-36.404-73.386c0 0-32.781 22.521-57.819 18.685-20.405-3.149-61.442-13.341-51.107-32.484 10.336-19.144 47.522-8.646 47.522-8.646z" fill="url(#paint3_linear)"/><path d="M282.788 239.573c1.049-.496 31.331 5.058 23.131 7.825-8.2 2.768-25.305 4.524-27.67 2.539a32.69 32.69 0 01-4.08-4.142l8.619-6.222z" fill="#F7BFB1"/><path d="M208.951 38.96s-9.688 38.134-19.833 45.806c-25.019 18.953-11.842 34.184-15.236 37.237-3.395 3.054-9.535-9.008-13.845-27.216-4.31-18.228-18.555-28.152-9.497-36.13 9.059-7.959 58.411-19.697 58.411-19.697z" fill="#1F4F5E"/><path d="M169.515 55.985s-11.118-2.157-17.296 7.062c-6.179 9.237.61-29.24 2.498-31.416 1.907-2.176 18.631.897 19.374 1.489.763.591 2.937 9.81 2.937 9.81s-2.174 4.619-2.517 5.573c-.324.954-4.996 7.482-4.996 7.482z" fill="#EFAF9F"/><path d="M155.098 58.58c.191 1.241-4.558 7.425 2.651 17.75 7.227 10.307 15.351 16.853 10.774 24.278-4.558 7.424-7.285 8.57-7.056 13.227.229 4.657 7.514 27.426 11.766 31.358 4.253 3.932 12.91 1.107 9.211 7.195-3.662 6.07-57.495 35.233-61.004 20.67-3.509-14.543 1.278-126.826 10.088-126.673 8.81.171 20.9-5.554 23.57 12.196z" fill="url(#paint4_linear)"/><path d="M147.165 67.97c5.378 5.383 8.639 7.712 10.565 8.341-7.209-10.306-2.46-16.49-2.651-17.73a25.941 25.941 0 00-1.354-5.23c-6.56-.286-20.633.553-6.56 14.62zm11.194 54.11l7.151 3.034s18.917-.515 25.515 8.494c6.598 9.008-2.174 7.08-2.174 7.08s-6.712-6.68-11.365-3.683c-4.634 2.996-20.119-4.81-20.119-4.81s-3.165-1.45-3.108-2.424c.057-.973 4.1-7.691 4.1-7.691zm45.271-82.223s-5.416 5.65-6.979 8.97c-1.564 3.302-4.634 11.7-6.16 11.319-1.525-.382-4.691-1.814-5.473-.802-.782 1.011-9.782 8.646-12.872 5.84-3.089-2.825-9.763-13.322-7.666-17.578 2.098-4.256 4.119-14.544 4.119-14.544l.515-12.577s8.162 1.279 8.505 1.355c.343.076 5.149.954 5.149.954s8.276 1.374 9.306 1.355c1.03-.019 13.539 5.077 13.539 5.077l.325 5.344-2.308 5.287z" fill="#F7BFB1"/><path d="M141.101 69.23s-10.355 29.355-9.42 31.931c1.029 2.844 28.146 21.949 28.146 21.949l-2.46 9.066-49.504-19.029 13.501-50.978c0 .019 15.351-5.306 19.737 7.061z" fill="#FAED00"/><path d="M210.991 30.123S203.687-4.88 176.246.578c-27.441 5.459-25.553 29.946-35.298 31.492-9.744 1.546-15.16 16.07-24.065 18.895-8.906 2.825-9.955 30.29 4.347 30.461 14.303.172 32.323.783 32.037-19.983-.286-20.803 15.294-27.655 15.294-27.655s.191-12.597 6.713-4.237c6.521 8.34 20.709-7.253 25.496.954 4.786 8.207.362 11.814 1.239 11.203.858-.61 8.505 2.901 8.982-11.585z" fill="#1F4F5E"/><path d="M168.962 30.371c-.229.268-.477.554-.706.84-.229.286-.458.592-.667.897a38.44 38.44 0 00-1.259 1.852c-.42.61-.801 1.26-1.182 1.908-.191.325-.382.649-.553.974l-.553.973c-1.431 2.634-2.67 5.382-3.757 8.188-1.125 2.786-2.002 5.668-2.822 8.57l-.553 2.194-.286 1.088c-.096.363-.153.745-.248 1.107-.305 1.47-.649 2.94-.897 4.428l-.095.554-.095.553-.172 1.107c-.057.363-.095.745-.152 1.126-.039.382-.096.745-.134 1.126a70.737 70.737 0 00-.324 4.505c-.038 1.507-.038 3.015.057 4.504a59.59 59.59 0 00.42 4.504c.19 1.489.419 2.978.591 4.485.152 1.508.267 3.016.133 4.524a16.62 16.62 0 01-1.01 4.409c-.534 1.412-1.24 2.748-2.022 4.046.763-1.298 1.45-2.653 1.964-4.065.534-1.413.839-2.901.954-4.39.114-1.508 0-3.016-.172-4.504-.19-1.49-.438-2.978-.629-4.486a59.3 59.3 0 01-.477-4.504 51.619 51.619 0 01-.095-4.543c.038-1.507.133-3.015.286-4.523.038-.382.076-.744.133-1.126.039-.382.077-.744.134-1.126l.152-1.126.077-.554.095-.553c.229-1.489.572-2.977.858-4.447.076-.363.153-.745.229-1.107l.267-1.107.534-2.195c.801-2.92 1.659-5.821 2.746-8.646 1.068-2.825 2.288-5.611 3.699-8.302l.553-.993c.191-.324.363-.668.553-.992.382-.65.763-1.317 1.183-1.947.4-.65.839-1.279 1.277-1.89.458-.61.897-1.221 1.412-1.832l.553.496z" fill="#1F4F5E"/><path d="M168.161 26.993c-.229.267-.477.554-.706.84-.229.286-.458.591-.667.897-.439.61-.858 1.221-1.259 1.851a32.09 32.09 0 00-1.182 1.909c-.191.324-.382.649-.553.973l-.553.974c-1.43 2.634-2.67 5.382-3.757 8.188-1.125 2.786-2.002 5.668-2.822 8.57l-.553 2.194-.286 1.088c-.096.363-.153.744-.248 1.107-.305 1.47-.649 2.94-.896 4.428l-.096.553-.095.554-.172 1.107c-.057.363-.095.744-.152 1.126-.038.382-.096.744-.134 1.126a70.737 70.737 0 00-.324 4.504c-.038 1.508-.038 3.016.057 4.505.076 1.507.229 2.996.42 4.504.19 1.489.419 2.977.591 4.485.152 1.508.267 3.016.133 4.523a16.622 16.622 0 01-1.01 4.41c-.534 1.412-1.24 2.748-2.022 4.046.763-1.298 1.45-2.653 1.964-4.066.534-1.412.84-2.9.954-4.39.114-1.507 0-3.015-.172-4.504-.19-1.489-.438-2.977-.629-4.485a59.294 59.294 0 01-.477-4.504c-.095-1.508-.133-3.016-.095-4.543.038-1.508.133-3.015.286-4.523.038-.382.076-.744.133-1.126.039-.382.077-.745.134-1.126l.153-1.126.076-.554.095-.553c.229-1.49.572-2.978.858-4.447.077-.363.153-.745.229-1.107l.267-1.107.534-2.195c.801-2.92 1.659-5.821 2.746-8.646 1.068-2.825 2.288-5.611 3.7-8.303l.553-.992c.19-.325.362-.668.553-.993.381-.648.762-1.317 1.182-1.946.4-.65.839-1.28 1.278-1.89.457-.61.896-1.221 1.411-1.832l.553.496z" fill="#1F4F5E"/><path d="M210.324 214.78c-.763-5.802-3.185-40.557-25.535-39.794-22.349.764-118.44-6.585-128.967-34.622-8.257-22.006-31.065-72.279-40.466-92.815-1.392-3.054.382-6.337 3.261-7.196-7.151.248-19.603 3.36-18.555 22.14C1.55 88.717 2.39 222.358 60.4 234.554c53.966 11.337 146.492 6.241 155.188-9.143-.668.287-4.482-4.657-5.263-10.631z" fill="url(#paint5_linear)"/><defs><linearGradient id="paint0_linear" x1="106.413" y1="48.809" x2="106.413" y2="158.047" gradientUnits="userSpaceOnUse"><stop stop-color="#22D327"/><stop offset="1" stop-color="#28A168"/></linearGradient><linearGradient id="paint1_linear" x1="247.49" y1="163.744" x2="247.49" y2="258.965" gradientUnits="userSpaceOnUse"><stop stop-color="#235D66"/><stop offset="1" stop-color="#4ADCB1"/></linearGradient><linearGradient id="paint2_linear" x1="206.949" y1="110.845" x2="206.949" y2="150.078" gradientUnits="userSpaceOnUse"><stop stop-color="#9BA1A6"/><stop offset="1" stop-color="#9BA1A6"/></linearGradient><linearGradient id="paint3_linear" x1="204.993" y1="144.275" x2="204.993" y2="245.91" gradientUnits="userSpaceOnUse"><stop stop-color="#215863"/><stop offset="1" stop-color="#48D7AE"/></linearGradient><linearGradient id="paint4_linear" x1="151.812" y1="45.637" x2="151.812" y2="177.085" gradientUnits="userSpaceOnUse"><stop stop-color="#F9EB34"/><stop offset="1" stop-color="#F8CE30"/></linearGradient><linearGradient id="paint5_linear" x1="107.793" y1="40.353" x2="107.793" y2="240.7" gradientUnits="userSpaceOnUse"><stop stop-color="#22D327"/><stop offset="1" stop-color="#28A168"/></linearGradient></defs></svg>