<svg width="198" height="344" viewBox="0 0 198 344" fill="none" xmlns="http://www.w3.org/2000/svg"><path d="M6.257 331.978h72.631c1.146 0 2.028.93 2.028 2.037v6.91a2.027 2.027 0 01-2.028 2.038H6.258a2.028 2.028 0 01-2.028-2.038v-6.91c-.044-1.107.881-2.037 2.027-2.037z" fill="#FAED00"/><path d="M4.185 340.88c0 1.152.926 2.126 2.116 2.126H78.8c1.145 0 2.115-.93 2.115-2.126v-1.151H4.185v1.151z" fill="#E8DC00"/><path d="M6.257 320.993h72.631c1.146 0 2.028.93 2.028 2.038v6.909a2.027 2.027 0 01-2.028 2.038H6.258a2.027 2.027 0 01-2.028-2.038v-6.909c-.044-1.152.881-2.038 2.027-2.038z" fill="#FAED00"/><path d="M4.185 329.896c0 1.151.926 2.126 2.116 2.126H78.8c1.145 0 2.115-.93 2.115-2.126v-1.152H4.185v1.152z" fill="#E8DC00"/><path d="M6.257 309.965h72.631c1.146 0 2.028.931 2.028 2.038v6.909a2.027 2.027 0 01-2.028 2.038H6.258a2.027 2.027 0 01-2.028-2.038v-6.909c-.044-1.107.881-2.038 2.027-2.038z" fill="#FAED00"/><path d="M4.185 318.868c0 1.151.926 2.126 2.116 2.126H78.8c1.145 0 2.115-.93 2.115-2.126v-1.152H4.185v1.152z" fill="#E8DC00"/><path d="M7.624 144.975H80.21c1.145 0 2.027.931 2.027 2.038v6.91a2.027 2.027 0 01-2.027 2.037H7.624a2.027 2.027 0 01-2.028-2.037v-6.866a2.01 2.01 0 012.028-2.082z" fill="#FAED00"/><path d="M5.552 153.878c0 1.151.925 2.126 2.115 2.126h72.499a2.12 2.12 0 002.115-2.126v-1.152H5.551v1.152z" fill="#E8DC00"/><path d="M6.787 133.947h72.63c1.147 0 2.028.93 2.028 2.037v6.91a2.026 2.026 0 01-2.027 2.037H6.787a2.027 2.027 0 01-2.028-2.037v-6.91c-.044-1.107.882-2.037 2.028-2.037z" fill="#FAED00"/><path d="M4.715 142.894a2.12 2.12 0 002.115 2.126h72.5c1.146 0 2.116-.93 2.116-2.126v-1.151H4.715v1.151z" fill="#E8DC00"/><path d="M7.624 122.962H80.21c1.145 0 2.027.93 2.027 2.038v6.909a2.027 2.027 0 01-2.027 2.038H7.624a2.027 2.027 0 01-2.028-2.038V125c-.044-1.108.882-2.038 2.028-2.038z" fill="#FAED00"/><path d="M5.552 131.865c0 1.151.925 2.126 2.115 2.126h72.499a2.12 2.12 0 002.115-2.126v-1.152H5.551v1.152z" fill="#E8DC00"/><path d="M6.257 200.031h72.631c1.146 0 2.028.93 2.028 2.038v6.909a2.027 2.027 0 01-2.028 2.038H6.258a2.027 2.027 0 01-2.028-2.038v-6.909c-.044-1.108.881-2.038 2.027-2.038z" fill="#FAED00"/><path d="M4.185 208.979c0 1.151.926 2.126 2.116 2.126H78.8c1.145 0 2.115-.93 2.115-2.126v-1.152H4.185v1.152z" fill="#E8DC00"/><path d="M6.257 189.047h72.631c1.146 0 2.028.93 2.028 2.037v6.91a2.027 2.027 0 01-2.028 2.037H6.258a2.027 2.027 0 01-2.028-2.037v-6.91c-.044-1.107.881-2.037 2.027-2.037z" fill="#FAED00"/><path d="M4.185 197.949c0 1.151.926 2.126 2.116 2.126H78.8c1.145 0 2.115-.93 2.115-2.126v-1.152H4.185v1.152z" fill="#E8DC00"/><path d="M6.652 178.017h72.631c1.146 0 2.028.93 2.028 2.038v6.909a2.027 2.027 0 01-2.028 2.038H6.653a2.027 2.027 0 01-2.028-2.038v-6.909c0-1.108.925-2.038 2.027-2.038z" fill="#FAED00"/><path d="M4.624 186.919c0 1.152.926 2.126 2.116 2.126h72.499c1.145 0 2.115-.93 2.115-2.126v-1.151H4.624v1.151z" fill="#E8DC00"/><path d="M2.027 298.936h72.631c1.146 0 2.028.93 2.028 2.037v6.91a2.027 2.027 0 01-2.028 2.037H2.028A2.027 2.027 0 010 307.883v-6.91c0-1.107.926-2.037 2.027-2.037z" fill="#FAED00"/><path d="M0 307.838c0 1.152.926 2.126 2.115 2.126h72.5c1.145 0 2.115-.93 2.115-2.126v-1.151H0v1.151z" fill="#E8DC00"/><path d="M6.257 232.851h72.631c1.146 0 2.028.93 2.028 2.037v6.91a2.026 2.026 0 01-2.028 2.037H6.258a2.027 2.027 0 01-2.028-2.037v-6.91c-.044-1.107.881-2.037 2.027-2.037z" fill="#FAED00"/><path d="M4.185 241.753c0 1.152.926 2.126 2.116 2.126H78.8c1.145 0 2.115-.93 2.115-2.126v-1.151H4.185v1.151z" fill="#E8DC00"/><path d="M6.257 221.867h72.631c1.146 0 2.028.93 2.028 2.038v6.909a2.027 2.027 0 01-2.028 2.038H6.258a2.028 2.028 0 01-2.028-2.038v-6.909c-.044-1.152.881-2.038 2.027-2.038z" fill="#FAED00"/><path d="M4.185 230.769c0 1.152.926 2.126 2.116 2.126H78.8c1.145 0 2.115-.93 2.115-2.126v-1.151H4.185v1.151z" fill="#E8DC00"/><path d="M4.846 211.148h72.631c1.146 0 2.027.93 2.027 2.037v6.91a2.026 2.026 0 01-2.027 2.037H4.846a2.027 2.027 0 01-2.027-2.037v-6.91c0-1.107.925-2.037 2.027-2.037z" fill="#FAED00"/><path d="M2.82 220.051c0 1.151.925 2.126 2.115 2.126h72.499c1.145 0 2.115-.93 2.115-2.126v-1.152H2.82v1.152z" fill="#E8DC00"/><path d="M6.256 287.951h72.631c1.146 0 2.028.93 2.028 2.037v6.91a2.026 2.026 0 01-2.028 2.037H6.257a2.027 2.027 0 01-2.028-2.037v-6.91c-.044-1.151.881-2.037 2.027-2.037z" fill="#FAED00"/><path d="M4.185 296.853c0 1.152.926 2.126 2.116 2.126H78.8c1.145 0 2.115-.93 2.115-2.126v-1.151H4.185v1.151z" fill="#E8DC00"/><path d="M3.392 276.922h72.631c1.146 0 2.028.931 2.028 2.038v6.91a2.027 2.027 0 01-2.028 2.037H3.393a2.027 2.027 0 01-2.028-2.037v-6.91c-.044-1.107.881-2.038 2.027-2.038z" fill="#FAED00"/><path d="M1.32 285.825c0 1.152.926 2.126 2.116 2.126h72.499c1.145 0 2.115-.93 2.115-2.126v-1.152H1.32v1.152z" fill="#E8DC00"/><path d="M2.027 265.894h72.631c1.146 0 2.028.93 2.028 2.038v6.909a2.027 2.027 0 01-2.028 2.038H2.028A2.027 2.027 0 010 274.841v-6.865c0-1.152.926-2.082 2.027-2.082z" fill="#FAED00"/><path d="M0 274.797c0 1.151.926 2.126 2.115 2.126h72.5a2.122 2.122 0 002.115-2.126v-1.152H0v1.152z" fill="#E8DC00"/><path d="M4.846 254.909h72.631c1.146 0 2.027.93 2.027 2.038v6.909a2.027 2.027 0 01-2.027 2.038H4.846a2.027 2.027 0 01-2.027-2.038v-6.909c0-1.152.925-2.038 2.027-2.038z" fill="#FAED00"/><path d="M2.82 263.812c0 1.151.925 2.126 2.115 2.126h72.499c1.145 0 2.115-.93 2.115-2.126v-1.152H2.82v1.152z" fill="#E8DC00"/><path d="M5.155 243.881h72.631c1.146 0 2.028.93 2.028 2.037v6.91a2.027 2.027 0 01-2.028 2.037H5.156a2.027 2.027 0 01-2.028-2.037v-6.91c0-1.107.881-2.037 2.027-2.037z" fill="#FAED00"/><path d="M3.129 252.783a2.12 2.12 0 002.115 2.126h72.499a2.12 2.12 0 002.115-2.126v-1.152H3.128v1.152z" fill="#E8DC00"/><path d="M6.257 156.004h72.631c1.146 0 2.028.93 2.028 2.038v6.909a2.027 2.027 0 01-2.028 2.038H6.258a2.027 2.027 0 01-2.028-2.038v-6.909c-.044-1.108.881-2.038 2.027-2.038z" fill="#FAED00"/><path d="M4.185 164.907c0 1.151.926 2.126 2.116 2.126H78.8a2.122 2.122 0 002.115-2.126v-1.152H4.185v1.152z" fill="#E8DC00"/><path d="M5.155 166.989h72.631c1.146 0 2.028.93 2.028 2.037v6.91a2.027 2.027 0 01-2.028 2.037H5.156a2.027 2.027 0 01-2.028-2.037v-6.91c0-1.107.881-2.037 2.027-2.037z" fill="#FAED00"/><path d="M3.129 175.936a2.12 2.12 0 002.115 2.126h72.499a2.12 2.12 0 002.115-2.126v-1.151H3.128v1.151z" fill="#E8DC00"/><path d="M139.576 77.917l.088-9.39-9.255-.443-.132 10.453c-.22 1.905-2.512 3.41-4.319 3.987l-3.261 1.063c.352 2.879 3.305 9.478 6.082 9.921 5.332.797 11.943-8.238 14.94-11.029-1.895-.531-4.011-2.48-4.143-4.562z" fill="#FFBDAC"/><path d="M126.001 82.568l-3.261 1.063c0 .133.044.31.088.443h19.436c.573-.62 1.101-1.196 1.542-1.595-1.498-.398-3.041-1.639-3.79-3.1h-9.96c-.661 1.55-2.512 2.702-4.055 3.189z" fill="#FAED00"/><path d="M138.34 80.22h-7.977a.698.698 0 01-.705-.708c0-.399.309-.709.705-.709h7.977c.397 0 .705.31.705.709a.698.698 0 01-.705.709zm22.567 252.112s.133 2.171-.44 3.677c-.573 1.506 4.01 1.771 4.098 1.727.088-.044 2.16-1.727 2.16-1.727s-.617-1.905-.529-3.987m-50.332 3.987h-7.008v1.727h7.008v-1.727z" fill="#FFBDAC"/><path d="M194.093 172.924l1.058 3.41s1.278 1.019 2.027 3.056c.132.399 1.234 3.278-.176 6.29-.617 1.329-1.895 3.1-2.777 2.879-.969-.222-1.498-2.79-1.498-2.746l-3.394-10.808 4.76-2.081z" fill="#F39592"/><path d="M190.347 178.239c-2.159 4.119-2.247 5.315-1.895 5.625.529.399 2.512-.443 3.041-2.259.397-1.196-.044-2.569-1.146-3.366z" fill="#F39592"/><path d="M152.797 83.276s28.427 24.228 42.177 90.312l-6.082 1.639s-16.747-35.389-18.951-42.388l-26.091-43.45 8.947-6.113z" fill="#E8DC00"/><path d="M157.425 144.887s16.042 12.667 15.954 46.728c-.044 15.237-7.228 140.451-7.228 140.451l-5.289.266c-9.343-47.658-16.086-94.52-23.843-142.976-1.102-.177-6.743-.576-7.756-1.727-2.16-2.525-.045-6.954-.089-8.903-.176-7.795-.22-25.645.265-32.201 6.302.488 22.168-1.063 27.986-1.638z" fill="#209F6D"/><path d="M110.093 147.146s-8.33 16.122-7.404 45.577c.396 12.8 7.58 140.097 7.58 140.097.926.177 1.851.354 2.733.487.793-.177 2.203.221 2.379-.576 11.371-48.81 18.07-94.121 21.728-143.374-.837-10.365-3.438-32.378-4.275-42.743l-22.741.532z" fill="#209F6D"/><path d="M157.644 186.433c-2.777 25.557 4.143 105.15 6.038 145.766l2.512-.133s7.184-125.17 7.228-140.451c.088-34.061-15.954-46.728-15.954-46.728-2.336.221-6.303.62-10.622.974 5.333 10.054 12.825 21.88 10.798 40.572z" fill="#1F4F5E"/><path d="M110.092 147.146a209.065 209.065 0 011.014-42.742c.661-5.227 1.455-10.187 2.424-14.882a5.147 5.147 0 013.438-3.898c1.763-.576 3.481-1.152 5.244-1.727a41.267 41.267 0 0124.284-.576c2.689.753 4.716 2.967 5.333 5.713 1.675 7.884 3.129 16.61 4.187 26.133 1.19 10.852 1.542 20.862 1.498 29.809a109.905 109.905 0 01-20.626 3.587c-10.665.709-19.832-.177-26.796-1.417z" fill="#FAED00"/><path d="M151.784 88.946c-.573-2.747-2.645-4.917-5.333-5.67.529 1.329 1.058 2.702 1.587 4.03-.177 1.374-.353 2.747-.529 4.076-1.234.708-3.173 1.993-4.54 4.207-4.275 6.866.75 15.636 3.306 27.55 1.19 5.36 2.292 13.554 1.322 24.228 1.587-.398 3.129-.797 4.716-1.196 1.718-.443 3.437-.841 5.156-1.284a251.087 251.087 0 00-1.498-29.809c-1.058-9.523-2.512-18.248-4.187-26.132z" fill="#E8DC00"/><path d="M130.408 58.517c-.353.221-2.865 2.126-3.482 5.403-.837 4.341 1.851 10.232 6.214 10.72 4.187.486 8.065-4.209 8.418-8.638.309-3.942-2.16-8.504-5.729-9.168-2.512-.443-4.76 1.196-5.421 1.683z" fill="#FFBDAC"/><path d="M143.806 65.25c.088-1.108-.75-2.127-1.851-2.215-1.102-.089-2.116.753-2.204 1.86-.088 1.107.749 2.126 1.851 2.215 1.102.133 2.116-.709 2.204-1.86z" fill="#FFBDAC"/><path d="M176.199 125.974c5.641-6.555 10.092-17.318 5.773-24.139-4.142-6.555-12.781-3.765-16.615-10.32-3.922-6.644 3.217-12.358 2.16-21.438-1.675-14.616-23.535-28.126-37.285-21.88-7.361 3.322-13.09 12.579-12.032 19.754 1.278 8.593 11.459 8.416 13.266 17.761 1.762 8.947-6.788 13.42-4.055 20.02 3.261 7.929 16.835 4.385 21.199 12.845 3.922 7.619-4.54 15.591-.617 18.913 4.319 3.632 19.788-1.727 28.206-11.516z" fill="#000"/><path d="M124.679 98.911s-19.171 11.56-32.437 14.838C79.55 116.85 52.665 85.623 52.665 85.623l2.953-3.41s17.541 8.105 32.129 19.666c0 0 15.601-6.733 28.911-15.857l8.021 12.89z" fill="#FAED00"/><path d="M115.821 336.009s3.041 2.923 0 5.979h-18.07c-.087-.354-.484-2.126.574-3.853.837-1.418 2.115-1.949 2.512-2.126h8.638c.088 0 3.217 1.86 6.346 0z" fill="#000"/><path d="M95.223 342.99h21.155v-.975H95.223v.975zm5.656-6.981c-2.82 0-5.112 2.303-5.112 5.138v.841h2.776a7.993 7.993 0 01.265-2.702 7.384 7.384 0 012.071-3.277z" fill="#EFEEFE"/><path d="M110.268 332.819l.176 3.455 4.672-.088.308-3.588-5.156.221z" fill="#FFBDAC"/><path d="M167.916 341.944h-8.771v.93h8.771v-.93z" fill="#EFEEFE"/><path d="M167.914 339.331c-.132-1.595-.793-2.747-1.146-3.322 0 0-3.085 1.816-6.258 0a6.451 6.451 0 00-1.322 3.41 5.468 5.468 0 00.397 2.525h8.109c.132-.576.308-1.506.22-2.613z" fill="#000"/><path d="M87.571 101.702a5.793 5.793 0 00-.617 4.429" stroke="#E8DC00" stroke-width="3.379" stroke-miterlimit="10"/><path d="M105.553 336.23c-.309.488-.617.931-.881 1.418m2.599-1.285c-.265.488-.485 1.019-.75 1.506" stroke="#E1EEF7" stroke-width="3.379" stroke-miterlimit="10"/><path d="M116.128 329.321h-6.92v3.721h6.92v-3.721zm50.86 0h-6.919v3.721h6.919v-3.721z" fill="#2A9E3E"/><path d="M128.647 169.469h-15.469v1.683h15.469v-1.683z" fill="#1F4F5E"/><path d="M129.705 190.995c3.085-.354 5.905-1.417 8.77-2.48 1.763 1.417 4.275 1.772 6.523 2.215" stroke="#1F4F5E" stroke-width="5.573" stroke-miterlimit="10"/><path d="M132.127 190.685s-.661 21.039.22 46.862c0 0 4.319-37.472 5.201-49.563l-5.421 2.701z" fill="#1F4F5E"/><path d="M47.156 68.128H42.97a1.094 1.094 0 01-1.101-1.107v-4.607h6.346v4.607c.044.62-.485 1.107-1.058 1.107z" fill="#08A652"/><path d="M69.368 24.323c0-13.642-11.15-24.627-24.769-24.317C31.466.316 20.89 11.301 20.977 24.5c.044 9.169 5.156 17.097 12.648 21.216 1.72.93 2.777 2.746 2.777 4.74v12.667c0 1.816 1.454 3.322 3.305 3.322h10.886a3.31 3.31 0 003.306-3.322V50.456c0-1.95 1.057-3.81 2.776-4.74a24.273 24.273 0 0012.693-21.393z" fill="#FAED00"/><path d="M40.898 62.99V25.297a2.584 2.584 0 00-2.6-2.613h-.044a2.584 2.584 0 00-2.6 2.613 2.584 2.584 0 002.6 2.613h8.55" stroke="#EFEEFE" stroke-width="2.977" stroke-miterlimit="10" stroke-linecap="round"/><path d="M49.448 62.99V25.298a2.584 2.584 0 012.6-2.614h.044c1.454 0 2.6 1.152 2.6 2.614a2.584 2.584 0 01-2.6 2.613h-8.55" stroke="#EFEEFE" stroke-width="2.977" stroke-miterlimit="10" stroke-linecap="round"/><path d="M51.164 66.8H38.956a3.168 3.168 0 01-3.173-3.19V50.19h18.554v13.42a3.168 3.168 0 01-3.173 3.19z" fill="#D3D5FC"/><path d="M35.301 54.707h19.392m-19.392 3.987h19.392M35.301 62.68h19.392" stroke="#2A9E3E" stroke-width="2.977" stroke-miterlimit="10" stroke-linecap="round"/><path d="M52.751 85.535l-1.366-1.462s-7.007.045-10.886-4.385a.402.402 0 01.309-.664l10.797.354c.706.045 1.323.31 1.807.797l2.116 2.127" fill="#F39592"/><path d="M52.975 80.353s-.705-1.86-1.543-1.86c-.837 0-2.864-.488-2.512.354.353.842 4.055 1.506 4.055 1.506z" fill="#F39592"/></svg>