<svg width="411" height="289" viewBox="0 0 411 289" fill="none" xmlns="http://www.w3.org/2000/svg"><path d="M84.433 286.599c0-.793-18.906-1.454-42.2-1.454-23.294 0-42.233.661-42.233 1.454 0 .792 18.906 1.453 42.2 1.453 23.294 0 42.233-.661 42.233-1.453z" fill="#9CF392"/><path d="M313.974 13.146h-18.873v45.912h18.873V13.146z" fill="#BCFDE9"/><path d="M295.104 13.146h-18.873v45.912h18.873V13.146z" fill="#2A9E3E"/><path d="M319.649 1.388h-24.548V13.18h24.548V1.388z" fill="#fff"/><path d="M295.103 1.388h-24.548V13.18h24.548V1.388z" fill="#fff"/><path d="M324.367 20.446H123.795v9.776l86.511 88.983h200.441v-9.777l-86.38-88.982z" fill="#000"/><path d="M242.642 112.533H49.922v154.844h192.72V112.533z" fill="#9CF392"/><path d="M399.824 267.409H242.672V112.533l78.593-81.154 78.559 81.154v154.876z" fill="#C9E6DD"/><path d="M123.828 20.446h200.54l-86.38 88.982H37.416l86.412-88.982z" fill="#22D327"/><path d="M237.889 109.428H37.416v9.777h200.473l86.479-88.983v-9.776l-86.479 88.982z" fill="#000"/><path d="M121.453 159.369H80.606v55.886h-3.498v4.36h47.875v-4.36h-3.53v-55.886zm93.51 0h-40.88v55.886h-3.498v4.36h47.875v-4.36h-3.497v-55.886z" fill="#9CF392"/><path d="M116.213 161.548H79.721v55.887h36.492v-55.887z" fill="#000"/><path d="M119.181 220.408h-42.43v-61.832h42.43v61.832zm-36.492-5.946h30.553v-49.941H82.689v49.941z" fill="#fff"/><path d="M121.888 214.462H74.013v5.946h47.875v-5.946zm-5.676-27.943H79.72v5.945h36.492v-5.945z" fill="#fff"/><path d="M100.937 161.548h-5.939v56.811h5.939v-56.811z" fill="#fff"/><path d="M209.749 161.548h-36.492v55.887h36.492v-55.887z" fill="#000"/><path d="M212.716 220.408h-42.431v-61.832h42.431v61.832zm-36.492-5.946h30.553v-49.941h-30.553v49.941z" fill="#fff"/><path d="M215.453 214.462h-47.875v5.946h47.875v-5.946zm-5.707-27.942h-36.492v5.945h36.492v-5.945z" fill="#fff"/><path d="M194.473 161.548h-5.939v56.811h5.939v-56.811z" fill="#fff"/><path d="M320.772 80.693c-11.251 0-20.423 9.182-20.423 20.445v28.24h40.847v-28.24c0-11.263-9.14-20.445-20.424-20.445z" fill="#C9E6DD"/><path d="M342.154 127.231h-36.492v-26.06c0-10.074 8.183-18.266 18.246-18.266 10.063 0 18.246 8.192 18.246 18.266v26.06z" fill="#000"/><path d="M345.123 130.204h-42.431v-29.033c0-11.726 9.503-21.238 21.216-21.238 11.713 0 21.215 9.512 21.215 21.238v29.033zm-36.492-5.945h30.553v-23.088c0-8.422-6.863-15.293-15.276-15.293-8.414 0-15.277 6.87-15.277 15.293v23.088z" fill="#fff"/><path d="M326.878 82.872h-5.939v44.326h5.939V82.872z" fill="#fff"/><path d="M342.155 102.096h-36.491v5.945h36.491v-5.945z" fill="#fff"/><path d="M242.639 247.889H47.643v19.488h194.996v-19.488z" fill="#000"/><path d="M402.662 247.889h-159.99v19.488h159.99v-19.488z" fill="#1F4F5E"/><path d="M346.442 157.189h-51.339v90.7h51.339v-90.7z" fill="#C9E6DD"/><path d="M347.4 159.369h-46.984v86.34H347.4v-86.34z" fill="#000"/><path d="M350.369 248.682h-52.923v-92.285h52.923v92.285zm-46.984-5.946h41.045v-80.394h-41.045v80.394z" fill="#fff"/><path d="M347.4 202.539h-46.984v43.17H347.4v-43.17z" fill="#fff"/><path d="M326.877 159.369h-5.939v56.415h5.939v-56.415z" fill="#fff"/><path d="M161.143 90.898h-10.591c-.165 0-.231-.198-.132-.297l50.085-51.593c.033-.033.066-.066.132-.066h10.591c.165 0 .231.199.132.298l-50.085 51.592c-.033.033-.066.066-.132.066z" fill="#000"/><path d="M359.208 247.889h-54.639v9.777h54.639v-9.777z" fill="#BCFDE9"/><path d="M368.648 257.633h-57.543v9.776h57.543v-9.776z" fill="#BCFDE9"/><path d="M295.102 247.889v19.521h16.002v-9.777h-6.533v-9.744h-9.469z" fill="#000"/><path d="M303.253 217.666a2.64 2.64 0 002.639-2.642 2.64 2.64 0 10-5.279 0 2.641 2.641 0 002.64 2.642z" fill="#C9E6DD"/><path d="M305.098 217.666a2.641 2.641 0 002.64-2.642 2.64 2.64 0 10-5.279 0 2.64 2.64 0 002.639 2.642z" fill="#1F4F5E"/><path d="M254.847 247.889h-12.175V114.284l12.175-12.551v146.156z" fill="#fff"/><path d="M396.724 247.888h-12.208V96.711l12.208 12.618v138.559z" fill="#C9E6DD"/><path d="M399.827 247.889h-12.175V99.949l12.175 12.584v135.356zm-157.152 0h-12.208V119.205h7.424l4.784-4.921v133.605zM62.13 119.205H49.922v128.684H62.13V119.205z" fill="#fff"/><path d="M95.65 170.467H84.96s-1.353 2.147-.859 6.507l17.553.132c1.056 0 1.683-1.189 1.056-2.048-1.122-1.553-3.266-3.633-7.06-4.591z" fill="#E8DC00"/><path d="M93.408 36.928l26.462 27.414-6.137-1.288 32.169-8.522c1.848-.495 3.696.595 4.191 2.445.429 1.651-.429 3.336-1.947 4.03l-30.421 13.442c-1.914.86-4.058.463-5.543-.792l-.594-.496-29.035-24.64c-3.332-2.84-3.761-7.861-.924-11.197 2.838-3.336 7.853-3.765 11.185-.925.231.165.43.364.594.529z" fill="#BCFDE9"/><path d="M25.44 286.996c-.362 0-.725-.066-1.088-.198-1.716-.595-2.64-2.477-2.013-4.195L96.412 70.717c.593-1.717 2.474-2.642 4.19-2.014 1.716.594 2.639 2.477 2.012 4.194L28.542 284.783a3.29 3.29 0 01-3.101 2.213z" fill="#E8DC00"/><path d="M59.685 286.996c-.363 0-.726-.066-1.089-.198-1.716-.595-2.64-2.477-2.013-4.195l74.073-211.886c.594-1.717 2.474-2.642 4.19-2.014 1.716.594 2.639 2.477 2.013 4.194l-74.04 211.886a3.365 3.365 0 01-3.134 2.213z" fill="#FAED00"/><path d="M125.377 98.594H92.35a2.804 2.804 0 01-2.805-2.807 2.804 2.804 0 012.805-2.808h33.027a2.804 2.804 0 012.805 2.808 2.804 2.804 0 01-2.805 2.807zm-14.683 41.651H77.667a2.804 2.804 0 01-2.805-2.808 2.803 2.803 0 012.805-2.807h33.027a2.804 2.804 0 012.805 2.807 2.804 2.804 0 01-2.805 2.808zm-14.45 41.65H63.216a2.804 2.804 0 01-2.804-2.807 2.804 2.804 0 012.804-2.808h33.028a2.804 2.804 0 012.804 2.808 2.803 2.803 0 01-2.804 2.807zm-14.581 41.651H48.635a2.804 2.804 0 01-2.804-2.808 2.803 2.803 0 012.804-2.807h33.028a2.803 2.803 0 012.804 2.807 2.804 2.804 0 01-2.804 2.808zm-14.716 41.617h-33.06a2.803 2.803 0 01-2.805-2.807 2.804 2.804 0 012.805-2.808h33.027a2.804 2.804 0 012.805 2.808c.033 1.552-1.254 2.807-2.772 2.807z" fill="#FAED00"/><path d="M198.031 57.77c0-13.444-9.667-24.64-22.436-26.92l-.792-.43h-4.091c-15.112 0-27.353 12.255-27.353 27.382 0 14.996 12.076 27.184 27.023 27.382h3.959l1.254-.43c12.769-2.345 22.436-13.542 22.436-26.985z" fill="#E8DC00"/><path d="M167.477 33.658v-1.222h-7.127a26.64 26.64 0 00-2.606 1.222h9.733zM143.36 58.496h24.119v-3.5h-23.987a26.212 26.212 0 00-.132 2.807v.694zm24.119-21.667v-1.321h-12.736c-.561.429-1.122.858-1.683 1.32h14.419zm0 11.296V45.25h-21.117a27.773 27.773 0 00-1.253 2.874h22.37z" fill="#E8DC00"/><path d="M193.71 77.126c10.681-10.693 10.681-28.03 0-38.723-10.682-10.694-28-10.694-38.682 0-10.681 10.693-10.681 28.03 0 38.723 10.682 10.693 28 10.693 38.682 0z" fill="#E8DC00"/><path d="M186.479 69.886c6.687-6.695 6.687-17.549 0-24.243-6.687-6.695-17.529-6.695-24.217 0-6.687 6.694-6.687 17.548 0 24.243 6.688 6.694 17.53 6.694 24.217 0z" fill="#E8DC00"/><path d="M181.17 52.583l-4.388.694c-.231-.562-.429-.958-.594-1.157-.165-.23-.462-.429-.891-.66v3.435c2.409.628 3.992 1.321 4.817 2.015 1.056.958 1.584 2.18 1.584 3.633 0 .859-.198 1.652-.561 2.378-.396.727-.858 1.321-1.452 1.817a5.755 5.755 0 01-1.913 1.057c-.66.231-1.485.33-2.475.396v2.246h-1.716v-2.246c-1.154-.099-2.111-.297-2.837-.561a5.938 5.938 0 01-1.881-1.123c-.528-.496-.924-.991-1.221-1.553-.297-.561-.495-1.222-.626-2.014l4.784-.562c.132.793.33 1.354.561 1.684.231.364.626.661 1.187.925v-4.195c-1.583-.429-2.738-.825-3.398-1.156-.66-.33-1.254-.858-1.749-1.552-.495-.727-.726-1.585-.726-2.61 0-1.42.495-2.576 1.485-3.533.99-.958 2.442-1.454 4.388-1.586v-1.189h1.716v1.19c1.782.098 3.135.528 4.058 1.254.957.694 1.584 1.685 1.848 2.973zm-7.589-1.19c-.495.166-.857.364-1.055.628a1.294 1.294 0 00-.297.86c0 .362.099.66.297.924.198.264.56.462 1.055.66v-3.071zm1.716 11.66c.66-.165 1.155-.396 1.485-.726.297-.33.462-.727.462-1.156 0-.364-.132-.727-.396-1.024-.264-.297-.792-.595-1.551-.859v3.765zm-20.059 6.376v-2.445h-10.295a22.52 22.52 0 001.023 2.445h9.272z" fill="#E8DC00"/><path d="M102.283 4.096c5.807 1.883 7.654 7.597 7.094 13.972-.528 5.846-4.059 19.256-9.47 16.02-5.213-3.172-13.462-17.044-11.58-22.89 1.88-5.847 8.149-8.985 13.956-7.102z" fill="#FFBDAC"/><path d="M90.438 16.085s1.32 13.311-6.005 17.176l14.122 3.303s-2.145-3.997.528-10.107c2.705-6.177-8.645-10.372-8.645-10.372z" fill="#FFBDAC"/><path d="M82.025 98.89c-1.09-6.737-7.424-11.328-14.155-10.238-6.73 1.09-11.317 7.431-10.228 14.169.726 4.426 1.287 8.852 1.88 13.278a909.511 909.511 0 012.97 26.556l.627 6.639.56 6.276-.824 5.483-1.056 6.837c-.726 4.558-1.452 9.116-2.243 13.641-.792 4.558-1.584 9.084-2.442 13.609-.858 4.525-1.749 9.05-2.739 13.542v.033l9.569 2.081c.99-4.492 2.111-8.951 3.2-13.443 1.122-4.459 2.31-8.918 3.498-13.377 1.187-4.459 2.441-8.885 3.695-13.311l1.914-6.639 1.946-6.639c.066-.232.1-.496.132-.76l.033-.991.297-6.672.33-6.672c.231-4.459.495-8.885.792-13.344.297-4.459.627-8.885 1.023-13.344.396-4.459.792-8.885 1.32-13.344.099-1.024.099-2.213-.1-3.37z" fill="#2A9E3E"/><path d="M121.519 112.664l-.858-.462-41.606-22.196c-.924-.463-1.947-.892-3.003-1.123-6.632-1.553-13.263 2.576-14.814 9.215-1.55 6.639 2.573 13.278 9.205 14.83l34.71 9.579-20.192 47.926h10.69l28.243-49.643a.253.253 0 00.066-.133c1.551-2.84.429-6.44-2.441-7.993z" fill="#209F6D"/><path d="M90.835 32.105C80.871 29 72.391 36.564 68.696 43.93 63.615 54.07 57.94 74.35 56.95 98.957c-.033.495.396.892.89.892 3.63-.132 17.587-.826 31.18-3.303a1.223 1.223 0 00.957-1.387c-2.31-13.609 5.048-22.46 10.757-26.49a12.013 12.013 0 004.982-8.654c.891-9.71 2.111-23.286-14.88-27.91z" fill="#fff"/><path d="M99.083 37.29l34.248 23.121-6.071.495 31.345-24.144 4.751 5.714-29.365 26.523a4.923 4.923 0 01-5.576.726l-.462-.23-36.69-18.993 7.82-13.212z" fill="#fff"/><path d="M93.078.628c-4.19 1.288-6.368 4.492-7.49 7.464-1.22 3.237-3.596 5.913-6.631 7.597a15.04 15.04 0 00-6.137 6.375c-1.848 3.666-4.751 6.738-8.447 8.588-7.82 3.897-13.23 12.848-13.198 21.997.033 12.32 10.163 22.262 22.503 22.031 11.91-.231 21.809-10.404 21.677-22.328 0-1.387-.165-2.708-.396-4.03-.693-3.567.165-7.266 2.507-10.04a14.774 14.774 0 003.498-9.58 15.99 15.99 0 00-.528-3.996c.132-4.492 4.058-6.837 7.16-7.96 2.639-.99 4.19-3.732 3.596-6.474C109.41 2.015 100.238-1.552 93.078.628z" fill="#000"/><path d="M172.364 30.651c-.396-.594-1.122-.924-1.848-.924l-3.068.099c-.528 0-1.023.23-1.386.594l-2.87 2.874v-.132l1.517-2.544c.132-.198.066-.462-.099-.627a.5.5 0 00-.627.066l-2.375 2.279-.165.132-.033.33a7.464 7.464 0 01-2.112 4.36l-.132.132 3.498 4.13 2.738-1.487a13.692 13.692 0 003.993-3.303l2.903-3.534a2.194 2.194 0 00.066-2.445z" fill="#FFBDAC"/><path d="M54.342 208.748l9.568 2.081.429 1.288a6.618 6.618 0 003.102 3.765l1.98 1.09c.824.463.494 1.685-.43 1.685h-6.896l-9.601-4.922 1.848-4.987z" fill="#E8DC00"/><path d="M66.682 218.657h-4.553l-8.975-3.072a1.226 1.226 0 01-.759-1.585 1.222 1.222 0 011.75-.661l7.852 4.261 4.685 1.057z" fill="#E8DC00"/><path d="M130.757 59.024a.372.372 0 01-.263-.1c-.132-.098-13.231-8.818-22.305-14.928-8.347-5.616-10.426-4.69-10.426-4.69a.511.511 0 01-.693-.067.513.513 0 01.066-.694c.363-.297 2.607-1.486 11.614 4.625 9.074 6.11 22.172 14.83 22.304 14.93.231.164.297.462.132.693-.132.165-.264.231-.429.231z" fill="#9CF392"/><path d="M130.887 70.75a5.315 5.315 0 01-2.342-.562l-27.221-13.971c-.23-.132-.329-.43-.23-.66a.536.536 0 01.659-.232l27.221 13.972c1.517.792 3.398.528 4.685-.628l29.002-26.292-4.157-4.987-26.198 20.214a5.477 5.477 0 00-1.979 2.874l-.033.132c-.066.264-.363.396-.627.33s-.396-.363-.33-.627l.033-.133c.396-1.354 1.22-2.51 2.342-3.369l26.957-20.775 5.378 6.44-29.695 26.953a5.217 5.217 0 01-3.465 1.32zm-27.613-29.76a.498.498 0 01-.462-.297c-.891-1.883-3.53-3.963-3.563-3.997a.487.487 0 01-.1-.693.486.486 0 01.694-.1c.132.1 2.837 2.247 3.827 4.36.132.232 0 .53-.231.661 0 .033-.066.066-.165.066z" fill="#9CF392"/><path d="M57.807 100.344a1.3 1.3 0 01-.99-.43 1.4 1.4 0 01-.395-.99c.099-3.27.66-14.864 3.002-26.556.066-.264.297-.43.594-.396.264.066.429.33.396.594-2.31 11.626-2.87 23.154-2.97 26.39 0 .1.033.199.1.265.065.066.164.1.263.1 13.297-.034 27.254-2.577 31.213-3.337.297-.066.528-.363.462-.66-.43-2.478-1.22-8.753.99-13.972 2.97-7.002 5.378-9.05 8.182-11.428.924-.793 1.881-1.586 2.937-2.643 4.124-4.095 3.728-9.248 3.728-9.281a.468.468 0 01.462-.529.468.468 0 01.528.463c.033.231.462 5.648-3.992 10.074a41.124 41.124 0 01-3.003 2.708c-2.804 2.379-5.015 4.294-7.918 11.065-2.112 4.988-1.353 11.032-.924 13.41.165.826-.396 1.652-1.254 1.817-3.992.76-18.015 3.303-31.41 3.336z" fill="#9CF392"/></svg>