<svg width="294" height="318" viewBox="0 0 294 318" fill="none" xmlns="http://www.w3.org/2000/svg"><path d="M183.433 140.521c-3.058-1.776-7.966-1.776-11.024 0L9.529 234.42c-3.058 1.776-3.058 4.617 0 6.322l107.97 62.221c3.059 1.776 7.966 1.776 11.025 0l162.879-93.9c3.058-1.776 3.058-4.617 0-6.321l-107.97-62.221z" fill="#EFEEFE"/><path d="M7.255 237.545v6.251c0 1.207.711 2.344 2.276 3.267l107.97 62.221c3.058 1.776 7.966 1.776 11.024 0l162.879-93.899c1.494-.853 2.276-1.989 2.276-3.197v-6.321c0 1.136-.782 2.273-2.276 3.125l-162.879 93.9c-3.058 1.776-7.966 1.776-11.024 0l-107.97-62.15c-1.565-.853-2.276-2.06-2.276-3.197z" fill="#1F4F5E"/><path d="M178.312 6.347c0-3.48-2.489-4.901-5.476-3.196L9.956 97.05c-3.058 1.775-5.547 6.037-5.547 9.517V231.01c0 3.48 2.489 4.901 5.547 3.196l162.88-93.9c3.058-1.776 5.476-6.037 5.476-9.518V6.347z" fill="#EFEEFE"/><path d="M14.367 222.771c-1.209.71-2.204.142-2.204-1.279V107.207c0-1.42.995-3.125 2.204-3.835l154.06-88.786c1.209-.71 2.205-.142 2.205 1.278V130.15c0 1.42-.996 3.125-2.205 3.835l-154.06 88.786z" fill="#1C4F5F"/><path d="M237.064 183.138c.64.355.64.923 0 1.278L85.992 271.569c-.64.355-1.565.355-2.205 0l-60.315-34.52c-.64-.356-.64-.924 0-1.279l151.072-87.152c.64-.355 1.636-.355 2.205 0l60.315 34.52z" fill="url(#paint0_linear)"/><path d="M51.142 239.534c.64.355.64.923 0 1.279l-6.686 3.835c-.64.355-1.564.355-2.205 0l-6.685-3.907c-.64-.355-.64-.923 0-1.278l6.685-3.907c.64-.355 1.565-.355 2.206 0l6.685 3.978zm10.311-5.966c.64.355.64.923 0 1.278l-6.686 3.836c-.64.355-1.565.355-2.205 0l-6.685-3.836c-.64-.355-.64-.923 0-1.278l6.685-3.836c.64-.355 1.565-.355 2.205 0l6.686 3.836zm10.242-5.896c.64.355.64.924 0 1.279l-6.686 3.835c-.64.356-1.564.356-2.205 0l-6.685-3.835c-.64-.355-.64-.924 0-1.279l6.685-3.835c.64-.355 1.565-.355 2.205 0l6.686 3.835zm10.315-5.966c.64.356.64.924 0 1.279l-6.686 3.835c-.64.356-1.565.356-2.205 0l-6.686-3.835c-.64-.355-.64-.923 0-1.279l6.686-3.835c.64-.355 1.565-.355 2.205 0l6.686 3.835zm10.242-5.895c.64.355.64.923 0 1.278l-6.686 3.836c-.64.355-1.565.355-2.205 0l-6.686-3.836c-.64-.355-.64-.923 0-1.278l6.686-3.836c.64-.355 1.565-.355 2.205 0l6.686 3.836zm10.315-5.896c.64.355.64.924 0 1.279l-6.686 3.835c-.64.355-1.565.355-2.205 0l-6.686-3.835c-.64-.355-.64-.924 0-1.279l6.686-3.835c.64-.355 1.565-.355 2.205 0l6.686 3.835zm10.242-5.966c.64.355.64.924 0 1.279l-6.686 3.835c-.64.355-1.565.355-2.205 0l-6.686-3.835c-.64-.355-.64-.924 0-1.279l6.686-3.835c.64-.355 1.565-.355 2.205 0l6.686 3.835zm10.242-5.895c.64.355.64.923 0 1.278l-6.686 3.836c-.64.355-1.565.355-2.205 0l-6.686-3.836c-.64-.355-.64-.923 0-1.278l6.686-3.836c.64-.355 1.565-.355 2.205 0l6.686 3.836zm10.311-5.967c.64.355.64.923 0 1.278l-6.686 3.836c-.64.355-1.565.355-2.205 0l-6.686-3.836c-.64-.355-.64-.923 0-1.278l6.686-3.836c.64-.355 1.565-.355 2.205 0l6.686 3.836zm10.242-5.896c.64.355.64.924 0 1.279l-6.686 3.835c-.64.355-1.565.355-2.205 0l-6.686-3.835c-.64-.355-.64-.924 0-1.279l6.686-3.835c.64-.356 1.565-.356 2.205 0l6.686 3.835zm10.314-5.894c.641.355.641.923 0 1.278l-6.685 3.836c-.641.355-1.565.355-2.205 0l-6.686-3.836c-.64-.355-.64-.923 0-1.278l6.686-3.836c.64-.355 1.564-.355 2.205 0l6.685 3.836zm10.243-5.967c.64.355.64.924 0 1.279l-6.686 3.835c-.64.355-1.565.355-2.205 0l-6.686-3.906c-.64-.356-.64-.924 0-1.279l6.686-3.835c.569-.356 1.565-.356 2.205 0l6.686 3.906zm10.242-5.896c.64.355.64.923 0 1.279l-6.686 3.835c-.64.355-1.565.355-2.205 0l-6.686-3.835c-.64-.356-.64-.924 0-1.279l6.686-3.835c.64-.356 1.565-.356 2.205 0l6.686 3.835zM41.326 233.426c.64.355.64.923 0 1.279l-7.042 4.048c-.64.355-1.565.355-2.205 0l-2.987-1.705c-.64-.355-.64-.923 0-1.278l7.041-4.049c.64-.355 1.565-.355 2.205 0l2.988 1.705zm10.669-6.109c.64.355.64.924 0 1.279l-7.042 4.048c-.64.355-1.565.355-2.205 0l-2.987-1.704c-.64-.356-.64-.924 0-1.279l7.041-4.049c.64-.355 1.565-.355 2.205 0l2.988 1.705zm10.596-6.108c.64.355.64.924 0 1.279l-7.041 4.048c-.64.356-1.565.356-2.205 0l-2.988-1.704c-.64-.355-.64-.924 0-1.279l7.042-4.048c.64-.356 1.565-.356 2.205 0l2.987 1.704zm10.669-6.179c.64.355.64.923 0 1.278l-7.041 4.049c-.64.355-1.565.355-2.205 0l-2.988-1.705c-.64-.355-.64-.923 0-1.278l7.042-4.049c.64-.355 1.565-.355 2.205 0l2.987 1.705zm10.669-6.109c.64.355.64.923 0 1.278l-7.041 4.049c-.64.355-1.565.355-2.205 0l-2.988-1.705c-.64-.355-.64-.923 0-1.278l7.042-4.049c.64-.355 1.565-.355 2.205 0l2.987 1.705zm10.601-6.109c.64.355.64.923 0 1.278l-7.042 4.049c-.64.355-1.565.355-2.205 0l-2.987-1.705c-.64-.355-.64-.923 0-1.278l7.041-4.049c.64-.355 1.565-.355 2.205 0l2.987 1.705zm10.668-6.179c.64.355.64.923 0 1.278l-7.041 4.049c-.64.355-1.565.355-2.205 0l-2.987-1.705c-.64-.355-.64-.923 0-1.279l7.041-4.048c.64-.355 1.565-.355 2.205 0l2.987 1.705zm10.669-6.108c.64.355.64.923 0 1.278l-7.041 4.049c-.64.355-1.565.355-2.205 0l-2.987-1.705c-.641-.355-.641-.923 0-1.279l7.041-4.048c.64-.355 1.565-.355 2.205 0l2.987 1.705zm10.597-6.18c.64.355.64.923 0 1.279l-7.042 4.048c-.64.355-1.565.355-2.205 0l-2.987-1.704c-.64-.356-.64-.924 0-1.279l7.041-4.049c.641-.355 1.565-.355 2.205 0l2.988 1.705zm10.669-6.109c.64.355.64.924 0 1.279l-7.042 4.048c-.64.355-1.565.355-2.205 0l-2.987-1.704c-.64-.356-.64-.924 0-1.279l7.041-4.049c.641-.355 1.565-.355 2.205 0l2.988 1.705zm10.596-6.108c.64.355.64.924 0 1.279l-7.041 4.048c-.64.356-1.565.356-2.205 0l-2.988-1.704c-.64-.355-.64-.924 0-1.279l7.042-4.048c.64-.356 1.565-.356 2.205 0l2.987 1.704zm10.669-6.179c.64.355.64.923 0 1.278l-7.041 4.049c-.64.355-1.565.355-2.205 0l-2.988-1.705c-.64-.355-.64-.923 0-1.278l7.042-4.049c.64-.355 1.565-.355 2.205 0l2.987 1.705zm10.669-6.109c.64.355.64.923 0 1.278l-7.041 4.049c-.641.355-1.565.355-2.205 0l-2.988-1.705c-.64-.355-.64-.923 0-1.278l7.042-4.049c.64-.355 1.565-.355 2.205 0l2.987 1.705zm10.669-6.18c.64.356.64.924 0 1.279l-7.041 4.049c-.641.355-1.565.355-2.205 0l-2.988-1.705c-.64-.355-.64-.923 0-1.279l7.042-4.048c.64-.355 1.565-.355 2.205 0l2.987 1.704zm10.101 5.896c.64.355.64.923 0 1.279l-11.878 6.818c-.64.355-1.565.355-2.205 0l-6.686-3.835c-.64-.355-.64-.924 0-1.279l11.878-6.819c.641-.355 1.565-.355 2.205 0l6.686 3.836zM92.324 263.258c.64.355.64.923 0 1.279l-6.685 3.835c-.64.355-1.565.355-2.205 0l-6.686-3.835c-.64-.356-.64-.924 0-1.279l6.686-3.836c.64-.355 1.564-.355 2.205 0l6.685 3.836zm10.311-5.967c.64.355.64.924 0 1.279l-6.686 3.835c-.64.355-1.564.355-2.204 0l-6.686-3.835c-.64-.355-.64-.924 0-1.279l6.686-3.835c.64-.356 1.564-.356 2.204 0l6.686 3.835zm10.242-5.896c.64.356.64.924 0 1.279l-6.686 3.836c-.64.355-1.564.355-2.204 0l-6.686-3.836c-.64-.355-.64-.923 0-1.279l6.686-3.835c.64-.355 1.564-.355 2.204 0l6.686 3.835zm102.708-65.203c.64.355.64.923 0 1.278l-6.686 3.836c-.64.355-1.565.355-2.205 0l-1.565-.923c-.64-.356-.64-.924 0-1.279l6.686-3.835c.64-.356 1.565-.356 2.205 0l1.565.923zm-5.049 8.95c.64.355.64.923 0 1.278l-6.686 3.836c-.64.355-1.564.355-2.205 0l-1.564-.924c-.64-.355-.64-.923 0-1.278l6.686-3.836c.64-.355 1.564-.355 2.204 0l1.565.924zm10.242-5.968c.641.356.641.924 0 1.279l-6.685 3.836c-.641.355-1.565.355-2.205 0l-1.565-.924c-.64-.355-.64-.923 0-1.278l6.686-3.836c.569-.355 1.565-.355 2.205 0l1.564.923zm10.311-5.895c.64.355.64.923 0 1.278l-6.686 3.836c-.64.355-1.564.355-2.205 0l-1.564-.923c-.64-.355-.64-.924 0-1.279l6.686-3.835c.64-.356 1.564-.356 2.204 0l1.565.923zm-107.897 62.222c.64.355.64.923 0 1.278l-6.686 3.836c-.64.355-1.565.355-2.205 0l-6.686-3.836c-.64-.355-.64-.923 0-1.278l6.686-3.836c.64-.355 1.565-.355 2.205 0l6.686 3.836zm56.545-32.602c.64.355.64.923 0 1.278l-52.989 30.543c-.64.355-1.565.355-2.205 0l-6.686-3.836c-.64-.355-.64-.923 0-1.278l52.989-30.543c.641-.355 1.565-.355 2.205 0l6.686 3.836zm10.242-5.896c.641.355.641.924 0 1.279l-6.685 3.835c-.641.355-1.565.355-2.205 0l-6.686-3.835c-.64-.355-.64-.924 0-1.279l6.686-3.835c.64-.356 1.564-.356 2.205 0l6.685 3.835zm10.243-5.967c.64.355.64.924 0 1.279l-6.686 3.835c-.64.355-1.565.355-2.205 0l-6.686-3.835c-.64-.355-.64-.924 0-1.279l6.686-3.835c.64-.355 1.565-.355 2.205 0l6.686 3.835zM76.889 236.551c.64.356.64.924 0 1.279l-6.686 3.835c-.64.356-1.565.356-2.205 0l-6.686-3.835c-.64-.355-.64-.923 0-1.279l6.686-3.835c.64-.355 1.565-.355 2.205 0l6.686 3.835zm-10.312 5.895c.64.355.64.923 0 1.279l-11.878 6.818c-.64.355-1.565.355-2.205 0l-6.686-3.835c-.64-.355-.64-.924 0-1.279l11.878-6.819c.64-.355 1.565-.355 2.205 0l6.686 3.836zm20.554-11.862c.64.356.64.924 0 1.279l-6.686 3.836c-.64.355-1.565.355-2.205 0l-6.686-3.836c-.64-.355-.64-.923 0-1.279l6.686-3.835c.64-.355 1.565-.355 2.205 0l6.686 3.835zm10.315-5.895c.64.356.64.924 0 1.279l-6.686 3.836c-.64.355-1.565.355-2.205 0l-6.686-3.836c-.64-.355-.64-.923 0-1.279l6.686-3.906c.64-.355 1.564-.355 2.205 0l6.686 3.906zm10.242-5.966c.64.355.64.923 0 1.278l-6.686 3.836c-.64.355-1.565.355-2.205 0l-6.686-3.836c-.64-.355-.64-.923 0-1.278l6.686-3.836c.64-.355 1.565-.355 2.205 0l6.686 3.836zm10.31-5.896c.641.355.641.923 0 1.278l-6.685 3.836c-.641.355-1.565.355-2.205 0l-6.686-3.836c-.64-.355-.64-.923 0-1.278l6.686-3.907c.64-.355 1.564-.355 2.205 0l6.685 3.907zm10.243-5.895c.64.355.64.923 0 1.278l-6.686 3.836c-.64.355-1.565.355-2.205 0l-6.686-3.836c-.64-.355-.64-.923 0-1.278l6.686-3.836c.64-.355 1.565-.355 2.205 0l6.686 3.836zm10.242-5.966c.64.355.64.923 0 1.278l-6.686 3.836c-.64.355-1.565.355-2.205 0l-6.686-3.836c-.64-.355-.64-.923 0-1.278l6.686-3.836c.64-.355 1.565-.355 2.205 0l6.686 3.836zm10.314-5.896c.64.355.64.924 0 1.279l-6.686 3.835c-.64.355-1.564.355-2.204 0l-6.686-3.835c-.64-.355-.64-.924 0-1.279l6.686-3.835c.64-.356 1.564-.356 2.204 0l6.686 3.835zm10.243-5.895c.64.355.64.923 0 1.278l-6.686 3.836c-.64.355-1.565.355-2.205 0l-6.686-3.836c-.64-.355-.64-.923 0-1.278l6.686-3.836c.64-.355 1.565-.355 2.205 0l6.686 3.836zm10.314-5.966c.64.355.64.923 0 1.278l-6.686 3.836c-.64.355-1.565.355-2.205 0l-6.686-3.836c-.64-.355-.64-.923 0-1.278l6.686-3.836c.64-.355 1.565-.355 2.205 0l6.686 3.836zm10.242-5.896c.64.355.64.923 0 1.279l-6.686 3.835c-.64.355-1.564.355-2.204 0l-6.686-3.835c-.64-.356-.64-.924 0-1.279l6.686-3.835c.64-.356 1.564-.356 2.204 0l6.686 3.835zm10.242-5.966c.641.355.641.923 0 1.279l-6.685 3.835c-.641.355-1.565.355-2.205 0l-6.686-3.835c-.64-.356-.64-.924 0-1.279l6.686-3.836c.64-.355 1.564-.355 2.205 0l6.685 3.836zm10.311-5.895c.64.355.64.923 0 1.278l-6.686 3.836c-.64.355-1.564.355-2.205 0l-6.685-3.836c-.641-.355-.641-.923 0-1.278l6.685-3.836c.641-.355 1.565-.355 2.205 0l6.686 3.836zM89.55 241.026c.64.355.64.923 0 1.278l-6.685 3.907c-.64.355-1.565.355-2.205 0l-6.686-3.907c-.64-.355-.64-.923 0-1.278l6.686-3.836c.64-.355 1.565-.355 2.205 0l6.686 3.836zm-10.244 5.966c.64.355.64.923 0 1.278l-14.297 8.239c-.64.356-1.564.356-2.205 0l-6.685-3.835c-.64-.355-.64-.923 0-1.279l14.296-8.239c.64-.355 1.565-.355 2.205 0l6.686 3.836zm20.555-11.862c.64.355.64.923 0 1.279l-6.686 3.835c-.64.355-1.564.355-2.204 0l-6.686-3.835c-.64-.356-.64-.924 0-1.279l6.686-3.835c.64-.356 1.564-.356 2.204 0l6.686 3.835zm10.242-5.895c.641.355.641.924 0 1.279l-6.685 3.835c-.641.355-1.565.355-2.205 0l-6.686-3.835c-.64-.355-.64-.924 0-1.279l6.686-3.906c.64-.356 1.564-.356 2.205 0l6.685 3.906zm10.243-5.966c.64.355.64.923 0 1.278l-6.686 3.836c-.64.355-1.565.355-2.205 0l-6.686-3.836c-.64-.355-.64-.923 0-1.278l6.686-3.836c.64-.355 1.565-.355 2.205 0l6.686 3.836zm10.314-5.896c.64.355.64.923 0 1.279l-6.686 3.835c-.64.355-1.565.355-2.205 0l-6.686-3.835c-.64-.356-.64-.924 0-1.279l6.686-3.836c.64-.355 1.565-.355 2.205 0l6.686 3.836zm10.242-5.966c.64.355.64.923 0 1.279l-6.686 3.835c-.64.355-1.564.355-2.204 0l-6.686-3.835c-.64-.356-.64-.924 0-1.279l6.686-3.836c.64-.355 1.564-.355 2.204 0l6.686 3.836zm10.315-5.896c.64.356.64.924 0 1.279l-6.686 3.836c-.64.355-1.565.355-2.205 0l-6.686-3.836c-.64-.355-.64-.923 0-1.279l6.686-3.835c.64-.355 1.565-.355 2.205 0l6.686 3.835zm10.241-5.895c.64.355.64.923 0 1.278l-6.686 3.836c-.64.355-1.565.355-2.205 0l-6.757-3.836c-.64-.355-.64-.923 0-1.278l6.686-3.836c.64-.355 1.565-.355 2.205 0l6.757 3.836zm10.312-5.966c.64.355.64.923 0 1.278l-6.686 3.836c-.64.355-1.565.355-2.205 0l-6.686-3.836c-.64-.355-.64-.923 0-1.278l6.686-3.836c.64-.355 1.565-.355 2.205 0l6.686 3.836zm10.242-5.896c.64.356.64.924 0 1.279l-6.686 3.835c-.64.356-1.565.356-2.205 0l-6.686-3.835c-.64-.355-.64-.923 0-1.279l6.686-3.835c.64-.355 1.565-.355 2.205 0l6.686 3.835zm10.242-5.896c.64.356.64.924 0 1.279l-6.686 3.835c-.64.356-1.564.356-2.205 0l-6.685-3.906c-.641-.355-.641-.924 0-1.279l6.685-3.835c.641-.355 1.565-.355 2.205 0l6.686 3.906zm18.137-10.511c.641.355.641.923 0 1.278l-14.58 8.382c-.641.355-1.565.355-2.205 0l-6.686-3.907c-.64-.355-.64-.923 0-1.279l14.581-8.381c.64-.355 1.564-.355 2.205 0l6.685 3.907zm-105.336 72.591c.64.355.64.923 0 1.278l-6.686 3.836c-.64.355-1.565.355-2.205 0l-6.686-3.836c-.64-.355-.64-.923 0-1.278l6.686-3.836c.64-.355 1.565-.355 2.205 0l6.686 3.836zm-10.242 5.967c.64.355.64.923 0 1.278l-19.489 11.223c-.64.355-1.565.355-2.205 0l-6.686-3.836c-.64-.355-.64-.923 0-1.278l19.489-11.223c.64-.355 1.565-.355 2.205 0l6.686 3.836zm20.556-11.862c.64.355.64.923 0 1.278l-6.686 3.836c-.64.355-1.564.355-2.204 0l-6.686-3.836c-.64-.355-.64-.923 0-1.278l6.686-3.907c.64-.355 1.564-.355 2.204 0l6.686 3.907zm10.243-5.967c.64.355.64.924 0 1.279l-6.686 3.835c-.64.355-1.565.355-2.205 0l-6.686-3.835c-.64-.355-.64-.924 0-1.279l6.686-3.835c.64-.356 1.565-.356 2.205 0l6.686 3.835zm10.31-5.895c.569.355.569.923 0 1.278l-6.686 3.836c-.64.355-1.564.355-2.205 0l-6.685-3.836c-.641-.355-.641-.923 0-1.278l6.685-3.836c.641-.355 1.565-.355 2.205 0l6.686 3.836zm10.242-5.896c.641.355.641.924 0 1.279l-6.685 3.835c-.641.355-1.565.355-2.205 0l-6.686-3.835c-.64-.355-.64-.924 0-1.279l6.686-3.835c.64-.356 1.564-.356 2.205 0l6.685 3.835zm10.243-5.966c.64.355.64.923 0 1.279l-6.686 3.835c-.64.355-1.565.355-2.205 0l-6.686-3.835c-.64-.356-.64-.924 0-1.279l6.686-3.835c.64-.356 1.565-.356 2.205 0l6.686 3.835zm10.314-5.895c.64.355.64.923 0 1.278l-6.686 3.836c-.64.355-1.564.355-2.205 0l-6.685-3.836c-.641-.355-.641-.923 0-1.278l6.685-3.836c.641-.355 1.565-.355 2.205 0l6.686 3.836zm10.242-5.896c.641.355.641.923 0 1.278l-6.685 3.836c-.641.355-1.565.355-2.205 0l-6.686-3.836c-.64-.355-.64-.923 0-1.278l6.686-3.836c.64-.355 1.564-.355 2.205 0l6.685 3.836zm10.315-5.966c.64.355.64.923 0 1.279l-6.686 3.835c-.64.355-1.565.355-2.205 0l-6.686-3.835c-.64-.356-.64-.924 0-1.279l6.686-3.836c.64-.355 1.565-.355 2.205 0l6.686 3.836zm10.242-5.896c.64.355.64.924 0 1.279l-6.686 3.906c-.64.356-1.565.356-2.205 0l-6.686-3.906c-.569-.355-.569-.924 0-1.279l6.686-3.835c.64-.355 1.565-.355 2.205 0l6.686 3.835zm23.187-13.353c.64.355.64.923 0 1.279l-19.631 11.293c-.64.355-1.564.355-2.204 0l-6.686-3.835c-.64-.356-.64-.924 0-1.279l19.63-11.293c.641-.356 1.565-.356 2.205 0l6.686 3.835z" fill="#1F4F5E"/><path d="M229.312 236.906c.64.356.64.924 0 1.279l-50.357 29.051c-.64.355-1.565.355-2.205 0l-36.701-21.167c-.64-.355-.64-.923 0-1.278l50.428-29.051c.64-.355 1.565-.355 2.205 0l36.63 21.166z" fill="url(#paint1_linear)"/><path d="M4.41 231.082V106.64c0-3.48 2.49-7.813 5.548-9.518l162.879-93.9c1.422-.852 2.774-.923 3.769-.426h-.071L172.197.31c-.996-.497-2.348-.426-3.77.427L5.477 94.494C2.418 96.27 0 100.532 0 104.012v124.442c0 1.776.64 2.984 1.636 3.552l4.41 2.486c-.996-.497-1.636-1.705-1.636-3.41z" fill="#1F4F5E"/><path d="M220.563 266.312c1.138 5.54 2.276 17.046 3.201 22.089.995 5.043 1.351 8.95.924 12.217-.427 3.197-1.849 7.458-1.849 7.458s-1.778 2.557-.285 3.268c1.494.71 2.703-.64 4.197-2.77 1.422-2.131 6.046-6.251 6.899-7.103-.498-.497-.853-.711-1.067-3.126-.213-2.415 1.921-13.211 2.561-17.544.64-4.332-2.916-13.353-3.699-16.052-.782-2.699.356-6.677 1.565-10.654 1.138-3.978 1.707-16.55 1.707-16.55s2.347-13.922.569-17.899c-1.778-3.978-16.501-2.131-18.635.497-2.205 2.628-2.489 12.927-1.707 20.385.711 7.458 4.481 20.243 5.619 25.784z" fill="#F7BFB1"/><path d="M248.088 287.904l.356 3.694s-1.778.142-1.351 1.633c.426 1.421 1.92.498 2.133-.71.214-1.207 1.352-1.989 2.134-2.486.782-.426 4.125-2.131 4.125-2.131s-.995-1.917-1.351-3.48c-.356-1.492.711-10.512 1.138-15.982.427-5.469-4.41-12.572-6.117-16.975-1.636-4.404.711-14.348 1.352-23.582.64-9.234-2.774-14.419-2.774-14.419l-14.723 6.322v9.163s1.564 8.594 3.2 15.981c1.565 7.387 4.979 13.638 6.046 16.124.996 2.486 3.983 13.779 4.837 17.828.853 4.048.995 9.02.995 9.02z" fill="#F7BFB1"/><path d="M233.223 167.227l-.142.213-4.766 2.415-1.28 3.907 7.682-3.481-1.494-3.054z" fill="#fff"/><path d="M210.532 202.458l11.025-5.257-2.489-4.332-8.536 9.589z" fill="#092A4E"/><path d="M206.906 192.726s-.285-3.836 0-4.049c.213-.213 5.903-1.491 5.903-1.491l-5.903 5.54z" fill="#FFCDA8"/><path d="M206.977 188.607c-.071 0-.071.071-.071.071-.285.213 0 4.048 0 4.048l1.991-1.846c-.711-.853-1.351-1.634-1.92-2.273z" fill="#D9A782"/><path d="M233.58 301.4s2.703 1.279 3.414 3.41c.711 2.131-.854 3.906-1.352 5.895-.497 1.989-.497 7.103-.497 7.103l-.925-.284s.071-4.83-.569-5.895c-.64-1.066-2.347-1.066-3.699 0-1.351 1.065-5.263 4.829-7.468 4.829s-9.46-6.108-9.104-7.813c.356-1.704 9.46-.639 9.46-.639s-1.778 2.557-.285 3.267c1.494.711 2.703-.639 4.197-2.77 1.351-2.06 5.974-6.25 6.828-7.103zm21.832-13.495s-3.343 1.705-4.125 2.131c-.782.426-1.92 1.278-2.134 2.486-.213 1.207-1.636 2.131-2.134.71-.426-1.42 1.352-1.633 1.352-1.633l-.356-3.694s-2.205-.852-2.631-.639c-.427.284-.214 7.955 1.351 9.518 2.205 2.202 5.477-.427 6.33-.356 0 0 1.778.356 2.49 2.486a36.383 36.383 0 011.067 3.907l.853-.284s-1.138-4.262-.569-6.109c.569-1.846 1.494-3.338 1.209-4.829-.142-1.421-2.703-3.694-2.703-3.694z" fill="#22D327"/><path d="M215.301 222.203s-.996 3.481-1.21 12.786c-.213 9.375 3.984 21.734 3.984 21.734s3.983 2.486 10.384 1.705c2.987-.355 18.92-7.032 20.698-11.436 0 0 1.991-18.183 1.991-23.865 0-5.754-4.623-12.856-4.623-12.856s-28.379-.142-31.224 11.932z" fill="url(#paint2_linear)"/><path d="M220.137 178.094s-3.485 9.944-3.13 13.211c.356 3.197 2.134 10.37 1.565 13.567-.569 3.125-4.267 20.03-4.907 24.007 0 0 1.564 2.842 11.522 3.481 9.958.639 22.974-5.327 26.601-10.015 0 0-2.489-8.453-4.623-12.43-2.063-3.978-6.117-8.524-5.05-12.146 1.138-3.623 11.096-20.172 11.38-24.221.285-4.049-1.138-7.529-3.272-8.452-2.133-.924-10.028.497-10.028.497s-5.121 1.847-10.74 5.114c-3.628 2.131-7.967 5.469-9.318 7.387z" fill="#FAED00"/><path d="M225.471 174.684c-1.351-.355-6.97 3.055-9.815 7.387-2.845 4.333-11.025 11.791-12.021 13.993-1.067 2.131-1.209 6.748.569 7.884 2.632 1.705 8.109-2.486 11.096-4.972 2.916-2.486 10.811-8.452 13.23-14.276 2.418-5.825-.143-9.234-3.059-10.016z" fill="#FAED00"/><path d="M233.72 175.253s.356-5.754-.498-7.813c-.853-2.131-1.565-2.486-2.56-2.7-.712-.142-2.276.285-3.983-3.196-1.707-3.409-1.067-4.901-1.352-6.392-.284-1.492-.711-2.486-.498-3.907.214-1.421.712-6.677 4.908-8.523 4.196-1.776 9.246-1.492 12.02.142 2.774 1.633 4.979 5.327 4.979 9.233 0 3.907-2.134 6.322-2.205 8.95 0 2.628 1.636 5.895 3.201 7.955 1.565 2.06-1.707 4.972-3.983 6.038-5.121 2.344-10.029.213-10.029.213z" fill="#FFCDA8"/><path d="M230.803 161.26c.214-2.699.143-5.327.143-5.327l4.836 3.623s-.355 9.802 2.49 14.063c.569.853.64 1.705.284 2.486-2.774 0-4.836-.923-4.836-.923s.355-5.753-.498-7.813c-.854-2.131-1.565-2.486-2.561-2.699-.356-.071-.925 0-1.565-.355.712-.569 1.636-1.634 1.707-3.055z" fill="#D9A782"/><path d="M229.81 174.329c1.209-7.742 3.77-13.353 1.067-16.052l-.64-.923c-.071 0-.356 1.065-1.209.852-.427-.142-.996-2.486-1.494-3.765-.142-.355-.284-.71-.498-1.207 0 0 2.276 2.344 3.414 3.196l.214-.213s-4.054-3.409-5.477-6.179c0 0 2.916 3.622 4.694 4.616 1.779.995 3.912 2.131 3.13 7.387-.64 4.191-3.059 11.152-2.916 15.84-.356-1.208-.498-2.415-.285-3.552z" fill="#6D2D3D"/><path d="M226.68 143.148c1.636-1.988 4.41-4.119 10.882-3.48 3.059.355 5.548 2.699 6.829 4.404 1.351 1.918 2.631 4.617 2.347 10.086-.356 5.469 0 10.086 3.485 13.566 1.991 1.989 2.916 7.529 1.138 10.868.64-1.847.925-4.404-.213-7.103v-.071.071c.213.568 1.493 4.191-.641 8.239-.355.426-.782.711-1.28.995-4.623 2.415-10.598 4.19-11.949 4.048-1.067-.071-2.489-.852-3.77-1.988a11.53 11.53 0 001.565 1.633c-2.774-1.207-4.196-4.404-4.837-6.108a17.086 17.086 0 001.138 3.764s-1.849-2.983-1.92-5.327c-.142-2.344 1.067-6.25 1.067-6.25 1.209-5.754 2.632-10.016.356-12.288l-.641-.924c-.071 0-.355 1.066-1.209.853-.426-.143-.995-2.486-1.493-3.765-.143-.355-.285-.71-.498-1.207-5.548-4.546-.356-10.016-.356-10.016z" fill="#1F4F5E"/><path d="M230.307 161.616c.142.284 1.92.426 1.636-2.7-.285-3.054-2.348-3.835-2.348-1.562.072 2.273.712 4.262.712 4.262z" fill="#FFCDA8"/><path d="M156.762 35.469c-2.134 1.207-3.912 4.261-3.912 6.748 0 .852.214 1.491.569 1.988l-11.024 17.9c-.711-.356-1.565-.285-2.632.355-1.991 1.136-3.556 3.764-3.841 6.037l-8.819 5.114c-.285-1.989-1.85-2.77-3.841-1.633-2.134 1.207-3.912 4.261-3.912 6.747 0 .355 0 .64.071.924l-9.673 10.44c-.711-.78-1.921-.923-3.201-.141-.924.568-1.778 1.42-2.418 2.415l-10.385-1.634c.072-.284.072-.568.072-.852 0-2.486-1.779-3.48-3.912-2.273-2.134 1.207-3.912 4.261-3.912 6.748 0 1.136.355 1.988.995 2.414l-10.81 33.455c-.712-.568-1.779-.568-2.917.142-1.636.923-3.058 2.983-3.627 4.972l-8.891 3.054c-.071-2.415-1.778-3.338-3.841-2.131-2.134 1.208-3.912 4.262-3.912 6.748 0 .497.071.852.214 1.208l-10.456 12.785c-.711-.426-1.707-.426-2.774.213-2.134 1.207-3.912 4.262-3.912 6.748 0 .639.142 1.207.356 1.633l-10.67 13.993c-.64-.213-1.493-.142-2.418.426-2.133 1.208-3.912 4.262-3.912 6.748 0 2.486 1.779 3.48 3.912 2.273 2.134-1.208 3.912-4.262 3.912-6.748 0-.71-.142-1.279-.426-1.705l10.669-13.921c.71.284 1.564.213 2.489-.355 2.134-1.208 3.912-4.262 3.912-6.748 0-.497-.071-.924-.213-1.279l10.384-12.785c.711.497 1.707.426 2.845-.213 1.565-.923 2.916-2.77 3.556-4.688l8.962-3.054c.142 2.202 1.85 3.054 3.841 1.847 2.134-1.208 3.912-4.262 3.912-6.748 0-.142 0-.355-.071-.497L88.41 97.193a5.237 5.237 0 001.494-.498c1.28-.71 2.418-2.13 3.13-3.693l10.028 1.563c-.213.71-.356 1.42-.356 2.13 0 2.487 1.778 3.481 3.912 2.273 2.134-1.207 3.912-4.261 3.912-6.747 0-.213 0-.427-.071-.64l9.887-10.725c.711.64 1.778.71 3.058 0 1.707-.994 3.201-3.196 3.699-5.256l9.104-5.256c.498 1.491 1.92 1.989 3.698.994 2.134-1.207 3.912-4.261 3.912-6.747 0-.569-.071-1.137-.284-1.492l11.238-18.183c.64.07 1.351-.071 2.134-.498 2.133-1.207 3.911-4.261 3.911-6.747-.213-2.415-1.92-3.48-4.054-2.202zM23.329 187.044c-1.209.71-2.204.142-2.204-1.279 0-1.42.995-3.054 2.204-3.764 1.21-.71 2.205-.142 2.205 1.278-.07 1.35-.995 3.055-2.205 3.765zm16.644-22.8c-1.21.71-2.205.142-2.205-1.279 0-1.42.996-3.054 2.205-3.764 1.21-.711 2.205-.142 2.205 1.278-.071 1.421-.996 3.125-2.205 3.765zm16.928-20.954c-1.21.711-2.205.142-2.205-1.278 0-1.421.996-3.054 2.205-3.765 1.21-.71 2.205-.142 2.205 1.279-.071 1.349-.996 3.054-2.205 3.764zm16.36-5.966c-1.21.71-2.206.142-2.206-1.279 0-1.42.996-3.054 2.205-3.764 1.21-.71 2.205-.142 2.205 1.278-.071 1.421-.996 3.126-2.205 3.765zm16.643-42.617c-1.21.71-2.205.142-2.205-1.279 0-1.42.996-3.054 2.205-3.764s2.205-.142 2.205 1.278c-.072 1.35-.996 3.054-2.205 3.765zm16.643 2.273c-1.209.71-2.205.142-2.205-1.279 0-1.42.996-3.054 2.205-3.764s2.205-.142 2.205 1.278c-.071 1.35-.996 3.054-2.205 3.765zm16.786-18.042c-1.209.71-2.205.142-2.205-1.278s.996-3.054 2.205-3.765c1.209-.71 2.205-.142 2.205 1.279-.071 1.35-.996 3.054-2.205 3.764zm16.501-9.517c-1.209.71-2.205.141-2.205-1.28 0-1.42.996-3.053 2.205-3.764 1.209-.71 2.205-.142 2.205 1.279-.071 1.35-.996 3.054-2.205 3.764zm16.928-26.991c-1.209.71-2.205.142-2.205-1.279 0-1.42.996-3.054 2.205-3.765 1.209-.71 2.205-.142 2.205 1.28-.071 1.42-.996 3.124-2.205 3.764zm-.001 53.768c-1.067.64-2.063 1.705-2.774 2.912l-10.74-3.41c.285-.78.498-1.562.498-2.343 0-2.486-1.707-3.48-3.912-2.273-2.134 1.207-3.912 4.262-3.912 6.748 0 .284 0 .497.071.71l-9.389 10.228c-.711-.923-1.92-1.065-3.342-.284-1.21.71-2.277 1.918-2.988 3.338l-10.029-.568c.072-.284.072-.568.072-.852 0-2.486-1.779-3.481-3.912-2.273-2.134 1.207-3.912 4.262-3.912 6.748 0 1.42.64 2.415 1.564 2.628l-11.664 25.144c-.712-.497-1.707-.426-2.845.213-2.134 1.207-3.912 4.262-3.912 6.748v.071l-9.389 9.233c-.711-.781-1.85-.852-3.2-.071-2.134 1.208-3.913 4.262-3.913 6.748 0 .639.143 1.208.356 1.634l-10.1 16.265c-.711-.639-1.778-.639-3.058.071-1.21.711-2.347 2.06-3.059 3.481l-9.744-.213c0-.213.071-.356.071-.569 0-2.486-1.778-3.48-3.912-2.273-1.778 1.066-3.272 3.339-3.77 5.47l-9.033 3.338c-.213-2.06-1.849-2.841-3.84-1.705-2.134 1.208-3.912 4.262-3.912 6.748 0 2.486 1.778 3.48 3.912 2.273 1.707-.994 3.13-3.125 3.698-5.185l9.175-3.41c.356 1.847 1.92 2.558 3.841 1.421 1.352-.781 2.56-2.344 3.272-3.978l9.602.214c-.071.355-.071.71-.071 1.065 0 2.486 1.778 3.48 3.912 2.273 2.134-1.208 3.912-4.262 3.912-6.748 0-.355 0-.639-.071-.852l10.384-16.692c.712.284 1.565.213 2.49-.355 2.133-1.208 3.912-4.262 3.912-6.748 0-.284 0-.497-.072-.71l9.176-9.021c.64 1.137 1.92 1.35 3.485.498 2.134-1.208 3.912-4.262 3.912-6.748 0-.426-.071-.71-.142-1.066l12.304-26.635c.285-.071.498-.213.783-.356 1.28-.71 2.418-2.13 3.129-3.622l9.887.568c-.071.426-.142.782-.142 1.208 0 2.486 1.778 3.48 3.912 2.273 2.133-1.208 3.912-4.262 3.912-6.748 0-.142 0-.284-.072-.426l9.46-10.37c.712.71 1.85.852 3.13.071.853-.498 1.636-1.279 2.276-2.202l10.953 3.48a6.454 6.454 0 00-.213 1.634c0 2.486 1.778 3.48 3.912 2.273 2.134-1.208 3.912-4.262 3.912-6.748 0-2.486-1.707-3.48-3.841-2.273zM23.328 198.195c-1.209.71-2.205.142-2.205-1.278 0-1.421.996-3.055 2.205-3.765 1.21-.71 2.205-.142 2.205 1.279-.071 1.349-.996 3.054-2.205 3.764zm16.644-7.174c-1.21.711-2.205.142-2.205-1.278 0-1.421.996-3.054 2.205-3.765 1.209-.71 2.205-.142 2.205 1.279-.072 1.349-.996 3.054-2.205 3.764zm16.643-.497c-1.209.71-2.205.142-2.205-1.278 0-1.421.996-3.055 2.205-3.765 1.21-.71 2.205-.142 2.205 1.279 0 1.42-.996 3.125-2.205 3.764zm16.644-24.647c-1.21.71-2.205.142-2.205-1.278 0-1.421.996-3.055 2.205-3.765s2.205-.142 2.205 1.279c-.071 1.42-.996 3.125-2.205 3.764zm16.43-15.91c-1.21.71-2.205.142-2.205-1.279 0-1.42.996-3.054 2.205-3.764 1.21-.711 2.205-.142 2.205 1.278 0 1.35-.996 3.054-2.205 3.765zm16.857-34.804c-1.209.71-2.205.142-2.205-1.279 0-1.42.996-3.054 2.205-3.764 1.209-.711 2.205-.142 2.205 1.278 0 1.421-.996 3.125-2.205 3.765zm16.786.355c-1.209.71-2.205.142-2.205-1.279 0-1.42.996-3.054 2.205-3.764s2.205-.142 2.205 1.278c-.072 1.421-.996 3.126-2.205 3.765zm16.501-17.402c-1.209.71-2.205.142-2.205-1.279 0-1.42.996-3.054 2.205-3.764s2.205-.142 2.205 1.278c-.071 1.35-.996 3.055-2.205 3.765zm16.928 5.114c-1.209.71-2.205.142-2.205-1.279 0-1.42.996-3.054 2.205-3.764s2.205-.142 2.205 1.278c-.071 1.35-.996 3.055-2.205 3.765z" fill="#A9D0E5"/><path d="M90.972 70.84l17.781-10.299v9.803l-13.3 7.67-2.703 6.535v-4.972l-1.778.995V70.84z" fill="#0F0"/><path d="M124.186 135.69l17.853-10.299v-9.731l-13.372 7.671-2.702-3.481v5.044l-1.779.994v9.802z" fill="#E84A5A"/><defs><linearGradient id="paint0_linear" x1="254.779" y1="45.766" x2="92.073" y2="261.089" gradientUnits="userSpaceOnUse"><stop stop-color="#DCEBFA"/><stop offset="1" stop-color="#AFD0F5"/></linearGradient><linearGradient id="paint1_linear" x1="238.662" y1="147.654" x2="171.486" y2="264.817" gradientUnits="userSpaceOnUse"><stop stop-color="#DCEBFA"/><stop offset="1" stop-color="#AFD0F5"/></linearGradient><linearGradient id="paint2_linear" x1="232.616" y1="210.271" x2="232.616" y2="258.58" gradientUnits="userSpaceOnUse"><stop stop-color="#25656A"/><stop offset="1" stop-color="#44CBA7"/></linearGradient></defs></svg>