<svg width="224" height="330" viewBox="0 0 224 330" fill="none" xmlns="http://www.w3.org/2000/svg"><path d="M219.723 211.498c-.644-.92-4.788-2.209-9.575-2.67-.737-4.143-2.118-8.01-3.96-11.693 3.315-2.579 6.63-5.709 6.446-7.827-.369-4.235-8.84-12.154-10.589-12.522-1.105-.276-5.064 1.841-8.932 5.064-3.314-2.394-6.905-4.236-10.864-5.617.552-4.235.644-8.747-1.013-10.128-3.223-2.762-14.825-2.302-16.39-1.381-.921.644-2.21 4.788-2.67 9.576a43.912 43.912 0 00-11.97 3.591c-2.578-3.223-5.524-6.261-7.55-6.077-4.236.368-12.154 8.839-12.522 10.588-.185 1.013 1.565 4.512 4.419 8.103a39.8 39.8 0 00-6.261 11.51c-3.867-.369-7.642-.369-8.839 1.105-2.762 3.222-2.302 14.824-1.381 16.389.552.829 3.959 1.934 8.102 2.578a43.474 43.474 0 003.96 12.983c-2.763 2.302-5.157 4.88-4.973 6.629.369 4.236 8.84 12.154 10.589 12.523 1.013.184 4.052-1.289 7.274-3.775 3.683 2.67 7.827 4.787 12.246 6.261-.276 3.591-.184 7.09 1.197 8.194 3.223 2.763 14.825 2.302 16.39 1.382.828-.553 1.933-3.96 2.578-8.195 4.512-.737 8.747-2.21 12.706-4.328 2.394 2.947 5.157 5.525 6.998 5.433 4.236-.369 12.154-8.84 12.522-10.589.185-1.013-1.657-4.604-4.419-8.195 2.394-3.499 4.327-7.366 5.616-11.509 4.052.46 8.195.46 9.484-1.013 2.763-3.223 2.394-14.824 1.381-16.39zm-52.943 23.756c-10.497-.829-18.231-10.036-17.403-20.441.829-10.496 10.037-18.231 20.441-17.402 10.497.828 18.231 10.036 17.403 20.441-.829 10.496-10.037 18.231-20.441 17.402z" fill="#42E3B4"/><path d="M168.529 243.357c-.736 0-1.473 0-2.302-.092-15.1-1.289-26.333-14.548-25.044-29.556 1.289-15.101 14.548-26.334 29.556-25.045 15.101 1.289 26.334 14.548 25.045 29.556-1.105 14.272-13.167 25.137-27.255 25.137zm-.092-53.68c-13.535 0-24.952 10.404-26.149 24.032-1.197 14.456 9.576 27.07 24.031 28.267 14.364 1.197 27.071-9.576 28.268-23.94 1.197-14.456-9.576-27.07-24.032-28.267-.645-.092-1.381-.092-2.118-.092z" fill="#fff"/><path d="M207.385 211.316c-.184 0-.368-.092-.553-.092.369 2.762.461 5.524.277 8.471-1.75 21.269-20.533 37.198-41.803 35.449-13.903-1.105-25.597-9.576-31.398-21.27-.184 0-.368 0-.552.092 5.893 11.878 17.77 20.533 31.95 21.73 21.546 1.75 40.514-14.363 42.355-35.909.184-2.947.092-5.801-.276-8.471zm-60.031-27.348a38.574 38.574 0 0124.308-6.169c.184 0 .368 0 .552.092-.092-.184-.092-.368-.092-.552h-.368c-8.932-.737-17.495 1.657-24.493 6.169 0 .092.093.276.093.46z" fill="#fff"/><path d="M154.076 143.73c-.644-1.565-6.537-4.696-13.535-6.722.092-6.353-.829-12.614-2.578-18.507 5.709-2.946 11.417-6.721 11.786-9.852.644-6.445-9.76-20.625-12.338-21.638-1.658-.644-8.103 1.381-14.733 5.064a65.335 65.335 0 00-14.548-11.417c1.934-6.17 3.407-12.89 1.382-15.377-4.052-5.064-21.454-7.642-24.032-6.63-1.566.645-4.604 6.446-6.722 13.536-6.445-.276-12.798.46-18.875 2.026-2.947-5.525-6.446-10.865-9.576-11.142-6.446-.644-20.625 9.76-21.638 12.339-.645 1.473 1.105 7.274 4.235 13.35a65.45 65.45 0 00-12.522 15.377c-5.617-1.841-11.233-2.854-13.535-1.013-5.064 4.052-7.642 21.454-6.63 24.032.553 1.473 5.34 4.052 11.418 6.077a63.733 63.733 0 002.302 20.533c-4.788 2.67-9.024 5.801-9.392 8.563-.645 6.446 9.76 20.625 12.338 21.638 1.381.553 6.445-.829 11.97-3.591a64.399 64.399 0 0016.482 12.799c-1.474 5.34-2.302 10.496-.553 12.614 4.052 5.064 21.454 7.642 24.032 6.63 1.473-.553 4.051-5.341 6.077-11.418a64.452 64.452 0 0020.165-2.946c2.762 5.064 6.077 9.668 8.931 10.036 6.445.644 20.625-9.76 21.638-12.338.644-1.473-1.105-7.274-4.328-13.443 4.604-4.512 8.471-9.76 11.602-15.653 5.893 1.841 12.154 3.038 14.456 1.105 5.156-4.052 7.826-21.454 6.721-24.032zm-85.63 20.533c-15.377-4.236-24.4-20.073-20.165-35.449 4.236-15.377 20.073-24.4 35.45-20.165 15.376 4.235 24.399 20.073 20.164 35.449-4.236 15.377-20.165 24.4-35.45 20.165z" fill="#9CF392"/><path d="M78.296 177.245a40.55 40.55 0 01-12.798-1.473c-10.68-2.946-19.52-9.852-24.953-19.428-5.432-9.576-6.813-20.717-3.959-31.398 2.947-10.68 9.852-19.52 19.428-24.952 9.576-5.433 20.717-6.814 31.398-3.96 10.68 2.947 19.52 9.853 24.953 19.429 5.432 9.575 6.813 20.717 3.959 31.397-2.947 10.681-9.852 19.521-19.428 24.953-5.8 3.315-12.154 5.156-18.6 5.432zm-3.683-81.487a39.686 39.686 0 00-18.046 5.249c-9.3 5.34-15.93 13.903-18.784 24.216-2.854 10.312-1.473 21.177 3.775 30.477 5.34 9.299 13.904 16.021 24.216 18.875 10.313 2.855 21.178 1.473 30.477-3.775 9.3-5.34 16.022-13.903 18.876-24.216 2.854-10.312 1.473-21.177-3.775-30.477-5.341-9.3-13.904-16.021-24.216-18.876a38.885 38.885 0 00-12.522-1.473z" fill="#fff"/><path d="M135.749 139.862c-.276-.092-.461-.184-.737-.276-.184 4.235-.828 8.471-2.025 12.614-8.563 31.306-41.066 49.721-72.28 41.066-20.44-5.617-35.45-21.454-40.974-40.513-.276 0-.552 0-.829-.093 5.525 19.428 20.718 35.634 41.527 41.343 31.674 8.747 64.545-9.945 73.292-41.619 1.105-4.143 1.75-8.287 2.026-12.522zM53.893 82.223c11.602-4.788 24.86-5.893 37.936-2.302.276.092.46.184.736.184v-.828c-.184-.092-.368-.092-.552-.184-13.167-3.591-26.518-2.487-38.304 2.301.092.369.184.645.184.83z" fill="#fff"/><path d="M126.729 174.024h11.786c10.957 0 20.901 6.445 25.321 16.481l11.141 25.137-23.203 11.141 7.458 5.065 4.144 38.211-85.263-1.473-3.222-95.207 51.378 1.105.46-.46z" fill="#9CF392"/><path d="M117.43 154.781s1.105 11.509 2.671 16.297c1.289 3.499 6.629 2.946 6.629 2.946s-4.143 18.231-19.336 18.231c-15.192 0-17.586-15.652-17.586-15.652l10.772-1.658-4.972-16.573 21.822-3.591z" fill="#F39592"/><path d="M123.597 129.276l-3.499-20.533-35.541 15.837 2.118 12.062s2.762 29.28 21.638 25.781c20.533-3.775 16.205-33.423 15.284-33.147zm51.381 86.458l4.788 17.034c3.499 12.43-.276 25.781-9.668 34.529l-21.73 18.231-6.998-20.441 12.062-12.062c3.959-3.959 5.156-9.944 2.946-15.101l-4.603-11.141 23.203-11.049zM58.87 220.155l-2.67 8.287c-4.88 15.1-1.105 31.582 9.76 43.091l13.259 13.996 6.814-32.687-18.876-32.687H58.87z" fill="#FFBDAC"/><path d="M56.203 228.441l11.878 6.814 1.934-19.613h-10.59l-3.222 12.799z" fill="#9CF392"/><path d="M86.77 137.931c22.835 4.788 35.725-20.625 35.725-20.625s-.736 5.34 1.473 13.166c7.643-9.944 2.671-22.558 2.671-22.558s-6.17-13.72-33.884-6.998c-32.319 7.827-37.66 52.207-37.66 52.207s-2.393 9.668 5.986 25.137c2.393 4.327 2.21 9.76-.83 13.719-6.905 9.024-5.155 20.165-5.155 20.165s.644 5.801 5.616 9.576c4.604 3.591 6.538 11.141 4.604 16.665-3.96 11.878-.552 18.6-.552 18.6s2.117 7.642 13.995 8.102c17.218.645 16.85-12.982 15.377-20.717-.553-2.946.184-5.985 2.21-8.194 2.117-2.394 4.419-6.077 4.603-10.957.092-4.144-1.473-8.656-3.314-12.247-2.394-4.695-1.934-10.22 1.105-14.455 4.419-5.985 10.128-17.863 6.905-25.598-5.616-13.074-14.824-17.494-18.875-34.988z" fill="#225A64"/><path d="M161.256 238.938H74.889v51.654h86.367v-51.654z" fill="#fff"/><path d="M161.256 288.475H74.889v4.327h86.367v-4.327z" fill="#FAED00"/><path d="M114.576 260.023a3.497 3.497 0 003.499 3.499 3.498 3.498 0 003.499-3.499 3.498 3.498 0 00-3.499-3.499c-1.934.092-3.499 1.657-3.499 3.499z" fill="#A2D6D9"/><path d="M223.044 276.873c11.049 33.423-136.457 48.339-136.457 48.339l-3.499-18.875s128.814-62.888 139.956-29.464z" fill="#225A64"/><path d="M77.656 325.213l-21.178 1.197-3.959-4.42 2.026-7.918 19.98-2.855 3.131 13.996z" fill="#FFBDAC"/><path d="M56.478 313.796l-21.453-2.578s-8.38-2.21-15.745-1.013v19.52c5.616.645 11.14-.092 11.14-.092l26.15-3.223-.368-.46c-2.394-3.591-2.302-8.655.276-12.154z" fill="#2A9E3E"/><path d="M8.231 318.768c1.474-5.525 6.078-7.826 11.05-8.655v19.612c-6.446-.737-12.983-3.223-11.05-10.957z" fill="#9CF392"/><path d="M45.893 315.177h-2.117v8.379h2.117v-8.379zm-5.247-.001h-2.118v8.379h2.118v-8.379z" fill="#fff"/><path d="M83.086 303.483l3.96 24.4-9.392 1.75-4.604-23.296 10.036-2.854z" fill="#9CF392"/><path d="M123.508 130.196c-.92 2.486-.368 4.972 1.289 5.617 1.658.644 3.775-.829 4.696-3.315.921-2.486.368-4.972-1.289-5.617-1.565-.644-3.683.829-4.696 3.315z" fill="#FFBDAC"/><path d="M8.506 276.873c-11.14 33.423 136.457 48.339 136.457 48.339l3.499-18.875S19.648 243.449 8.506 276.873z" fill="#225A64"/><path d="M153.8 325.214l21.178 1.197 4.051-4.419-2.118-7.919-19.98-2.854-3.131 13.995z" fill="#FFBDAC"/><path d="M212.364 310.204c-7.458-1.197-15.837.921-15.837.921l-21.546 2.578c2.578 3.499 2.67 8.563.276 12.246l-.276.461 26.15 3.222s5.616.737 11.233.093v-19.521z" fill="#2A9E3E"/><path d="M223.228 318.767c-1.474-5.524-6.077-7.826-11.05-8.655v19.612c6.538-.736 13.075-3.222 11.05-10.957z" fill="#9CF392"/><path d="M187.689 315.177h-2.118v8.379h2.118v-8.379zm5.336 0h-2.118v8.379h2.118v-8.379z" fill="#fff"/><path d="M148.459 303.483l-3.959 24.4 9.3 1.75 4.696-23.296-10.037-2.854z" fill="#9CF392"/><path d="M132.711 66.386l-15.469-.092s1.197-4.696.737-8.287c-.184-1.38-1.013-2.578-2.21-3.314-15.193-9.484-11.418-20.35-11.418-20.35s1.658-13.81 21.178-15.008c20.809-1.289 19.428 17.219 19.428 17.219s.921 10.312-9.944 17.218a6.095 6.095 0 00-2.763 4.512c-.552 4.511.461 8.102.461 8.102z" fill="#FAED00"/><path d="M117.243 66.295v5.524c0 2.118 1.381 3.775 3.038 3.775l9.392.093c1.658 0 3.039-1.658 3.039-3.775v-5.525l-15.469-.092z" fill="#9CF392"/><path d="M121.199 75.593l1.013 2.578h5.893l1.289-2.486-8.195-.092z" fill="#225A64"/><path d="M122.674 44.288h.644l-.184 22.007h1.013l.092-22.099c.737-.092 1.565-.184 2.302-.368v1.197c0 2.394-.092 4.88-.092 7.274-.092 4.696-.092 9.3-.184 13.995h1.012l.277-22.834c1.381-.46 2.578-1.013 3.406-1.842 3.591-3.407-2.578-7.182-4.143-2.394-.368 1.105-.368 2.394-.368 3.683-.737.184-1.566.369-2.394.553v-3.315c0-.737-.184-1.473-.737-2.026-2.762-3.038-8.563-.828-6.169 3.5 1.197 1.933 3.499 2.67 5.525 2.67zm5.156-3.222c0-.553.736-4.788 3.407-2.394.276.276.46.644.368 1.013-.184 1.473-2.302 2.486-3.775 2.946-.092-.552-.092-1.105 0-1.565zm-9.208-3.223c1.75-.92 3.223 0 3.96.737.46.46.644 1.013.644 1.657v3.407c-1.934.184-3.867-.368-5.064-2.118-.737-1.289-.645-3.038.46-3.683z" fill="#E8DC00"/><path d="M145.419 15.653c-.276-.276-.276-.828 0-1.197l7.827-7.734c.276-.276.828-.276 1.197 0 .276.276.276.829 0 1.197l-7.827 7.734c-.368.369-.92.369-1.197 0zm-34.624-.184c.276-.277.368-.83 0-1.197l-7.735-7.827c-.276-.276-.828-.368-1.197 0-.276.276-.368.829 0 1.197l7.735 7.827c.368.368.92.368 1.197 0zm14.827-2.762a.825.825 0 01-.829-.83L124.885.83c0-.46.368-.829.829-.829.46 0 .828.368.828.829l-.092 11.049c0 .46-.368.829-.828.829z" fill="#FAED00"/></svg>