<svg width="1138" height="1024" viewBox="0 0 1138 1024" fill="none" xmlns="http://www.w3.org/2000/svg"><g clip-path="url(#clip0)"><path d="M570.217 277.628V-8h567.733v650.353L570.217 277.628z" fill="url(#paint0_linear)"/><path d="M1092.41 351.949L804.464 179.002V-3h287.946v354.949z" fill="#C9E6DD"/><path d="M1064.23-3h-30.16l40.98 24.913 17.36-8.56L1064.23-3zm-62.81 0h-29.76l103.62 63.34 17.13-8.604L1001.42-3zm-63.848 0h-29.895L1076.36 99.489l16.05-9.326L937.572-3zm-63.804 0h-29.264L1077.4 138.502l15.01-9.956L873.768-3zm-75.076 0l-7.936 5.766L1076.41 176.3l16-9.37L809.965-3h-11.273zm5.095 34.689l-13.031 9.46 286.954 174.298 14.7-10.136L803.787 31.688zm0 38.382l-13.031 9.46 285.654 173.533 16-9.37L803.787 70.071zm0 38.383l-13.031 9.46 285.014 173.127 16.64-8.965-288.623-173.622zm0 38.382l-13.031 9.461L1075.5 329.289l16.91-8.83-288.623-173.623z" fill="#BCFDE9"/><path opacity=".4" d="M101.536 771.061l51.989 22.976c2.39 1.216 18.352 2.613 22.05.315l48.472-22.57c3.698-2.297 2.074-5.721-.316-6.892l-60.737-43.203c-2.39-1.217-7.395-.316-11.092 2.027l-52.666 34.193c-3.743 2.252-.09 11.938 2.3 13.154z" fill="#FAED00"/><path d="M193.205 737.454l-11.859 50.141-32.33 1.757-14.699-60.818 58.888 8.92z" fill="#E8DC00"/><path d="M165.495 795.812c8.93-.412 16.016-4.051 15.828-8.127-.189-4.076-7.582-7.046-16.512-6.633-8.93.413-16.017 4.052-15.828 8.128.189 4.076 7.581 7.045 16.512 6.632zm-29.555-78.675l-11.634 47.347-31.383.631-8.748-62.079 51.765 14.101z" fill="#E8DC00"/><path d="M124.361 764.962c.038-3.906-6.976-7.142-15.667-7.227-8.691-.085-15.768 3.012-15.806 6.918-.039 3.907 6.976 7.142 15.667 7.227 8.691.086 15.768-3.012 15.806-6.918z" fill="#FAED00"/><path d="M240.866 717.272l-11.318 49.42-32.33 1.937-15.331-59.782 58.979 8.425z" fill="#E8DC00"/><path d="M213.779 774.954c8.929-.446 16.006-4.051 15.805-8.052-.2-4.001-7.601-6.883-16.53-6.437-8.93.446-16.006 4.051-15.806 8.052.2 4.001 7.601 6.883 16.531 6.437z" fill="#E8DC00"/><path d="M153.255 608.161c23.357-1.487 57.355 7.073 82.38 36.941 8.973 10.722 10.957 24.282 11.048 43.698.225 37.121-19.931 69.828-57.987 78.117-13.933 3.018-27.1 1.847-38.237-2.703-.045 0-.09-.045-.135-.045 0 0-.045 0-.045-.045a62.356 62.356 0 01-4.96-2.343c-24.71-11.352-57.671-23.786-65.517-58.745-8.387-37.392 22.184-91.677 73.453-94.875z" fill="#FAED00"/><path d="M115.649 620.73c-13.121 18.695-21.96 44.869-17.991 63.7 10.01 47.573 54.74 77.576 112.411 60.638 8.612-2.523 16.548-5.136 23.402-9.371-9.74 15.227-24.935 26.58-45.181 30.995-13.933 3.018-27.099 1.847-38.237-2.703-.045 0-.09-.045-.135-.045 0 0-.045 0-.045-.045a62.356 62.356 0 01-4.96-2.343c-24.71-11.353-57.671-23.786-65.517-58.745-6.132-27.12 8.297-63.115 36.253-82.081zm104.475 3.964s-13.572 2.568-23.176 11.263c-4.915 4.46-5.772 11.758-1.804 15.767l4.825 4.866s23.988-21.309 20.155-31.896z" fill="#E8DC00"/><path d="M232.75 649.742s5.816-19.327-13.979-27.481c0 0-23.492 19.642-20.155 31.896 0 0 19.659-12.524 34.134-4.415z" fill="#fff"/><path d="M179.047 673.618s-14.475-18.11-33.232-9.46c0 0-4.058 10.902-5.456 19.281-.722 4.46 1.623 8.92 5.636 10.767l10.551 4.821 7.891-23.562 14.61-1.847z" fill="#E8DC00"/><path d="M177.559 672.582s-9.109-11.307-24.259-4.595c0 0-9.74 24.282 1.803 30.003-.045 0 8.072-22.66 22.456-25.408z" fill="#fff"/><path d="M179.903 656.364l-43.332-25.453c-1.713-.991-1.263-2.928 1.037-4.325 2.255-1.396 5.546-1.667 7.215-.676l43.332 25.454c1.713.991 1.262 2.928-1.037 4.324-2.255 1.352-5.501 1.667-7.215.676z" fill="#E8DC00"/><path d="M175.71 659.247l-43.332-25.453c-1.714-.991-1.263-2.928 1.037-4.325 2.254-1.396 5.546-1.667 7.214-.675l43.332 25.453c1.714.991 1.263 2.928-1.037 4.325-2.254 1.351-5.501 1.666-7.214.675zm44.507 25.781c2.49-.04 4.469-2.552 4.421-5.612-.048-3.06-2.106-5.509-4.596-5.47-2.49.04-4.47 2.552-4.421 5.612.048 3.06 2.106 5.509 4.596 5.47zm-37.248 12.107c.406 3.153 2.706 5.09 5.096 4.369 2.389-.72 4.013-3.874 3.607-7.027-.406-3.154-2.706-5.091-5.095-4.37-2.39.721-4.013 3.874-3.608 7.028z" fill="#000"/><path d="M236.898 694.476s-9.108-9.235-22.23 1.397c-13.121 10.632-21.643 29.328-17.134 37.346 4.554 8.019 39.364-38.743 39.364-38.743z" fill="#FAED00"/><path d="M195.865 734.03c-.541-12.118 9.109-29.102 21.599-37.977 8.657-6.127 16.368-6.757 20.471-2.523l9.379 6.758-36.388 51.267-9.289-7.253c-3.382-1.532-5.546-5.001-5.772-10.272z" fill="#E8DC00"/><path d="M242.469 735.422c10.115-14.061 12.397-29.709 5.097-34.951-7.299-5.242-21.417 1.908-31.532 15.969-10.115 14.061-12.398 29.709-5.098 34.951 7.3 5.242 21.418-1.908 31.533-15.969z" fill="#fff"/><path d="M243.405 736.618c10.115-14.061 12.397-29.709 5.097-34.951-7.299-5.242-21.417 1.908-31.532 15.969-10.115 14.061-12.398 29.71-5.098 34.951 7.3 5.242 21.418-1.907 31.533-15.969z" fill="#FAED00"/><path d="M236.222 726.417c.135 3.063 2.344 3.829 4.915 1.712 2.57-2.117 4.554-6.307 4.418-9.371-.135-3.063-2.344-3.829-4.914-1.711-2.571 2.117-4.555 6.307-4.419 9.37z" fill="#fff"/><path d="M243.711 723.184c1.862-3.604 1.918-7.274.126-8.199-1.792-.924-4.755 1.248-6.617 4.852-1.862 3.603-1.918 7.274-.126 8.199 1.793.924 4.755-1.248 6.617-4.852z" fill="#E8DC00"/><path d="M235.726 725.471c.09 1.937 1.488 2.433 3.156 1.081 1.668-1.351 2.931-4.054 2.841-5.992-.091-1.937-1.488-2.432-3.157-1.081-1.668 1.397-2.931 4.055-2.84 5.992z" fill="#000"/><path d="M228.547 733.656c1.862-3.604 1.918-7.275.126-8.199-1.793-.925-4.755 1.247-6.617 4.851s-1.919 7.274-.126 8.199c1.792.924 4.755-1.248 6.617-4.851z" fill="#fff"/><path d="M220.214 734.796c.136 3.064 2.345 3.829 4.915 1.712s4.554-6.307 4.419-9.37c-.135-3.064-2.345-3.83-4.915-1.712-2.57 2.117-4.554 6.307-4.419 9.37z" fill="#E8DC00"/><path d="M220.124 734.931c.09 1.938 1.488 2.433 3.157 1.082 1.668-1.352 2.93-4.055 2.84-5.992-.09-1.937-1.488-2.433-3.156-1.081-1.668 1.351-2.931 4.054-2.841 5.991z" fill="#000"/><path d="M234.102 652.175s5.817-19.327-13.978-27.481c0 0-23.492 19.642-20.155 31.896 0 0 19.659-12.524 34.133-4.415zm-55.056 21.443s-9.108-11.307-24.258-4.595c0 0-9.74 24.282 1.803 30.003 0 .046 8.117-22.615 22.455-25.408z" fill="#E8DC00"/><path d="M185.585 767.593c-16.954 2.072-27.325 1.531-43.648-7.253l1.849 7.703c5.23 3.829 18.216 8.785 41.799-.45z" fill="#FAED00"/><path opacity=".4" d="M649.036 520.583c27.094 0 49.059-6.999 49.059-15.633 0-8.633-21.965-15.632-49.059-15.632-27.094 0-49.059 6.999-49.059 15.632 0 8.634 21.965 15.633 49.059 15.633z" fill="#2E817B"/><path d="M696.787 440.889L574.05 437.33l19.795 60.683c.721 5.631 4.825 11.127 12.31 15.407 16.503 9.505 43.152 9.55 59.565.09 6.853-3.964 10.821-8.965 11.904-14.146l19.163-58.475z" fill="#BBC0C5"/><path d="M696.787 440.889c-16.999 33.968-34.043 67.936-61.368 79.694 10.957.09 21.959-2.253 30.301-7.073 6.853-3.964 10.821-8.965 11.904-14.146l19.163-58.475z" fill="#1F5459"/><path d="M698.102 433.789c.108-19.83-27.664-36.056-62.03-36.242-34.366-.186-62.312 15.738-62.42 35.568-.108 19.829 27.664 36.055 62.03 36.242 34.366.186 62.313-15.738 62.42-35.568z" fill="#fff"/><path d="M688.823 432.557c.092-17.018-23.735-30.943-53.221-31.103-29.485-.16-53.462 13.507-53.554 30.525-.093 17.018 23.735 30.944 53.22 31.103 29.485.16 53.462-13.506 53.555-30.525z" fill="#1F5459"/><path d="M637.628 414.175c5.276-48.114 46.263-127.221 46.263-127.221-52.801 15.677-56.273 67.8-56.273 67.8l10.01 59.421z" fill="#27A65F"/><path d="M625.679 371.602c5.546-48.113-17.721-134.158-17.721-134.158 47.977 27.03 39.77 78.612 39.77 78.612l-22.049 55.546z" fill="#27A65F"/><path d="M706.572 313.578c-44.054 9.956-70.702 86.992-70.702 86.992v.135c-1.624-98.209-63.714-124.248-63.714-124.248 18.533 26.94 36.028 118.797 41.303 148.485 1.984 11.172 11.859 19.326 23.177 18.786l1.894-.135c9.694-1.037 17.315-8.605 19.209-18.201 8.116-41.085 48.833-111.814 48.833-111.814z" fill="#22D128"/><path d="M639.342 441.295s.405-43.203-5.952-69.648" stroke="#1F5459" stroke-width="1.464" stroke-miterlimit="10" stroke-linecap="round" stroke-linejoin="round"/><path d="M776.688 489.273s-15.647 70.413 24.439 78.567c40.086 8.154 47.345-1.396 47.345-1.396s-20.786 2.838-34.765-2.613c-13.978-5.496-34.088-15.227-30.887-49.465l3.247-34.238-9.379 9.145z" fill="#1B2F61"/><path d="M894.465 585.139c5.276 1.622-8.703-121.004-6.583-126.049 2.885-6.803-74.084-49.195-66.284-55.862 15.782-13.515 23.132-24.958 18.397-33.112l-6.808-17.389s12.58-15.948-15.106-2.613c-8.793 4.234-50.592 20.182-43.242 69.512 2.029 13.515.496 45.275 1.127 60.682 2.165 53.024 31.925 78.387 118.499 104.831z" fill="#000"/><path d="M959.576 576.625l-44.414-97.713c-3.563-20.228 3.968-35.184-16.278-31.625l-5.997 1.036c-20.246 3.559-43.197 21.984-39.635 42.212l22.861 100.371c3.562 20.228 87.025 5.947 83.463-14.281z" fill="#FFBDAC"/><path d="M864.525 539.909s11.002-19.416 8.792-29.552c-3.652 4.234-7.936 7.793-13.347 9.46l4.555 20.092z" fill="#F9A098"/><path d="M807.755 372.549s-17.54 20.948-13.662 44.464c.721 4.505 2.841 15.632 4.013 20.813 2.751 12.344.316 14.731-3.562 27.075-.451 1.397-1.759 4.055-7.891 13.065-.947 1.396-.676 3.333 0 4.91 1.398 3.379 4.825 8.334 12.986 7.298 3.562-.45 4.103 5.001 5.862 12.794 2.75 12.344 7.755 24.913 14.384 29.148 12.715 8.154 58.708-12.029 58.708-12.029l13.753-75.368-84.591-72.17z" fill="#FFBDAC"/><path d="M824.484 442.241c-5.05-1.261-14.068-1.352-19.163-1.306-5.817 0-5.411-5.902-.091-6.127 9.74-.406 13.347.585 19.976 3.739 1.623.766 1.352 4.19-.722 3.694z" fill="#000"/><path d="M808.477 453.053c.631 3.244 2.074 5.721 3.246 5.496 1.173-.225 1.579-3.063.947-6.307-.631-3.244-2.074-5.721-3.246-5.496-1.173.225-1.578 3.063-.947 6.307z" fill="#111A33"/><path d="M807.259 503.194c6.403-.541 8.162-.856 18.352-5.496 0 0-7.53 15.001-18.036 13.244l-.316-7.748z" fill="#FF5D5B"/><path d="M807.575 482.245s.676 4.37-2.75 7.028" stroke="#AD5A50" stroke-width="2.006" stroke-miterlimit="10"/><path d="M816.052 501.662s-7.936-4.28-10.867 0l2.21 8.74 8.657-8.74z" fill="#FF5D5B"/><path d="M801.127 373.089s17.856-20.272 38.057-24.282" stroke="#8265A1" stroke-width="3.26" stroke-miterlimit="10" stroke-linecap="round" stroke-linejoin="round"/><path d="M865.697 466.478s-4.96 5.406-10.867 10.767c-9.694 8.83-13.798 21.669-10.912 34.959l1.218 5.631c0 .045 26.288-16.263 20.561-51.357z" fill="url(#paint1_linear)"/><path d="M798.557 459c1.262 8.424 7.62 14.416 14.249 13.47 6.628-.992 11.002-8.605 9.739-16.984-1.262-8.425-7.395-11.848-14.068-11.083-7.35.811-11.183 6.217-9.92 14.597zm20.606-14.732l47.255-2.613" stroke="#F7F3F3" stroke-width="3.26" stroke-miterlimit="10"/><path d="M817.089 446.16l4.284-.225c.586-.045 1.082-.721 1.037-1.577-.045-.811-.586-1.486-1.172-1.441l-6.539.315c-10.325.225-2.705.766-1.037 1.577 0 .811 2.841 1.351 3.427 1.351zm-18.622 15.498c.721 1.531 1.984 2.477 2.886 2.072.901-.405 1.037-1.982.315-3.514-.721-1.532-1.984-2.478-2.886-2.072-.901.36-1.037 1.937-.315 3.514z" fill="#F7F3F3"/><path d="M315.41 323.399l-5.005-46.537c-.541-5-4.013-7.478-7.756-5.451l-75.707 41.041c-3.698 2.027-6.313 7.748-5.772 12.794l4.374 40.68-.135-.045-1.894 22.57 21.418-17.209 64.705-35.094c3.697-1.982 6.313-7.748 5.772-12.749z" fill="#DAFCF8"/><path d="M284.117 394.713l85.041-45.726c4.193-2.252 7.214-8.064 6.764-12.929l-4.284-45.14c-.451-4.865-4.284-7.028-8.432-4.775l-85.086 45.725c-4.194 2.253-7.215 8.064-6.764 12.93l4.284 45.14c.496 4.865 4.283 7.028 8.477 4.775z" fill="#FAED00"/><path d="M348.822 311.055l-57.355 32.301m59.745-13.785l-31.113 17.524" stroke="#fff" stroke-width="3.359" stroke-miterlimit="10" stroke-linecap="round" stroke-linejoin="round"/><path d="M375.651 332.995l6.223 19.056-22.771 1.036 16.548-20.092z" fill="#FAED00"/><path d="M279.112 720.155l.09-15.317 12.4 10.451 2.66-6.127 310.991-179.389c3.743-2.162 11.182-1.892 15.511.586l134.731 77.216v-2.163l20.472 9.956 2.885-1.171-.405 9.415c-.316 2.073-1.128 2.929-2.39 3.649L452.441 814.444c-3.743 2.163-10.371 2.118-14.7-.36L282.674 724.75c-2.345-1.352-3.562-3.064-3.562-4.731v.136z" fill="#9BA1A6"/><path d="M452.621 801.92l323.616-186.687c3.743-2.162 3.292-5.991-1.037-8.469l-155.067-89.47c-4.329-2.477-10.912-2.748-14.655-.585L281.817 703.396c-3.742 2.162-3.292 5.992 1.037 8.469l155.067 89.47c4.329 2.478 10.957 2.748 14.7.585z" fill="url(#paint2_linear)"/><path d="M246.691 481.39c-4.328 2.477-7.214 8.199-6.448 12.794l33.593 207.365c.722 4.595 4.825 6.262 9.153 3.784l317.89-183.398c4.329-2.478 7.215-8.2 6.448-12.795l-33.592-207.365c-.722-4.55-4.825-6.262-9.154-3.784L246.691 481.39z" fill="#D6FBF5"/><path d="M227.438 463.144v-.676c0-.135.045-.225.045-.36 0-.045 0-.09.045-.18v-.18c0-.136.045-.226.045-.361 0-.09.045-.225.045-.315.045-.135.045-.225.09-.361.045-.135.045-.225.09-.36 0-.045 0-.045.045-.09v-.045c0-.045.046-.135.046-.18a.839.839 0 00.09-.316c.045-.09.045-.18.09-.27v-.09c.045-.09.09-.225.135-.315.045-.09.09-.181.135-.316 0-.045.046-.09.046-.135 0 0 0-.045.045-.045 0-.045.045-.09.045-.135.045-.09.09-.225.135-.315.045-.091.09-.226.135-.316v-.045s0-.045.045-.045c.045-.09.091-.225.181-.315.045-.09.09-.18.18-.316a.341.341 0 00.09-.18c0-.045.045-.045.045-.09a1.64 1.64 0 01.316-.45c.045-.045.045-.09.09-.136v-.045c.135-.18.271-.405.406-.585 0-.045.045-.045.045-.09s.045-.045.045-.09c.045-.045.09-.136.135-.181.091-.09.181-.225.271-.315.045-.045.045-.09.09-.135l.045-.045c.045-.045.045-.09.09-.09l.271-.271c.045-.09.135-.135.18-.225l.045-.045s0-.045.046-.045l.27-.27c.09-.09.181-.18.316-.271l.27-.27c.09-.09.226-.18.316-.27 0 0 .045 0 .045-.045l.045-.045c.09-.045.135-.135.226-.18.09-.091.225-.136.315-.226.045 0 .045-.045.09-.045h.045c.046-.045.136-.09.181-.135.09-.09.225-.135.315-.18.046 0 7.666-4.415 7.711-4.46l9.469 5.721s-8.116 4.235-8.206 4.325c-.091.09-.226.135-.316.225s-.226.136-.316.226-.225.18-.315.225c-.045.045-.091.09-.136.09-.18.135-.315.27-.496.405-.18.136-.315.316-.496.451l-.045.045c-.135.135-.27.315-.451.45 0 .046-.045.046-.045.091-.135.135-.27.315-.406.45l-.09.09c-.135.18-.27.316-.36.496-.046.09-.136.18-.181.27-.09.09-.135.225-.225.315-.09.136-.181.271-.226.361l-.135.27c-.045.09-.09.135-.135.225-.09.135-.136.271-.226.406 0 .045-.045.09-.045.09l-.27.54v.046c-.091.18-.181.405-.271.585 0 0 0 .045-.045.045-.09.18-.135.406-.225.586 0 .045 0 .045-.046.09-.045.18-.135.405-.18.586 0 .045 0 .045-.045.09-.045.18-.09.405-.135.585v.09c-.045.181-.09.406-.136.586v.09c-.045.18-.045.406-.09.586v.09c0 .18-.045.405-.045.586v1.396c0 .135.045.27.045.406 0 .09.045.18.045.315 0 0 .045.18.091.541l.811 5.135c.451-.27 1.488-.856 1.533-.856l9.56 5.181s-2.3 1.307-2.39 1.397c-.09.09-.226.135-.316.225s-.225.135-.316.225c-.09.09-.225.18-.315.225-.045.045-.09.09-.135.09-.181.136-.316.271-.496.406-.181.135-.316.315-.496.45l-.046.045c-.135.136-.27.316-.45.451 0 .045-.046.045-.046.09-.135.135-.27.315-.405.451l-.091.09c-.135.18-.27.315-.36.495-.045.09-.136.18-.181.271-.09.09-.135.225-.225.315-.09.135-.18.27-.226.36l-.135.271c-.045.09-.09.135-.135.225-.09.135-.135.27-.226.405 0 .045-.045.09-.045.09l-.27.541v.045c-.09.18-.181.405-.271.586 0 0 0 .045-.045.045-.09.18-.135.405-.225.585 0 .045 0 .045-.045.09-.045.181-.136.406-.181.586 0 .045 0 .045-.045.09-.045.18-.09.406-.135.586v.09c-.045.18-.09.405-.135.586v.09c-.045.18-.045.405-.091.585v.361l29.715 183.443c.136.992 3.923 7.208 3.066 6.713l-2.705-2.253 3.156 19.507c.136.991 3.923 7.208 3.067 6.712l-9.064-7.658c-1.894-1.622-3.201-3.874-3.607-6.352l-32.465-200.563a63.342 63.342 0 00-.406-2.432c0-.091-.045-.181-.045-.316 0-.09 0-.18-.045-.27v-.135c0-.135 0-.225-.045-.361v-1.396l-3.067-19.056a62.276 62.276 0 00-.405-2.433c0-.09-.045-.18-.045-.315 0-.09 0-.181-.046-.271v-.135c0-.135 0-.225-.045-.36v-.361c.181.045.181-.09.181-.18z" fill="#9BA1A6"/><path d="M235.644 453.233l6.944 4.01c.361.225.812.225 1.173 0l315.59-182.047 1.758-.991.271-.136c.09-.045.225-.135.315-.18.271-.135.541-.225.812-.36.045 0 .045 0 .09-.045.226-.09.496-.18.722-.225h.045c.27-.046.496-.136.721-.136h.045c.226-.045.451-.045.677-.045h.135c.225 0 .451 0 .631.045.045 0 .135 0 .18.045.136 0 .316.045.451.091.136.045.226.045.361.09.09.045.18.045.316.09.27.09.496.225.721.36l-9.243-5.361a4.008 4.008 0 00-.767-.36s-.045 0-.045-.045h-.045c-.18-.09-.406-.135-.631-.18h-.045c-.046 0-.136 0-.181-.046-.09 0-.225-.045-.315-.045h-.992c-.136 0-.271 0-.406.045h-.226c-.045 0-.09 0-.18.046a.839.839 0 00-.316.09h-.045c-.135.045-.225.045-.361.09-.135.045-.225.09-.36.09-.136.045-.226.09-.361.135-.09.045-.225.09-.316.135-.09.045-.225.09-.315.135-.09.045-.226.09-.316.18-.045.046-.496.271-.812.496l-.45.27-315.23 181.732c-.766.451-.766 1.577 0 2.027z" fill="#EBEBEC"/><path d="M243.174 457.243c-4.328 2.478-7.214 8.199-6.448 12.794l33.593 207.365c.721 4.595 4.825 6.262 9.153 3.784l317.89-183.398c4.329-2.478 7.215-8.199 6.448-12.794l-33.593-207.366c-.721-4.55-4.824-6.262-9.153-3.784l-317.89 183.399z" fill="#E2E7F1"/><path d="M254.537 470.578c-4.103 2.297-6.854 7.298-6.177 11.127l30.391 173.983c.676 3.829 4.509 5.046 8.612 2.748l301.522-170.649c4.103-2.298 6.854-7.298 6.177-11.128l-30.391-173.983c-.676-3.829-4.509-5.045-8.612-2.748l-301.522 170.65z" fill="#91F2DB"/><path opacity=".28" d="M595.017 476.659l-30.391-173.983c-.676-3.829-4.509-5.045-8.612-2.748L322.669 432.015l272.348 44.644z" fill="#fff"/><path d="M608.95 516.393L282.719 704.522" stroke="#209F6D" stroke-width="3.033" stroke-miterlimit="10" stroke-linecap="round" stroke-linejoin="round"/><path d="M597.633 562.299c.496.27 1.442.18 2.164-.27l19.84-11.443c.721-.405.902-.991.451-1.261l-13.167-7.524c-.496-.27-1.443-.18-2.164.271l-19.84 11.442c-.721.406-.902.992-.451 1.262l13.167 7.523zm-22.997 34.148c.496.27 1.443.18 2.165-.27l19.839-11.443c.722-.405.902-.946.406-1.261l-13.121-7.569c-.451-.27-1.443-.18-2.164.271l-19.84 11.442c-.722.406-.902.991-.451 1.262l13.166 7.568zm11.634 14.191c.496.27 1.443.135 2.164-.27l19.84-11.443c.721-.406.902-.946.451-1.262l-13.167-7.568c-.451-.27-1.443-.135-2.164.27l-19.84 11.443c-.721.406-.902.991-.451 1.261l13.167 7.569zm31.473 2.748c.451.27 1.443.18 2.164-.27l19.84-11.443c.722-.405.902-.991.451-1.261l-13.121-7.569c-.451-.27-1.443-.18-2.165.225l-19.839 11.443c-.722.406-.902.991-.406 1.262l13.076 7.613zm54.56-7.974c.496.27 1.443.18 2.164-.27l19.84-11.443c.722-.405.902-.991.451-1.261l-15.421-8.92c-.451-.271-1.443-.18-2.164.27l-19.84 11.443c-.722.405-.902.991-.451 1.261l15.421 8.92zm-34.179 19.732c.496.27 1.623.045 2.57-.496l25.972-15.001c.947-.541 1.308-1.217.857-1.487l-15.421-8.92c-.451-.27-1.623-.045-2.57.496l-25.972 15.001c-.947.541-1.308 1.217-.857 1.487l15.421 8.92zM467.41 723.713c.406.226 1.308.091 2.03-.315l19.839-11.443c.722-.405.992-.946.587-1.171l-5.727-3.289c-.406-.225-1.308-.09-2.029.361l-19.84 11.443c-.721.405-.992.946-.586 1.171l5.726 3.243zm-26.513 15.678c.406.225 1.308.09 2.029-.316l19.84-11.442c.722-.406.992-.946.586-1.172l-5.726-3.288c-.406-.225-1.308-.09-2.029.36l-19.84 11.443c-.722.405-.992.946-.586 1.171l5.726 3.244zm-28.091 15.812c.36.226 1.262.045 1.984-.36l19.84-11.443c.721-.405.992-.946.631-1.171l-5.501-3.154c-.361-.225-1.263-.045-1.984.361l-19.84 11.443c-.722.405-.992.946-.631 1.126l5.501 3.198zm17.269-21.849c.361.225 1.263.045 1.984-.36l19.84-11.443c.722-.405.992-.946.632-1.171l-5.501-3.154c-.361-.225-1.263-.045-1.984.361l-19.84 11.442c-.722.406-.992.946-.632 1.127l5.501 3.198zm71.604-29.553c.496.271 1.443.135 2.165-.27l129.049-74.423c.722-.405.902-.991.451-1.261l-15.421-8.92c-.451-.27-1.443-.135-2.164.27l-129.05 74.423c-.721.405-.902.991-.451 1.261l15.421 8.92z" fill="#9BA1A6"/><path d="M641.641 620.233c.045 0 .135 0 .226-.045l15.15-8.739c.09-.045.135-.09.09-.135l-.947-.541c-.045 0-.135 0-.225.045l-15.151 8.74c-.09.045-.135.09-.09.135l.947.54zm38.913-24.101h.136l6.448-3.694c.045 0 .045-.045 0-.091l-.947-.54h-.135l-6.449 3.694c-.045 0-.045.045 0 .09l.947.541zm-90.001 32.931c.451.271 1.443.18 2.165-.27l19.84-11.443c.721-.405.901-.991.451-1.261l-13.122-7.568c-.451-.271-1.443-.136-2.164.27l-19.84 11.443c-.722.405-.902.991-.451 1.261l13.121 7.568zm-27.325 15.723c.451.27 1.443.135 2.165-.271l19.84-11.442c.721-.406.901-.991.45-1.262l-13.121-7.568c-.451-.27-1.443-.135-2.164.27l-19.84 11.443c-.722.405-.902.991-.406 1.261l13.076 7.569zm-27.28 15.767c.451.271 1.443.18 2.165-.27l19.84-11.443c.721-.405.901-.946.451-1.261l-13.122-7.569c-.451-.27-1.443-.18-2.164.226l-19.84 11.442c-.721.406-.902.991-.406 1.262l13.076 7.613zm-27.325 15.723c.451.27 1.443.18 2.165-.271l19.84-11.442c.721-.406.902-.991.451-1.262l-13.122-7.568c-.451-.27-1.443-.18-2.164.27l-19.84 11.443c-.721.405-.902.991-.451 1.261l13.121 7.569zm-27.324 15.767c.45.271 1.442.135 2.164-.27l19.84-11.443c.721-.405.902-.946.451-1.261l-13.122-7.569c-.451-.27-1.443-.18-2.164.226l-19.84 11.442c-.721.406-.902.991-.451 1.262l13.122 7.613zm-27.326 15.723c.451.27 1.443.18 2.165-.271l19.84-11.442c.721-.406.902-.991.451-1.262l-13.122-7.568c-.451-.27-1.443-.18-2.164.27l-19.84 11.443c-.722.405-.902.991-.451 1.261l13.121 7.569zM392.47 743.22c.451.27 1.443.18 2.164-.27l54.019-31.175c.721-.405.902-.991.451-1.261l-13.122-7.569c-.451-.27-1.443-.18-2.164.271l-54.019 31.174c-.721.406-.902.991-.451 1.262l13.122 7.568zm166.61-118.482c.496.271 1.443.181 2.164-.27l19.84-11.442c.722-.406.902-.947.451-1.217l-13.166-7.568c-.451-.271-1.443-.18-2.165.27l-19.84 11.443c-.721.405-.901.946-.451 1.216l13.167 7.568zm-27.325 17.3c.496.27 1.443.135 2.164-.271l19.84-11.442c.722-.406.902-.946.451-1.217l-13.166-7.568c-.451-.27-1.443-.18-2.12.27l-19.84 11.443c-.721.405-.901.946-.45 1.216l13.121 7.569zm-27.28 15.767c.496.271 1.443.135 2.164-.27l19.84-11.443c.722-.405.902-.991.451-1.261l-13.166-7.569c-.451-.27-1.443-.135-2.165.271l-19.84 11.442c-.721.406-.901.992-.45 1.262l13.166 7.568zm-27.325 15.723c.496.27 1.443.18 2.164-.271l19.84-11.442c.722-.406.902-.946.451-1.262l-13.166-7.568c-.451-.27-1.443-.135-2.165.27l-19.839 11.443c-.722.405-.902.991-.451 1.216l13.166 7.614zm-27.325 15.767c.496.271 1.443.135 2.165-.27l19.84-11.443c.721-.405.901-.946.45-1.216l-13.166-7.569c-.451-.27-1.443-.18-2.164.271l-19.84 11.442c-.722.406-.902.992-.451 1.217l13.166 7.568zm-27.28 15.723c.496.27 1.443.18 2.165-.271l19.84-11.442c.721-.406.901-.992.45-1.262l-13.166-7.568c-.451-.271-1.443-.135-2.164.27l-19.84 11.443c-.722.405-.902.946-.451 1.216l13.166 7.614zm-27.325 15.767c.496.271 1.443.18 2.165-.27l19.839-11.443c.722-.405.902-.946.406-1.216l-13.166-7.569c-.451-.27-1.443-.18-2.119.271L382.505 712c-.722.406-.902.946-.451 1.217l13.166 7.568zm152.226-108.661c.496.271 1.443.181 2.165-.27l19.84-11.442c.721-.406.902-.947.406-1.262l-13.122-7.568c-.451-.271-1.443-.18-2.119.27l-19.84 11.443c-.721.405-.902.991-.451 1.261l13.121 7.568zm-27.324 15.768c.496.27 1.442.18 2.164-.225l19.84-11.443c.721-.405.902-.991.451-1.261l-13.122-7.569c-.451-.27-1.443-.135-2.164.271l-19.84 11.442c-.721.406-.902.946-.451 1.217l13.122 7.568zm-27.28 15.722c.496.271 1.443.181 2.164-.27l19.84-11.443c.721-.405.902-.946.406-1.261l-13.122-7.568c-.451-.271-1.442-.18-2.164.27l-19.84 11.443c-.721.405-.902.991-.451 1.261l13.167 7.568zm-27.325 15.768c.496.27 1.443.18 2.164-.225l19.84-11.443c.721-.405.902-.991.451-1.261l-13.122-7.569c-.45-.27-1.442-.135-2.164.271l-19.84 11.442c-.721.406-.902.946-.451 1.217l13.122 7.568zm-27.325 15.722c.496.271 1.443.181 2.164-.225l19.84-11.443c.722-.405.902-.946.406-1.261l-13.122-7.568c-.45-.271-1.442-.181-2.164.27l-19.84 11.443c-.721.405-.902.946-.451 1.216l13.167 7.568zm-27.325 15.768c.496.27 1.443.18 2.164-.27l19.84-11.443c.721-.406.902-.946.406-1.262l-13.122-7.568c-.451-.27-1.443-.135-2.164.27l-19.84 11.443c-.721.406-.902.991-.451 1.261l13.167 7.569zm-27.28 15.722c.496.271 1.443.181 2.164-.225l19.84-11.443c.722-.405.902-.946.406-1.261l-13.121-7.568c-.451-.271-1.443-.181-2.165.27l-19.84 11.443c-.721.405-.902.946-.451 1.216l13.167 7.568zm218.374-125.869c.496.27 1.443.18 2.165-.27l33.637-19.372c.722-.405.902-.991.451-1.261l-13.121-7.569c-.451-.27-1.443-.135-2.165.27l-33.637 19.372c-.722.405-.902.991-.451 1.261l13.121 7.569zM338.18 711.91c.496.271 1.443.181 2.165-.27l33.638-19.371c.721-.406.901-.992.45-1.262l-13.121-7.568c-.496-.271-1.443-.135-2.164.27l-33.638 19.372c-.721.405-.902.991-.451 1.261l13.121 7.568zm275.415-116.995c.496.271 1.443.181 2.164-.27l40.086-23.111c.721-.405.901-.946.451-1.261l-13.167-7.568c-.451-.271-1.443-.136-2.164.27l-40.086 23.111c-.721.405-.902.991-.451 1.261l13.167 7.568zm31.428 2.703c.451.271 1.443.181 2.164-.27l26.739-15.407c.722-.405.902-.991.451-1.261l-13.121-7.569c-.451-.27-1.443-.18-2.165.271l-26.739 15.407c-.721.405-.901.991-.45 1.261l13.121 7.568zm-74.67-19.551c.496.27 1.443.18 2.164-.271l19.84-11.442c.721-.406.902-.991.451-1.262l-13.122-7.568c-.496-.27-1.442-.18-2.164.27l-19.84 11.443c-.721.405-.902.991-.451 1.261l13.122 7.569zm-27.19 15.677c.496.27 1.443.18 2.164-.27l19.84-11.443c.722-.405.902-.991.451-1.261l-13.121-7.569c-.496-.27-1.443-.18-2.165.271l-19.84 11.442c-.721.406-.901.991-.45 1.262l13.121 7.568zm-27.325 15.722c.496.271 1.443.181 2.164-.225l19.84-11.442c.722-.406.902-.946.451-1.262l-13.121-7.568c-.496-.27-1.443-.18-2.165.225l-19.84 11.443c-.721.405-.901.946-.405 1.261l13.076 7.568zm-27.325 15.768c.496.27 1.443.18 2.164-.27l19.84-11.443c.722-.405.902-.991.451-1.261l-13.121-7.569c-.496-.27-1.443-.18-2.165.271l-19.84 11.442c-.721.406-.901.991-.45 1.262l13.121 7.568zm-27.28 15.723c.496.27 1.443.18 2.164-.226l19.84-11.442c.722-.406.902-.992.451-1.262l-13.121-7.568c-.496-.271-1.443-.181-2.164.27l-19.84 11.443c-.722.405-.902.946-.406 1.261l13.076 7.524zm-27.325 15.767c.496.27 1.443.18 2.164-.225l19.84-11.443c.722-.405.902-.946.406-1.261l-13.121-7.569c-.496-.27-1.443-.18-2.165.226l-19.84 11.442c-.721.406-.901.946-.45 1.262l13.166 7.568zm-27.325 15.722c.496.271 1.443.181 2.164-.27l19.84-11.443c.722-.405.902-.991.451-1.261l-13.121-7.568c-.496-.271-1.443-.181-2.164.27l-19.84 11.443c-.722.405-.902.991-.451 1.261l13.121 7.568zm-27.28 15.768c.496.27 1.443.18 2.165-.225l19.839-11.443c.722-.406.902-.946.406-1.216l-13.121-7.569c-.496-.27-1.443-.18-2.165.225l-19.839 11.443c-.722.406-.902.946-.406 1.216l13.121 7.569zm-15.917 13.875c.316-.18.722-.315 1.173-.36.405-.045.766 0 .992.135l13.121 7.568c.225.136.316.316.225.586-.09.225-.315.496-.676.676l-5.185 2.973 17.224 9.956c.226.135.316.316.226.586-.09.225-.316.496-.677.676l-13.346 7.703c-.316.18-.722.316-1.173.406-.406.045-.766 0-.992-.135l-31.248-18.02c-.225-.136-.315-.316-.225-.586.09-.225.315-.496.676-.676l19.885-11.488z" fill="#9BA1A6"/><path d="M648.585 591.221c.045 0 .135 0 .226-.045l15.15-8.739c.09-.045.135-.09.09-.136l-.947-.54a.49.49 0 00-.225.045l-15.151 8.74c-.09.045-.135.09-.09.135l.947.54z" fill="#9BA1A6"/><path d="M569.496 718.037l71.604-40.139c.812-.451.812-1.262-.045-1.712l-30.436-17.525c-.857-.495-2.21-.495-3.066-.045l-71.605 40.14c-.811.45-.811 1.261.046 1.712l30.436 17.524c.856.496 2.254.541 3.066.045z" fill="#EBEBEC"/><path d="M302.965 637.443l263.104-151.774c4.329-2.523 7.079-9.28 6.132-15.137L549.34 330.337c-.946-5.857-5.23-8.56-9.604-6.037L276.632 476.074c-4.329 2.522-7.08 9.28-6.133 15.136l22.861 140.196c.947 5.811 5.276 8.559 9.605 6.037z" fill="#F5FAFF"/><path d="M273.069 506.843l-2.795-17.119c-.812-5.046 2.615-11.488 7.665-14.371l260.535-150.287c5.05-2.928 9.829-1.216 10.641 3.829l2.796 17.119-278.842 160.829z" fill="#4FDC6C"/><path d="M331.026 462.502c.843-2.289.161-4.645-1.522-5.264-1.683-.618-3.73.736-4.572 3.025-.842 2.288-.161 4.645 1.522 5.263 1.683.618 3.73-.736 4.572-3.024zm-19.584 8.436c.496 2.117 2.344 2.973 4.148 1.937 1.804-1.036 2.886-3.604 2.435-5.721-.496-2.118-2.345-2.974-4.148-1.937-1.849 1.036-2.931 3.604-2.435 5.721zm-13.257 7.658c.496 2.118 2.345 2.974 4.148 1.938 1.804-1.037 2.886-3.604 2.435-5.722-.496-2.117-2.345-2.973-4.148-1.937-1.849 1.036-2.931 3.604-2.435 5.721z" fill="#fff"/><path opacity=".4" d="M605.343 621.36c.586-3.694 8.026-6.667 17.676-9.01-3.337-1.036-5.727-3.199-6.178-6.938 0 0 5.817-1.937 13.032-3.739-1.443-1.216-2.39-2.883-2.661-5.136 0 0 18.577-6.217 30.752-6.712 4.193-.406 13.798-.766 25.521 2.162 11.769 2.929 15.782 7.884 41.89 23.742l137.662 30.544-18.172 67.304-136.174-59.421-16.999 2.118-31.924-7.884s-17.946 1.261-19.029-6.217c-1.217-8.334 19.75-4.91 19.75-4.91l15.421 2.027c4.419-.045 6.403.045 7.124-4.19.451-2.523-2.75-4.235-2.84-4.73-.226-1.126-37.29-7.343-37.29-7.343s-39.951 13.064-37.561-1.667z" fill="#A8C4E5"/><path d="M642.994 600.231s-40.041 13.11-37.651-1.576c.586-3.695 8.026-6.668 17.676-9.01-3.337-1.037-5.727-3.199-6.178-6.938 0 0 5.817-1.937 13.031-3.739-1.442-1.217-2.389-2.883-2.66-5.136 0 0 18.577-6.217 30.752-6.712 4.193-.406 13.798-.766 25.521 2.162 12.04 2.973 15.962 8.109 43.874 24.958 0 0-1.037.946-2.661 2.252 5.186 2.523 8.432 8.019 7.936 13.921l-.045.675c-.857 10.227-8.747 18.471-18.938 19.732l-21.914 2.748-31.924-7.883s-17.946 1.261-19.029-6.217c-1.217-8.335 19.75-4.911 19.75-4.911l15.421 2.027c4.419-.045 6.403.045 7.125-4.189.45-2.523-2.751-4.235-2.841-4.73-.181-1.262-37.245-7.434-37.245-7.434z" fill="#FFBDAC"/><path d="M623.019 589.599l22.094-5.541 38.237 11.848m-53.432-16.983c1.307-1.082 22.455-6.533 22.455-6.533l38.192 11.804" stroke="#EDA28E" stroke-width="3.26" stroke-miterlimit="10"/><path d="M725.375 592.933l137.707 30.589-18.172 67.26-140.683-61.403 21.148-36.446z" fill="#E88087"/><path d="M750.896 597.123l-23.312-6.217s-15.331 24.417-15.105 44.509l19.975 6.578 18.442-44.87z" fill="#fff"/><path d="M754.323 589.239s-24.529 19.507-25.972 56.538l156.645 61.718s33.593 11.894 59.339-21.669c25.747-33.562-59.474-66.313-59.474-66.313l-130.538-30.274z" fill="#FAED00"/><path d="M1134.98 690.782l2.97 345.218H513.719l621.261-345.218z" fill="#47E3B6"/><path d="M1133.99 647.534l-7.49 91.947L636.411 1036H508.578l625.412-388.466z" fill="#C9E6DD"/><path d="M821.102 613.882c21.013-9.461 39.049-20.543 55.642-32.211 95.412-10.857 96.81-61.493 96.81-61.493 44.866-17.75 62.626 9.595 84.816 77.26 5.41 16.534 21.78 214.033 21.78 214.033 0 .045 2.3 167.901-16.69 174.659l-212.463 46.63s7.801-78.886 2.886-134.658c-2.525-28.652-40.446-95.506-51.674-114.202-.766-1.261-12.58 17.975-12.986 16.984-7.034-18.29-5.05-36.49 4.103-55.637-17.54-37.616-35.982-102.714 27.776-131.365z" fill="#FAED00"/><path d="M841.573 603.745c83.463-16.578 136.941 49.015 144.291-72.711 0 0-24.98-12.208-31.969 0-12.31 21.489-13.167 33.292-47.932 33.022-17.991-.135-41.033-.946-46.263 7.884l-18.127 31.805z" fill="url(#paint3_linear)"/><path d="M719.828 846.024s-19.659 9.28-32.284-10.722c-12.671-20.047-10.732-40.545-10.732-40.545l43.016 51.267z" fill="#F08B9E"/><path opacity=".4" d="M634.832 859.764c-97.666-41.401-196.234-118.346-196.234-118.346l39.454-32.211 279.923 113.706-59.745 33.428a72.001 72.001 0 01-63.398 3.423z" fill="#A8C4E5"/><path d="M744.132 824.535c-19.389 17.254-25.16 28.607-53.567 24.868-37.02-4.866-161.11-73.116-193.665-98.57-12.761-10.001-2.66-42.707 12.49-36.805 36.163 14.1 140.007 58.745 173.96 63.971 2.976.45 31.473-1.667 32.871-2.433 2.57-1.442 54.74 25.093 27.911 48.969z" fill="#E88087"/><path d="M430.662 659.562c-.091.09-2.21 2.568-1.038 6.262 0 .045 0 .045.046.09 2.119 6.623 13.076 12.434 32.555 17.299.631.316 2.841 1.893 5.907 4.1-6.628-1.126-14.519-.36-19.975 2.343-21.644 10.676-29.309 19.822-29.625 20.227l-.406.541.091.675c.045.271.45 2.478 3.156 3.74 5.275 2.387 15.241-.947 29.625-10.002 3.877-2.432 8.837-2.748 14.834-.946-3.968-.495-7.845.136-11.002 1.757-9.83 5.136-27.911 20.138-28.678 20.768l-.721.586.226.901c.045.225.586 2.253 3.201 3.244.902.36 1.939.54 3.111.54-.315.18-.451.271-.451.271l-1.307.765.766 1.307c5.817 9.641 16.503 3.784 24.304-.496.992-.54 1.984-1.081 2.931-1.576 3.652-1.938 9.244-3.289 12.896-.856 10.055 6.757 16.954 12.433 19.434 15.947.631.856 7.215 6.983 8.071 7.929 16.504 18.155 38.959-2.252 33.728-26.624-19.524-19.147-43.377-51.267-58.843-55.772l-.181-.136-42.024-13.695-.631.811z" fill="#FFBDAC"/><path d="M433.863 731.011l32.916-17.073 16.954 9.055m-17.901-19.147l12.175 5.406" stroke="#E08E79" stroke-width="3.26" stroke-miterlimit="10"/><path d="M877.691 712.181L750.084 839.177c-41.303 30.228-96.494-37.662-64.479-65.368l103.663-141.637c19.75-24.192 57.807-24.688 73.724-6.938 16.548 18.516 33.818 65.863 14.699 86.947z" fill="#FAED00"/><path d="M804.915 787.639s44.324 75.684 47.119 97.669c2.796 21.984-1.037 143.082-1.037 143.082l26.288-.18 37.335-113.485-60.241-180.875c-3.742-11.263-19.479 5.766-28.272 13.785l-48.698 40.455 13.888 9.235 13.618-9.686z" fill="#E8DC00"/><path d="M855.01 729.84s15.106-82.306-28.767-116.95" stroke="#D1C600" stroke-width="4" stroke-miterlimit="10" stroke-linecap="round" stroke-linejoin="round"/><path d="M853.072 919.456c32.014 13.064 50.997 1.667 67.32-15.272L877.33 1035.46l-178.649.54 96.629-31.17c31.789-9.285 53.974-37.892 55.146-70.958l2.616-14.416z" fill="#225A64"/><path d="M1137.95 1036l-260.665-.5c.226-4.37 1.037-10.13 2.074-14.5l47.661-201.33c8.613-36.446 34.946-72.936 65.833-91.226l145.097-86.136V1036z" fill="#9CF392"/><path d="M1137.95 1036H953.579l29.76-188.805c12.986-54.916 91.351-89.649 137.841-117.175l16.77-9.37c.14 2.207 0 315.35 0 315.35z" fill="#D0F294"/><path d="M561.605 732.093l-22.275-9.686s-23.131 22.029-20.742 46.987l17.992 11.758 25.025-49.059z" fill="#fff"/><path d="M563.003 729.84s-21.959 13.155-30.617 54.195l150.919 74.603s32.465 14.641 60.963-16.623c28.452-31.265-53.748-71.044-53.748-71.044L563.003 729.84z" fill="#FAED00"/><path d="M811.453 789.486l-61.369 48.925c-30.255 32.616-63.758 23.11-77.556 14.821 28.362-1.937 74.355-35.184 107.136-66.944 5.23-5.136 31.789 3.198 31.789 3.198z" fill="#E8DC00"/><path d="M584.511 801.47c2.366 0 4.284-2.481 4.284-5.541 0-3.061-1.918-5.542-4.284-5.542-2.366 0-4.283 2.481-4.283 5.542 0 3.06 1.917 5.541 4.283 5.541zm-14.429-6.983c2.366 0 4.284-2.481 4.284-5.541 0-3.061-1.918-5.541-4.284-5.541-2.366 0-4.283 2.48-4.283 5.541 0 3.06 1.917 5.541 4.283 5.541zm-14.384-7.028c2.366 0 4.284-2.481 4.284-5.541 0-3.06-1.918-5.541-4.284-5.541-2.366 0-4.283 2.481-4.283 5.541 0 3.06 1.917 5.541 4.283 5.541z" fill="#EBEFFF"/><path opacity=".4" d="M119.716 894.498l-25.702-16.623-6.313-4.1-5.05-3.289c-1.713-1.126-4.554-1.126-6.312-.045L6.132 913.599c-1.758 1.081-1.803 2.883-.045 4.01l14.43 9.37.45.27 22.185 14.371c1.713 1.127 4.554 1.127 6.313.045l70.206-43.157c1.758-1.127 1.803-2.884.045-4.01z" fill="#A8C4E5"/><path d="M114.891 896.12l-70.206 43.158c-1.759 1.081-4.6 1.036-6.313-.045L1.308 915.221c-1.714-1.126-1.714-2.928.045-4.009l70.206-43.158c1.758-1.082 4.6-1.037 6.313.045l37.064 24.011c1.759 1.172 1.714 2.929-.045 4.01z" fill="url(#paint4_linear)"/><path d="M92.752 877.739l-76.61 47.123-9.784-6.352 76.609-47.123 9.785 6.352z" fill="#000"/><path d="M100.507 886.074l-30.571 18.785-4.284-2.793 30.572-18.785 4.283 2.793z" fill="#fff"/><path d="M275.64 760.069l-167.152 94.064 225.589 131.096 167.152-94.065L275.64 760.069z" fill="#F5FAFF"/><path d="M290.835 782.233l-70.522 39.689c-.766.406-1.984.406-2.75-.045l-1.127-.675c-.767-.451-.767-1.127 0-1.577l70.521-39.689c.767-.406 1.984-.406 2.751.045l1.127.676c.722.45.722 1.171 0 1.576zm14.068 8.2l-70.521 39.689c-.767.405-1.984.405-2.751-.046l-1.127-.675c-.767-.451-.767-1.126 0-1.577l70.522-39.689c.766-.405 1.984-.405 2.75.045l1.127.676c.767.45.767 1.171 0 1.577zm13.573 8.514l-142.712 80.279c-1.083.586-2.796.586-3.878-.045-1.082-.631-1.082-1.622 0-2.207l142.667-80.279c1.082-.586 2.796-.586 3.878.045 1.082.63 1.082 1.621.045 2.207zm-58.618 49.104l-70.522 39.69c-.767.405-1.984.405-2.751-.046l-1.127-.675c-.766-.451-.766-1.127 0-1.577l70.522-39.689c.767-.406 1.984-.406 2.75.045l1.128.676c.766.45.766 1.171 0 1.576zm14.113 8.2l-70.522 39.689c-.766.405-1.984.405-2.75-.045l-1.128-.676c-.766-.451-.766-1.126 0-1.577l70.522-39.644c.767-.405 1.984-.405 2.751.045l1.127.676c.722.405.722 1.126 0 1.532zm86.8-32.707l-142.667 80.279c-1.082.586-2.796.586-3.878-.045-1.082-.63-1.082-1.622 0-2.207l142.667-80.279c1.082-.586 2.796-.586 3.878.045 1.082.63 1.082 1.622 0 2.207zm84.635 49.195l-142.667 80.279c-1.082.586-2.796.586-3.878-.045-1.082-.631-1.082-1.622 0-2.208l142.667-80.279c1.083-.585 2.796-.585 3.878.045 1.037.586 1.037 1.577 0 2.208zm14.114 8.199l-142.667 80.279c-1.083.586-2.796.586-3.878-.045-1.082-.631-1.082-1.622 0-2.208l142.667-80.279c1.082-.585 2.795-.585 3.878.046 1.037.585 1.037 1.576 0 2.207zm15.105 8.785l-142.667 80.279c-1.082.585-2.796.585-3.878-.045-1.082-.631-1.082-1.622 0-2.208l142.667-80.279c1.083-.586 2.796-.586 3.878.045 1.037.586 1.082 1.577 0 2.208zM348.912 815.48l-68.989 38.833-20.155-11.713 68.989-38.833 20.155 11.713zm-68.989 36.671l65.247-36.716-16.413-9.505-65.247 36.716 16.413 9.505zm53.568 70.728l-1.758.992-65.788-38.203 1.759-.991 65.787 38.202z" fill="#BCFDE9"/><path d="M435.576 865.621l-146.77 82.577-66.689-38.743 146.77-82.577 66.689 38.743zm-146.77 80.459l143.073-80.504-62.992-36.626-143.073 80.505 62.992 36.625z" fill="#BCFDE9"/><path d="M398.377 844.267l-146.545 82.442-20.426-11.848 146.545-82.442 20.426 11.848zm-146.545 80.324l142.847-80.369-16.728-9.731-142.848 80.37 16.729 9.73zm183.699-58.745l-146.544 82.442-20.427-11.848 146.545-82.442 20.426 11.848zm-146.499 80.369l142.847-80.369-16.729-9.731-142.847 80.37 16.729 9.73z" fill="#BCFDE9"/><path d="M274.963 902.652L253.68 914.68l-2.57-1.486 21.328-12.029 2.525 1.487zm19.299 11.217l-21.328 11.984-2.525-1.487 21.328-11.983 2.525 1.486zm19.299 11.218l-21.328 11.983-2.525-1.486 21.283-11.984 2.57 1.487zm30.436-39.194l-21.328 11.984-2.57-1.442 21.328-12.028 2.57 1.486zm19.299 11.218l-21.328 11.983-2.57-1.486 21.328-11.984 2.57 1.487z" fill="#BCFDE9"/><path d="M243.67 841.069l-70.071 39.373-44.414-25.813 70.026-39.419 44.459 25.859z" fill="#42E3B4"/><path d="M282.358 842.6l32.736 95.461c.857 2.568-.496 5.406-3.066 6.307-2.57.901-5.366-.45-6.223-3.018l-32.735-95.461c-.857-2.568.496-5.406 3.066-6.307 2.525-.901 5.32.45 6.222 3.018z" fill="#1F4F5E"/><path d="M306.978 943.242l7.259 8.379c.541.631 1.624.226 1.579-.63l-.496-11.939-8.342 4.19z" fill="#1F4F5E"/><path opacity=".4" d="M350.851 899.408l86.304-51.627c.947-.586 2.435-.586 3.337 0l7.079 4.37c.045.045.09.045.135.09l71.514 44.014c.902.54.857 1.487-.09 2.027l-82.832 52.303c-.947.586-3.382 1.622-6.809-.676l-7.079-4.369c-.045-.045-.09-.045-.135-.091l-71.514-44.013c-.902-.541-.902-1.442.09-2.028z" fill="#BCFDE9"/><path d="M498.704 893.687l12.805-.631 1.308-8.289-12.806.631-1.307 8.289z" fill="#1F4F5E"/><path d="M349.002 900.354l12.806-.63 1.308-8.29-12.806.631-1.308 8.289z" fill="#000"/><path d="M429.76 818.363c1.803-1.036 4.509.181 4.779 2.118l2.616 19.236-12.671 6.262-77.195 53.384-3.337-25.318c-.18-1.441-.225-3.018 1.127-3.784l84.681-51.898z" fill="#1F4F5E"/><path d="M424.529 945.359l86.304-51.627c.947-.586.992-1.487.09-2.027l-71.514-44.014c-.902-.541-2.39-.541-3.336 0l-86.259 47.302c-.947.586-1.849 1.712-2.48 4.415l73.904 45.951c.856.586 2.344.586 3.291 0z" fill="#1F4F5E"/><path d="M349.498 870.621l10.191-6.081 73.723-44.104c1.804-1.082 3.743-.316 4.013 1.531l2.57 17.75c.226.045.451.135.632.27l71.514 44.014c.901.541.856 1.487-.091 2.027l-86.303 51.628c-.947.585-2.435.585-3.337 0l-71.514-44.014c-.406-.225-.586-.541-.631-.856l-2.66-18.516c-.226-1.351.586-2.883 1.893-3.649z" fill="#215B4A"/><path d="M350.896 893.642l71.514 44.014c.451.27 1.037.405 1.668.405 0 0 1.083.225 2.48-.901 1.398-1.081 28.092-16.803 28.092-16.803" stroke="#2A9E3E" stroke-width="1.329" stroke-miterlimit="10" stroke-linecap="round" stroke-linejoin="round"/><path d="M437.606 859.449l10.867-6.487c.766-.451.811-1.216.09-1.667l-7.485-4.595c-.767-.451-1.984-.451-2.796 0l-10.867 6.487c-.766.451-.811 1.216-.09 1.667l7.485 4.595c.767.451 2.029.451 2.796 0zm-22.14 13.245l10.867-6.487c.766-.451.812-1.217.09-1.667l-7.485-4.595c-.767-.451-1.984-.451-2.796 0l-10.866 6.487c-.767.45-.812 1.216-.091 1.667l7.485 4.595c.767.45 2.029.45 2.796 0zm-22.14 13.244l10.867-6.487c.767-.45.812-1.216.091-1.667l-7.486-4.595c-.766-.45-1.984-.45-2.795 0l-10.867 6.487c-.767.451-.812 1.217-.09 1.667l7.485 4.595c.766.451 2.029.451 2.795 0zm-22.139 13.245l10.867-6.487c.766-.451.811-1.216.09-1.667l-7.485-4.595c-.767-.451-1.984-.451-2.796 0l-10.867 6.487c-.766.451-.811 1.216-.09 1.667l7.485 4.595c.767.451 1.984.451 2.796 0zm83.508-29.237l10.867-6.488c.766-.45.811-1.216.09-1.666l-7.485-4.595c-.767-.451-1.984-.451-2.796 0l-10.866 6.487c-.767.45-.812 1.216-.091 1.667l7.485 4.595c.767.45 1.984.45 2.796 0zm-22.14 13.244l10.867-6.487c.767-.45.812-1.216.091-1.667l-7.486-4.595c-.766-.45-1.984-.45-2.795 0l-10.867 6.487c-.767.451-.812 1.217-.09 1.667l7.485 4.595c.766.496 1.984.451 2.795 0zm-22.139 13.245l10.867-6.487c.766-.451.811-1.217.09-1.667l-7.485-4.595c-.767-.451-1.984-.451-2.796 0l-10.867 6.487c-.766.451-.811 1.216-.09 1.667l7.485 4.595c.722.496 1.984.451 2.796 0zm-22.185 13.245l10.867-6.487c.767-.451.812-1.217.09-1.667l-7.485-4.595c-.766-.451-1.984-.451-2.795 0l-10.867 6.487c-.767.45-.812 1.216-.09 1.667l7.485 4.595c.766.495 2.029.45 2.795 0zm83.508-29.238l10.867-6.487c.767-.45.812-1.216.09-1.667l-7.485-4.595c-.766-.45-1.984-.45-2.795 0l-10.867 6.487c-.767.451-.812 1.217-.09 1.667l7.485 4.595c.766.496 2.029.451 2.795 0zM449.6 893.687l10.867-6.487c.766-.451.811-1.217.09-1.667l-7.485-4.595c-.767-.451-1.984-.451-2.796 0l-10.867 6.487c-.766.451-.811 1.216-.09 1.667l7.485 4.595c.767.496 2.029.496 2.796 0zm-22.14 13.245l10.867-6.488c.767-.45.812-1.216.09-1.666l-7.485-4.596c-.766-.45-1.984-.45-2.795 0l-10.867 6.488c-.767.45-.812 1.216-.09 1.667l7.485 4.595c.766.495 2.029.495 2.795 0z" fill="#2A9E3E"/><path d="M405.321 920.176l10.866-6.487c.767-.45.812-1.216.091-1.667l-7.485-4.595c-.767-.45-1.984-.45-2.796 0l-10.867 6.487c-.766.451-.812 1.217-.09 1.667l7.485 4.595c.767.496 1.984.496 2.796 0z" fill="#2DDC31"/><path d="M488.829 890.939l10.866-6.487c.767-.451.812-1.217.091-1.667l-7.485-4.595c-.767-.451-1.984-.451-2.796 0l-10.867 6.487c-.766.45-.811 1.216-.09 1.667l7.485 4.595c.767.495 1.984.495 2.796 0zm-22.14 13.245l10.867-6.487c.767-.451.812-1.217.09-1.667l-7.485-4.595c-.766-.451-1.984-.451-2.795 0l-10.867 6.487c-.767.45-.812 1.216-.091 1.667l7.486 4.595c.766.495 1.984.495 2.795 0zm-22.185 13.244l10.867-6.487c.767-.45.812-1.216.091-1.667l-7.486-4.595c-.766-.45-1.984-.45-2.795 0l-10.867 6.487c-.767.451-.812 1.217-.09 1.667l7.485 4.595c.766.496 2.029.496 2.795 0z" fill="#2A9E3E"/><path d="M422.996 930.313l9.605-5.722c1.127-.675 1.172-1.757.09-2.432l-17.496-10.767c-1.082-.676-2.885-.676-4.013.045l-9.604 5.721c-1.127.676-1.172 1.757-.09 2.433l17.495 10.767c1.082.63 2.886.63 4.013-.045z" fill="#2DDC31"/><path d="M354.639 871.567l6.448-3.874 50.952-30.454v.045l19.028-11.397c.767-.451 1.579-.136 1.714.675l1.623 11.218c.09.586-.27 1.216-.811 1.577l-7.26 4.324-50.953 30.454v-.045l-17.855 10.677c-1.398.811-2.886.225-3.112-1.171l-1.307-9.145c-.091-1.082.541-2.253 1.533-2.884z" fill="#1F4F5E"/><path d="M428.407 830.482l1.037 8.559" stroke="#22D327" stroke-width="1.329" stroke-miterlimit="10" stroke-linecap="round" stroke-linejoin="round"/><path d="M512.05 886.028s1.759-.991.091-2.027c-1.669-1.036-72.191-44.329-72.191-44.329l-2.029-14.191" stroke="#1F4F5E" stroke-width="1.329" stroke-miterlimit="10" stroke-linecap="round" stroke-linejoin="round"/><path d="M971.976 463.234s.135 22.21-6.358 31.22c-7.71 10.677-52.711-48.474-105.738-58.069-51.899-9.371-58.708-45.366-58.753-63.341 0-5.541 2.029-10.812 6.358-15.632 16.368-18.335 68.087-28.607 114.35-11.353 51.088 19.011 49.87 85.911 50.141 117.175z" fill="#000"/><path d="M949.476 621.18s-51.494-20.633-43.423-60.412c8.072-39.779 5.411-46.222 5.411-46.222l8.613 10.587s-12.31 35.319-8.297 51.222c4.419 17.479 24.574 39.239 37.696 37.662 13.121-1.532 0 7.163 0 7.163z" fill="#463757"/><path d="M852.936 338.491c-39.364 8.424 11.273 20.768-.901 59.106-3.202 10.136 22.365 41.761 27.189 50.275 15.511 27.391-2.029 26.219 30.617 64.377 9.289 10.857 6.313 40.995 8.026 57.348 5.14 50.501 91.533 101.363 131.663 77.351 22.86-1.081 22.77-42.031 11-70.638-1.93 10.497 17.41-27.886-28.04-64.061-13.62-10.812 4.28-33.923-36.751-74.603-22.771-22.57-18.172-45.501-43.828-73.747-27.461-30.183-55.101-34.824-98.975-25.408z" fill="#000"/><path d="M881.934 478.815c8.597-.57 14.896-11.135 14.069-23.597-.828-12.463-8.468-22.104-17.065-21.534-8.598.57-14.897 11.134-14.069 23.597.827 12.462 8.467 22.103 17.065 21.534z" fill="#F39592"/><path d="M883.102 456.297c1.173 5.18-2.119 10.316-4.779 10.902-2.661.585-.947-4.19-2.12-9.371-1.172-5.18-4.734-8.784-2.119-9.37 2.705-.541 7.846 2.703 9.018 7.839z" fill="#FF6C63"/><path d="M864.84 457.243s-.315-13.155 5.321-18.741" stroke="#FF5D5B" stroke-width="3.26" stroke-miterlimit="10"/><path d="M351.663 598.114L524.27 495.806c3.562-2.118 5.772-7.704 4.915-12.479l-15.511-88.118c-.857-4.775-4.419-6.938-7.981-4.82L333.13 492.652c-3.562 2.117-5.771 7.704-4.914 12.479l15.511 88.118c.811 4.775 4.419 6.937 7.936 4.865z" fill="#14DC39"/><path d="M510.247 479.948l-11.589-61.854-155.653 92.037 12.039 60.458 155.203-90.641z" fill="#BCFDE9"/><path d="M366.407 497.607l12.49 56.899m38.824-88.298l12.039 59.42m9.153-71.944l12.039 60.051m30.978-86.541l11.588 59.692m-100.958-6.713l11.543 61.313m57.942-102.128l12.129 59.376m-123.368 26.759l148.754-88.298M354.278 539.324l148.709-88.298M356.758 553.695l149.656-88.839" stroke="#22D327" stroke-width="1.228" stroke-miterlimit="10" stroke-linecap="round" stroke-linejoin="round"/><path opacity=".78" d="M507 462.739s-16.774 1.036-20.606 10.406c-3.833 9.416-6.178 9.371-12.716 9.911-6.538.541-10.867-19.011-20.065-12.569-9.244 6.488-3.607 26.084-8.703 29.238-5.095 3.153-4.013-7.073-10.641-2.793-9.424 6.081-6.448 21.398-11.859 21.759-5.411.36-8.387-3.649-15.556 1.351-6.088 4.235-3.833 12.659-10.506 16.669-22.907 13.785-18.893-22.165-50.502-12.209l9.198 46.041 155.158-90.64L507 462.739z" fill="#fff"/><path d="M510.607 464.631s-16.773 1.036-20.606 10.406c-3.833 9.416-6.178 9.371-12.716 9.911-6.538.541-10.867-19.011-20.065-12.569-9.244 6.488-3.607 26.084-8.703 29.238-5.095 3.153-5.185-6.938-11.813-2.658-9.424 6.082-5.682 19.146-10.687 21.624-5.546 2.748-8.387-3.649-15.556 1.351-6.087 4.235-3.833 12.66-10.506 16.669-22.906 13.785-18.893-22.165-50.502-12.209" stroke="#42E3B4" stroke-width="4.363" stroke-miterlimit="10" stroke-linecap="round" stroke-linejoin="round"/><path opacity=".47" d="M418.667 507.744l-29.669 18.2-4.329-21.354 29.67-18.2 4.328 21.354z" fill="#209F6D"/><path d="M419.885 502.608l-29.67 18.245-4.329-21.353 29.625-18.201 4.374 21.309z" fill="#fff"/><path d="M414.023 492.922l-22.139 13.47-.722-3.649 22.14-13.47.721 3.649zm.541 2.027l-17.991 11.038.812 4.279 17.991-11.037-.812-4.28z" fill="#209F6D"/><path d="M517.265 413.247c4.636-11.68 2.014-23.677-5.856-26.796-7.871-3.119-18.011 3.822-22.648 15.502-4.636 11.68-2.015 23.677 5.856 26.796 7.871 3.119 18.011-3.821 22.648-15.502z" fill="#34C8CC"/><path d="M497.892 409.895l6.222 5.316 6.133-14.867" stroke="#fff" stroke-width="2.456" stroke-miterlimit="10" stroke-linecap="round" stroke-linejoin="round"/><path d="M463.893 474.407c-.541 4.099-3.517 7.073-6.673 6.667-3.156-.405-5.321-4.054-4.78-8.109.541-4.099 3.517-7.073 6.674-6.667 3.156.36 5.321 4.009 4.779 8.109z" fill="#FAED00"/><path d="M969.625 926.258s63.755 17.029 112.775 41.311v-32.211c-25.66-12.118-62.95-20.407-112.775-9.1z" fill="url(#paint5_linear)"/><path d="M1082.4 833.816c-18.63-28.337-36.17-49.105-36.17-47.934.41 30.77 11.14 64.422 24.4 94.47-28-26.579-72.959-56.132-130.63-49.87 0 0 84.09 34.013 142.35 84.739v-81.405h.05z" fill="url(#paint6_linear)"/><path d="M1082.4 998.924v-37.347c-35.81-9.775-82.79-9.595-131.533 26.805 0 0 70.383-.09 131.533 10.542z" fill="url(#paint7_linear)"/><path opacity=".4" d="M184.015 1014.29l23.222-1.94 56.589-34.239-61.188-36.806-18.623 72.985z" fill="#A8C4E5"/><path d="M184.015 1014.29l65.517-37.801v-3.829l-92.03-49.24-65.517 33.923v3.829l92.03 53.118z" fill="#07317D"/><path d="M184.015 1010.46l65.517-37.8-92.03-53.114-65.517 37.797 92.03 53.117z" fill="#21A038"/><path d="M184.015 1004.33l61.775-35.635v-8.785l-86.755-41.22-61.73 26.804v8.785l86.71 50.051z" fill="#C9E6DD"/><path d="M184.015 995.545l61.775-35.634-86.755-50.006-61.73 35.59 86.71 50.05z" fill="#F5FAFF"/><path d="M157.773 922.204l3.066-1.757c1.262-.721 1.127-2.027-.361-2.883-1.488-.856-3.743-.946-5.005-.226l-3.066 1.757c-1.263.721-1.128 2.028.36 2.883 1.443.856 3.743.947 5.006.226zm-12.761 7.343l3.066-1.757c1.262-.721 1.127-2.027-.361-2.883-1.488-.856-3.742-.946-5.005-.225l-3.066 1.757c-1.263.72-1.127 2.027.361 2.883 1.443.856 3.742.946 5.005.225zm-12.761 7.343l3.066-1.757c1.263-.721 1.128-2.027-.36-2.883-1.488-.856-3.743-.946-5.005-.225l-3.067 1.757c-1.262.72-1.127 2.027.361 2.883 1.488.856 3.743.946 5.005.225zm-12.761 7.343l3.067-1.757c1.262-.721 1.127-2.027-.361-2.883-1.488-.856-3.743-.946-5.005-.225l-3.066 1.757c-1.263.721-1.128 2.027.36 2.883 1.488.856 3.743.946 5.005.225z" fill="#C9E6DD"/><path d="M138.609 921.753c-.225-.45-.541-1.486-.721-1.937-.902-2.748-.677-5.406.631-7.208 1.127-1.532 2.976-2.388 5.185-2.388 5.186 0 10.867 4.505 12.716 10.001.09.316.451.496.766.361a.569.569 0 00.361-.766c-1.984-5.947-8.161-10.812-13.798-10.812-2.615 0-4.779 1.036-6.132 2.883-1.533 2.118-1.849 5.136-.812 8.289.181.496.632 1.622.857 2.118l.947-.541z" fill="#07317D"/><path d="M125.848 929.051c-.225-.45-.541-1.486-.721-1.937-.902-2.748-.677-5.406.631-7.208 1.127-1.531 2.976-2.387 5.185-2.387 5.186 0 10.867 4.505 12.716 10.001a.57.57 0 00.767.36.568.568 0 00.36-.766c-1.984-5.946-8.161-10.812-13.797-10.812-2.616 0-4.78 1.036-6.133 2.883-1.533 2.118-1.848 5.136-.811 8.29.18.495.631 1.621.856 2.117l.947-.541z" fill="#07317D"/><path d="M113.088 936.394c-.226-.45-.541-1.486-.722-1.937-.902-2.748-.676-5.406.631-7.208 1.128-1.531 2.976-2.387 5.186-2.387 5.185 0 10.867 4.505 12.715 10.001a.57.57 0 00.767.36.568.568 0 00.361-.766c-1.984-5.946-8.162-10.812-13.798-10.812-2.615 0-4.78 1.036-6.132 2.883-1.533 2.118-1.849 5.136-.812 8.29.18.495.631 1.622.857 2.117l.947-.541z" fill="#07317D"/><path d="M100.327 943.738c-.226-.451-.541-1.487-.722-1.937-.901-2.748-.676-5.406.632-7.208 1.127-1.532 2.976-2.388 5.185-2.388 5.186 0 10.867 4.505 12.716 10.001.09.315.451.496.766.36a.568.568 0 00.361-.765c-1.984-5.947-8.161-10.812-13.798-10.812-2.615 0-4.779 1.036-6.132 2.883-1.533 2.117-1.849 5.135-.812 8.289.18.495.632 1.622.857 2.117l.947-.54z" fill="#07317D"/><path d="M174.231 986.4l55.732-32.706m-75.166 21.488l55.551-32.571m-74.805 21.264l55.146-32.346m-73.814 20.678l54.65-32.076" stroke="#C9E6DD" stroke-width="2" stroke-miterlimit="10" stroke-linecap="round" stroke-linejoin="round"/><path d="M769.338-3h-5.276v115.824h5.276V-3z" fill="#EBEFFF"/><path d="M774.021 114.208a7.3 7.3 0 00-7.137-7.461c-4.033-.091-7.377 3.101-7.468 7.131a7.3 7.3 0 007.137 7.461c4.033.091 7.377-3.101 7.468-7.131z" fill="#EBEFFF"/></g><defs><linearGradient id="paint0_linear" x1="854.086" y1="-8" x2="854" y2="348" gradientUnits="userSpaceOnUse"><stop stop-color="#EEFAD2"/><stop offset="1" stop-color="#EEFAD2" stop-opacity="0"/></linearGradient><linearGradient id="paint1_linear" x1="850.95" y1="489.017" x2="868.275" y2="503.647" gradientUnits="userSpaceOnUse"><stop stop-color="#F9A098"/><stop offset=".925" stop-color="#E88087"/></linearGradient><linearGradient id="paint2_linear" x1="612" y1="535" x2="437" y2="817" gradientUnits="userSpaceOnUse"><stop stop-color="#C6CBD1"/><stop offset="1" stop-color="#E6EBF5"/></linearGradient><linearGradient id="paint3_linear" x1="913.719" y1="525.608" x2="913.719" y2="606.866" gradientUnits="userSpaceOnUse"><stop stop-color="#BBC0C5"/><stop offset="1" stop-color="#E0E5EE"/></linearGradient><linearGradient id="paint4_linear" x1="58.13" y1="867.265" x2="58.13" y2="940.066" gradientUnits="userSpaceOnUse"><stop stop-color="#A4FD93"/><stop offset="1" stop-color="#FDFCD1"/></linearGradient><linearGradient id="paint5_linear" x1="1026.01" y1="920.899" x2="1026.01" y2="967.569" gradientUnits="userSpaceOnUse"><stop stop-color="#22D327"/><stop offset="1" stop-color="#27A463"/></linearGradient><linearGradient id="paint6_linear" x1="1011.2" y1="785.835" x2="1011.2" y2="915.221" gradientUnits="userSpaceOnUse"><stop stop-color="#22D327"/><stop offset="1" stop-color="#27A463"/></linearGradient><linearGradient id="paint7_linear" x1="1016.63" y1="956.091" x2="1016.63" y2="998.924" gradientUnits="userSpaceOnUse"><stop stop-color="#22D327"/><stop offset="1" stop-color="#27A463"/></linearGradient><clipPath id="clip0"><path fill="#fff" transform="translate(0 -5)" d="M0 0h1138v1041H0z"/></clipPath></defs></svg>