<svg width="193" height="325" viewBox="0 0 193 325" fill="none" xmlns="http://www.w3.org/2000/svg"><path d="M181.179 322.556H71.681c-6.498 0-11.752-5.259-11.752-11.762V146.585c0-6.503 5.254-11.763 11.752-11.763h109.498c6.497 0 11.752 5.26 11.752 11.763v164.209c0 6.503-5.255 11.762-11.752 11.762z" fill="#9CF392"/><path d="M181.179 134.858H71.681c-6.498 0-11.752 5.259-11.752 11.762v44.455H192.93v-44.49c0-6.468-5.255-11.727-11.752-11.727z" fill="#209F6D"/><path d="M177.416 148.113H75.445v26.722h101.971v-26.722z" fill="#9CF392"/><path d="M88.723 228.707H73.136a3.054 3.054 0 01-3.053-3.056V214.6c0-1.67 1.35-3.056 3.053-3.056h15.587a3.054 3.054 0 013.053 3.056v11.051c-.035 1.671-1.384 3.056-3.053 3.056z" fill="#21A038"/><path d="M88.722 203.796H73.136a3.054 3.054 0 01-3.054-3.056c0-1.67 1.35-3.056 3.054-3.056h15.587a3.054 3.054 0 013.053 3.056c-.036 1.706-1.385 3.056-3.053 3.056zm30.323.001h-15.587a3.055 3.055 0 01-3.054-3.056 3.055 3.055 0 013.054-3.056h15.587a3.054 3.054 0 013.053 3.056 3.032 3.032 0 01-3.053 3.056zm30.356 0h-15.587a3.054 3.054 0 01-3.053-3.056 3.054 3.054 0 013.053-3.056h15.587a3.055 3.055 0 010 6.112zm30.359 0h-15.587a3.055 3.055 0 01-3.054-3.056 3.055 3.055 0 013.054-3.056h15.587a3.054 3.054 0 013.053 3.056c-.035 1.705-1.385 3.056-3.053 3.056z" fill="#22D327"/><path d="M88.723 253.546H73.136a3.054 3.054 0 01-3.053-3.056v-11.051a3.054 3.054 0 013.053-3.056h15.587a3.054 3.054 0 013.053 3.056v11.051c-.035 1.67-1.384 3.056-3.053 3.056zm0 24.84H73.136a3.055 3.055 0 01-3.053-3.056v-11.052c0-1.67 1.35-3.056 3.053-3.056h15.587a3.055 3.055 0 013.053 3.056v11.052c-.035 1.67-1.384 3.056-3.053 3.056zm0 24.839H73.136a3.054 3.054 0 01-3.053-3.056v-11.051c0-1.67 1.35-3.056 3.053-3.056h15.587a3.054 3.054 0 013.053 3.056v11.051c-.035 1.671-1.384 3.056-3.053 3.056zm30.322-74.518h-15.587a3.055 3.055 0 01-3.054-3.056V214.6c0-1.67 1.35-3.056 3.054-3.056h15.587a3.054 3.054 0 013.053 3.056v11.051a3.054 3.054 0 01-3.053 3.056zm0 24.84h-15.586a3.055 3.055 0 01-3.054-3.056V239.44a3.054 3.054 0 013.054-3.056h15.586a3.055 3.055 0 013.054 3.056v11.051a3.055 3.055 0 01-3.054 3.056zm0 24.839h-15.586a3.055 3.055 0 01-3.054-3.056v-11.052a3.055 3.055 0 013.054-3.056h15.586a3.055 3.055 0 013.054 3.056v11.052a3.055 3.055 0 01-3.054 3.056zm0 24.84h-15.586a3.055 3.055 0 01-3.054-3.056v-11.052a3.055 3.055 0 013.054-3.056h15.586a3.055 3.055 0 013.054 3.056v11.052a3.055 3.055 0 01-3.054 3.056zm30.356-74.519h-15.586a3.055 3.055 0 01-3.054-3.056V214.6a3.055 3.055 0 013.054-3.057h15.586a3.055 3.055 0 013.054 3.057v11.051c0 1.67-1.385 3.056-3.054 3.056zm0 24.84h-15.586a3.055 3.055 0 01-3.054-3.056v-11.052a3.055 3.055 0 013.054-3.056h15.586a3.055 3.055 0 013.054 3.056v11.052c0 1.67-1.385 3.056-3.054 3.056zm0 24.839h-15.586a3.055 3.055 0 01-3.054-3.056v-11.052a3.055 3.055 0 013.054-3.056h15.586a3.055 3.055 0 013.054 3.056v11.052c0 1.67-1.385 3.056-3.054 3.056zm0 24.839h-15.586a3.055 3.055 0 01-3.054-3.056v-11.051a3.054 3.054 0 013.054-3.056h15.586a3.055 3.055 0 013.054 3.056v11.051c0 1.67-1.385 3.056-3.054 3.056z" fill="#21A038"/><path d="M179.76 228.707h-15.587a3.055 3.055 0 01-3.054-3.056V214.6c0-1.67 1.35-3.056 3.054-3.056h15.587a3.054 3.054 0 013.053 3.056v11.051c-.035 1.671-1.385 3.056-3.053 3.056zm.001 24.84h-15.587a3.055 3.055 0 01-3.054-3.056V239.44a3.054 3.054 0 013.054-3.056h15.587a3.054 3.054 0 013.053 3.056v11.051c-.036 1.67-1.385 3.056-3.053 3.056z" fill="#333F48"/><path d="M179.761 278.386h-15.587a3.055 3.055 0 01-3.054-3.056v-11.052a3.055 3.055 0 013.054-3.056h15.587a3.055 3.055 0 013.053 3.056v11.052c-.036 1.67-1.385 3.056-3.053 3.056z" fill="#21A038"/><path d="M179.761 303.225h-15.587a3.055 3.055 0 01-3.054-3.056v-35.891a3.055 3.055 0 013.054-3.056h15.587a3.055 3.055 0 013.053 3.056v35.891c-.036 1.671-1.385 3.056-3.053 3.056z" fill="#209F6D"/><path d="M165.023 278.386h13.847m-13.847 7.675h13.847" stroke="#9CF392" stroke-width="5.052" stroke-miterlimit="10" stroke-linecap="round"/><path d="M156.466 159.2c-.568-.604-.852-1.457-.852-2.559v-1.706c0-1.101.284-1.954.852-2.558.568-.604 1.385-.924 2.414-.924 1.03 0 1.847.32 2.415.924.568.604.852 1.457.852 2.594v1.67c0 1.102-.284 1.955-.852 2.559-.568.604-1.385.924-2.415.924-1.029 0-1.846-.32-2.414-.924zm11.362-7.534h2.414l-10.687 19.687h-2.415l10.688-19.687zm-8.202 6.006c.177-.214.284-.498.284-.889v-1.99c0-.355-.107-.639-.284-.853-.178-.213-.426-.284-.746-.284-.319 0-.568.107-.745.284-.178.214-.249.498-.249.853v1.99c0 .391.071.675.249.889.177.213.426.284.745.284.32 0 .568-.107.746-.284zm6.639 13.006c-.568-.605-.852-1.457-.852-2.559v-1.706c0-1.101.284-1.954.852-2.558.568-.604 1.385-.924 2.415-.924 1.029 0 1.846.32 2.414.924.568.604.852 1.457.852 2.594v1.67c0 1.102-.284 1.954-.852 2.559-.568.604-1.385.924-2.414.924-1.065-.036-1.847-.32-2.415-.924zm3.16-1.564c.178-.213.284-.497.284-.888v-1.99c0-.356-.106-.64-.284-.853-.177-.213-.426-.284-.745-.284-.32 0-.568.106-.746.284-.177.213-.248.497-.248.853v1.99c0 .391.071.675.248.888.178.213.426.284.746.284.319.036.568-.071.745-.284z" fill="#BCFDE9"/><path d="M37.558 160.301c-8.237.64-16.474 1.28-24.711 1.777-2.486.142-4.971.32-7.456.462.32 4.691.852 9.63 1.704 14.889 8.592 53.055 21.729 140.259 21.729 140.259h4.58l11.397-157.955c-2.414.177-4.828.391-7.243.568z" fill="#FFBDAC"/><path d="M34.932 317.688h-7.456v1.812h7.456v-1.812z" fill="#BCFDE9"/><path d="M34.862 317.688s3.23 3.127 0 6.361H15.653c-.106-.391-.497-2.239.604-4.087l.035-.035c.853-1.422 2.45-2.203 4.084-2.203h7.775c.036-.036 3.338 1.918 6.71-.036z" fill="#209F6D"/><path d="M37.558 171.921c-8.237.639-16.474 1.279-24.711 1.777-2.486.142-4.971.319-7.456.462.32 4.69.852 9.63 1.704 14.889 1.278 7.818 2.627 16.382 4.048 25.301 9.23 2.843 18.64 4.584 27.374 6.219.923.178 1.81.32 2.698.462l3.586-49.679c-2.414.214-4.828.391-7.243.569z" fill="#FFA791"/><path d="M46.968 159.555c3.515 52.166 7.279 106.571 10.723 158.133h4.544C73.81 249.637 80.84 192.07 83.503 157.6c-12.178.178-24.357 1.031-36.535 1.955z" fill="#FFBDAC"/><path d="M56.218 319.491h7.456v-1.812h-7.456v1.812z" fill="#BCFDE9"/><path d="M56.236 317.688s-3.231 3.127 0 6.361h19.208c.107-.391.497-2.239-.603-4.087l-.036-.035c-.852-1.422-2.45-2.203-4.083-2.203h-7.776c0-.036-3.337 1.918-6.71-.036z" fill="#209F6D"/><path d="M46.968 159.555c1.136 16.879 2.308 33.972 3.48 51.135a166.461 166.461 0 0027.516.711c2.627-21.286 4.474-39.515 5.574-53.801-12.213.178-24.392 1.031-36.57 1.955z" fill="#FFA791"/><path d="M59.111 113.075a7.15 7.15 0 00-2.52-.391 6.605 6.605 0 00-3.019.888c-5.077 0-10.616-.213-16.545-.746a183.461 183.461 0 01-15.906-2.168c-6.782 13.752-14.77 33.759-18.676 58.918a203.65 203.65 0 00-1.633 49.643c13.101 3.625 26.913 4.336 39.304 4.94 17.398.853 32.63-1.209 44.807-4.016 2.521-18.301 2.77-33.936 2.344-45.876 0 0-.817-23.205-6.178-44.455-1.456-5.828-3.586-10.91-3.586-10.91a82.851 82.851 0 00-3.16-6.645c-5.077.285-10.155.569-15.232.818z" fill="#1F4F5E"/><path d="M26.803 34.15c-1.065-1.954-4.296-8.35-2.628-16.24C26.235 8.031 35.111.071 43.065 0c10.544-.07 22.9 13.646 21.16 33.404-12.498.248-24.96.497-37.422.746z" fill="#C9E6DD"/><path d="M74.378 112.292a235.656 235.656 0 00-2.095-48.044 231.016 231.016 0 00-3.515-18.691c-.177-.818-.781-1.457-1.598-1.706-7.207-2.203-14.38-4.442-21.587-6.645l-18.569 5.579c-2.166 10.163-4.012 21.748-5.148 34.505a292.22 292.22 0 00-.994 33.581 122.088 122.088 0 0023.362 3.554c12 .639 22.262-.569 30.144-2.133z" fill="#9CF392"/><path d="M74.38 112.293a235.667 235.667 0 00-2.095-48.044 249.92 249.92 0 00-3.55-18.905c-.143-.675-.178-3.163-.817-3.376-4.545-1.386-9.551-.817-14.06-2.239-.888.782-2.024 2.026-2.592 3.767-1.634 5.01 2.876 9.737 5.36 14.498 2.735 5.224 1.883 8.316 1.172 26.439-.284 6.823-.568 17.093-.532 30.027 2.52-.142 5.184-.355 7.953-.675a145.39 145.39 0 009.16-1.492z" fill="#9CF392"/><path d="M31.276 17.946a3.16 3.16 0 012.84-3.482 3.159 3.159 0 013.48 2.842 3.16 3.16 0 01-2.84 3.483 3.184 3.184 0 01-3.48-2.843z" fill="#FFBDAC"/><path d="M32.661 17.803c-.07-.995.426-1.848 1.1-1.954.675-.107 1.314.604 1.386 1.599.07.995-.426 1.848-1.101 1.954-.71.107-1.314-.604-1.385-1.599z" fill="#FFA791"/><path d="M39.085 34.505l-.39-12.402 12.284-.853.426 13.86c.32 2.487 3.409 4.406 5.823 5.152l4.332.64c-.39 3.837-4.083 13.361-7.847 14-7.066 1.209-16.084-10.589-20.167-14.214 2.663-.781 5.432-3.447 5.539-6.183z" fill="#FFBDAC"/><path d="M51.157 26.794l-.177-5.544-12.285.853.249 8.635c1.03.676 2.165 1.138 3.444 1.244 3.48.285 6.746-1.99 8.77-5.188z" fill="#FFA791"/><path d="M38.306 8.813c-.426.32-3.764 2.914-4.51 7.285-.993 5.792 2.699 13.503 8.557 14.036 5.575.498 10.652-5.757 10.971-11.62.285-5.224-3.053-11.194-7.846-11.975-3.338-.605-6.25 1.599-7.172 2.274z" fill="#FFBDAC"/><path d="M56.058 17.448c.107-1.741-1.207-3.27-2.947-3.376-1.74-.106-3.266 1.208-3.372 2.95-.107 1.74 1.207 3.269 2.946 3.376 1.776.142 3.267-1.173 3.373-2.95z" fill="#FFBDAC"/><path d="M55.312 17.342c.035-.995-.497-1.848-1.172-1.92-.675-.07-1.278.676-1.314 1.671-.035.995.498 1.848 1.172 1.919.675.071 1.278-.675 1.314-1.67z" fill="#FFA791"/><path d="M34.01 4.016c-.959 2.594 5.006 6.858 5.61 7.249 5.112 3.553 12.888 5.26 14.77 2.558 1.384-1.99-.604-6.04-2.876-8.35C46.046-.107 35.146.924 34.01 4.016z" fill="#C9E6DD"/><path d="M26.945 307.347l1.74 10.554h5.538l.39-10.554h-7.668zm37.385 0l-1.74 10.554h-5.575l-.39-10.554h7.704z" fill="#BCFDE9"/><path d="M27.796 71.569a18.33 18.33 0 007.705 2.132 19.049 19.049 0 006.71-.888M70.01 71.32a18.331 18.331 0 01-7.705 2.132 19.048 19.048 0 01-6.71-.888" stroke="#FFBDAC" stroke-width="1.27" stroke-miterlimit="10" stroke-linecap="round"/><path d="M67.811 42.927s21.161 12.65 22.617 58.314c.071 1.812-1.42 3.304-3.23 3.269-3.942-.071-12.037-1.102-27.198-5.9l.675-4.76 16.971-2.737a170.256 170.256 0 01-5.396-17.839c-2.663-11.265-3.942-21.534-4.439-30.347zm-40.651 0S5.678 55.79 4.506 102.307a2.107 2.107 0 002.06 2.167c3.372.107 11.503-.533 28.404-5.863l-.675-4.762-16.971-2.736a112.826 112.826 0 006-17.164c3.16-11.975 3.905-22.671 3.834-31.022z" fill="#FFBDAC"/><path d="M30.39 93.352s-.391 5.26 7.527 7.285c7.882 2.025 4.615-2.879 4.615-2.879s-1.74.356-8.663-3.873l-3.48-.533z" fill="#FFBDAC"/><path d="M63.63 94.202c8.278-8.285 8.278-21.718 0-30.002-8.278-8.285-21.699-8.285-29.976 0-8.278 8.284-8.278 21.717 0 30.002 8.277 8.284 21.698 8.284 29.976 0z" fill="#FAED00"/><path d="M55.693 94.657c8.525-3.9 12.277-13.978 8.38-22.51-3.896-8.532-13.965-12.287-22.49-8.388-8.525 3.9-12.277 13.978-8.38 22.51 3.896 8.532 13.965 12.288 22.49 8.388z" fill="#E8DC00"/><path d="M46.681 96.124a17.127 17.127 0 01-5.965-1.847C32.408 89.906 29.213 79.6 33.58 71.284c4.367-8.315 14.663-11.513 22.972-7.143 8.308 4.371 11.503 14.677 7.136 22.992-2.13 4.015-5.68 7-10.012 8.35a17.983 17.983 0 01-6.995.64zm3.55-30.809a13.986 13.986 0 00-13.953 7.356c-3.586 6.823-.958 15.28 5.859 18.87 3.302 1.74 7.065 2.096 10.616.959a13.838 13.838 0 008.201-6.823c3.586-6.823.959-15.28-5.858-18.87a15.118 15.118 0 00-4.864-1.492z" fill="#E8DC00"/><path d="M53.15 100.992s-2.946-.818-1.562-2.523c1.385-1.706 5.326-.924 5.326-.924l1.03 1.492-.64.96-4.154.995zm-11.044 0s2.947-.818 1.563-2.523c-1.385-1.706-5.326-.924-5.326-.924l-1.03 1.492.64.96 4.153.995zm-11.716-7.64c0-.782.603-1.386 1.384-1.386.781 0 1.385.604 1.385 1.386 0 .781-.604 1.386-1.385 1.386a1.41 1.41 0 01-1.385-1.386z" fill="#FFBDAC"/><path d="M66.605 93.387s.426 5.26-8.628 7.285c-9.053 2.025-5.29-2.879-5.29-2.879s1.988.356 9.942-3.873l3.976-.533z" fill="#FFBDAC"/><path d="M62.097 93.423c0-.782.604-1.386 1.385-1.386s1.385.604 1.385 1.386c0 .782-.604 1.386-1.385 1.386s-1.385-.64-1.385-1.386z" fill="#FFBDAC"/><path d="M70.436 74.944c-.213-.781-.426-1.599-.64-2.416-2.982-11.3-1.313-21.712-1.987-30.596 0 0 13.314 6.823 20.415 29.672l-17.788 3.34zm-44.7.889c.177-.817.39-1.599.568-2.416 2.521-11.407.426-21.748.746-30.668 0 0-13.03 7.356-19.209 30.454l17.895 2.63z" fill="#9CF392"/></svg>