<svg width="294" height="239" viewBox="0 0 294 239" fill="none" xmlns="http://www.w3.org/2000/svg"><path d="M205.273 167.877c-1.445 0-2.913-.114-4.427-.343a1.425 1.425 0 11.435-2.817c5.941.939 11.47-.206 15.553-3.206 3.28-2.405 5.344-5.772 5.941-9.757a1.41 1.41 0 011.628-1.191c.78.115 1.331.848 1.193 1.626-.711 4.672-3.234 8.818-7.088 11.635-3.601 2.656-8.212 4.053-13.235 4.053z" fill="url(#paint0_linear)"/><path d="M49.477 91.544c-1.215-4.03-5.23-21.597-2.431-22.284 2.798-.687 18.259 13.719 18.259 13.719l-15.828 8.565z" fill="#BCFDE9"/><path d="M65.304 82.956S49.844 68.55 47.045 69.237c.642.87 7.18 11.818 10.735 17.795l7.524-4.076z" fill="#209F6D"/><path d="M191.052 198.178c6.721-6.802 11.285-15.849 13.097-27.621 5.987-39.048-19.658-82.31-67.759-94.999-47.596-12.55-81.43 1.81-108.29 39.896-3.625 5.153-13.855 8.383-20.095 7.444l-3.739-.573L0 150.151l.275.046c11.836 1.809 22.02 9.07 27.893 19.49 2.753 4.878 6.079 9.321 9.91 13.375h-.024c13.947 14.703 18.878 29.956 17.525 38.797l17.938 2.748c.55-3.596 4.266-15.482 13.58-15.024a152.826 152.826 0 0014.634 2.931c9.84 1.512 19.382 2.497 28.443 2.795 15.621 1.626 13.556 16.352 13.006 19.948l17.937 2.748c1.285-8.405 7.272-18.78 26.861-37.01a48.256 48.256 0 002.982-2.749c.046-.045.069-.068.092-.068z" fill="url(#paint1_linear)"/><path d="M50.787 115.202c2.294-2.863 3.212-5.909 2.087-6.825-1.146-.916-3.922.664-6.216 3.504-2.294 2.863-3.211 5.909-2.087 6.825 1.147.916 3.945-.641 6.216-3.504z" fill="#333F48"/><path d="M63.307 106.11c-2.798-2.497 7.547-28.124 13.075-26.132 5.024 1.81 18.603 32.544 12.524 37.079-6.055 4.558-20.438-6.298-25.599-10.947z" fill="#C9E6DD"/><path d="M78.999 82.405c-1.514-1.694-1.147 1.81-.046 4.1 1.1 2.29 5.253 19.032 4.519 24.07-.39 2.726-2.225 5.566-3.969 6.23 3.693 1.488 7.134 1.946 9.405.252 5.184-3.871-3.991-26.933-9.91-34.652z" fill="#21A038"/><path d="M255.761 230.241c.895-.046 2.042.87 2.248 1.9 1.239-.068 1.56-.091 1.606-.091 0 0 1.422-2.748.39-6.138-.642-2.13-1.17-1.58-1.697-.985-1.216 1.122-6.423 1.764-6.928.023-1.33.275-14.978 5.061-14.91 6.344.115 2.084 1.744 1.97 2.868 1.901 13.097-.733 11.331-1.443 16.423-2.954z" fill="#1F4F5E"/><path d="M252.666 219.591c.344-1.993 4.977-3.458 5.39 0 .275 2.199.597 4.306.895 4.924-1.055 1.718-12.96 5.497-15.071 3.046 1.331-.824 9.887-2.359 8.786-7.97z" fill="#F7D3C9"/><path d="M289.228 230.24c.894-.046 2.041.87 2.248 1.9 1.238-.068 1.559-.091 1.605-.091 0 0 1.422-2.748.39-6.138-.642-2.13-1.17-1.58-1.697-.985-1.216 1.122-6.423 1.764-6.928.023-1.33.275-14.978 5.062-14.909 6.344.114 2.084 1.743 1.97 2.867 1.901 13.121-.733 11.331-1.443 16.424-2.954z" fill="#1F4F5E"/><path d="M284.891 219.453c.344-1.992 5.23-3.389 5.964 0 .344 1.535 1.261 4.443 1.582 5.061-1.055 1.718-12.96 5.497-15.07 3.047 1.308-.825 8.785-2.291 7.524-8.108z" fill="#F7D3C9"/><path d="M281.887 90.604c-3.854 19.811-20.278 47.065-26.953 71.822 3.854 16.879 2.019 29.361 3.808 57.142h-6.514c-4.152-15.322-11.859-39.141-16.172-61.035-2.752-14.016 4.634-43.446 13.281-69.898 6.263-.046 32.55 1.97 32.55 1.97z" fill="#2A9E3E"/><path d="M282.598 90.261c4.771 24.162 1.33 36.712-4.726 61.493 6.125 15.528 9.359 37.857 12.983 67.699h-6.514c-7.524-18.322-14.772-35.544-25.829-62.088-3.853-9.276-4.862-31.697-2.454-65.913 7.226.435 26.54-1.191 26.54-1.191z" fill="#22D327"/><path d="M245.987 39.167c2.661-3.413-3.189-10.513-4.702-13.009-2.042-3.344-8.304-21.734-8.304-21.734-6.469 8.588-9.061 27.597-.505 34.262a8.84 8.84 0 00-2.339 6.435c.229 4.901 4.404 8.703 9.313 8.474 4.908-.229 8.716-4.397 8.487-9.298a8.775 8.775 0 00-1.95-5.13z" fill="#1F4F5E"/><path d="M256.541 43.311c1.399-3.801-2.294-9.16-6.331-9.252-4.037-.092-8.098 2.038-10.506 4.855-10.873 22.17-17.731 31.972-43.789 43.056 0 0 1.216 4.512 1.652 6.642 41.655-11.222 54.294-32.567 58.974-45.3z" fill="#FAED00"/><path d="M283.309 91.43c-14.933 5.06-36.609 1.167-36.609 1.167 8.212-27.712-11.263-23.59-9.313-37.926 1.583-11.703 1.147-14.428 3.509-18.253 6.652-10.787 12.135-9.94 21.379-3.71 12.203 8.222 19.268 44.224 21.034 58.721z" fill="url(#paint2_linear)"/><path d="M184.929 135.14a4.666 4.666 0 01-3.555-2.703c-1.629-3.687-3.647-7.306-5.964-10.741-9.932-14.703-25.53-25.468-43.881-30.323a118.545 118.545 0 00-8.624-1.97 4.603 4.603 0 01-3.67-5.427c.481-2.52 2.936-4.168 5.436-3.665 3.005.573 6.124 1.283 9.244 2.107 20.53 5.405 38.008 17.52 49.225 34.102 2.615 3.893 4.886 7.97 6.744 12.184 1.032 2.336-.023 5.084-2.363 6.115-.848.343-1.743.458-2.592.321z" fill="#333F48"/><path d="M143.453 52.619c8.157-20.065 31.062-29.737 51.158-21.593 20.096 8.144 29.783 31.014 21.626 51.078-8.157 20.064-31.062 29.737-51.158 21.575-20.113-8.127-29.783-30.996-21.626-51.06z" fill="#E8DC00"/><path d="M147.233 54.146c-7.293 17.96 1.386 38.492 19.375 45.774 17.989 7.281 38.553-1.385 45.846-19.345 7.293-17.961-1.387-38.493-19.376-45.775-17.989-7.299-38.553 1.385-45.845 19.346z" fill="#E8DC00"/><path d="M149.934 55.243c-6.699 16.468 1.278 35.292 17.773 41.98 16.494 6.688 35.365-1.276 42.046-17.745 6.699-16.469-1.278-35.31-17.773-41.998-16.494-6.67-35.347 1.294-42.046 17.763z" fill="#FAED00"/><path d="M217.299 92.07c-1.101.505-1.445 1.215-3.624.848-2.179-.366-2.936-.801-3.968-.939-1.033-.137-4.06-.847-4.083-.32 0 .503 3.44 1.649 3.303 2.015-.138.344-9.267 2.267-8.097 3.687 1.169 1.443 5.161 4.054 9.725 3.069 3.051-.664 5.46-2.725 7.432-2.885 1.95-1.878 1.285-4.169-.688-5.474z" fill="#FFBDAC"/><path d="M266.592 43.907c.207-4.054-4.908-8.085-8.785-6.985-3.876 1.099-8.602 4.19-10.047 12.756-3.739 22.376-12.134 32.315-33.352 42.278 0 0 1.652 4.947 2.133 7.077 41.427-12.047 49.317-41.568 50.051-55.126z" fill="#E8DC00"/><path d="M252.871 30.234c-2.133-3.962-2.019-8.039-1.491-10.833 0 0 1.835-6.94-.39-12.482-2.821-7.077-14.795-4.603-17.41-1.74-3.234 4.03-2.477 7.97-1.537 13.237 0 0-.275 5.337-.183 5.657.114.481 1.491-.091 1.651.092.138.206.711 3.137 1.996 4.03 1.284.87 3.945-.434 4.977-.206 1.606.367 3.579 1.168 2.661 5.222-1.972 6.092 5.551 4.077 9.726-2.977z" fill="#FFBDAC"/><path d="M282.371 32.89a8.105 8.105 0 00.069-4.442 8.161 8.161 0 00-8.074-6.023h-.321c-4.611.274-14.13-2.428-17.64-10.055-4.06-8.794-7.982-12.87-14.221-12.32-6.285.527-10.231 4.077-10.231 7.535 1.721 9.092 5.23 10.466 8.9 9.78 3.28-.62 5.46 1.373 5.391 4.076-.069 2.382 2.316 6.092 4.152 8.176-1.996 3.435-2.019 11.772 3.417 14.91 3.693 2.106 8.097 1.648 11.148-1.123.069.619.161 1.214.321 1.832 1.629 6 7.822 9.574 13.832 7.947 6.01-1.626 9.588-7.81 7.96-13.81-.734-2.77-2.478-5.015-4.703-6.481z" fill="#1F4F5E"/><defs><linearGradient id="paint0_linear" x1="212.627" y1="150.542" x2="212.627" y2="167.877" gradientUnits="userSpaceOnUse"><stop stop-color="#FAED00"/><stop offset="1" stop-color="#F8D230"/></linearGradient><linearGradient id="paint1_linear" x1="102.504" y1="71.127" x2="102.504" y2="238.005" gradientUnits="userSpaceOnUse"><stop stop-color="#22CF2B"/><stop offset="1" stop-color="#28A167"/></linearGradient><linearGradient id="paint2_linear" x1="260.279" y1="28.136" x2="260.279" y2="94.028" gradientUnits="userSpaceOnUse"><stop stop-color="#FAED00"/><stop offset="1" stop-color="#F8D230"/></linearGradient></defs></svg>