<svg width="270" height="267" viewBox="0 0 270 267" fill="none" xmlns="http://www.w3.org/2000/svg"><path d="M218.947 138.767s2.834-.097 4.921-.705c2.143-.622 3.774-2.805 5.474-2.681 3.581.263 10.382-.843 9.705.415-.678 1.257-4.783.939-5.267 1.686-.484.746 5.847 2.653 7.686 2.998 1.838.332 8.681 1.106 8.446 2.018-.235.912-9.359 5.154-14.75 4.021s-15.067-3.068-15.067-3.068l-1.148-4.684z" fill="#FFBDAC"/><path d="M144.106 2.323C136.185-1.781 129.84.803 129.84.803c-24.246-2.847-31.324 25.412-30.992 35.14.318 9.728 2.737 17.48-8.722 27.554-13.658 12.008-10.478 27.872-3.4 33.483 3.068 2.431 7.077 4.269 11.334 5.651 5.267 1.714 10.879 2.736 15.51 3.344 2.558.332 4.811.539 6.525.677.276.014.539.042.802.056a53.6 53.6 0 002.778.138c.194-10.447 4.811-15.78 10.575-18.185a19.983 19.983 0 014.161-1.23c3.94-.76 8.045-.511 11.446.152 4.866.953 8.294 2.75 7.796 3.717 2.82.677 5.308.954 7.479.87 3.179-.11 5.681-.994 7.616-2.473 17.777-13.708-13.408-79.47-28.642-87.374z" fill="#1F4F5E"/><path d="M145.806 67.022s18.289 2.611 24.62 11.165c8.004 10.806 15.869 41.276 21.592 46.734 5.723 5.458 29.665 13.597 29.665 13.597s.885 5.251-1.866 6.854c-4.645 2.709-28.117 1.534-41.747-5.776-13.063-7.02-22.325-22.358-22.325-22.358l-9.939-50.216z" fill="#FAED00"/><path d="M47.48 110.494s-3.815-7.144-7.382-7.6c-3.552-.457-10.008-2.902-9.593-1.534.415 1.368 4.493 1.879 4.824 2.708.332.829-6.262 1.437-8.128 1.396-1.866-.042-6.22-.567-6.165.373.055.94 7.437 5.472 12.938 5.431 5.502-.042 12.055 2.694 12.055 2.694l1.451-3.468z" fill="#FFBDAC"/><path d="M111.358 118.468s-2.834 4.546-7.7 9.631c-5.861 6.122-14.667 13.003-24.993 13.584-4.935.276-9.593-1.202-13.796-3.538h-.013c-11.889-6.619-20.044-20.092-20.044-20.092-1.645-6.149 1.354-9.728 1.354-9.728s25.352 7.559 27.91 6.771c10.284-3.178 17.459-30.069 23.541-38.664 5.087-7.2 22.878-9.41 22.878-9.41l-9.137 51.446z" fill="#FAED00"/><path d="M103.66 128.098c-5.861 6.122-14.667 13.003-24.993 13.584-4.935.276-9.594-1.203-13.796-3.538.484.111 12.704 2.75 18.427-5.61 5.847-8.54 12.565-22.331 19.602-16.886 3.027 2.335 2.419 7.42.76 12.45z" fill="#E8DC00"/><path d="M166.955 124.147c-.483 3.883-1.23 8.028-2.253 12.423-1.617 6.909-4.423 9.617-5.64 10.515a3.488 3.488 0 01-.594.374l-21.648 5.306-7.616 1.865-24.012-7.185s-10.934-30.511-6.538-47.688c4.396-17.176 7.52-25.343 7.52-25.343s15.606-6.356 49.239-.719c-.014 0 16.007 14.952 11.542 50.452z" fill="#FAED00"/><path d="M140.869 267c-9.495 0-19.168-.038-28.869-.038-5.484 0-10.968 0-16.439-.039 2.453-33.728 7.799-83.149 10.183-104.609.731-6.615 1.185-10.538 1.185-10.538h32.065v1.308c0 2.307.028 7.653.083 15.499.166 19.576.606 54.843 1.792 98.417z" fill="#209F6D"/><path d="M176.872 267c-11.538 0-23.766 0-36.298-.038-9.52 0-19.22-.038-28.948-.038-2.929-18.477.374-69.022 2.197-93.216.097-1.363.194-2.65.291-3.824.027-.379.055-.757.096-1.136.415-5.187.677-8.254.677-8.254l4.74-1.136 1.713-.416 3.979-.947 12.685-2.991.69-.151 18.198-4.316s1.008 3.71 2.57 9.957c5.057 20.256 15.959 67.319 17.244 101.735.055 1.477.11 3.067.166 4.771z" fill="#209F6D"/><path d="M159.656 122.101c2.917 5.279 6.4 7.877 6.4 7.877-.843 11.746-5.792 16.209-7.008 17.093l-.595.18-18.841 1.824s8.349-2.929 10.008-8.263c1.645-5.348-1.023-12.161 1.175-20.479 1.922-7.338 3.746-7.476 8.861 1.768z" fill="#E8DC00"/><path d="M104.821 146.174s4.769 3.772 14.252 3.965c11.321.222 39.383-2.888 39.383-2.888s1.244 3.483 1.203 7.158c0 0-34.269 8.637-54.133 1.258 0 0-2.557-4.823-.705-9.493z" fill="#1F4F5E"/><path d="M121.513 153.858a6.126 6.126 0 00-.248-1.603c-.042-.125-.07-.249-.125-.373a5.832 5.832 0 00-.954-1.728c-.94-1.202-2.322-1.948-3.843-1.948-1.23 0-2.35.483-3.234 1.299-.083.083-.18.166-.263.248a5.935 5.935 0 00-1.313 2.142 6.56 6.56 0 00-.373 2.17c0 1.285.373 2.473.995 3.441a5.362 5.362 0 001.811 1.755 4.628 4.628 0 002.35.649c1.299 0 2.488-.539 3.4-1.437 1.092-1.078 1.77-2.653 1.77-4.408.027-.083.027-.152.027-.207zm-1.714.179c0 2.156-1.396 3.938-3.165 4.118h-.014c-.097.014-.194.014-.277.014a2.69 2.69 0 01-.995-.18 3.195 3.195 0 01-.981-.566c-.899-.746-1.479-1.99-1.479-3.386 0-.801.193-1.534.511-2.169.346-.664.829-1.202 1.424-1.548a2.96 2.96 0 011.507-.428c.304 0 .608.055.898.138.774.249 1.438.815 1.894 1.561.055.083.097.166.152.263a4.65 4.65 0 01.511 2.128v.055h.014z" fill="#E8DC00"/><path d="M144.979 68.597c-1.272-2.405-4.935-14.606-4.908-20.95l-1.092.18-18.274 3.068s.414 4.878.428 9.466v.11c.028 3.98-.055 5.943.747 10.89.359 2.224-.401 18.226 7.257 17.065 2.723-.414 16.685-18.254 15.842-19.83z" fill="#FFBDAC"/><path d="M120.69 50.895s.415 4.878.429 9.466c10.229-.249 15.634-8.139 17.846-12.52l-18.275 3.054z" fill="#FFA58E"/><path d="M117.276 56.602s24.191.4 24.219-14.661c.014-15.062 3.152-25.164-12.303-26.062-15.455-.898-18.454 4.85-19.685 9.88-1.23 5.03 1.48 30.36 7.769 30.843z" fill="#FFBDAC"/><path d="M118.175 15.505s6.621 17.674 16.795 20.286c10.174 2.612 14.584-.11 14.584-.11s-7.797-6.191-9.414-17.011c-.014.014-16.961-11.566-21.965-3.165z" fill="#1F4F5E"/><path d="M119.818 16.943s-4.907 1.837-6.939 5.416c-1.977 3.496-3.663 8.14-3.276 13.833 0 0-4.99-12.009.622-18.807 5.958-7.214 9.593-.442 9.593-.442z" fill="#1F4F5E"/><path d="M127.022 88.73s15.759-17.301 16.395-24.266c0 0 3.276.07 9.289 3.179a.962.962 0 01.457 1.243c-1.175 2.778-5.226 11.829-9.096 14.482 0 0-3.332-.484-5.958-1.575 0 0 1.659 2.777 2.972 4.435 0-.013-7.257 4.05-14.059 2.502z" fill="#E8DC00"/><path d="M121.155 64.174s.359 11.124 5.875 24.555c0 0-7.465-1.464-11.266-6.757 0 0 1.202-2.819 2.225-3.468 0 0-2.239-.898-3.649.4 0 0-1.493-9.81-.36-11.538.457-.705 6.014-3.51 7.175-3.192z" fill="#E8DC00"/><path d="M128.209 88.73a1.2 1.2 0 00-1.189-1.202c-.663 0-1.189.525-1.203 1.189a1.2 1.2 0 001.189 1.202c.664 0 1.203-.525 1.203-1.188zm-6.431 16.832a1.2 1.2 0 00-1.188-1.203 1.2 1.2 0 00-1.203 1.189 1.2 1.2 0 001.189 1.202c.663 0 1.202-.525 1.202-1.188zm-1.296 19.773a1.2 1.2 0 00-1.189-1.203 1.2 1.2 0 00-1.203 1.189c0 .663.526 1.188 1.189 1.202.664 0 1.203-.525 1.203-1.188z" fill="#1F4F5E"/><path d="M216.496 114.598v5.376a1.876 1.876 0 01-1.866 1.865h-3.857a1.876 1.876 0 01-1.866-1.865v-5.376c0-1.022.843-1.865 1.866-1.865h3.857c1.023 0 1.866.843 1.866 1.865z" fill="url(#paint0_linear)"/><path d="M216.496 114.598v2.999a1.876 1.876 0 01-1.866 1.866h-3.857a1.876 1.876 0 01-1.866-1.866v-2.999c0-1.022.843-1.865 1.866-1.865h3.857c1.023 0 1.866.843 1.866 1.865z" fill="#22D327"/><path d="M259.17 117.28c0 2.75-.567 5.376-1.576 7.766-3.041 7.172-10.174 12.23-18.427 12.23h-5.723c-7.299 0-13.713-3.966-17.21-9.839a19.855 19.855 0 01-2.792-10.157c0-2.75.566-5.375 1.576-7.766 3.041-7.172 10.174-12.23 18.426-12.23h5.723c7.506 0 14.072 4.188 17.501 10.337a19.9 19.9 0 012.502 9.659z" fill="url(#paint1_linear)"/><path d="M242.553 128.791l-1.866 12.105a1.47 1.47 0 001.423 1.851h4.908a2.81 2.81 0 002.502-1.52l7.616-15.2-14.583 2.764z" fill="url(#paint2_linear)"/><path d="M231.386 128.998l1.493 11.897a1.471 1.471 0 01-1.424 1.852h-4.907a2.808 2.808 0 01-2.502-1.52l-7.824-13.805 15.164 1.576z" fill="url(#paint3_linear)"/><path d="M263.929 122.725c-.11 0-.221-.014-.332-.042-.871-.235-1.368-1.271-1.299-2.708.069-1.41.663-2.902 1.617-4.09a8.164 8.164 0 011.466-1.382 4.144 4.144 0 00-1.079-1.189c-.801-.594-1.631-.773-2.529-.525-2.419.664-4.479 4.118-4.645 4.505a.412.412 0 01-.774-.276c.069-.221.677-1.244 1.507-2.28 1.465-1.783 2.737-2.46 3.538-2.709 1.203-.373 2.337-.166 3.387.622a5 5 0 011.286 1.41c.829-.47 1.769-.788 2.792-.954a.407.407 0 11.138.802c-.94.152-1.797.442-2.543.87.235.567.373 1.175.442 1.852a7.925 7.925 0 01-.76 4.104c-.608 1.271-1.41 1.99-2.212 1.99zm1.825-7.476a6.753 6.753 0 00-1.203 1.147c-.857 1.05-1.382 2.377-1.437 3.62-.042.981.235 1.755.691 1.88.456.124 1.119-.498 1.603-1.493.526-1.091.788-2.473.678-3.675a5.676 5.676 0 00-.332-1.479z" fill="url(#paint4_linear)"/><path d="M256.668 107.621c.47 2.308.096 5.597-.512 7.352-4.036 11.607-13.519 13.694-23.223 14.578-6.898.622-16.699-2.114-16.699-2.114a19.855 19.855 0 01-2.792-10.157c0-2.75.566-5.375 1.576-7.766 3.041-7.172 10.174-12.23 18.426-12.23h5.723c7.506.015 14.072 4.188 17.501 10.337z" fill="#22D327"/><path d="M231.092 102.301h-7.865c-.788 0-1.438-.484-1.438-1.078V90.486c0-.18.055-.346.152-.498.387-.552 1.396-.787 2.143-.359 2.985 1.686 7.879 5.375 8.432 11.525.055.622-.595 1.147-1.424 1.147z" fill="#22D327"/><path d="M223.545 102.301h-.318c-.788 0-1.438-.484-1.438-1.078V90.486a.91.91 0 01.152-.497c.028.027.069.055.097.096 1.714 1.908 4.174 5.638 3.483 10.876-.11.76-.954 1.34-1.976 1.34z" fill="url(#paint5_linear)"/><path d="M219.396 109.473a1.174 1.174 0 112.348 0 1.174 1.174 0 01-2.348 0z" fill="#1F4F5E"/><path d="M60.08 103.727H1.87v.841h58.21v-.841z" fill="#C9E6DD"/><path d="M60.673 104.569H1.272v.841h59.401v-.841z" fill="#209F6D"/><path d="M61.496 105.41H.459v.842h61.038v-.842zM57.66 71.582H3.226v32.144H57.66V71.582z" fill="#2A9E3E"/><path d="M61.355 72.2H0l31.233-15.827 30.122 15.828z" fill="#C9E6DD"/><path d="M9.309 70.086l42.739-.094-20.826-10.824L9.309 70.086z" fill="#22D327"/><path d="M60.057 72.2H1.603v1.356h58.454V72.2z" fill="#2A9E3E"/><path d="M11.69 71.582H5.937v2.08h5.753v-2.08zm-1.288 2.081h-3.17v30.064h3.17V73.663zm13.733-2.081h-5.753v2.08h5.753v-2.08zm-1.289 2.08h-3.169v30.064h3.17V73.662zM43.7 71.581h-5.754v2.08H43.7v-2.08zm-1.302 2.082h-3.169v30.064h3.169V73.663zm13.019-2.081h-5.753v2.08h5.753v-2.08zm-1.296 2.08h-3.168v30.064h3.168V73.662z" fill="#C9E6DD"/><path d="M34.381 103.726h-7.904V95.1a3.707 3.707 0 013.707-3.706h.701a3.498 3.498 0 013.496 3.495v8.837zM27.832 85.07h-3.73v-4.067c0-.97.783-1.754 1.754-1.754h.327c.912 0 1.65.737 1.65 1.649v4.173zm-10.919 0h-3.73v-4.067c0-.97.783-1.754 1.754-1.754h.327c.912 0 1.649.737 1.649 1.649v4.173zm0 12.497h-3.73v-4.068c0-.97.783-1.753 1.754-1.753h.327c.912 0 1.649.736 1.649 1.648v4.173zm31.63-12.497h-3.73v-4.067c0-.97.784-1.754 1.754-1.754h.328c.912 0 1.648.737 1.648 1.649v4.173zm0 12.497h-3.73v-4.068c0-.97.784-1.753 1.754-1.753h.328c.912 0 1.648.736 1.648 1.648v4.173zM37.258 85.07h-3.73v-4.067c0-.97.783-1.754 1.753-1.754h.328c.912 0 1.648.737 1.648 1.649v4.173z" fill="#22D327"/><defs><linearGradient id="paint0_linear" x1="212.702" y1="112.733" x2="212.702" y2="121.839" gradientUnits="userSpaceOnUse"><stop stop-color="#2A9E3E"/><stop offset="1" stop-color="#28A265"/></linearGradient><linearGradient id="paint1_linear" x1="236.306" y1="97.285" x2="236.306" y2="137.276" gradientUnits="userSpaceOnUse"><stop stop-color="#2A9E3E"/><stop offset="1" stop-color="#28A265"/></linearGradient><linearGradient id="paint2_linear" x1="248.886" y1="126.027" x2="248.886" y2="142.747" gradientUnits="userSpaceOnUse"><stop stop-color="#2A9E3E"/><stop offset="1" stop-color="#28A265"/></linearGradient><linearGradient id="paint3_linear" x1="224.576" y1="127.422" x2="224.576" y2="142.747" gradientUnits="userSpaceOnUse"><stop stop-color="#2A9E3E"/><stop offset="1" stop-color="#28A265"/></linearGradient><linearGradient id="paint4_linear" x1="262.837" y1="111.849" x2="262.837" y2="122.725" gradientUnits="userSpaceOnUse"><stop stop-color="#2A9E3E"/><stop offset="1" stop-color="#28A265"/></linearGradient><linearGradient id="paint5_linear" x1="223.715" y1="89.989" x2="223.715" y2="102.301" gradientUnits="userSpaceOnUse"><stop stop-color="#2A9E3E"/><stop offset="1" stop-color="#28A265"/></linearGradient></defs></svg>