<svg width="413" height="40" viewBox="0 0 413 40" fill="none" xmlns="http://www.w3.org/2000/svg"><path d="M163.33 8.8h-4.308v23.886h4.589l13.111-18.173v18.173h4.308V8.8h-4.682L163.33 26.691V8.8zm41.207 23.886h4.308V8.8h-4.308v9.649h-13.111v-9.65h-4.308v23.887h4.308V22.382h13.111v10.304zm20.322 0c5.807 0 9.366-2.06 9.366-6.932 0-3.09-1.311-4.965-4.308-5.527 2.435-.936 3.559-2.81 3.559-5.526 0-3.935-2.716-5.902-8.055-5.902h-10.395v23.887h9.833zm-5.525-3.934v-6.557h5.9c2.997 0 4.683.843 4.683 3.185 0 2.248-1.499 3.372-4.777 3.372h-5.806zm0-9.836v-6.183h5.619c2.997 0 4.308 1.03 4.308 2.904 0 2.061-1.686 3.279-4.402 3.279h-5.525zm35.026-.468h-10.957v-5.715h12.268V8.8h-16.576v23.887h16.951v-3.934h-12.643v-6.464h10.957v-3.84zm26.316 6.37c-1.404 2.435-4.308 4.309-8.522 4.309-5.525-.094-8.335-3.747-8.335-8.43 0-5.06 3.184-8.432 8.429-8.432 3.558 0 6.462 2.061 7.96 4.216v-5.902c-1.405-1.03-4.214-2.154-7.96-2.154-7.961 0-13.018 5.058-13.018 12.271 0 7.681 5.151 12.365 13.018 12.365 4.12 0 7.305-1.592 8.428-2.997v-5.246zM302.778 8.8h-20.229v3.933h7.961v19.953h4.308V12.733h8.054V8.8h-.094zm7.867 0h-4.308v23.886h4.589l13.111-18.173v18.173h4.308V8.8h-4.682l-13.018 17.892V8.8zm23.975 23.886h19.667v4.403h4.027v-8.337h-2.809V8.799h-4.308v19.953h-12.363V8.799h-4.308v23.887h.094zM366.462 8.8h-4.308v23.886h4.589l13.111-18.173v18.173h4.308V8.8h-4.682l-13.018 17.892V8.8zm28.189 0h-4.308v23.886h4.589l13.112-18.173v18.173h4.308V8.8h-4.683l-13.018 17.892V8.8z" fill="#333F48"/><path d="M117.677 12.312l5.548-4.106H104.66v24.549h18.565v-4.106H109.99v-6.29h11.269v-4.063H109.99v-5.984h7.687zM89.765 28.649h-5.504v-6.77h5.504c3.364 0 4.936 1.135 4.936 3.406 0 2.272-1.66 3.364-4.936 3.364zm.917-10.877h-6.464v-5.46h10.308l5.548-4.106H78.932v24.505h11.052c6.202 0 9.74-2.795 9.74-7.731.044-4.63-3.188-7.208-9.042-7.208zm47.482 3.932h-4.674v-9.392h4.674c3.407 0 5.242 1.66 5.242 4.718 0 3.014-1.879 4.674-5.242 4.674zm.087-13.498h-10.09v24.549h5.285V25.81h4.805c6.465 0 10.44-3.407 10.44-8.824s-3.975-8.78-10.44-8.78zm-68.405 19.22a9.768 9.768 0 01-4.586 1.136c-4.761 0-8.256-3.408-8.256-8.125 0-4.718 3.495-8.081 8.256-8.081 1.703 0 3.407.524 4.805 1.529l3.8-2.796-.262-.218c-2.228-1.966-5.198-2.97-8.561-2.97-3.67 0-7.033 1.222-9.392 3.494-2.446 2.359-3.757 5.591-3.713 8.955-.044 3.407 1.267 6.683 3.713 9.085 2.534 2.403 5.897 3.713 9.348 3.626 3.8 0 7.163-1.31 9.391-3.757l-3.45-2.533-1.093.655z" fill="#21A038"/><g clip-path="url(#clip0)" fill-rule="evenodd" clip-rule="evenodd"><path d="M19.875.125c4.776 0 9.158 1.683 12.585 4.492l-3.423 2.737a15.545 15.545 0 00-9.164-2.97C11.247 4.384 4.257 11.376 4.257 20c0 8.626 6.992 15.616 15.616 15.616 8.626 0 15.616-6.992 15.616-15.616 0-.199-.004-.398-.01-.596l3.969-2.866c.199 1.125.3 2.281.3 3.462 0 10.977-8.898 19.875-19.875 19.875S0 30.977 0 20 8.898.125 19.875.125z" fill="url(#paint0_linear)"/><path d="M12.398 15.156L19.875 20 36.009 8.174l2.397 3.894L19.875 25.61l-7.477-4.667v-5.788z" fill="#229E39"/></g><defs><linearGradient id="paint0_linear" x1="23.121" y1=".125" x2="2.068" y2="28.508" gradientUnits="userSpaceOnUse"><stop stop-color="#0187C8"/><stop offset=".313" stop-color="#08A652"/><stop offset=".724" stop-color="#08A652"/><stop offset="1" stop-color="#FAEF23"/></linearGradient><clipPath id="clip0"><path fill="#fff" transform="translate(0 .125)" d="M0 0h39.75v39.75H0z"/></clipPath></defs></svg>