<svg xmlns="http://www.w3.org/2000/svg" xmlns:xlink="http://www.w3.org/1999/xlink"><defs><clipPath id="clip0"><path fill="#fff" transform="translate(.251 .428)" d="M0 0h11.738v23.475H0z"/></clipPath><clipPath id="clip0"><path fill="#fff" transform="translate(.477 .5)" d="M0 0h20.023v20.023H0z"/></clipPath></defs><symbol id="arrow-left" viewBox="0 0 64 64"><path fill-rule="evenodd" clip-rule="evenodd" d="M32 60a28 28 0 110-56 28 28 0 010 56zm0-60a32 32 0 100 64 32 32 0 000-64zm14 30a2 2 0 010 4H22.828l8.588 8.584a2.003 2.003 0 01-2.832 2.832l-12-12a1.999 1.999 0 010-2.832l12-12a2.003 2.003 0 012.832 2.832L22.828 30H46z" fill="#AC95BA"/></symbol><symbol id="arrow-right" viewBox="0 0 64 64"><path fill-rule="evenodd" clip-rule="evenodd" d="M32 60a28 28 0 100-56 28 28 0 000 56zm0-60a32 32 0 110 64 32 32 0 010-64zM18 30a2 2 0 000 4h23.172l-8.588 8.584a2.003 2.003 0 002.832 2.832l12-12a1.999 1.999 0 000-2.832l-12-12a2.003 2.003 0 00-2.832 2.832L41.172 30H18z" fill="#AC95BA"/></symbol><symbol id="soc-fb" viewBox="0 0 12 24"><g clip-path="url(#clip0)"><path d="M3.248 23.903V12.888H.25V8.922h2.997V5.535c0-2.662 1.77-5.107 5.848-5.107 1.651 0 2.872.154 2.872.154l-.096 3.704s-1.245-.012-2.604-.012c-1.47 0-1.707.659-1.707 1.752v2.896h4.428l-.193 3.966H7.561v11.015H3.248z" fill="currentColor"/></g></symbol><symbol id="soc-ok" viewBox="0 0 14 24"><path d="M7.19.255c-3.243 0-5.881 2.729-5.881 6.083s2.638 6.082 5.88 6.082c3.244 0 5.88-2.728 5.88-6.082 0-3.354-2.636-6.083-5.88-6.083zm0 3.564c1.342 0 2.434 1.131 2.434 2.52 0 1.387-1.092 2.517-2.434 2.517-1.343 0-2.435-1.13-2.435-2.518S5.848 3.82 7.19 3.82zm-4.85 8.808a1.706 1.706 0 00-1.486.834c-.507.834-.264 1.934.54 2.458 1.063.69 2.217 1.18 3.414 1.462l-3.286 3.401a1.826 1.826 0 000 2.52 1.69 1.69 0 001.218.522c.441 0 .882-.174 1.219-.522l3.229-3.342 3.231 3.342a1.681 1.681 0 002.436 0 1.824 1.824 0 000-2.52l-3.288-3.4a10.819 10.819 0 003.414-1.463c.806-.524 1.049-1.626.542-2.458-.508-.834-1.57-1.085-2.377-.56a7.257 7.257 0 01-7.916 0 1.673 1.673 0 00-.89-.274z" fill="currentColor"/></symbol><symbol id="soc-tw" viewBox="0 0 21 21"><g clip-path="url(#clip0)"><path d="M20.5 4.12c-.133.283-.383.64-.747 1.072a5.506 5.506 0 01-1.35 1.138c.014.12.025.23.033.335.058 1.604-.327 3.268-.86 4.654-1.033 2.578-2.616 4.652-4.877 6.06-2.358 1.353-5.104 1.64-7.634 1.396-1.68-.193-3.336-.742-4.588-1.775 2.29.274 4.427-.505 6.117-1.763-1.877.047-3.24-1.31-3.884-2.88.29.076.593.067.87.045.34-.032.664-.064.982-.134-1.196-.386-2.243-1.096-2.79-2.165a4.667 4.667 0 01-.469-2.054c.561.295 1.236.583 1.853.558-.932-.79-1.68-1.8-1.82-2.958-.087-.965.155-1.847.503-2.667C3.234 4.515 4.8 5.777 6.605 6.553c1.235.506 2.466.776 3.739.782-.147-1.137-.033-2.237.502-3.17.63-1.003 1.548-1.585 2.578-1.875a3.806 3.806 0 013.817 1.183c.977-.106 1.912-.539 2.657-.982-.317.958-.932 1.91-1.83 2.366A11.575 11.575 0 0020.5 4.12z" fill="currentColor"/></g></symbol><symbol id="soc-vk" viewBox="0 0 24 14"><path fill-rule="evenodd" clip-rule="evenodd" d="M12.167 13.644h1.395s.419-.07.628-.28c.21-.209.21-.627.21-.627s0-1.814.836-2.093c.837-.28 1.954 1.814 3.07 2.581.837.628 1.465.489 1.465.489l3.07-.07s1.604-.07.836-1.396c-.07-.07-.418-.906-2.302-2.65-1.953-1.814-1.674-1.465.628-4.605 1.395-1.883 1.954-3 1.814-3.558-.14-.488-1.186-.348-1.186-.348h-3.488s-.28-.07-.419.07a.75.75 0 00-.279.348s-.558 1.465-1.255 2.72c-1.535 2.582-2.163 2.722-2.372 2.582-.558-.349-.419-1.535-.419-2.302 0-2.512.419-3.558-.767-3.837-.349-.07-.628-.14-1.605-.14-1.255 0-2.302 0-2.86.28-.419.209-.698.627-.488.627.209 0 .767.14 1.046.489.28.628.28 1.674.28 1.674s.208 3-.49 3.349c-.488.279-1.115-.28-2.51-2.651-.698-1.186-1.256-2.582-1.256-2.582s-.07-.279-.28-.418c-.209-.14-.558-.21-.558-.21H1.634s-.489 0-.698.21c-.14.21 0 .558 0 .558s2.581 6 5.511 9.069c2.721 2.93 5.72 2.72 5.72 2.72z" fill="currentColor"/></symbol></svg>