<svg width="199" height="45" viewBox="0 0 199 45" fill="none" xmlns="http://www.w3.org/2000/svg"><path d="M57.549 1.817V0h-12.37v1.817h5.975l-9.023 32.039-8.725-32.039h5.378V0H23.067v1.817h4.9l-8.963 32.039-8.725-32.039h5.318V0H0v1.817h3.944L15.597 45h1.972L28.505 6.178l.3-1.393L38.784 45h1.971L52.887 1.817h4.662zm4.422 9.085c-6.394 0-10.1 3.997-10.16 11.447v6.359c.06 7.45 3.766 11.447 10.1 11.447 6.335 0 10.1-3.998 10.1-11.447v-6.36c.06-7.449-3.646-11.446-10.04-11.446zm5.199 21.016c0 6.117-1.733 7.026-5.2 7.026-3.465 0-5.198-.909-5.198-6.905v-12.96c0-5.997 1.733-6.905 5.199-6.905 3.466 0 5.199.908 5.199 7.025v12.719zm52.29-21.561h-1.554l-8.665 27.98h-2.689v1.212h8.127v-1.211h-3.884l2.629-8.54h7.35l2.331 8.54h-3.048v1.211h9.801v-1.211h-2.629l-7.769-27.981zm-5.677 18.35l3.406-11.143h.299l2.988 11.144h-6.693zm-11.534 9.63V12.175h2.689v-1.212h-7.53L89.46 33.674l-7.59-22.712H74.4v1.212h2.63v26.164h-2.45v1.211h7.829v-1.211h-3.705V13.506l8.844 26.891h1.255l9.323-26.649-.06 24.53h-2.869v1.21h10.04v-1.21l-2.988.06zm42.848-26.163h4.004V31.07l-11.773-20.047v-.06h-6.872v1.21h2.45v26.165h-2.45v1.211h7.768v-1.211h-4.063V14.657l14.94 25.498v-.06.06h1.255V12.174h2.629v-1.212h-7.888v1.212zm10.936 19.502c-1.494 0-2.689 1.393-2.689 3.028 0 1.696 1.195 3.028 2.689 3.028s2.689-1.393 2.689-3.028c0-1.696-1.195-3.028-2.689-3.028zm19.422-15.444c-.06-.061-.06-.122-.12-.182a1.124 1.124 0 00-.418-.364c-.359-.242-.897-.424-1.673-.424-2.032 0-2.988 1.03-3.885 2.423-.597.909-1.195 2.12-1.554 2.847 0-.364-.119-1.151-.537-2.362-.598-1.636-1.136-2.18-1.255-2.241h-4.781v1.211h3.048v18.896h-3.048v1.212h10.876v-1.212h-4.303V22.833a25.88 25.88 0 012.271-4.3c1.076-1.393 1.674-1.817 2.271-1.817.299 0 .299 1.272.299 1.877v.363c0 2.726.837 3.453 1.793 3.453 1.016 0 1.793-.666 1.793-3.452-.06-1.03-.299-2.06-.777-2.726 0 0 .059.061 0 0zm21.155 19.683c-.538 0-.598-.545-.598-.605V15.807h-3.586v16.11c-.059.061-2.39 4.604-5.617 4.604-1.673 0-2.211-.909-2.211-1.938V15.807h-6.753v1.212h3.167v15.686s-.119 5.027 5.319 5.027c3.645 0 5.737-3.392 6.095-3.997v.121c-.059 1.938.598 3.21 1.554 3.27H199v-1.21h-2.39z" fill="#1F4F5E"/></svg>